G04 #@! TF.GenerationSoftware,KiCad,Pcbnew,(5.1.2)-2*
G04 #@! TF.CreationDate,2019-06-30T10:01:43-04:00*
G04 #@! TF.ProjectId,controller,636f6e74-726f-46c6-9c65-722e6b696361,rev?*
G04 #@! TF.SameCoordinates,Original*
G04 #@! TF.FileFunction,Soldermask,Top*
G04 #@! TF.FilePolarity,Negative*
%FSLAX46Y46*%
G04 Gerber Fmt 4.6, Leading zero omitted, Abs format (unit mm)*
G04 Created by KiCad (PCBNEW (5.1.2)-2) date 2019-06-30 10:01:43*
%MOMM*%
%LPD*%
G04 APERTURE LIST*
%ADD10C,0.100000*%
G04 APERTURE END LIST*
D10*
G36*
X201035256Y-148251298D02*
G01*
X201141579Y-148272447D01*
X201442042Y-148396903D01*
X201712451Y-148577585D01*
X201942415Y-148807549D01*
X202123097Y-149077958D01*
X202247553Y-149378421D01*
X202311000Y-149697391D01*
X202311000Y-150022609D01*
X202247553Y-150341579D01*
X202123097Y-150642042D01*
X201942415Y-150912451D01*
X201712451Y-151142415D01*
X201442042Y-151323097D01*
X201141579Y-151447553D01*
X201035256Y-151468702D01*
X200822611Y-151511000D01*
X200497389Y-151511000D01*
X200284744Y-151468702D01*
X200178421Y-151447553D01*
X199877958Y-151323097D01*
X199607549Y-151142415D01*
X199377585Y-150912451D01*
X199196903Y-150642042D01*
X199072447Y-150341579D01*
X199009000Y-150022609D01*
X199009000Y-149697391D01*
X199072447Y-149378421D01*
X199196903Y-149077958D01*
X199377585Y-148807549D01*
X199607549Y-148577585D01*
X199877958Y-148396903D01*
X200178421Y-148272447D01*
X200284744Y-148251298D01*
X200497389Y-148209000D01*
X200822611Y-148209000D01*
X201035256Y-148251298D01*
X201035256Y-148251298D01*
G37*
G36*
X54985256Y-148251298D02*
G01*
X55091579Y-148272447D01*
X55392042Y-148396903D01*
X55662451Y-148577585D01*
X55892415Y-148807549D01*
X56073097Y-149077958D01*
X56197553Y-149378421D01*
X56261000Y-149697391D01*
X56261000Y-150022609D01*
X56197553Y-150341579D01*
X56073097Y-150642042D01*
X55892415Y-150912451D01*
X55662451Y-151142415D01*
X55392042Y-151323097D01*
X55091579Y-151447553D01*
X54985256Y-151468702D01*
X54772611Y-151511000D01*
X54447389Y-151511000D01*
X54234744Y-151468702D01*
X54128421Y-151447553D01*
X53827958Y-151323097D01*
X53557549Y-151142415D01*
X53327585Y-150912451D01*
X53146903Y-150642042D01*
X53022447Y-150341579D01*
X52959000Y-150022609D01*
X52959000Y-149697391D01*
X53022447Y-149378421D01*
X53146903Y-149077958D01*
X53327585Y-148807549D01*
X53557549Y-148577585D01*
X53827958Y-148396903D01*
X54128421Y-148272447D01*
X54234744Y-148251298D01*
X54447389Y-148209000D01*
X54772611Y-148209000D01*
X54985256Y-148251298D01*
X54985256Y-148251298D01*
G37*
G36*
X232591000Y-151311000D02*
G01*
X229689000Y-151311000D01*
X229689000Y-148409000D01*
X232591000Y-148409000D01*
X232591000Y-151311000D01*
X232591000Y-151311000D01*
G37*
G36*
X214661000Y-151161000D02*
G01*
X212059000Y-151161000D01*
X212059000Y-148559000D01*
X214661000Y-148559000D01*
X214661000Y-151161000D01*
X214661000Y-151161000D01*
G37*
G36*
X219519472Y-146568412D02*
G01*
X219615040Y-146577825D01*
X219860280Y-146652218D01*
X220086294Y-146773025D01*
X220137899Y-146815376D01*
X220284397Y-146935603D01*
X220404624Y-147082101D01*
X220446975Y-147133706D01*
X220567782Y-147359720D01*
X220642175Y-147604960D01*
X220667294Y-147860000D01*
X220642175Y-148115040D01*
X220567782Y-148360280D01*
X220446975Y-148586294D01*
X220404624Y-148637899D01*
X220284397Y-148784397D01*
X220137899Y-148904624D01*
X220086294Y-148946975D01*
X219860280Y-149067782D01*
X219615040Y-149142175D01*
X219519472Y-149151588D01*
X219423906Y-149161000D01*
X219296094Y-149161000D01*
X219200528Y-149151588D01*
X219104960Y-149142175D01*
X218859720Y-149067782D01*
X218633706Y-148946975D01*
X218582101Y-148904624D01*
X218435603Y-148784397D01*
X218315376Y-148637899D01*
X218273025Y-148586294D01*
X218152218Y-148360280D01*
X218077825Y-148115040D01*
X218052706Y-147860000D01*
X218077825Y-147604960D01*
X218152218Y-147359720D01*
X218273025Y-147133706D01*
X218315376Y-147082101D01*
X218435603Y-146935603D01*
X218582101Y-146815376D01*
X218633706Y-146773025D01*
X218859720Y-146652218D01*
X219104960Y-146577825D01*
X219200528Y-146568412D01*
X219296094Y-146559000D01*
X219423906Y-146559000D01*
X219519472Y-146568412D01*
X219519472Y-146568412D01*
G37*
G36*
X207519472Y-146568412D02*
G01*
X207615040Y-146577825D01*
X207860280Y-146652218D01*
X208086294Y-146773025D01*
X208137899Y-146815376D01*
X208284397Y-146935603D01*
X208404624Y-147082101D01*
X208446975Y-147133706D01*
X208567782Y-147359720D01*
X208642175Y-147604960D01*
X208667294Y-147860000D01*
X208642175Y-148115040D01*
X208567782Y-148360280D01*
X208446975Y-148586294D01*
X208404624Y-148637899D01*
X208284397Y-148784397D01*
X208137899Y-148904624D01*
X208086294Y-148946975D01*
X207860280Y-149067782D01*
X207615040Y-149142175D01*
X207519472Y-149151588D01*
X207423906Y-149161000D01*
X207296094Y-149161000D01*
X207200528Y-149151588D01*
X207104960Y-149142175D01*
X206859720Y-149067782D01*
X206633706Y-148946975D01*
X206582101Y-148904624D01*
X206435603Y-148784397D01*
X206315376Y-148637899D01*
X206273025Y-148586294D01*
X206152218Y-148360280D01*
X206077825Y-148115040D01*
X206052706Y-147860000D01*
X206077825Y-147604960D01*
X206152218Y-147359720D01*
X206273025Y-147133706D01*
X206315376Y-147082101D01*
X206435603Y-146935603D01*
X206582101Y-146815376D01*
X206633706Y-146773025D01*
X206859720Y-146652218D01*
X207104960Y-146577825D01*
X207200528Y-146568412D01*
X207296094Y-146559000D01*
X207423906Y-146559000D01*
X207519472Y-146568412D01*
X207519472Y-146568412D01*
G37*
G36*
X231563241Y-143464760D02*
G01*
X231827305Y-143574139D01*
X232064958Y-143732934D01*
X232267066Y-143935042D01*
X232425861Y-144172695D01*
X232535240Y-144436759D01*
X232591000Y-144717088D01*
X232591000Y-145002912D01*
X232535240Y-145283241D01*
X232425861Y-145547305D01*
X232267066Y-145784958D01*
X232064958Y-145987066D01*
X231827305Y-146145861D01*
X231563241Y-146255240D01*
X231282912Y-146311000D01*
X230997088Y-146311000D01*
X230716759Y-146255240D01*
X230452695Y-146145861D01*
X230215042Y-145987066D01*
X230012934Y-145784958D01*
X229854139Y-145547305D01*
X229744760Y-145283241D01*
X229689000Y-145002912D01*
X229689000Y-144717088D01*
X229744760Y-144436759D01*
X229854139Y-144172695D01*
X230012934Y-143935042D01*
X230215042Y-143732934D01*
X230452695Y-143574139D01*
X230716759Y-143464760D01*
X230997088Y-143409000D01*
X231282912Y-143409000D01*
X231563241Y-143464760D01*
X231563241Y-143464760D01*
G37*
G36*
X232591000Y-139881000D02*
G01*
X229689000Y-139881000D01*
X229689000Y-136979000D01*
X232591000Y-136979000D01*
X232591000Y-139881000D01*
X232591000Y-139881000D01*
G37*
G36*
X54704425Y-136414599D02*
G01*
X54828621Y-136439302D01*
X54965022Y-136495801D01*
X55087779Y-136577825D01*
X55192175Y-136682221D01*
X55274199Y-136804978D01*
X55330698Y-136941379D01*
X55359500Y-137086181D01*
X55359500Y-137233819D01*
X55330698Y-137378621D01*
X55274199Y-137515022D01*
X55192175Y-137637779D01*
X55087779Y-137742175D01*
X54965022Y-137824199D01*
X54828621Y-137880698D01*
X54704425Y-137905401D01*
X54683820Y-137909500D01*
X54536180Y-137909500D01*
X54515575Y-137905401D01*
X54391379Y-137880698D01*
X54254978Y-137824199D01*
X54132221Y-137742175D01*
X54027825Y-137637779D01*
X53945801Y-137515022D01*
X53889302Y-137378621D01*
X53860500Y-137233819D01*
X53860500Y-137086181D01*
X53889302Y-136941379D01*
X53945801Y-136804978D01*
X54027825Y-136682221D01*
X54132221Y-136577825D01*
X54254978Y-136495801D01*
X54391379Y-136439302D01*
X54515575Y-136414599D01*
X54536180Y-136410500D01*
X54683820Y-136410500D01*
X54704425Y-136414599D01*
X54704425Y-136414599D01*
G37*
G36*
X62324425Y-136414599D02*
G01*
X62448621Y-136439302D01*
X62585022Y-136495801D01*
X62707779Y-136577825D01*
X62812175Y-136682221D01*
X62894199Y-136804978D01*
X62950698Y-136941379D01*
X62979500Y-137086181D01*
X62979500Y-137233819D01*
X62950698Y-137378621D01*
X62894199Y-137515022D01*
X62812175Y-137637779D01*
X62707779Y-137742175D01*
X62585022Y-137824199D01*
X62448621Y-137880698D01*
X62324425Y-137905401D01*
X62303820Y-137909500D01*
X62156180Y-137909500D01*
X62135575Y-137905401D01*
X62011379Y-137880698D01*
X61874978Y-137824199D01*
X61752221Y-137742175D01*
X61647825Y-137637779D01*
X61565801Y-137515022D01*
X61509302Y-137378621D01*
X61480500Y-137233819D01*
X61480500Y-137086181D01*
X61509302Y-136941379D01*
X61565801Y-136804978D01*
X61647825Y-136682221D01*
X61752221Y-136577825D01*
X61874978Y-136495801D01*
X62011379Y-136439302D01*
X62135575Y-136414599D01*
X62156180Y-136410500D01*
X62303820Y-136410500D01*
X62324425Y-136414599D01*
X62324425Y-136414599D01*
G37*
G36*
X66134425Y-136414599D02*
G01*
X66258621Y-136439302D01*
X66395022Y-136495801D01*
X66517779Y-136577825D01*
X66622175Y-136682221D01*
X66704199Y-136804978D01*
X66760698Y-136941379D01*
X66789500Y-137086181D01*
X66789500Y-137233819D01*
X66760698Y-137378621D01*
X66704199Y-137515022D01*
X66622175Y-137637779D01*
X66517779Y-137742175D01*
X66395022Y-137824199D01*
X66258621Y-137880698D01*
X66134425Y-137905401D01*
X66113820Y-137909500D01*
X65966180Y-137909500D01*
X65945575Y-137905401D01*
X65821379Y-137880698D01*
X65684978Y-137824199D01*
X65562221Y-137742175D01*
X65457825Y-137637779D01*
X65375801Y-137515022D01*
X65319302Y-137378621D01*
X65290500Y-137233819D01*
X65290500Y-137086181D01*
X65319302Y-136941379D01*
X65375801Y-136804978D01*
X65457825Y-136682221D01*
X65562221Y-136577825D01*
X65684978Y-136495801D01*
X65821379Y-136439302D01*
X65945575Y-136414599D01*
X65966180Y-136410500D01*
X66113820Y-136410500D01*
X66134425Y-136414599D01*
X66134425Y-136414599D01*
G37*
G36*
X73754425Y-136414599D02*
G01*
X73878621Y-136439302D01*
X74015022Y-136495801D01*
X74137779Y-136577825D01*
X74242175Y-136682221D01*
X74324199Y-136804978D01*
X74380698Y-136941379D01*
X74409500Y-137086181D01*
X74409500Y-137233819D01*
X74380698Y-137378621D01*
X74324199Y-137515022D01*
X74242175Y-137637779D01*
X74137779Y-137742175D01*
X74015022Y-137824199D01*
X73878621Y-137880698D01*
X73754425Y-137905401D01*
X73733820Y-137909500D01*
X73586180Y-137909500D01*
X73565575Y-137905401D01*
X73441379Y-137880698D01*
X73304978Y-137824199D01*
X73182221Y-137742175D01*
X73077825Y-137637779D01*
X72995801Y-137515022D01*
X72939302Y-137378621D01*
X72910500Y-137233819D01*
X72910500Y-137086181D01*
X72939302Y-136941379D01*
X72995801Y-136804978D01*
X73077825Y-136682221D01*
X73182221Y-136577825D01*
X73304978Y-136495801D01*
X73441379Y-136439302D01*
X73565575Y-136414599D01*
X73586180Y-136410500D01*
X73733820Y-136410500D01*
X73754425Y-136414599D01*
X73754425Y-136414599D01*
G37*
G36*
X207519472Y-134368412D02*
G01*
X207615040Y-134377825D01*
X207860280Y-134452218D01*
X208086294Y-134573025D01*
X208137899Y-134615376D01*
X208284397Y-134735603D01*
X208357959Y-134825240D01*
X208446975Y-134933706D01*
X208567782Y-135159720D01*
X208642175Y-135404960D01*
X208667294Y-135660000D01*
X208642175Y-135915040D01*
X208567782Y-136160280D01*
X208446975Y-136386294D01*
X208404624Y-136437899D01*
X208284397Y-136584397D01*
X208165197Y-136682221D01*
X208086294Y-136746975D01*
X207860280Y-136867782D01*
X207615040Y-136942175D01*
X207519472Y-136951588D01*
X207423906Y-136961000D01*
X207296094Y-136961000D01*
X207200528Y-136951588D01*
X207104960Y-136942175D01*
X206859720Y-136867782D01*
X206633706Y-136746975D01*
X206554803Y-136682221D01*
X206435603Y-136584397D01*
X206315376Y-136437899D01*
X206273025Y-136386294D01*
X206152218Y-136160280D01*
X206077825Y-135915040D01*
X206052706Y-135660000D01*
X206077825Y-135404960D01*
X206152218Y-135159720D01*
X206273025Y-134933706D01*
X206362041Y-134825240D01*
X206435603Y-134735603D01*
X206582101Y-134615376D01*
X206633706Y-134573025D01*
X206859720Y-134452218D01*
X207104960Y-134377825D01*
X207200528Y-134368412D01*
X207296094Y-134359000D01*
X207423906Y-134359000D01*
X207519472Y-134368412D01*
X207519472Y-134368412D01*
G37*
G36*
X219519472Y-134368412D02*
G01*
X219615040Y-134377825D01*
X219860280Y-134452218D01*
X220086294Y-134573025D01*
X220137899Y-134615376D01*
X220284397Y-134735603D01*
X220357959Y-134825240D01*
X220446975Y-134933706D01*
X220567782Y-135159720D01*
X220642175Y-135404960D01*
X220667294Y-135660000D01*
X220642175Y-135915040D01*
X220567782Y-136160280D01*
X220446975Y-136386294D01*
X220404624Y-136437899D01*
X220284397Y-136584397D01*
X220165197Y-136682221D01*
X220086294Y-136746975D01*
X219860280Y-136867782D01*
X219615040Y-136942175D01*
X219519472Y-136951588D01*
X219423906Y-136961000D01*
X219296094Y-136961000D01*
X219200528Y-136951588D01*
X219104960Y-136942175D01*
X218859720Y-136867782D01*
X218633706Y-136746975D01*
X218554803Y-136682221D01*
X218435603Y-136584397D01*
X218315376Y-136437899D01*
X218273025Y-136386294D01*
X218152218Y-136160280D01*
X218077825Y-135915040D01*
X218052706Y-135660000D01*
X218077825Y-135404960D01*
X218152218Y-135159720D01*
X218273025Y-134933706D01*
X218362041Y-134825240D01*
X218435603Y-134735603D01*
X218582101Y-134615376D01*
X218633706Y-134573025D01*
X218859720Y-134452218D01*
X219104960Y-134377825D01*
X219200528Y-134368412D01*
X219296094Y-134359000D01*
X219423906Y-134359000D01*
X219519472Y-134368412D01*
X219519472Y-134368412D01*
G37*
G36*
X231563241Y-132034760D02*
G01*
X231827305Y-132144139D01*
X232064958Y-132302934D01*
X232267066Y-132505042D01*
X232425861Y-132742695D01*
X232535240Y-133006759D01*
X232591000Y-133287088D01*
X232591000Y-133572912D01*
X232535240Y-133853241D01*
X232425861Y-134117305D01*
X232267066Y-134354958D01*
X232064958Y-134557066D01*
X231827305Y-134715861D01*
X231563241Y-134825240D01*
X231282912Y-134881000D01*
X230997088Y-134881000D01*
X230716759Y-134825240D01*
X230452695Y-134715861D01*
X230215042Y-134557066D01*
X230012934Y-134354958D01*
X229854139Y-134117305D01*
X229744760Y-133853241D01*
X229689000Y-133572912D01*
X229689000Y-133287088D01*
X229744760Y-133006759D01*
X229854139Y-132742695D01*
X230012934Y-132505042D01*
X230215042Y-132302934D01*
X230452695Y-132144139D01*
X230716759Y-132034760D01*
X230997088Y-131979000D01*
X231282912Y-131979000D01*
X231563241Y-132034760D01*
X231563241Y-132034760D01*
G37*
G36*
X151326368Y-132144139D02*
G01*
X151486153Y-132175922D01*
X151578194Y-132214047D01*
X151708359Y-132267963D01*
X151908342Y-132401587D01*
X152078413Y-132571658D01*
X152212037Y-132771641D01*
X152304078Y-132993848D01*
X152351000Y-133229741D01*
X152351000Y-133470259D01*
X152304078Y-133706152D01*
X152212037Y-133928359D01*
X152078413Y-134128342D01*
X151908342Y-134298413D01*
X151708359Y-134432037D01*
X151578194Y-134485953D01*
X151486153Y-134524078D01*
X151368205Y-134547539D01*
X151250259Y-134571000D01*
X151009741Y-134571000D01*
X150891795Y-134547539D01*
X150773847Y-134524078D01*
X150681806Y-134485953D01*
X150551641Y-134432037D01*
X150351658Y-134298413D01*
X150181587Y-134128342D01*
X150047963Y-133928359D01*
X149955922Y-133706152D01*
X149909000Y-133470259D01*
X149909000Y-133229741D01*
X149955922Y-132993848D01*
X150047963Y-132771641D01*
X150181587Y-132571658D01*
X150351658Y-132401587D01*
X150551641Y-132267963D01*
X150681806Y-132214047D01*
X150773847Y-132175922D01*
X150933632Y-132144139D01*
X151009741Y-132129000D01*
X151250259Y-132129000D01*
X151326368Y-132144139D01*
X151326368Y-132144139D01*
G37*
G36*
X156326368Y-132144139D02*
G01*
X156486153Y-132175922D01*
X156578194Y-132214047D01*
X156708359Y-132267963D01*
X156908342Y-132401587D01*
X157078413Y-132571658D01*
X157212037Y-132771641D01*
X157304078Y-132993848D01*
X157351000Y-133229741D01*
X157351000Y-133470259D01*
X157304078Y-133706152D01*
X157212037Y-133928359D01*
X157078413Y-134128342D01*
X156908342Y-134298413D01*
X156708359Y-134432037D01*
X156578194Y-134485953D01*
X156486153Y-134524078D01*
X156368205Y-134547539D01*
X156250259Y-134571000D01*
X156009741Y-134571000D01*
X155891795Y-134547539D01*
X155773847Y-134524078D01*
X155681806Y-134485953D01*
X155551641Y-134432037D01*
X155351658Y-134298413D01*
X155181587Y-134128342D01*
X155047963Y-133928359D01*
X154955922Y-133706152D01*
X154909000Y-133470259D01*
X154909000Y-133229741D01*
X154955922Y-132993848D01*
X155047963Y-132771641D01*
X155181587Y-132571658D01*
X155351658Y-132401587D01*
X155551641Y-132267963D01*
X155681806Y-132214047D01*
X155773847Y-132175922D01*
X155933632Y-132144139D01*
X156009741Y-132129000D01*
X156250259Y-132129000D01*
X156326368Y-132144139D01*
X156326368Y-132144139D01*
G37*
G36*
X177996368Y-132144139D02*
G01*
X178156153Y-132175922D01*
X178248194Y-132214047D01*
X178378359Y-132267963D01*
X178578342Y-132401587D01*
X178748413Y-132571658D01*
X178882037Y-132771641D01*
X178974078Y-132993848D01*
X179021000Y-133229741D01*
X179021000Y-133470259D01*
X178974078Y-133706152D01*
X178882037Y-133928359D01*
X178748413Y-134128342D01*
X178578342Y-134298413D01*
X178378359Y-134432037D01*
X178248194Y-134485953D01*
X178156153Y-134524078D01*
X178038205Y-134547539D01*
X177920259Y-134571000D01*
X177679741Y-134571000D01*
X177561795Y-134547539D01*
X177443847Y-134524078D01*
X177351806Y-134485953D01*
X177221641Y-134432037D01*
X177021658Y-134298413D01*
X176851587Y-134128342D01*
X176717963Y-133928359D01*
X176625922Y-133706152D01*
X176579000Y-133470259D01*
X176579000Y-133229741D01*
X176625922Y-132993848D01*
X176717963Y-132771641D01*
X176851587Y-132571658D01*
X177021658Y-132401587D01*
X177221641Y-132267963D01*
X177351806Y-132214047D01*
X177443847Y-132175922D01*
X177603632Y-132144139D01*
X177679741Y-132129000D01*
X177920259Y-132129000D01*
X177996368Y-132144139D01*
X177996368Y-132144139D01*
G37*
G36*
X182996368Y-132144139D02*
G01*
X183156153Y-132175922D01*
X183248194Y-132214047D01*
X183378359Y-132267963D01*
X183578342Y-132401587D01*
X183748413Y-132571658D01*
X183882037Y-132771641D01*
X183974078Y-132993848D01*
X184021000Y-133229741D01*
X184021000Y-133470259D01*
X183974078Y-133706152D01*
X183882037Y-133928359D01*
X183748413Y-134128342D01*
X183578342Y-134298413D01*
X183378359Y-134432037D01*
X183248194Y-134485953D01*
X183156153Y-134524078D01*
X183038205Y-134547539D01*
X182920259Y-134571000D01*
X182679741Y-134571000D01*
X182561795Y-134547539D01*
X182443847Y-134524078D01*
X182351806Y-134485953D01*
X182221641Y-134432037D01*
X182021658Y-134298413D01*
X181851587Y-134128342D01*
X181717963Y-133928359D01*
X181625922Y-133706152D01*
X181579000Y-133470259D01*
X181579000Y-133229741D01*
X181625922Y-132993848D01*
X181717963Y-132771641D01*
X181851587Y-132571658D01*
X182021658Y-132401587D01*
X182221641Y-132267963D01*
X182351806Y-132214047D01*
X182443847Y-132175922D01*
X182603632Y-132144139D01*
X182679741Y-132129000D01*
X182920259Y-132129000D01*
X182996368Y-132144139D01*
X182996368Y-132144139D01*
G37*
G36*
X187996368Y-132144139D02*
G01*
X188156153Y-132175922D01*
X188248194Y-132214047D01*
X188378359Y-132267963D01*
X188578342Y-132401587D01*
X188748413Y-132571658D01*
X188882037Y-132771641D01*
X188974078Y-132993848D01*
X189021000Y-133229741D01*
X189021000Y-133470259D01*
X188974078Y-133706152D01*
X188882037Y-133928359D01*
X188748413Y-134128342D01*
X188578342Y-134298413D01*
X188378359Y-134432037D01*
X188248194Y-134485953D01*
X188156153Y-134524078D01*
X188038205Y-134547539D01*
X187920259Y-134571000D01*
X187679741Y-134571000D01*
X187561795Y-134547539D01*
X187443847Y-134524078D01*
X187351806Y-134485953D01*
X187221641Y-134432037D01*
X187021658Y-134298413D01*
X186851587Y-134128342D01*
X186717963Y-133928359D01*
X186625922Y-133706152D01*
X186579000Y-133470259D01*
X186579000Y-133229741D01*
X186625922Y-132993848D01*
X186717963Y-132771641D01*
X186851587Y-132571658D01*
X187021658Y-132401587D01*
X187221641Y-132267963D01*
X187351806Y-132214047D01*
X187443847Y-132175922D01*
X187603632Y-132144139D01*
X187679741Y-132129000D01*
X187920259Y-132129000D01*
X187996368Y-132144139D01*
X187996368Y-132144139D01*
G37*
G36*
X114496368Y-132144139D02*
G01*
X114656153Y-132175922D01*
X114748194Y-132214047D01*
X114878359Y-132267963D01*
X115078342Y-132401587D01*
X115248413Y-132571658D01*
X115382037Y-132771641D01*
X115474078Y-132993848D01*
X115521000Y-133229741D01*
X115521000Y-133470259D01*
X115474078Y-133706152D01*
X115382037Y-133928359D01*
X115248413Y-134128342D01*
X115078342Y-134298413D01*
X114878359Y-134432037D01*
X114748194Y-134485953D01*
X114656153Y-134524078D01*
X114538205Y-134547539D01*
X114420259Y-134571000D01*
X114179741Y-134571000D01*
X114061795Y-134547539D01*
X113943847Y-134524078D01*
X113851806Y-134485953D01*
X113721641Y-134432037D01*
X113521658Y-134298413D01*
X113351587Y-134128342D01*
X113217963Y-133928359D01*
X113125922Y-133706152D01*
X113079000Y-133470259D01*
X113079000Y-133229741D01*
X113125922Y-132993848D01*
X113217963Y-132771641D01*
X113351587Y-132571658D01*
X113521658Y-132401587D01*
X113721641Y-132267963D01*
X113851806Y-132214047D01*
X113943847Y-132175922D01*
X114103632Y-132144139D01*
X114179741Y-132129000D01*
X114420259Y-132129000D01*
X114496368Y-132144139D01*
X114496368Y-132144139D01*
G37*
G36*
X124496368Y-132144139D02*
G01*
X124656153Y-132175922D01*
X124748194Y-132214047D01*
X124878359Y-132267963D01*
X125078342Y-132401587D01*
X125248413Y-132571658D01*
X125382037Y-132771641D01*
X125474078Y-132993848D01*
X125521000Y-133229741D01*
X125521000Y-133470259D01*
X125474078Y-133706152D01*
X125382037Y-133928359D01*
X125248413Y-134128342D01*
X125078342Y-134298413D01*
X124878359Y-134432037D01*
X124748194Y-134485953D01*
X124656153Y-134524078D01*
X124538205Y-134547539D01*
X124420259Y-134571000D01*
X124179741Y-134571000D01*
X124061795Y-134547539D01*
X123943847Y-134524078D01*
X123851806Y-134485953D01*
X123721641Y-134432037D01*
X123521658Y-134298413D01*
X123351587Y-134128342D01*
X123217963Y-133928359D01*
X123125922Y-133706152D01*
X123079000Y-133470259D01*
X123079000Y-133229741D01*
X123125922Y-132993848D01*
X123217963Y-132771641D01*
X123351587Y-132571658D01*
X123521658Y-132401587D01*
X123721641Y-132267963D01*
X123851806Y-132214047D01*
X123943847Y-132175922D01*
X124103632Y-132144139D01*
X124179741Y-132129000D01*
X124420259Y-132129000D01*
X124496368Y-132144139D01*
X124496368Y-132144139D01*
G37*
G36*
X82746368Y-132144139D02*
G01*
X82906153Y-132175922D01*
X82998194Y-132214047D01*
X83128359Y-132267963D01*
X83328342Y-132401587D01*
X83498413Y-132571658D01*
X83632037Y-132771641D01*
X83724078Y-132993848D01*
X83771000Y-133229741D01*
X83771000Y-133470259D01*
X83724078Y-133706152D01*
X83632037Y-133928359D01*
X83498413Y-134128342D01*
X83328342Y-134298413D01*
X83128359Y-134432037D01*
X82998194Y-134485953D01*
X82906153Y-134524078D01*
X82788205Y-134547539D01*
X82670259Y-134571000D01*
X82429741Y-134571000D01*
X82311795Y-134547539D01*
X82193847Y-134524078D01*
X82101806Y-134485953D01*
X81971641Y-134432037D01*
X81771658Y-134298413D01*
X81601587Y-134128342D01*
X81467963Y-133928359D01*
X81375922Y-133706152D01*
X81329000Y-133470259D01*
X81329000Y-133229741D01*
X81375922Y-132993848D01*
X81467963Y-132771641D01*
X81601587Y-132571658D01*
X81771658Y-132401587D01*
X81971641Y-132267963D01*
X82101806Y-132214047D01*
X82193847Y-132175922D01*
X82353632Y-132144139D01*
X82429741Y-132129000D01*
X82670259Y-132129000D01*
X82746368Y-132144139D01*
X82746368Y-132144139D01*
G37*
G36*
X87746368Y-132144139D02*
G01*
X87906153Y-132175922D01*
X87998194Y-132214047D01*
X88128359Y-132267963D01*
X88328342Y-132401587D01*
X88498413Y-132571658D01*
X88632037Y-132771641D01*
X88724078Y-132993848D01*
X88771000Y-133229741D01*
X88771000Y-133470259D01*
X88724078Y-133706152D01*
X88632037Y-133928359D01*
X88498413Y-134128342D01*
X88328342Y-134298413D01*
X88128359Y-134432037D01*
X87998194Y-134485953D01*
X87906153Y-134524078D01*
X87788205Y-134547539D01*
X87670259Y-134571000D01*
X87429741Y-134571000D01*
X87311795Y-134547539D01*
X87193847Y-134524078D01*
X87101806Y-134485953D01*
X86971641Y-134432037D01*
X86771658Y-134298413D01*
X86601587Y-134128342D01*
X86467963Y-133928359D01*
X86375922Y-133706152D01*
X86329000Y-133470259D01*
X86329000Y-133229741D01*
X86375922Y-132993848D01*
X86467963Y-132771641D01*
X86601587Y-132571658D01*
X86771658Y-132401587D01*
X86971641Y-132267963D01*
X87101806Y-132214047D01*
X87193847Y-132175922D01*
X87353632Y-132144139D01*
X87429741Y-132129000D01*
X87670259Y-132129000D01*
X87746368Y-132144139D01*
X87746368Y-132144139D01*
G37*
G36*
X92746368Y-132144139D02*
G01*
X92906153Y-132175922D01*
X92998194Y-132214047D01*
X93128359Y-132267963D01*
X93328342Y-132401587D01*
X93498413Y-132571658D01*
X93632037Y-132771641D01*
X93724078Y-132993848D01*
X93771000Y-133229741D01*
X93771000Y-133470259D01*
X93724078Y-133706152D01*
X93632037Y-133928359D01*
X93498413Y-134128342D01*
X93328342Y-134298413D01*
X93128359Y-134432037D01*
X92998194Y-134485953D01*
X92906153Y-134524078D01*
X92788205Y-134547539D01*
X92670259Y-134571000D01*
X92429741Y-134571000D01*
X92311795Y-134547539D01*
X92193847Y-134524078D01*
X92101806Y-134485953D01*
X91971641Y-134432037D01*
X91771658Y-134298413D01*
X91601587Y-134128342D01*
X91467963Y-133928359D01*
X91375922Y-133706152D01*
X91329000Y-133470259D01*
X91329000Y-133229741D01*
X91375922Y-132993848D01*
X91467963Y-132771641D01*
X91601587Y-132571658D01*
X91771658Y-132401587D01*
X91971641Y-132267963D01*
X92101806Y-132214047D01*
X92193847Y-132175922D01*
X92353632Y-132144139D01*
X92429741Y-132129000D01*
X92670259Y-132129000D01*
X92746368Y-132144139D01*
X92746368Y-132144139D01*
G37*
G36*
X146326368Y-132144139D02*
G01*
X146486153Y-132175922D01*
X146578194Y-132214047D01*
X146708359Y-132267963D01*
X146908342Y-132401587D01*
X147078413Y-132571658D01*
X147212037Y-132771641D01*
X147304078Y-132993848D01*
X147351000Y-133229741D01*
X147351000Y-133470259D01*
X147304078Y-133706152D01*
X147212037Y-133928359D01*
X147078413Y-134128342D01*
X146908342Y-134298413D01*
X146708359Y-134432037D01*
X146578194Y-134485953D01*
X146486153Y-134524078D01*
X146368205Y-134547539D01*
X146250259Y-134571000D01*
X146009741Y-134571000D01*
X145891795Y-134547539D01*
X145773847Y-134524078D01*
X145681806Y-134485953D01*
X145551641Y-134432037D01*
X145351658Y-134298413D01*
X145181587Y-134128342D01*
X145047963Y-133928359D01*
X144955922Y-133706152D01*
X144909000Y-133470259D01*
X144909000Y-133229741D01*
X144955922Y-132993848D01*
X145047963Y-132771641D01*
X145181587Y-132571658D01*
X145351658Y-132401587D01*
X145551641Y-132267963D01*
X145681806Y-132214047D01*
X145773847Y-132175922D01*
X145933632Y-132144139D01*
X146009741Y-132129000D01*
X146250259Y-132129000D01*
X146326368Y-132144139D01*
X146326368Y-132144139D01*
G37*
G36*
X119496368Y-132144139D02*
G01*
X119656153Y-132175922D01*
X119748194Y-132214047D01*
X119878359Y-132267963D01*
X120078342Y-132401587D01*
X120248413Y-132571658D01*
X120382037Y-132771641D01*
X120474078Y-132993848D01*
X120521000Y-133229741D01*
X120521000Y-133470259D01*
X120474078Y-133706152D01*
X120382037Y-133928359D01*
X120248413Y-134128342D01*
X120078342Y-134298413D01*
X119878359Y-134432037D01*
X119748194Y-134485953D01*
X119656153Y-134524078D01*
X119538205Y-134547539D01*
X119420259Y-134571000D01*
X119179741Y-134571000D01*
X119061795Y-134547539D01*
X118943847Y-134524078D01*
X118851806Y-134485953D01*
X118721641Y-134432037D01*
X118521658Y-134298413D01*
X118351587Y-134128342D01*
X118217963Y-133928359D01*
X118125922Y-133706152D01*
X118079000Y-133470259D01*
X118079000Y-133229741D01*
X118125922Y-132993848D01*
X118217963Y-132771641D01*
X118351587Y-132571658D01*
X118521658Y-132401587D01*
X118721641Y-132267963D01*
X118851806Y-132214047D01*
X118943847Y-132175922D01*
X119103632Y-132144139D01*
X119179741Y-132129000D01*
X119420259Y-132129000D01*
X119496368Y-132144139D01*
X119496368Y-132144139D01*
G37*
G36*
X54704425Y-131334599D02*
G01*
X54828621Y-131359302D01*
X54965022Y-131415801D01*
X55087779Y-131497825D01*
X55192175Y-131602221D01*
X55274199Y-131724978D01*
X55330698Y-131861379D01*
X55359500Y-132006181D01*
X55359500Y-132153819D01*
X55330698Y-132298621D01*
X55274199Y-132435022D01*
X55192175Y-132557779D01*
X55087779Y-132662175D01*
X54965022Y-132744199D01*
X54828621Y-132800698D01*
X54704425Y-132825401D01*
X54683820Y-132829500D01*
X54536180Y-132829500D01*
X54515575Y-132825401D01*
X54391379Y-132800698D01*
X54254978Y-132744199D01*
X54132221Y-132662175D01*
X54027825Y-132557779D01*
X53945801Y-132435022D01*
X53889302Y-132298621D01*
X53860500Y-132153819D01*
X53860500Y-132006181D01*
X53889302Y-131861379D01*
X53945801Y-131724978D01*
X54027825Y-131602221D01*
X54132221Y-131497825D01*
X54254978Y-131415801D01*
X54391379Y-131359302D01*
X54515575Y-131334599D01*
X54536180Y-131330500D01*
X54683820Y-131330500D01*
X54704425Y-131334599D01*
X54704425Y-131334599D01*
G37*
G36*
X66134425Y-131334599D02*
G01*
X66258621Y-131359302D01*
X66395022Y-131415801D01*
X66517779Y-131497825D01*
X66622175Y-131602221D01*
X66704199Y-131724978D01*
X66760698Y-131861379D01*
X66789500Y-132006181D01*
X66789500Y-132153819D01*
X66760698Y-132298621D01*
X66704199Y-132435022D01*
X66622175Y-132557779D01*
X66517779Y-132662175D01*
X66395022Y-132744199D01*
X66258621Y-132800698D01*
X66134425Y-132825401D01*
X66113820Y-132829500D01*
X65966180Y-132829500D01*
X65945575Y-132825401D01*
X65821379Y-132800698D01*
X65684978Y-132744199D01*
X65562221Y-132662175D01*
X65457825Y-132557779D01*
X65375801Y-132435022D01*
X65319302Y-132298621D01*
X65290500Y-132153819D01*
X65290500Y-132006181D01*
X65319302Y-131861379D01*
X65375801Y-131724978D01*
X65457825Y-131602221D01*
X65562221Y-131497825D01*
X65684978Y-131415801D01*
X65821379Y-131359302D01*
X65945575Y-131334599D01*
X65966180Y-131330500D01*
X66113820Y-131330500D01*
X66134425Y-131334599D01*
X66134425Y-131334599D01*
G37*
G36*
X73754425Y-131334599D02*
G01*
X73878621Y-131359302D01*
X74015022Y-131415801D01*
X74137779Y-131497825D01*
X74242175Y-131602221D01*
X74324199Y-131724978D01*
X74380698Y-131861379D01*
X74409500Y-132006181D01*
X74409500Y-132153819D01*
X74380698Y-132298621D01*
X74324199Y-132435022D01*
X74242175Y-132557779D01*
X74137779Y-132662175D01*
X74015022Y-132744199D01*
X73878621Y-132800698D01*
X73754425Y-132825401D01*
X73733820Y-132829500D01*
X73586180Y-132829500D01*
X73565575Y-132825401D01*
X73441379Y-132800698D01*
X73304978Y-132744199D01*
X73182221Y-132662175D01*
X73077825Y-132557779D01*
X72995801Y-132435022D01*
X72939302Y-132298621D01*
X72910500Y-132153819D01*
X72910500Y-132006181D01*
X72939302Y-131861379D01*
X72995801Y-131724978D01*
X73077825Y-131602221D01*
X73182221Y-131497825D01*
X73304978Y-131415801D01*
X73441379Y-131359302D01*
X73565575Y-131334599D01*
X73586180Y-131330500D01*
X73733820Y-131330500D01*
X73754425Y-131334599D01*
X73754425Y-131334599D01*
G37*
G36*
X62324425Y-131334599D02*
G01*
X62448621Y-131359302D01*
X62585022Y-131415801D01*
X62707779Y-131497825D01*
X62812175Y-131602221D01*
X62894199Y-131724978D01*
X62950698Y-131861379D01*
X62979500Y-132006181D01*
X62979500Y-132153819D01*
X62950698Y-132298621D01*
X62894199Y-132435022D01*
X62812175Y-132557779D01*
X62707779Y-132662175D01*
X62585022Y-132744199D01*
X62448621Y-132800698D01*
X62324425Y-132825401D01*
X62303820Y-132829500D01*
X62156180Y-132829500D01*
X62135575Y-132825401D01*
X62011379Y-132800698D01*
X61874978Y-132744199D01*
X61752221Y-132662175D01*
X61647825Y-132557779D01*
X61565801Y-132435022D01*
X61509302Y-132298621D01*
X61480500Y-132153819D01*
X61480500Y-132006181D01*
X61509302Y-131861379D01*
X61565801Y-131724978D01*
X61647825Y-131602221D01*
X61752221Y-131497825D01*
X61874978Y-131415801D01*
X62011379Y-131359302D01*
X62135575Y-131334599D01*
X62156180Y-131330500D01*
X62303820Y-131330500D01*
X62324425Y-131334599D01*
X62324425Y-131334599D01*
G37*
G36*
X231563241Y-127034760D02*
G01*
X231827305Y-127144139D01*
X232064958Y-127302934D01*
X232267066Y-127505042D01*
X232425861Y-127742695D01*
X232535240Y-128006759D01*
X232591000Y-128287088D01*
X232591000Y-128572912D01*
X232535240Y-128853241D01*
X232425861Y-129117305D01*
X232267066Y-129354958D01*
X232064958Y-129557066D01*
X231827305Y-129715861D01*
X231563241Y-129825240D01*
X231282912Y-129881000D01*
X230997088Y-129881000D01*
X230716759Y-129825240D01*
X230452695Y-129715861D01*
X230215042Y-129557066D01*
X230012934Y-129354958D01*
X229854139Y-129117305D01*
X229744760Y-128853241D01*
X229689000Y-128572912D01*
X229689000Y-128287088D01*
X229744760Y-128006759D01*
X229854139Y-127742695D01*
X230012934Y-127505042D01*
X230215042Y-127302934D01*
X230452695Y-127144139D01*
X230716759Y-127034760D01*
X230997088Y-126979000D01*
X231282912Y-126979000D01*
X231563241Y-127034760D01*
X231563241Y-127034760D01*
G37*
G36*
X218321000Y-128151000D02*
G01*
X216019000Y-128151000D01*
X216019000Y-125849000D01*
X218321000Y-125849000D01*
X218321000Y-128151000D01*
X218321000Y-128151000D01*
G37*
G36*
X207179271Y-125860103D02*
G01*
X207235635Y-125865654D01*
X207452600Y-125931470D01*
X207452602Y-125931471D01*
X207652555Y-126038347D01*
X207827818Y-126182182D01*
X207971653Y-126357445D01*
X208066482Y-126534859D01*
X208078530Y-126557400D01*
X208144346Y-126774365D01*
X208166569Y-127000000D01*
X208144346Y-127225635D01*
X208083129Y-127427440D01*
X208078529Y-127442602D01*
X207971653Y-127642555D01*
X207827818Y-127817818D01*
X207652555Y-127961653D01*
X207452602Y-128068529D01*
X207452600Y-128068530D01*
X207235635Y-128134346D01*
X207179271Y-128139897D01*
X207066545Y-128151000D01*
X206953455Y-128151000D01*
X206840729Y-128139897D01*
X206784365Y-128134346D01*
X206567400Y-128068530D01*
X206567398Y-128068529D01*
X206367445Y-127961653D01*
X206192182Y-127817818D01*
X206048347Y-127642555D01*
X205941471Y-127442602D01*
X205936872Y-127427440D01*
X205875654Y-127225635D01*
X205853431Y-127000000D01*
X205875654Y-126774365D01*
X205941470Y-126557400D01*
X205953518Y-126534859D01*
X206048347Y-126357445D01*
X206192182Y-126182182D01*
X206367445Y-126038347D01*
X206567398Y-125931471D01*
X206567400Y-125931470D01*
X206784365Y-125865654D01*
X206840729Y-125860103D01*
X206953455Y-125849000D01*
X207066545Y-125849000D01*
X207179271Y-125860103D01*
X207179271Y-125860103D01*
G37*
G36*
X202042916Y-126207334D02*
G01*
X202151492Y-126240271D01*
X202151495Y-126240272D01*
X202187601Y-126259571D01*
X202251557Y-126293756D01*
X202339264Y-126365736D01*
X202402383Y-126442646D01*
X202419702Y-126459965D01*
X202440077Y-126473579D01*
X202462716Y-126482957D01*
X202486749Y-126487737D01*
X202511253Y-126487737D01*
X202535286Y-126482957D01*
X202557925Y-126473579D01*
X202578299Y-126459966D01*
X202595626Y-126442639D01*
X202609240Y-126422264D01*
X202618618Y-126399625D01*
X202623398Y-126375592D01*
X202624000Y-126363340D01*
X202624000Y-126199000D01*
X203776000Y-126199000D01*
X203776000Y-127801000D01*
X202624000Y-127801000D01*
X202624000Y-127636660D01*
X202621598Y-127612274D01*
X202614485Y-127588825D01*
X202602934Y-127567214D01*
X202587389Y-127548272D01*
X202568447Y-127532727D01*
X202546836Y-127521176D01*
X202523387Y-127514063D01*
X202499001Y-127511661D01*
X202474615Y-127514063D01*
X202451166Y-127521176D01*
X202429555Y-127532727D01*
X202402381Y-127557356D01*
X202339264Y-127634264D01*
X202251556Y-127706244D01*
X202187600Y-127740429D01*
X202151494Y-127759728D01*
X202151491Y-127759729D01*
X202042915Y-127792666D01*
X201930000Y-127803787D01*
X201817084Y-127792666D01*
X201708508Y-127759729D01*
X201708505Y-127759728D01*
X201672399Y-127740429D01*
X201608443Y-127706244D01*
X201520736Y-127634264D01*
X201448756Y-127546556D01*
X201405239Y-127465140D01*
X201391625Y-127444766D01*
X201374298Y-127427439D01*
X201353924Y-127413825D01*
X201331285Y-127404448D01*
X201307251Y-127399668D01*
X201282747Y-127399668D01*
X201258714Y-127404449D01*
X201236075Y-127413826D01*
X201215701Y-127427440D01*
X201198374Y-127444767D01*
X201184762Y-127465140D01*
X201141244Y-127546557D01*
X201069264Y-127634264D01*
X200981556Y-127706244D01*
X200917600Y-127740429D01*
X200881494Y-127759728D01*
X200881491Y-127759729D01*
X200772915Y-127792666D01*
X200660000Y-127803787D01*
X200547084Y-127792666D01*
X200438508Y-127759729D01*
X200438505Y-127759728D01*
X200402399Y-127740429D01*
X200338443Y-127706244D01*
X200250736Y-127634264D01*
X200178756Y-127546556D01*
X200135239Y-127465140D01*
X200125272Y-127446494D01*
X200119492Y-127427440D01*
X200092334Y-127337915D01*
X200084000Y-127253297D01*
X200084000Y-126746702D01*
X200092334Y-126662084D01*
X200125271Y-126553508D01*
X200125272Y-126553505D01*
X200178756Y-126453445D01*
X200178757Y-126453443D01*
X200250737Y-126365736D01*
X200338444Y-126293756D01*
X200402400Y-126259571D01*
X200438506Y-126240272D01*
X200438509Y-126240271D01*
X200547085Y-126207334D01*
X200660000Y-126196213D01*
X200772916Y-126207334D01*
X200881492Y-126240271D01*
X200881495Y-126240272D01*
X200917601Y-126259571D01*
X200981557Y-126293756D01*
X201069264Y-126365736D01*
X201141244Y-126453443D01*
X201157019Y-126482957D01*
X201184761Y-126534859D01*
X201198375Y-126555234D01*
X201215702Y-126572561D01*
X201236076Y-126586174D01*
X201258715Y-126595552D01*
X201282748Y-126600332D01*
X201307252Y-126600332D01*
X201331285Y-126595552D01*
X201353924Y-126586174D01*
X201374299Y-126572560D01*
X201391626Y-126555233D01*
X201405239Y-126534859D01*
X201448756Y-126453445D01*
X201448757Y-126453443D01*
X201520737Y-126365736D01*
X201608444Y-126293756D01*
X201672400Y-126259571D01*
X201708506Y-126240272D01*
X201708509Y-126240271D01*
X201817085Y-126207334D01*
X201930000Y-126196213D01*
X202042916Y-126207334D01*
X202042916Y-126207334D01*
G37*
G36*
X221931000Y-125411000D02*
G01*
X220029000Y-125411000D01*
X220029000Y-123509000D01*
X221931000Y-123509000D01*
X221931000Y-125411000D01*
X221931000Y-125411000D01*
G37*
G36*
X231563241Y-122034760D02*
G01*
X231827305Y-122144139D01*
X232064958Y-122302934D01*
X232267066Y-122505042D01*
X232425861Y-122742695D01*
X232535240Y-123006759D01*
X232591000Y-123287088D01*
X232591000Y-123572912D01*
X232535240Y-123853241D01*
X232425861Y-124117305D01*
X232267066Y-124354958D01*
X232064958Y-124557066D01*
X231827305Y-124715861D01*
X231563241Y-124825240D01*
X231282912Y-124881000D01*
X230997088Y-124881000D01*
X230716759Y-124825240D01*
X230452695Y-124715861D01*
X230215042Y-124557066D01*
X230012934Y-124354958D01*
X229854139Y-124117305D01*
X229744760Y-123853241D01*
X229689000Y-123572912D01*
X229689000Y-123287088D01*
X229744760Y-123006759D01*
X229854139Y-122742695D01*
X230012934Y-122505042D01*
X230215042Y-122302934D01*
X230452695Y-122144139D01*
X230716759Y-122034760D01*
X230997088Y-121979000D01*
X231282912Y-121979000D01*
X231563241Y-122034760D01*
X231563241Y-122034760D01*
G37*
G36*
X207176823Y-122351313D02*
G01*
X207337242Y-122399976D01*
X207404361Y-122435852D01*
X207485078Y-122478996D01*
X207614659Y-122585341D01*
X207721004Y-122714922D01*
X207721005Y-122714924D01*
X207800024Y-122862758D01*
X207848687Y-123023177D01*
X207865117Y-123190000D01*
X207848687Y-123356823D01*
X207800024Y-123517242D01*
X207759477Y-123593100D01*
X207721004Y-123665078D01*
X207614659Y-123794659D01*
X207485078Y-123901004D01*
X207485076Y-123901005D01*
X207337242Y-123980024D01*
X207176823Y-124028687D01*
X207051804Y-124041000D01*
X206968196Y-124041000D01*
X206843177Y-124028687D01*
X206682758Y-123980024D01*
X206534924Y-123901005D01*
X206534922Y-123901004D01*
X206405341Y-123794659D01*
X206298996Y-123665078D01*
X206260523Y-123593100D01*
X206219976Y-123517242D01*
X206171313Y-123356823D01*
X206154883Y-123190000D01*
X206171313Y-123023177D01*
X206219976Y-122862758D01*
X206298995Y-122714924D01*
X206298996Y-122714922D01*
X206405341Y-122585341D01*
X206534922Y-122478996D01*
X206615639Y-122435852D01*
X206682758Y-122399976D01*
X206843177Y-122351313D01*
X206968196Y-122339000D01*
X207051804Y-122339000D01*
X207176823Y-122351313D01*
X207176823Y-122351313D01*
G37*
G36*
X217418228Y-122371703D02*
G01*
X217573100Y-122435853D01*
X217712481Y-122528985D01*
X217831015Y-122647519D01*
X217924147Y-122786900D01*
X217988297Y-122941772D01*
X218021000Y-123106184D01*
X218021000Y-123273816D01*
X217988297Y-123438228D01*
X217924147Y-123593100D01*
X217831015Y-123732481D01*
X217712481Y-123851015D01*
X217573100Y-123944147D01*
X217418228Y-124008297D01*
X217253816Y-124041000D01*
X217086184Y-124041000D01*
X216921772Y-124008297D01*
X216766900Y-123944147D01*
X216627519Y-123851015D01*
X216508985Y-123732481D01*
X216415853Y-123593100D01*
X216351703Y-123438228D01*
X216319000Y-123273816D01*
X216319000Y-123106184D01*
X216351703Y-122941772D01*
X216415853Y-122786900D01*
X216508985Y-122647519D01*
X216627519Y-122528985D01*
X216766900Y-122435853D01*
X216921772Y-122371703D01*
X217086184Y-122339000D01*
X217253816Y-122339000D01*
X217418228Y-122371703D01*
X217418228Y-122371703D01*
G37*
G36*
X221257395Y-121005546D02*
G01*
X221430466Y-121077234D01*
X221487196Y-121115140D01*
X221586227Y-121181310D01*
X221718690Y-121313773D01*
X221718691Y-121313775D01*
X221822766Y-121469534D01*
X221894454Y-121642605D01*
X221931000Y-121826333D01*
X221931000Y-122013667D01*
X221894454Y-122197395D01*
X221822766Y-122370466D01*
X221803048Y-122399976D01*
X221718690Y-122526227D01*
X221586227Y-122658690D01*
X221507818Y-122711081D01*
X221430466Y-122762766D01*
X221257395Y-122834454D01*
X221073667Y-122871000D01*
X220886333Y-122871000D01*
X220702605Y-122834454D01*
X220529534Y-122762766D01*
X220452182Y-122711081D01*
X220373773Y-122658690D01*
X220241310Y-122526227D01*
X220156952Y-122399976D01*
X220137234Y-122370466D01*
X220065546Y-122197395D01*
X220029000Y-122013667D01*
X220029000Y-121826333D01*
X220065546Y-121642605D01*
X220137234Y-121469534D01*
X220241309Y-121313775D01*
X220241310Y-121313773D01*
X220373773Y-121181310D01*
X220472804Y-121115140D01*
X220529534Y-121077234D01*
X220702605Y-121005546D01*
X220886333Y-120969000D01*
X221073667Y-120969000D01*
X221257395Y-121005546D01*
X221257395Y-121005546D01*
G37*
G36*
X202042916Y-119857334D02*
G01*
X202151492Y-119890271D01*
X202151495Y-119890272D01*
X202187601Y-119909571D01*
X202251557Y-119943756D01*
X202339264Y-120015736D01*
X202402383Y-120092646D01*
X202419702Y-120109965D01*
X202440077Y-120123579D01*
X202462716Y-120132957D01*
X202486749Y-120137737D01*
X202511253Y-120137737D01*
X202535286Y-120132957D01*
X202557925Y-120123579D01*
X202578299Y-120109966D01*
X202595626Y-120092639D01*
X202609240Y-120072264D01*
X202618618Y-120049625D01*
X202623398Y-120025592D01*
X202624000Y-120013340D01*
X202624000Y-119849000D01*
X203776000Y-119849000D01*
X203776000Y-121451000D01*
X202624000Y-121451000D01*
X202624000Y-121286660D01*
X202621598Y-121262274D01*
X202614485Y-121238825D01*
X202602934Y-121217214D01*
X202587389Y-121198272D01*
X202568447Y-121182727D01*
X202546836Y-121171176D01*
X202523387Y-121164063D01*
X202499001Y-121161661D01*
X202474615Y-121164063D01*
X202451166Y-121171176D01*
X202429555Y-121182727D01*
X202402381Y-121207356D01*
X202339264Y-121284264D01*
X202251556Y-121356244D01*
X202187600Y-121390429D01*
X202151494Y-121409728D01*
X202151491Y-121409729D01*
X202042915Y-121442666D01*
X201930000Y-121453787D01*
X201817084Y-121442666D01*
X201708508Y-121409729D01*
X201708505Y-121409728D01*
X201672399Y-121390429D01*
X201608443Y-121356244D01*
X201520736Y-121284264D01*
X201448756Y-121196556D01*
X201405239Y-121115140D01*
X201391625Y-121094766D01*
X201374298Y-121077439D01*
X201353924Y-121063825D01*
X201331285Y-121054448D01*
X201307251Y-121049668D01*
X201282747Y-121049668D01*
X201258714Y-121054449D01*
X201236075Y-121063826D01*
X201215701Y-121077440D01*
X201198374Y-121094767D01*
X201184762Y-121115140D01*
X201141244Y-121196557D01*
X201069264Y-121284264D01*
X200981556Y-121356244D01*
X200917600Y-121390429D01*
X200881494Y-121409728D01*
X200881491Y-121409729D01*
X200772915Y-121442666D01*
X200660000Y-121453787D01*
X200547084Y-121442666D01*
X200438508Y-121409729D01*
X200438505Y-121409728D01*
X200402399Y-121390429D01*
X200338443Y-121356244D01*
X200250736Y-121284264D01*
X200178756Y-121196556D01*
X200135239Y-121115140D01*
X200125272Y-121096494D01*
X200119492Y-121077440D01*
X200092334Y-120987915D01*
X200084000Y-120903297D01*
X200084000Y-120396702D01*
X200092334Y-120312084D01*
X200125271Y-120203508D01*
X200125272Y-120203505D01*
X200178756Y-120103445D01*
X200178757Y-120103443D01*
X200250737Y-120015736D01*
X200338444Y-119943756D01*
X200402400Y-119909571D01*
X200438506Y-119890272D01*
X200438509Y-119890271D01*
X200547085Y-119857334D01*
X200660000Y-119846213D01*
X200772916Y-119857334D01*
X200881492Y-119890271D01*
X200881495Y-119890272D01*
X200917601Y-119909571D01*
X200981557Y-119943756D01*
X201069264Y-120015736D01*
X201141244Y-120103443D01*
X201176832Y-120170025D01*
X201184761Y-120184859D01*
X201198375Y-120205234D01*
X201215702Y-120222561D01*
X201236076Y-120236174D01*
X201258715Y-120245552D01*
X201282748Y-120250332D01*
X201307252Y-120250332D01*
X201331285Y-120245552D01*
X201353924Y-120236174D01*
X201374299Y-120222560D01*
X201391626Y-120205233D01*
X201405239Y-120184859D01*
X201448756Y-120103445D01*
X201448757Y-120103443D01*
X201520737Y-120015736D01*
X201608444Y-119943756D01*
X201672400Y-119909571D01*
X201708506Y-119890272D01*
X201708509Y-119890271D01*
X201817085Y-119857334D01*
X201930000Y-119846213D01*
X202042916Y-119857334D01*
X202042916Y-119857334D01*
G37*
G36*
X207258228Y-118561703D02*
G01*
X207413100Y-118625853D01*
X207552481Y-118718985D01*
X207671015Y-118837519D01*
X207764147Y-118976900D01*
X207828297Y-119131772D01*
X207861000Y-119296184D01*
X207861000Y-119463816D01*
X207828297Y-119628228D01*
X207764147Y-119783100D01*
X207671015Y-119922481D01*
X207552481Y-120041015D01*
X207413100Y-120134147D01*
X207258228Y-120198297D01*
X207093816Y-120231000D01*
X206926184Y-120231000D01*
X206761772Y-120198297D01*
X206606900Y-120134147D01*
X206467519Y-120041015D01*
X206348985Y-119922481D01*
X206255853Y-119783100D01*
X206191703Y-119628228D01*
X206159000Y-119463816D01*
X206159000Y-119296184D01*
X206191703Y-119131772D01*
X206255853Y-118976900D01*
X206348985Y-118837519D01*
X206467519Y-118718985D01*
X206606900Y-118625853D01*
X206761772Y-118561703D01*
X206926184Y-118529000D01*
X207093816Y-118529000D01*
X207258228Y-118561703D01*
X207258228Y-118561703D01*
G37*
G36*
X217336823Y-118541313D02*
G01*
X217497242Y-118589976D01*
X217629906Y-118660886D01*
X217645078Y-118668996D01*
X217774659Y-118775341D01*
X217881004Y-118904922D01*
X217881005Y-118904924D01*
X217960024Y-119052758D01*
X218008687Y-119213177D01*
X218025117Y-119380000D01*
X218008687Y-119546823D01*
X217960024Y-119707242D01*
X217919477Y-119783100D01*
X217881004Y-119855078D01*
X217774659Y-119984659D01*
X217645078Y-120091004D01*
X217645076Y-120091005D01*
X217497242Y-120170024D01*
X217336823Y-120218687D01*
X217211804Y-120231000D01*
X217128196Y-120231000D01*
X217003177Y-120218687D01*
X216842758Y-120170024D01*
X216694924Y-120091005D01*
X216694922Y-120091004D01*
X216565341Y-119984659D01*
X216458996Y-119855078D01*
X216420523Y-119783100D01*
X216379976Y-119707242D01*
X216331313Y-119546823D01*
X216314883Y-119380000D01*
X216331313Y-119213177D01*
X216379976Y-119052758D01*
X216458995Y-118904924D01*
X216458996Y-118904922D01*
X216565341Y-118775341D01*
X216694922Y-118668996D01*
X216710094Y-118660886D01*
X216842758Y-118589976D01*
X217003177Y-118541313D01*
X217128196Y-118529000D01*
X217211804Y-118529000D01*
X217336823Y-118541313D01*
X217336823Y-118541313D01*
G37*
G36*
X160308228Y-117291703D02*
G01*
X160463100Y-117355853D01*
X160602481Y-117448985D01*
X160721015Y-117567519D01*
X160814147Y-117706900D01*
X160878297Y-117861772D01*
X160911000Y-118026184D01*
X160911000Y-118193816D01*
X160878297Y-118358228D01*
X160814147Y-118513100D01*
X160721015Y-118652481D01*
X160602481Y-118771015D01*
X160463100Y-118864147D01*
X160308228Y-118928297D01*
X160143816Y-118961000D01*
X159976184Y-118961000D01*
X159811772Y-118928297D01*
X159656900Y-118864147D01*
X159517519Y-118771015D01*
X159398985Y-118652481D01*
X159305853Y-118513100D01*
X159241703Y-118358228D01*
X159209000Y-118193816D01*
X159209000Y-118026184D01*
X159241703Y-117861772D01*
X159305853Y-117706900D01*
X159398985Y-117567519D01*
X159517519Y-117448985D01*
X159656900Y-117355853D01*
X159811772Y-117291703D01*
X159976184Y-117259000D01*
X160143816Y-117259000D01*
X160308228Y-117291703D01*
X160308228Y-117291703D01*
G37*
G36*
X162808228Y-117291703D02*
G01*
X162963100Y-117355853D01*
X163102481Y-117448985D01*
X163221015Y-117567519D01*
X163314147Y-117706900D01*
X163378297Y-117861772D01*
X163411000Y-118026184D01*
X163411000Y-118193816D01*
X163378297Y-118358228D01*
X163314147Y-118513100D01*
X163221015Y-118652481D01*
X163102481Y-118771015D01*
X162963100Y-118864147D01*
X162808228Y-118928297D01*
X162643816Y-118961000D01*
X162476184Y-118961000D01*
X162311772Y-118928297D01*
X162156900Y-118864147D01*
X162017519Y-118771015D01*
X161898985Y-118652481D01*
X161805853Y-118513100D01*
X161741703Y-118358228D01*
X161709000Y-118193816D01*
X161709000Y-118026184D01*
X161741703Y-117861772D01*
X161805853Y-117706900D01*
X161898985Y-117567519D01*
X162017519Y-117448985D01*
X162156900Y-117355853D01*
X162311772Y-117291703D01*
X162476184Y-117259000D01*
X162643816Y-117259000D01*
X162808228Y-117291703D01*
X162808228Y-117291703D01*
G37*
G36*
X177679928Y-117291703D02*
G01*
X177834800Y-117355853D01*
X177974181Y-117448985D01*
X178092715Y-117567519D01*
X178185847Y-117706900D01*
X178249997Y-117861772D01*
X178282700Y-118026184D01*
X178282700Y-118193816D01*
X178249997Y-118358228D01*
X178185847Y-118513100D01*
X178092715Y-118652481D01*
X177974181Y-118771015D01*
X177834800Y-118864147D01*
X177679928Y-118928297D01*
X177515516Y-118961000D01*
X177347884Y-118961000D01*
X177183472Y-118928297D01*
X177028600Y-118864147D01*
X176889219Y-118771015D01*
X176770685Y-118652481D01*
X176677553Y-118513100D01*
X176613403Y-118358228D01*
X176580700Y-118193816D01*
X176580700Y-118026184D01*
X176613403Y-117861772D01*
X176677553Y-117706900D01*
X176770685Y-117567519D01*
X176889219Y-117448985D01*
X177028600Y-117355853D01*
X177183472Y-117291703D01*
X177347884Y-117259000D01*
X177515516Y-117259000D01*
X177679928Y-117291703D01*
X177679928Y-117291703D01*
G37*
G36*
X175179928Y-117291703D02*
G01*
X175334800Y-117355853D01*
X175474181Y-117448985D01*
X175592715Y-117567519D01*
X175685847Y-117706900D01*
X175749997Y-117861772D01*
X175782700Y-118026184D01*
X175782700Y-118193816D01*
X175749997Y-118358228D01*
X175685847Y-118513100D01*
X175592715Y-118652481D01*
X175474181Y-118771015D01*
X175334800Y-118864147D01*
X175179928Y-118928297D01*
X175015516Y-118961000D01*
X174847884Y-118961000D01*
X174683472Y-118928297D01*
X174528600Y-118864147D01*
X174389219Y-118771015D01*
X174270685Y-118652481D01*
X174177553Y-118513100D01*
X174113403Y-118358228D01*
X174080700Y-118193816D01*
X174080700Y-118026184D01*
X174113403Y-117861772D01*
X174177553Y-117706900D01*
X174270685Y-117567519D01*
X174389219Y-117448985D01*
X174528600Y-117355853D01*
X174683472Y-117291703D01*
X174847884Y-117259000D01*
X175015516Y-117259000D01*
X175179928Y-117291703D01*
X175179928Y-117291703D01*
G37*
G36*
X232591000Y-118291000D02*
G01*
X229689000Y-118291000D01*
X229689000Y-115389000D01*
X232591000Y-115389000D01*
X232591000Y-118291000D01*
X232591000Y-118291000D01*
G37*
G36*
X56104549Y-115076116D02*
G01*
X56215734Y-115098232D01*
X56425203Y-115184997D01*
X56613720Y-115310960D01*
X56774040Y-115471280D01*
X56900003Y-115659797D01*
X56965628Y-115818229D01*
X56986768Y-115869267D01*
X57031000Y-116091635D01*
X57031000Y-116318365D01*
X57008884Y-116429549D01*
X56986768Y-116540734D01*
X56900003Y-116750203D01*
X56774040Y-116938720D01*
X56613720Y-117099040D01*
X56425203Y-117225003D01*
X56215734Y-117311768D01*
X56104549Y-117333884D01*
X55993365Y-117356000D01*
X55766635Y-117356000D01*
X55655451Y-117333884D01*
X55544266Y-117311768D01*
X55334797Y-117225003D01*
X55146280Y-117099040D01*
X54985960Y-116938720D01*
X54859997Y-116750203D01*
X54773232Y-116540734D01*
X54751116Y-116429549D01*
X54729000Y-116318365D01*
X54729000Y-116091635D01*
X54773232Y-115869267D01*
X54794373Y-115818229D01*
X54859997Y-115659797D01*
X54985960Y-115471280D01*
X55146280Y-115310960D01*
X55334797Y-115184997D01*
X55544266Y-115098232D01*
X55655451Y-115076116D01*
X55766635Y-115054000D01*
X55993365Y-115054000D01*
X56104549Y-115076116D01*
X56104549Y-115076116D01*
G37*
G36*
X104999549Y-115076116D02*
G01*
X105110734Y-115098232D01*
X105320203Y-115184997D01*
X105508720Y-115310960D01*
X105669040Y-115471280D01*
X105795003Y-115659797D01*
X105860628Y-115818229D01*
X105881768Y-115869267D01*
X105926000Y-116091635D01*
X105926000Y-116318365D01*
X105903884Y-116429549D01*
X105881768Y-116540734D01*
X105795003Y-116750203D01*
X105669040Y-116938720D01*
X105508720Y-117099040D01*
X105320203Y-117225003D01*
X105110734Y-117311768D01*
X104999549Y-117333884D01*
X104888365Y-117356000D01*
X104661635Y-117356000D01*
X104550451Y-117333884D01*
X104439266Y-117311768D01*
X104229797Y-117225003D01*
X104041280Y-117099040D01*
X103880960Y-116938720D01*
X103754997Y-116750203D01*
X103668232Y-116540734D01*
X103646116Y-116429549D01*
X103624000Y-116318365D01*
X103624000Y-116091635D01*
X103668232Y-115869267D01*
X103689373Y-115818229D01*
X103754997Y-115659797D01*
X103880960Y-115471280D01*
X104041280Y-115310960D01*
X104229797Y-115184997D01*
X104439266Y-115098232D01*
X104550451Y-115076116D01*
X104661635Y-115054000D01*
X104888365Y-115054000D01*
X104999549Y-115076116D01*
X104999549Y-115076116D01*
G37*
G36*
X217336823Y-114731313D02*
G01*
X217497242Y-114779976D01*
X217629906Y-114850886D01*
X217645078Y-114858996D01*
X217774659Y-114965341D01*
X217881004Y-115094922D01*
X217881005Y-115094924D01*
X217960024Y-115242758D01*
X218008687Y-115403177D01*
X218025117Y-115570000D01*
X218008687Y-115736823D01*
X217960024Y-115897242D01*
X217919477Y-115973100D01*
X217881004Y-116045078D01*
X217774659Y-116174659D01*
X217645078Y-116281004D01*
X217645076Y-116281005D01*
X217497242Y-116360024D01*
X217336823Y-116408687D01*
X217211804Y-116421000D01*
X217128196Y-116421000D01*
X217003177Y-116408687D01*
X216842758Y-116360024D01*
X216694924Y-116281005D01*
X216694922Y-116281004D01*
X216565341Y-116174659D01*
X216458996Y-116045078D01*
X216420523Y-115973100D01*
X216379976Y-115897242D01*
X216331313Y-115736823D01*
X216314883Y-115570000D01*
X216331313Y-115403177D01*
X216379976Y-115242758D01*
X216458995Y-115094924D01*
X216458996Y-115094922D01*
X216565341Y-114965341D01*
X216694922Y-114858996D01*
X216710094Y-114850886D01*
X216842758Y-114779976D01*
X217003177Y-114731313D01*
X217128196Y-114719000D01*
X217211804Y-114719000D01*
X217336823Y-114731313D01*
X217336823Y-114731313D01*
G37*
G36*
X207258228Y-114751703D02*
G01*
X207413100Y-114815853D01*
X207552481Y-114908985D01*
X207671015Y-115027519D01*
X207764147Y-115166900D01*
X207828297Y-115321772D01*
X207861000Y-115486184D01*
X207861000Y-115653816D01*
X207828297Y-115818228D01*
X207764147Y-115973100D01*
X207671015Y-116112481D01*
X207552481Y-116231015D01*
X207413100Y-116324147D01*
X207258228Y-116388297D01*
X207093816Y-116421000D01*
X206926184Y-116421000D01*
X206761772Y-116388297D01*
X206606900Y-116324147D01*
X206467519Y-116231015D01*
X206348985Y-116112481D01*
X206255853Y-115973100D01*
X206191703Y-115818228D01*
X206159000Y-115653816D01*
X206159000Y-115486184D01*
X206191703Y-115321772D01*
X206255853Y-115166900D01*
X206348985Y-115027519D01*
X206467519Y-114908985D01*
X206606900Y-114815853D01*
X206761772Y-114751703D01*
X206926184Y-114719000D01*
X207093816Y-114719000D01*
X207258228Y-114751703D01*
X207258228Y-114751703D01*
G37*
G36*
X166536823Y-113461313D02*
G01*
X166697242Y-113509976D01*
X166764361Y-113545852D01*
X166845078Y-113588996D01*
X166974659Y-113695341D01*
X167081004Y-113824922D01*
X167081005Y-113824924D01*
X167160024Y-113972758D01*
X167208687Y-114133177D01*
X167225117Y-114300000D01*
X167208687Y-114466823D01*
X167160024Y-114627242D01*
X167119477Y-114703100D01*
X167081004Y-114775078D01*
X166974659Y-114904659D01*
X166845078Y-115011004D01*
X166845076Y-115011005D01*
X166697242Y-115090024D01*
X166536823Y-115138687D01*
X166411804Y-115151000D01*
X166328196Y-115151000D01*
X166203177Y-115138687D01*
X166042758Y-115090024D01*
X165894924Y-115011005D01*
X165894922Y-115011004D01*
X165765341Y-114904659D01*
X165658996Y-114775078D01*
X165620523Y-114703100D01*
X165579976Y-114627242D01*
X165531313Y-114466823D01*
X165514883Y-114300000D01*
X165531313Y-114133177D01*
X165579976Y-113972758D01*
X165658995Y-113824924D01*
X165658996Y-113824922D01*
X165765341Y-113695341D01*
X165894922Y-113588996D01*
X165975639Y-113545852D01*
X166042758Y-113509976D01*
X166203177Y-113461313D01*
X166328196Y-113449000D01*
X166411804Y-113449000D01*
X166536823Y-113461313D01*
X166536823Y-113461313D01*
G37*
G36*
X156458228Y-113481703D02*
G01*
X156613100Y-113545853D01*
X156752481Y-113638985D01*
X156871015Y-113757519D01*
X156964147Y-113896900D01*
X157028297Y-114051772D01*
X157061000Y-114216184D01*
X157061000Y-114383816D01*
X157028297Y-114548228D01*
X156964147Y-114703100D01*
X156871015Y-114842481D01*
X156752481Y-114961015D01*
X156613100Y-115054147D01*
X156458228Y-115118297D01*
X156293816Y-115151000D01*
X156126184Y-115151000D01*
X155961772Y-115118297D01*
X155806900Y-115054147D01*
X155667519Y-114961015D01*
X155548985Y-114842481D01*
X155455853Y-114703100D01*
X155391703Y-114548228D01*
X155359000Y-114383816D01*
X155359000Y-114216184D01*
X155391703Y-114051772D01*
X155455853Y-113896900D01*
X155548985Y-113757519D01*
X155667519Y-113638985D01*
X155806900Y-113545853D01*
X155961772Y-113481703D01*
X156126184Y-113449000D01*
X156293816Y-113449000D01*
X156458228Y-113481703D01*
X156458228Y-113481703D01*
G37*
G36*
X171088228Y-113481703D02*
G01*
X171243100Y-113545853D01*
X171382481Y-113638985D01*
X171501015Y-113757519D01*
X171594147Y-113896900D01*
X171658297Y-114051772D01*
X171691000Y-114216184D01*
X171691000Y-114383816D01*
X171658297Y-114548228D01*
X171594147Y-114703100D01*
X171501015Y-114842481D01*
X171382481Y-114961015D01*
X171243100Y-115054147D01*
X171088228Y-115118297D01*
X170923816Y-115151000D01*
X170756184Y-115151000D01*
X170591772Y-115118297D01*
X170436900Y-115054147D01*
X170297519Y-114961015D01*
X170178985Y-114842481D01*
X170085853Y-114703100D01*
X170021703Y-114548228D01*
X169989000Y-114383816D01*
X169989000Y-114216184D01*
X170021703Y-114051772D01*
X170085853Y-113896900D01*
X170178985Y-113757519D01*
X170297519Y-113638985D01*
X170436900Y-113545853D01*
X170591772Y-113481703D01*
X170756184Y-113449000D01*
X170923816Y-113449000D01*
X171088228Y-113481703D01*
X171088228Y-113481703D01*
G37*
G36*
X181166823Y-113461313D02*
G01*
X181327242Y-113509976D01*
X181394361Y-113545852D01*
X181475078Y-113588996D01*
X181604659Y-113695341D01*
X181711004Y-113824922D01*
X181711005Y-113824924D01*
X181790024Y-113972758D01*
X181838687Y-114133177D01*
X181855117Y-114300000D01*
X181838687Y-114466823D01*
X181790024Y-114627242D01*
X181749477Y-114703100D01*
X181711004Y-114775078D01*
X181604659Y-114904659D01*
X181475078Y-115011004D01*
X181475076Y-115011005D01*
X181327242Y-115090024D01*
X181166823Y-115138687D01*
X181041804Y-115151000D01*
X180958196Y-115151000D01*
X180833177Y-115138687D01*
X180672758Y-115090024D01*
X180524924Y-115011005D01*
X180524922Y-115011004D01*
X180395341Y-114904659D01*
X180288996Y-114775078D01*
X180250523Y-114703100D01*
X180209976Y-114627242D01*
X180161313Y-114466823D01*
X180144883Y-114300000D01*
X180161313Y-114133177D01*
X180209976Y-113972758D01*
X180288995Y-113824924D01*
X180288996Y-113824922D01*
X180395341Y-113695341D01*
X180524922Y-113588996D01*
X180605639Y-113545852D01*
X180672758Y-113509976D01*
X180833177Y-113461313D01*
X180958196Y-113449000D01*
X181041804Y-113449000D01*
X181166823Y-113461313D01*
X181166823Y-113461313D01*
G37*
G36*
X231563241Y-110444760D02*
G01*
X231827305Y-110554139D01*
X232064958Y-110712934D01*
X232267066Y-110915042D01*
X232425861Y-111152695D01*
X232535240Y-111416759D01*
X232591000Y-111697088D01*
X232591000Y-111982912D01*
X232535240Y-112263241D01*
X232425861Y-112527305D01*
X232267066Y-112764958D01*
X232064958Y-112967066D01*
X231827305Y-113125861D01*
X231563241Y-113235240D01*
X231282912Y-113291000D01*
X230997088Y-113291000D01*
X230716759Y-113235240D01*
X230452695Y-113125861D01*
X230215042Y-112967066D01*
X230012934Y-112764958D01*
X229854139Y-112527305D01*
X229744760Y-112263241D01*
X229689000Y-111982912D01*
X229689000Y-111697088D01*
X229744760Y-111416759D01*
X229854139Y-111152695D01*
X230012934Y-110915042D01*
X230215042Y-110712934D01*
X230452695Y-110554139D01*
X230716759Y-110444760D01*
X230997088Y-110389000D01*
X231282912Y-110389000D01*
X231563241Y-110444760D01*
X231563241Y-110444760D01*
G37*
G36*
X171007223Y-109651313D02*
G01*
X171167642Y-109699976D01*
X171234761Y-109735852D01*
X171315478Y-109778996D01*
X171445059Y-109885341D01*
X171551404Y-110014922D01*
X171551405Y-110014924D01*
X171630424Y-110162758D01*
X171679087Y-110323177D01*
X171695517Y-110490000D01*
X171679087Y-110656823D01*
X171630424Y-110817242D01*
X171589877Y-110893100D01*
X171551404Y-110965078D01*
X171445059Y-111094659D01*
X171315478Y-111201004D01*
X171315476Y-111201005D01*
X171167642Y-111280024D01*
X171007223Y-111328687D01*
X170882204Y-111341000D01*
X170798596Y-111341000D01*
X170673577Y-111328687D01*
X170513158Y-111280024D01*
X170365324Y-111201005D01*
X170365322Y-111201004D01*
X170235741Y-111094659D01*
X170129396Y-110965078D01*
X170090923Y-110893100D01*
X170050376Y-110817242D01*
X170001713Y-110656823D01*
X169985283Y-110490000D01*
X170001713Y-110323177D01*
X170050376Y-110162758D01*
X170129395Y-110014924D01*
X170129396Y-110014922D01*
X170235741Y-109885341D01*
X170365322Y-109778996D01*
X170446039Y-109735852D01*
X170513158Y-109699976D01*
X170673577Y-109651313D01*
X170798596Y-109639000D01*
X170882204Y-109639000D01*
X171007223Y-109651313D01*
X171007223Y-109651313D01*
G37*
G36*
X156376823Y-109651313D02*
G01*
X156537242Y-109699976D01*
X156604361Y-109735852D01*
X156685078Y-109778996D01*
X156814659Y-109885341D01*
X156921004Y-110014922D01*
X156921005Y-110014924D01*
X157000024Y-110162758D01*
X157048687Y-110323177D01*
X157065117Y-110490000D01*
X157048687Y-110656823D01*
X157000024Y-110817242D01*
X156959477Y-110893100D01*
X156921004Y-110965078D01*
X156814659Y-111094659D01*
X156685078Y-111201004D01*
X156685076Y-111201005D01*
X156537242Y-111280024D01*
X156376823Y-111328687D01*
X156251804Y-111341000D01*
X156168196Y-111341000D01*
X156043177Y-111328687D01*
X155882758Y-111280024D01*
X155734924Y-111201005D01*
X155734922Y-111201004D01*
X155605341Y-111094659D01*
X155498996Y-110965078D01*
X155460523Y-110893100D01*
X155419976Y-110817242D01*
X155371313Y-110656823D01*
X155354883Y-110490000D01*
X155371313Y-110323177D01*
X155419976Y-110162758D01*
X155498995Y-110014924D01*
X155498996Y-110014922D01*
X155605341Y-109885341D01*
X155734922Y-109778996D01*
X155815639Y-109735852D01*
X155882758Y-109699976D01*
X156043177Y-109651313D01*
X156168196Y-109639000D01*
X156251804Y-109639000D01*
X156376823Y-109651313D01*
X156376823Y-109651313D01*
G37*
G36*
X181248628Y-109671703D02*
G01*
X181403500Y-109735853D01*
X181542881Y-109828985D01*
X181661415Y-109947519D01*
X181754547Y-110086900D01*
X181818697Y-110241772D01*
X181851400Y-110406184D01*
X181851400Y-110573816D01*
X181818697Y-110738228D01*
X181754547Y-110893100D01*
X181661415Y-111032481D01*
X181542881Y-111151015D01*
X181403500Y-111244147D01*
X181248628Y-111308297D01*
X181084216Y-111341000D01*
X180916584Y-111341000D01*
X180752172Y-111308297D01*
X180597300Y-111244147D01*
X180457919Y-111151015D01*
X180339385Y-111032481D01*
X180246253Y-110893100D01*
X180182103Y-110738228D01*
X180149400Y-110573816D01*
X180149400Y-110406184D01*
X180182103Y-110241772D01*
X180246253Y-110086900D01*
X180339385Y-109947519D01*
X180457919Y-109828985D01*
X180597300Y-109735853D01*
X180752172Y-109671703D01*
X180916584Y-109639000D01*
X181084216Y-109639000D01*
X181248628Y-109671703D01*
X181248628Y-109671703D01*
G37*
G36*
X166618228Y-109671703D02*
G01*
X166773100Y-109735853D01*
X166912481Y-109828985D01*
X167031015Y-109947519D01*
X167124147Y-110086900D01*
X167188297Y-110241772D01*
X167221000Y-110406184D01*
X167221000Y-110573816D01*
X167188297Y-110738228D01*
X167124147Y-110893100D01*
X167031015Y-111032481D01*
X166912481Y-111151015D01*
X166773100Y-111244147D01*
X166618228Y-111308297D01*
X166453816Y-111341000D01*
X166286184Y-111341000D01*
X166121772Y-111308297D01*
X165966900Y-111244147D01*
X165827519Y-111151015D01*
X165708985Y-111032481D01*
X165615853Y-110893100D01*
X165551703Y-110738228D01*
X165519000Y-110573816D01*
X165519000Y-110406184D01*
X165551703Y-110241772D01*
X165615853Y-110086900D01*
X165708985Y-109947519D01*
X165827519Y-109828985D01*
X165966900Y-109735853D01*
X166121772Y-109671703D01*
X166286184Y-109639000D01*
X166453816Y-109639000D01*
X166618228Y-109671703D01*
X166618228Y-109671703D01*
G37*
G36*
X231563241Y-105444760D02*
G01*
X231827305Y-105554139D01*
X232064958Y-105712934D01*
X232267066Y-105915042D01*
X232425861Y-106152695D01*
X232535240Y-106416759D01*
X232591000Y-106697088D01*
X232591000Y-106982912D01*
X232535240Y-107263241D01*
X232425861Y-107527305D01*
X232267066Y-107764958D01*
X232064958Y-107967066D01*
X231827305Y-108125861D01*
X231563241Y-108235240D01*
X231282912Y-108291000D01*
X230997088Y-108291000D01*
X230716759Y-108235240D01*
X230452695Y-108125861D01*
X230215042Y-107967066D01*
X230012934Y-107764958D01*
X229854139Y-107527305D01*
X229744760Y-107263241D01*
X229689000Y-106982912D01*
X229689000Y-106697088D01*
X229744760Y-106416759D01*
X229854139Y-106152695D01*
X230012934Y-105915042D01*
X230215042Y-105712934D01*
X230452695Y-105554139D01*
X230716759Y-105444760D01*
X230997088Y-105389000D01*
X231282912Y-105389000D01*
X231563241Y-105444760D01*
X231563241Y-105444760D01*
G37*
G36*
X231563241Y-100444760D02*
G01*
X231827305Y-100554139D01*
X232064958Y-100712934D01*
X232267066Y-100915042D01*
X232425861Y-101152695D01*
X232535240Y-101416759D01*
X232591000Y-101697088D01*
X232591000Y-101982912D01*
X232535240Y-102263241D01*
X232425861Y-102527305D01*
X232267066Y-102764958D01*
X232064958Y-102967066D01*
X231827305Y-103125861D01*
X231563241Y-103235240D01*
X231282912Y-103291000D01*
X230997088Y-103291000D01*
X230716759Y-103235240D01*
X230452695Y-103125861D01*
X230215042Y-102967066D01*
X230012934Y-102764958D01*
X229854139Y-102527305D01*
X229744760Y-102263241D01*
X229689000Y-101982912D01*
X229689000Y-101697088D01*
X229744760Y-101416759D01*
X229854139Y-101152695D01*
X230012934Y-100915042D01*
X230215042Y-100712934D01*
X230452695Y-100554139D01*
X230716759Y-100444760D01*
X230997088Y-100389000D01*
X231282912Y-100389000D01*
X231563241Y-100444760D01*
X231563241Y-100444760D01*
G37*
G36*
X231563241Y-95444760D02*
G01*
X231827305Y-95554139D01*
X232064958Y-95712934D01*
X232267066Y-95915042D01*
X232425861Y-96152695D01*
X232535240Y-96416759D01*
X232591000Y-96697088D01*
X232591000Y-96982912D01*
X232535240Y-97263241D01*
X232425861Y-97527305D01*
X232267066Y-97764958D01*
X232064958Y-97967066D01*
X231827305Y-98125861D01*
X231563241Y-98235240D01*
X231282912Y-98291000D01*
X230997088Y-98291000D01*
X230716759Y-98235240D01*
X230452695Y-98125861D01*
X230215042Y-97967066D01*
X230012934Y-97764958D01*
X229854139Y-97527305D01*
X229744760Y-97263241D01*
X229689000Y-96982912D01*
X229689000Y-96697088D01*
X229744760Y-96416759D01*
X229854139Y-96152695D01*
X230012934Y-95915042D01*
X230215042Y-95712934D01*
X230452695Y-95554139D01*
X230716759Y-95444760D01*
X230997088Y-95389000D01*
X231282912Y-95389000D01*
X231563241Y-95444760D01*
X231563241Y-95444760D01*
G37*
G36*
X208931000Y-92430109D02*
G01*
X208933402Y-92454495D01*
X208940515Y-92477944D01*
X208952066Y-92499555D01*
X208967611Y-92518497D01*
X208986553Y-92534042D01*
X209008164Y-92545593D01*
X209031613Y-92552706D01*
X209055999Y-92555108D01*
X209080385Y-92552706D01*
X209103834Y-92545593D01*
X209125445Y-92534042D01*
X209144387Y-92518497D01*
X209159932Y-92499555D01*
X209171483Y-92477944D01*
X209203090Y-92401638D01*
X209274335Y-92295012D01*
X209365012Y-92204335D01*
X209471636Y-92133091D01*
X209590110Y-92084017D01*
X209715881Y-92059000D01*
X209844119Y-92059000D01*
X209969890Y-92084017D01*
X210088364Y-92133091D01*
X210194988Y-92204335D01*
X210285665Y-92295012D01*
X210356909Y-92401636D01*
X210405983Y-92520110D01*
X210431000Y-92645882D01*
X210431000Y-92774118D01*
X210405983Y-92899890D01*
X210356909Y-93018364D01*
X210285665Y-93124988D01*
X210194988Y-93215665D01*
X210088364Y-93286909D01*
X210088363Y-93286910D01*
X210088362Y-93286910D01*
X209969890Y-93335983D01*
X209844119Y-93361000D01*
X209715881Y-93361000D01*
X209590110Y-93335983D01*
X209471638Y-93286910D01*
X209471637Y-93286910D01*
X209471636Y-93286909D01*
X209365012Y-93215665D01*
X209274335Y-93124988D01*
X209203091Y-93018364D01*
X209171483Y-92942055D01*
X209159932Y-92920445D01*
X209144387Y-92901503D01*
X209125445Y-92885958D01*
X209103834Y-92874407D01*
X209080385Y-92867294D01*
X209055999Y-92864892D01*
X209031613Y-92867294D01*
X209008164Y-92874407D01*
X208986553Y-92885958D01*
X208967611Y-92901503D01*
X208952066Y-92920445D01*
X208940515Y-92942056D01*
X208933402Y-92965505D01*
X208931000Y-92989891D01*
X208931000Y-93361000D01*
X207629000Y-93361000D01*
X207629000Y-92059000D01*
X208931000Y-92059000D01*
X208931000Y-92430109D01*
X208931000Y-92430109D01*
G37*
G36*
X214589890Y-92084017D02*
G01*
X214708364Y-92133091D01*
X214814988Y-92204335D01*
X214905665Y-92295012D01*
X214976910Y-92401638D01*
X215008517Y-92477944D01*
X215020068Y-92499555D01*
X215035613Y-92518497D01*
X215054555Y-92534042D01*
X215076166Y-92545593D01*
X215099615Y-92552706D01*
X215124001Y-92555108D01*
X215148387Y-92552706D01*
X215171836Y-92545593D01*
X215193447Y-92534042D01*
X215212389Y-92518497D01*
X215227934Y-92499555D01*
X215239485Y-92477944D01*
X215246598Y-92454495D01*
X215249000Y-92430109D01*
X215249000Y-92059000D01*
X216551000Y-92059000D01*
X216551000Y-93361000D01*
X215249000Y-93361000D01*
X215249000Y-92989891D01*
X215246598Y-92965505D01*
X215239485Y-92942056D01*
X215227934Y-92920445D01*
X215212389Y-92901503D01*
X215193447Y-92885958D01*
X215171836Y-92874407D01*
X215148387Y-92867294D01*
X215124001Y-92864892D01*
X215099615Y-92867294D01*
X215076166Y-92874407D01*
X215054555Y-92885958D01*
X215035613Y-92901503D01*
X215020068Y-92920445D01*
X215008517Y-92942055D01*
X214976909Y-93018364D01*
X214905665Y-93124988D01*
X214814988Y-93215665D01*
X214708364Y-93286909D01*
X214708363Y-93286910D01*
X214708362Y-93286910D01*
X214589890Y-93335983D01*
X214464119Y-93361000D01*
X214335881Y-93361000D01*
X214210110Y-93335983D01*
X214091638Y-93286910D01*
X214091637Y-93286910D01*
X214091636Y-93286909D01*
X213985012Y-93215665D01*
X213894335Y-93124988D01*
X213823091Y-93018364D01*
X213774017Y-92899890D01*
X213749000Y-92774118D01*
X213749000Y-92645882D01*
X213774017Y-92520110D01*
X213823091Y-92401636D01*
X213894335Y-92295012D01*
X213985012Y-92204335D01*
X214091636Y-92133091D01*
X214210110Y-92084017D01*
X214335881Y-92059000D01*
X214464119Y-92059000D01*
X214589890Y-92084017D01*
X214589890Y-92084017D01*
G37*
G36*
X231563241Y-90444760D02*
G01*
X231827305Y-90554139D01*
X232064958Y-90712934D01*
X232267066Y-90915042D01*
X232425861Y-91152695D01*
X232535240Y-91416759D01*
X232591000Y-91697088D01*
X232591000Y-91982912D01*
X232535240Y-92263241D01*
X232425861Y-92527305D01*
X232267066Y-92764958D01*
X232064958Y-92967066D01*
X231827305Y-93125861D01*
X231563241Y-93235240D01*
X231282912Y-93291000D01*
X230997088Y-93291000D01*
X230716759Y-93235240D01*
X230452695Y-93125861D01*
X230215042Y-92967066D01*
X230012934Y-92764958D01*
X229854139Y-92527305D01*
X229744760Y-92263241D01*
X229689000Y-91982912D01*
X229689000Y-91697088D01*
X229744760Y-91416759D01*
X229854139Y-91152695D01*
X230012934Y-90915042D01*
X230215042Y-90712934D01*
X230452695Y-90554139D01*
X230716759Y-90444760D01*
X230997088Y-90389000D01*
X231282912Y-90389000D01*
X231563241Y-90444760D01*
X231563241Y-90444760D01*
G37*
G36*
X175484549Y-89041116D02*
G01*
X175595734Y-89063232D01*
X175805203Y-89149997D01*
X175993720Y-89275960D01*
X176154040Y-89436280D01*
X176280003Y-89624797D01*
X176280004Y-89624799D01*
X176366768Y-89834267D01*
X176411000Y-90056635D01*
X176411000Y-90283365D01*
X176410351Y-90286627D01*
X176366768Y-90505734D01*
X176322341Y-90612989D01*
X176280943Y-90712935D01*
X176280003Y-90715203D01*
X176154040Y-90903720D01*
X175993720Y-91064040D01*
X175805203Y-91190003D01*
X175595734Y-91276768D01*
X175484549Y-91298884D01*
X175373365Y-91321000D01*
X175146635Y-91321000D01*
X175035451Y-91298884D01*
X174924266Y-91276768D01*
X174714797Y-91190003D01*
X174526280Y-91064040D01*
X174365960Y-90903720D01*
X174239997Y-90715203D01*
X174239058Y-90712935D01*
X174197659Y-90612989D01*
X174153232Y-90505734D01*
X174109649Y-90286627D01*
X174109000Y-90283365D01*
X174109000Y-90056635D01*
X174153232Y-89834267D01*
X174239996Y-89624799D01*
X174239997Y-89624797D01*
X174365960Y-89436280D01*
X174526280Y-89275960D01*
X174714797Y-89149997D01*
X174924266Y-89063232D01*
X175035451Y-89041116D01*
X175146635Y-89019000D01*
X175373365Y-89019000D01*
X175484549Y-89041116D01*
X175484549Y-89041116D01*
G37*
G36*
X194534549Y-89041116D02*
G01*
X194645734Y-89063232D01*
X194855203Y-89149997D01*
X195043720Y-89275960D01*
X195204040Y-89436280D01*
X195330003Y-89624797D01*
X195330004Y-89624799D01*
X195416768Y-89834267D01*
X195461000Y-90056635D01*
X195461000Y-90283365D01*
X195460351Y-90286627D01*
X195416768Y-90505734D01*
X195372341Y-90612989D01*
X195330943Y-90712935D01*
X195330003Y-90715203D01*
X195204040Y-90903720D01*
X195043720Y-91064040D01*
X194855203Y-91190003D01*
X194645734Y-91276768D01*
X194534549Y-91298884D01*
X194423365Y-91321000D01*
X194196635Y-91321000D01*
X194085451Y-91298884D01*
X193974266Y-91276768D01*
X193764797Y-91190003D01*
X193576280Y-91064040D01*
X193415960Y-90903720D01*
X193289997Y-90715203D01*
X193289058Y-90712935D01*
X193247659Y-90612989D01*
X193203232Y-90505734D01*
X193159649Y-90286627D01*
X193159000Y-90283365D01*
X193159000Y-90056635D01*
X193203232Y-89834267D01*
X193289996Y-89624799D01*
X193289997Y-89624797D01*
X193415960Y-89436280D01*
X193576280Y-89275960D01*
X193764797Y-89149997D01*
X193974266Y-89063232D01*
X194085451Y-89041116D01*
X194196635Y-89019000D01*
X194423365Y-89019000D01*
X194534549Y-89041116D01*
X194534549Y-89041116D01*
G37*
G36*
X157590442Y-89215518D02*
G01*
X157656627Y-89222037D01*
X157826466Y-89273557D01*
X157982991Y-89357222D01*
X158018729Y-89386552D01*
X158120186Y-89469814D01*
X158203448Y-89571271D01*
X158232778Y-89607009D01*
X158316443Y-89763534D01*
X158367963Y-89933373D01*
X158385359Y-90110000D01*
X158367963Y-90286627D01*
X158316443Y-90456466D01*
X158232778Y-90612991D01*
X158203448Y-90648729D01*
X158120186Y-90750186D01*
X158018729Y-90833448D01*
X157982991Y-90862778D01*
X157826466Y-90946443D01*
X157656627Y-90997963D01*
X157590443Y-91004481D01*
X157524260Y-91011000D01*
X157435740Y-91011000D01*
X157369558Y-91004482D01*
X157303373Y-90997963D01*
X157133534Y-90946443D01*
X156977009Y-90862778D01*
X156941271Y-90833448D01*
X156839814Y-90750186D01*
X156756552Y-90648729D01*
X156727222Y-90612991D01*
X156643557Y-90456466D01*
X156592037Y-90286627D01*
X156574641Y-90110000D01*
X156592037Y-89933373D01*
X156643557Y-89763534D01*
X156727222Y-89607009D01*
X156756552Y-89571271D01*
X156839814Y-89469814D01*
X156941271Y-89386552D01*
X156977009Y-89357222D01*
X157133534Y-89273557D01*
X157303373Y-89222037D01*
X157369558Y-89215518D01*
X157435740Y-89209000D01*
X157524260Y-89209000D01*
X157590442Y-89215518D01*
X157590442Y-89215518D01*
G37*
G36*
X137270442Y-89215518D02*
G01*
X137336627Y-89222037D01*
X137506466Y-89273557D01*
X137662991Y-89357222D01*
X137698729Y-89386552D01*
X137800186Y-89469814D01*
X137883448Y-89571271D01*
X137912778Y-89607009D01*
X137996443Y-89763534D01*
X138047963Y-89933373D01*
X138065359Y-90110000D01*
X138047963Y-90286627D01*
X137996443Y-90456466D01*
X137912778Y-90612991D01*
X137883448Y-90648729D01*
X137800186Y-90750186D01*
X137698729Y-90833448D01*
X137662991Y-90862778D01*
X137506466Y-90946443D01*
X137336627Y-90997963D01*
X137270442Y-91004482D01*
X137204260Y-91011000D01*
X137115740Y-91011000D01*
X137049558Y-91004482D01*
X136983373Y-90997963D01*
X136813534Y-90946443D01*
X136657009Y-90862778D01*
X136621271Y-90833448D01*
X136519814Y-90750186D01*
X136436552Y-90648729D01*
X136407222Y-90612991D01*
X136323557Y-90456466D01*
X136272037Y-90286627D01*
X136254641Y-90110000D01*
X136272037Y-89933373D01*
X136323557Y-89763534D01*
X136407222Y-89607009D01*
X136436552Y-89571271D01*
X136519814Y-89469814D01*
X136621271Y-89386552D01*
X136657009Y-89357222D01*
X136813534Y-89273557D01*
X136983373Y-89222037D01*
X137049558Y-89215518D01*
X137115740Y-89209000D01*
X137204260Y-89209000D01*
X137270442Y-89215518D01*
X137270442Y-89215518D01*
G37*
G36*
X157590443Y-86675519D02*
G01*
X157656627Y-86682037D01*
X157826466Y-86733557D01*
X157982991Y-86817222D01*
X158018729Y-86846552D01*
X158120186Y-86929814D01*
X158203448Y-87031271D01*
X158232778Y-87067009D01*
X158316443Y-87223534D01*
X158367963Y-87393373D01*
X158385359Y-87570000D01*
X158367963Y-87746627D01*
X158316443Y-87916466D01*
X158232778Y-88072991D01*
X158203448Y-88108729D01*
X158120186Y-88210186D01*
X158018729Y-88293448D01*
X157982991Y-88322778D01*
X157826466Y-88406443D01*
X157656627Y-88457963D01*
X157590443Y-88464481D01*
X157524260Y-88471000D01*
X157435740Y-88471000D01*
X157369557Y-88464481D01*
X157303373Y-88457963D01*
X157133534Y-88406443D01*
X156977009Y-88322778D01*
X156941271Y-88293448D01*
X156839814Y-88210186D01*
X156756552Y-88108729D01*
X156727222Y-88072991D01*
X156643557Y-87916466D01*
X156592037Y-87746627D01*
X156574641Y-87570000D01*
X156592037Y-87393373D01*
X156643557Y-87223534D01*
X156727222Y-87067009D01*
X156756552Y-87031271D01*
X156839814Y-86929814D01*
X156941271Y-86846552D01*
X156977009Y-86817222D01*
X157133534Y-86733557D01*
X157303373Y-86682037D01*
X157369557Y-86675519D01*
X157435740Y-86669000D01*
X157524260Y-86669000D01*
X157590443Y-86675519D01*
X157590443Y-86675519D01*
G37*
G36*
X137270443Y-86675519D02*
G01*
X137336627Y-86682037D01*
X137506466Y-86733557D01*
X137662991Y-86817222D01*
X137698729Y-86846552D01*
X137800186Y-86929814D01*
X137883448Y-87031271D01*
X137912778Y-87067009D01*
X137996443Y-87223534D01*
X138047963Y-87393373D01*
X138065359Y-87570000D01*
X138047963Y-87746627D01*
X137996443Y-87916466D01*
X137912778Y-88072991D01*
X137883448Y-88108729D01*
X137800186Y-88210186D01*
X137698729Y-88293448D01*
X137662991Y-88322778D01*
X137506466Y-88406443D01*
X137336627Y-88457963D01*
X137270443Y-88464481D01*
X137204260Y-88471000D01*
X137115740Y-88471000D01*
X137049557Y-88464481D01*
X136983373Y-88457963D01*
X136813534Y-88406443D01*
X136657009Y-88322778D01*
X136621271Y-88293448D01*
X136519814Y-88210186D01*
X136436552Y-88108729D01*
X136407222Y-88072991D01*
X136323557Y-87916466D01*
X136272037Y-87746627D01*
X136254641Y-87570000D01*
X136272037Y-87393373D01*
X136323557Y-87223534D01*
X136407222Y-87067009D01*
X136436552Y-87031271D01*
X136519814Y-86929814D01*
X136621271Y-86846552D01*
X136657009Y-86817222D01*
X136813534Y-86733557D01*
X136983373Y-86682037D01*
X137049557Y-86675519D01*
X137115740Y-86669000D01*
X137204260Y-86669000D01*
X137270443Y-86675519D01*
X137270443Y-86675519D01*
G37*
G36*
X232591000Y-86541000D02*
G01*
X229689000Y-86541000D01*
X229689000Y-83639000D01*
X232591000Y-83639000D01*
X232591000Y-86541000D01*
X232591000Y-86541000D01*
G37*
G36*
X212286720Y-84053520D02*
G01*
X212475881Y-84110901D01*
X212650212Y-84204083D01*
X212803015Y-84329485D01*
X212928417Y-84482288D01*
X212952321Y-84527009D01*
X213021598Y-84656617D01*
X213021599Y-84656620D01*
X213078980Y-84845781D01*
X213093500Y-84993207D01*
X213093500Y-85186794D01*
X213078980Y-85334220D01*
X213021599Y-85523381D01*
X212928417Y-85697712D01*
X212803015Y-85850515D01*
X212650212Y-85975917D01*
X212568333Y-86019682D01*
X212475883Y-86069098D01*
X212475880Y-86069099D01*
X212286719Y-86126480D01*
X212090000Y-86145855D01*
X211893280Y-86126480D01*
X211704119Y-86069099D01*
X211529788Y-85975917D01*
X211376985Y-85850515D01*
X211251583Y-85697712D01*
X211163537Y-85532989D01*
X211158402Y-85523383D01*
X211158401Y-85523380D01*
X211101020Y-85334219D01*
X211086500Y-85186793D01*
X211086500Y-84993206D01*
X211101020Y-84845780D01*
X211158401Y-84656619D01*
X211251583Y-84482288D01*
X211376985Y-84329485D01*
X211529788Y-84204083D01*
X211704120Y-84110901D01*
X211893281Y-84053520D01*
X212090000Y-84034145D01*
X212286720Y-84053520D01*
X212286720Y-84053520D01*
G37*
G36*
X209746720Y-84053520D02*
G01*
X209935881Y-84110901D01*
X210110212Y-84204083D01*
X210263015Y-84329485D01*
X210388417Y-84482288D01*
X210412321Y-84527009D01*
X210481598Y-84656617D01*
X210481599Y-84656620D01*
X210538980Y-84845781D01*
X210553500Y-84993207D01*
X210553500Y-85186794D01*
X210538980Y-85334220D01*
X210481599Y-85523381D01*
X210388417Y-85697712D01*
X210263015Y-85850515D01*
X210110212Y-85975917D01*
X210028333Y-86019682D01*
X209935883Y-86069098D01*
X209935880Y-86069099D01*
X209746719Y-86126480D01*
X209550000Y-86145855D01*
X209353280Y-86126480D01*
X209164119Y-86069099D01*
X208989788Y-85975917D01*
X208836985Y-85850515D01*
X208711583Y-85697712D01*
X208623537Y-85532989D01*
X208618402Y-85523383D01*
X208618401Y-85523380D01*
X208561020Y-85334219D01*
X208546500Y-85186793D01*
X208546500Y-84993206D01*
X208561020Y-84845780D01*
X208618401Y-84656619D01*
X208711583Y-84482288D01*
X208836985Y-84329485D01*
X208989788Y-84204083D01*
X209164120Y-84110901D01*
X209353281Y-84053520D01*
X209550000Y-84034145D01*
X209746720Y-84053520D01*
X209746720Y-84053520D01*
G37*
G36*
X215633500Y-86141000D02*
G01*
X213626500Y-86141000D01*
X213626500Y-84039000D01*
X215633500Y-84039000D01*
X215633500Y-86141000D01*
X215633500Y-86141000D01*
G37*
G36*
X157590442Y-84135518D02*
G01*
X157656627Y-84142037D01*
X157826466Y-84193557D01*
X157982991Y-84277222D01*
X158018729Y-84306552D01*
X158120186Y-84389814D01*
X158196076Y-84482288D01*
X158232778Y-84527009D01*
X158316443Y-84683534D01*
X158367963Y-84853373D01*
X158385359Y-85030000D01*
X158367963Y-85206627D01*
X158316443Y-85376466D01*
X158232778Y-85532991D01*
X158203448Y-85568729D01*
X158120186Y-85670186D01*
X158018729Y-85753448D01*
X157982991Y-85782778D01*
X157826466Y-85866443D01*
X157656627Y-85917963D01*
X157590443Y-85924481D01*
X157524260Y-85931000D01*
X157435740Y-85931000D01*
X157369557Y-85924481D01*
X157303373Y-85917963D01*
X157133534Y-85866443D01*
X156977009Y-85782778D01*
X156941271Y-85753448D01*
X156839814Y-85670186D01*
X156756552Y-85568729D01*
X156727222Y-85532991D01*
X156643557Y-85376466D01*
X156592037Y-85206627D01*
X156574641Y-85030000D01*
X156592037Y-84853373D01*
X156643557Y-84683534D01*
X156727222Y-84527009D01*
X156763924Y-84482288D01*
X156839814Y-84389814D01*
X156941271Y-84306552D01*
X156977009Y-84277222D01*
X157133534Y-84193557D01*
X157303373Y-84142037D01*
X157369558Y-84135518D01*
X157435740Y-84129000D01*
X157524260Y-84129000D01*
X157590442Y-84135518D01*
X157590442Y-84135518D01*
G37*
G36*
X137270442Y-84135518D02*
G01*
X137336627Y-84142037D01*
X137506466Y-84193557D01*
X137662991Y-84277222D01*
X137698729Y-84306552D01*
X137800186Y-84389814D01*
X137876076Y-84482288D01*
X137912778Y-84527009D01*
X137996443Y-84683534D01*
X138047963Y-84853373D01*
X138065359Y-85030000D01*
X138047963Y-85206627D01*
X137996443Y-85376466D01*
X137912778Y-85532991D01*
X137883448Y-85568729D01*
X137800186Y-85670186D01*
X137698729Y-85753448D01*
X137662991Y-85782778D01*
X137506466Y-85866443D01*
X137336627Y-85917963D01*
X137270443Y-85924481D01*
X137204260Y-85931000D01*
X137115740Y-85931000D01*
X137049557Y-85924481D01*
X136983373Y-85917963D01*
X136813534Y-85866443D01*
X136657009Y-85782778D01*
X136621271Y-85753448D01*
X136519814Y-85670186D01*
X136436552Y-85568729D01*
X136407222Y-85532991D01*
X136323557Y-85376466D01*
X136272037Y-85206627D01*
X136254641Y-85030000D01*
X136272037Y-84853373D01*
X136323557Y-84683534D01*
X136407222Y-84527009D01*
X136443924Y-84482288D01*
X136519814Y-84389814D01*
X136621271Y-84306552D01*
X136657009Y-84277222D01*
X136813534Y-84193557D01*
X136983373Y-84142037D01*
X137049558Y-84135518D01*
X137115740Y-84129000D01*
X137204260Y-84129000D01*
X137270442Y-84135518D01*
X137270442Y-84135518D01*
G37*
G36*
X157590443Y-81595519D02*
G01*
X157656627Y-81602037D01*
X157826466Y-81653557D01*
X157982991Y-81737222D01*
X158018729Y-81766552D01*
X158120186Y-81849814D01*
X158203448Y-81951271D01*
X158232778Y-81987009D01*
X158316443Y-82143534D01*
X158367963Y-82313373D01*
X158385359Y-82490000D01*
X158367963Y-82666627D01*
X158316443Y-82836466D01*
X158232778Y-82992991D01*
X158203448Y-83028729D01*
X158120186Y-83130186D01*
X158018729Y-83213448D01*
X157982991Y-83242778D01*
X157826466Y-83326443D01*
X157656627Y-83377963D01*
X157590442Y-83384482D01*
X157524260Y-83391000D01*
X157435740Y-83391000D01*
X157369558Y-83384482D01*
X157303373Y-83377963D01*
X157133534Y-83326443D01*
X156977009Y-83242778D01*
X156941271Y-83213448D01*
X156839814Y-83130186D01*
X156756552Y-83028729D01*
X156727222Y-82992991D01*
X156643557Y-82836466D01*
X156592037Y-82666627D01*
X156574641Y-82490000D01*
X156592037Y-82313373D01*
X156643557Y-82143534D01*
X156727222Y-81987009D01*
X156756552Y-81951271D01*
X156839814Y-81849814D01*
X156941271Y-81766552D01*
X156977009Y-81737222D01*
X157133534Y-81653557D01*
X157303373Y-81602037D01*
X157369557Y-81595519D01*
X157435740Y-81589000D01*
X157524260Y-81589000D01*
X157590443Y-81595519D01*
X157590443Y-81595519D01*
G37*
G36*
X137270443Y-81595519D02*
G01*
X137336627Y-81602037D01*
X137506466Y-81653557D01*
X137662991Y-81737222D01*
X137698729Y-81766552D01*
X137800186Y-81849814D01*
X137883448Y-81951271D01*
X137912778Y-81987009D01*
X137996443Y-82143534D01*
X138047963Y-82313373D01*
X138065359Y-82490000D01*
X138047963Y-82666627D01*
X137996443Y-82836466D01*
X137912778Y-82992991D01*
X137883448Y-83028729D01*
X137800186Y-83130186D01*
X137698729Y-83213448D01*
X137662991Y-83242778D01*
X137506466Y-83326443D01*
X137336627Y-83377963D01*
X137270442Y-83384482D01*
X137204260Y-83391000D01*
X137115740Y-83391000D01*
X137049558Y-83384482D01*
X136983373Y-83377963D01*
X136813534Y-83326443D01*
X136657009Y-83242778D01*
X136621271Y-83213448D01*
X136519814Y-83130186D01*
X136436552Y-83028729D01*
X136407222Y-82992991D01*
X136323557Y-82836466D01*
X136272037Y-82666627D01*
X136254641Y-82490000D01*
X136272037Y-82313373D01*
X136323557Y-82143534D01*
X136407222Y-81987009D01*
X136436552Y-81951271D01*
X136519814Y-81849814D01*
X136621271Y-81766552D01*
X136657009Y-81737222D01*
X136813534Y-81653557D01*
X136983373Y-81602037D01*
X137049557Y-81595519D01*
X137115740Y-81589000D01*
X137204260Y-81589000D01*
X137270443Y-81595519D01*
X137270443Y-81595519D01*
G37*
G36*
X231563241Y-78694760D02*
G01*
X231827305Y-78804139D01*
X232064958Y-78962934D01*
X232267066Y-79165042D01*
X232425861Y-79402695D01*
X232535240Y-79666759D01*
X232591000Y-79947088D01*
X232591000Y-80232912D01*
X232535240Y-80513241D01*
X232425861Y-80777305D01*
X232267066Y-81014958D01*
X232064958Y-81217066D01*
X231827305Y-81375861D01*
X231563241Y-81485240D01*
X231282912Y-81541000D01*
X230997088Y-81541000D01*
X230716759Y-81485240D01*
X230452695Y-81375861D01*
X230215042Y-81217066D01*
X230012934Y-81014958D01*
X229854139Y-80777305D01*
X229744760Y-80513241D01*
X229689000Y-80232912D01*
X229689000Y-79947088D01*
X229744760Y-79666759D01*
X229854139Y-79402695D01*
X230012934Y-79165042D01*
X230215042Y-78962934D01*
X230452695Y-78804139D01*
X230716759Y-78694760D01*
X230997088Y-78639000D01*
X231282912Y-78639000D01*
X231563241Y-78694760D01*
X231563241Y-78694760D01*
G37*
G36*
X137270443Y-79055519D02*
G01*
X137336627Y-79062037D01*
X137506466Y-79113557D01*
X137662991Y-79197222D01*
X137698729Y-79226552D01*
X137800186Y-79309814D01*
X137876410Y-79402695D01*
X137912778Y-79447009D01*
X137996443Y-79603534D01*
X138047963Y-79773373D01*
X138065359Y-79950000D01*
X138047963Y-80126627D01*
X137996443Y-80296466D01*
X137912778Y-80452991D01*
X137883448Y-80488729D01*
X137800186Y-80590186D01*
X137698729Y-80673448D01*
X137662991Y-80702778D01*
X137506466Y-80786443D01*
X137336627Y-80837963D01*
X137270442Y-80844482D01*
X137204260Y-80851000D01*
X137115740Y-80851000D01*
X137049558Y-80844482D01*
X136983373Y-80837963D01*
X136813534Y-80786443D01*
X136657009Y-80702778D01*
X136621271Y-80673448D01*
X136519814Y-80590186D01*
X136436552Y-80488729D01*
X136407222Y-80452991D01*
X136323557Y-80296466D01*
X136272037Y-80126627D01*
X136254641Y-79950000D01*
X136272037Y-79773373D01*
X136323557Y-79603534D01*
X136407222Y-79447009D01*
X136443590Y-79402695D01*
X136519814Y-79309814D01*
X136621271Y-79226552D01*
X136657009Y-79197222D01*
X136813534Y-79113557D01*
X136983373Y-79062037D01*
X137049557Y-79055519D01*
X137115740Y-79049000D01*
X137204260Y-79049000D01*
X137270443Y-79055519D01*
X137270443Y-79055519D01*
G37*
G36*
X157590443Y-79055519D02*
G01*
X157656627Y-79062037D01*
X157826466Y-79113557D01*
X157982991Y-79197222D01*
X158018729Y-79226552D01*
X158120186Y-79309814D01*
X158196410Y-79402695D01*
X158232778Y-79447009D01*
X158316443Y-79603534D01*
X158367963Y-79773373D01*
X158385359Y-79950000D01*
X158367963Y-80126627D01*
X158316443Y-80296466D01*
X158232778Y-80452991D01*
X158203448Y-80488729D01*
X158120186Y-80590186D01*
X158018729Y-80673448D01*
X157982991Y-80702778D01*
X157826466Y-80786443D01*
X157656627Y-80837963D01*
X157590442Y-80844482D01*
X157524260Y-80851000D01*
X157435740Y-80851000D01*
X157369558Y-80844482D01*
X157303373Y-80837963D01*
X157133534Y-80786443D01*
X156977009Y-80702778D01*
X156941271Y-80673448D01*
X156839814Y-80590186D01*
X156756552Y-80488729D01*
X156727222Y-80452991D01*
X156643557Y-80296466D01*
X156592037Y-80126627D01*
X156574641Y-79950000D01*
X156592037Y-79773373D01*
X156643557Y-79603534D01*
X156727222Y-79447009D01*
X156763590Y-79402695D01*
X156839814Y-79309814D01*
X156941271Y-79226552D01*
X156977009Y-79197222D01*
X157133534Y-79113557D01*
X157303373Y-79062037D01*
X157369557Y-79055519D01*
X157435740Y-79049000D01*
X157524260Y-79049000D01*
X157590443Y-79055519D01*
X157590443Y-79055519D01*
G37*
G36*
X157590442Y-76515518D02*
G01*
X157656627Y-76522037D01*
X157826466Y-76573557D01*
X157982991Y-76657222D01*
X158018729Y-76686552D01*
X158120186Y-76769814D01*
X158203448Y-76871271D01*
X158232778Y-76907009D01*
X158316443Y-77063534D01*
X158367963Y-77233373D01*
X158385359Y-77410000D01*
X158367963Y-77586627D01*
X158316443Y-77756466D01*
X158232778Y-77912991D01*
X158203448Y-77948729D01*
X158120186Y-78050186D01*
X158018729Y-78133448D01*
X157982991Y-78162778D01*
X157826466Y-78246443D01*
X157656627Y-78297963D01*
X157590443Y-78304481D01*
X157524260Y-78311000D01*
X157435740Y-78311000D01*
X157369557Y-78304481D01*
X157303373Y-78297963D01*
X157133534Y-78246443D01*
X156977009Y-78162778D01*
X156941271Y-78133448D01*
X156839814Y-78050186D01*
X156756552Y-77948729D01*
X156727222Y-77912991D01*
X156643557Y-77756466D01*
X156592037Y-77586627D01*
X156574641Y-77410000D01*
X156592037Y-77233373D01*
X156643557Y-77063534D01*
X156727222Y-76907009D01*
X156756552Y-76871271D01*
X156839814Y-76769814D01*
X156941271Y-76686552D01*
X156977009Y-76657222D01*
X157133534Y-76573557D01*
X157303373Y-76522037D01*
X157369558Y-76515518D01*
X157435740Y-76509000D01*
X157524260Y-76509000D01*
X157590442Y-76515518D01*
X157590442Y-76515518D01*
G37*
G36*
X137270442Y-76515518D02*
G01*
X137336627Y-76522037D01*
X137506466Y-76573557D01*
X137662991Y-76657222D01*
X137698729Y-76686552D01*
X137800186Y-76769814D01*
X137883448Y-76871271D01*
X137912778Y-76907009D01*
X137996443Y-77063534D01*
X138047963Y-77233373D01*
X138065359Y-77410000D01*
X138047963Y-77586627D01*
X137996443Y-77756466D01*
X137912778Y-77912991D01*
X137883448Y-77948729D01*
X137800186Y-78050186D01*
X137698729Y-78133448D01*
X137662991Y-78162778D01*
X137506466Y-78246443D01*
X137336627Y-78297963D01*
X137270443Y-78304481D01*
X137204260Y-78311000D01*
X137115740Y-78311000D01*
X137049557Y-78304481D01*
X136983373Y-78297963D01*
X136813534Y-78246443D01*
X136657009Y-78162778D01*
X136621271Y-78133448D01*
X136519814Y-78050186D01*
X136436552Y-77948729D01*
X136407222Y-77912991D01*
X136323557Y-77756466D01*
X136272037Y-77586627D01*
X136254641Y-77410000D01*
X136272037Y-77233373D01*
X136323557Y-77063534D01*
X136407222Y-76907009D01*
X136436552Y-76871271D01*
X136519814Y-76769814D01*
X136621271Y-76686552D01*
X136657009Y-76657222D01*
X136813534Y-76573557D01*
X136983373Y-76522037D01*
X137049558Y-76515518D01*
X137115740Y-76509000D01*
X137204260Y-76509000D01*
X137270442Y-76515518D01*
X137270442Y-76515518D01*
G37*
G36*
X231563241Y-73694760D02*
G01*
X231827305Y-73804139D01*
X232064958Y-73962934D01*
X232267066Y-74165042D01*
X232425861Y-74402695D01*
X232535240Y-74666759D01*
X232591000Y-74947088D01*
X232591000Y-75232912D01*
X232535240Y-75513241D01*
X232425861Y-75777305D01*
X232267066Y-76014958D01*
X232064958Y-76217066D01*
X231827305Y-76375861D01*
X231563241Y-76485240D01*
X231282912Y-76541000D01*
X230997088Y-76541000D01*
X230716759Y-76485240D01*
X230452695Y-76375861D01*
X230215042Y-76217066D01*
X230012934Y-76014958D01*
X229854139Y-75777305D01*
X229744760Y-75513241D01*
X229689000Y-75232912D01*
X229689000Y-74947088D01*
X229744760Y-74666759D01*
X229854139Y-74402695D01*
X230012934Y-74165042D01*
X230215042Y-73962934D01*
X230452695Y-73804139D01*
X230716759Y-73694760D01*
X230997088Y-73639000D01*
X231282912Y-73639000D01*
X231563241Y-73694760D01*
X231563241Y-73694760D01*
G37*
G36*
X137270443Y-73975519D02*
G01*
X137336627Y-73982037D01*
X137506466Y-74033557D01*
X137662991Y-74117222D01*
X137698729Y-74146552D01*
X137800186Y-74229814D01*
X137883448Y-74331271D01*
X137912778Y-74367009D01*
X137996443Y-74523534D01*
X138047963Y-74693373D01*
X138065359Y-74870000D01*
X138047963Y-75046627D01*
X137996443Y-75216466D01*
X137912778Y-75372991D01*
X137883448Y-75408729D01*
X137800186Y-75510186D01*
X137698729Y-75593448D01*
X137662991Y-75622778D01*
X137506466Y-75706443D01*
X137336627Y-75757963D01*
X137270443Y-75764481D01*
X137204260Y-75771000D01*
X137115740Y-75771000D01*
X137049557Y-75764481D01*
X136983373Y-75757963D01*
X136813534Y-75706443D01*
X136657009Y-75622778D01*
X136621271Y-75593448D01*
X136519814Y-75510186D01*
X136436552Y-75408729D01*
X136407222Y-75372991D01*
X136323557Y-75216466D01*
X136272037Y-75046627D01*
X136254641Y-74870000D01*
X136272037Y-74693373D01*
X136323557Y-74523534D01*
X136407222Y-74367009D01*
X136436552Y-74331271D01*
X136519814Y-74229814D01*
X136621271Y-74146552D01*
X136657009Y-74117222D01*
X136813534Y-74033557D01*
X136983373Y-73982037D01*
X137049557Y-73975519D01*
X137115740Y-73969000D01*
X137204260Y-73969000D01*
X137270443Y-73975519D01*
X137270443Y-73975519D01*
G37*
G36*
X157590443Y-73975519D02*
G01*
X157656627Y-73982037D01*
X157826466Y-74033557D01*
X157982991Y-74117222D01*
X158018729Y-74146552D01*
X158120186Y-74229814D01*
X158203448Y-74331271D01*
X158232778Y-74367009D01*
X158316443Y-74523534D01*
X158367963Y-74693373D01*
X158385359Y-74870000D01*
X158367963Y-75046627D01*
X158316443Y-75216466D01*
X158232778Y-75372991D01*
X158203448Y-75408729D01*
X158120186Y-75510186D01*
X158018729Y-75593448D01*
X157982991Y-75622778D01*
X157826466Y-75706443D01*
X157656627Y-75757963D01*
X157590443Y-75764481D01*
X157524260Y-75771000D01*
X157435740Y-75771000D01*
X157369557Y-75764481D01*
X157303373Y-75757963D01*
X157133534Y-75706443D01*
X156977009Y-75622778D01*
X156941271Y-75593448D01*
X156839814Y-75510186D01*
X156756552Y-75408729D01*
X156727222Y-75372991D01*
X156643557Y-75216466D01*
X156592037Y-75046627D01*
X156574641Y-74870000D01*
X156592037Y-74693373D01*
X156643557Y-74523534D01*
X156727222Y-74367009D01*
X156756552Y-74331271D01*
X156839814Y-74229814D01*
X156941271Y-74146552D01*
X156977009Y-74117222D01*
X157133534Y-74033557D01*
X157303373Y-73982037D01*
X157369557Y-73975519D01*
X157435740Y-73969000D01*
X157524260Y-73969000D01*
X157590443Y-73975519D01*
X157590443Y-73975519D01*
G37*
G36*
X166480442Y-72765518D02*
G01*
X166546627Y-72772037D01*
X166716466Y-72823557D01*
X166872991Y-72907222D01*
X166908729Y-72936552D01*
X167010186Y-73019814D01*
X167061858Y-73082778D01*
X167122778Y-73157009D01*
X167206443Y-73313534D01*
X167257963Y-73483373D01*
X167275359Y-73660000D01*
X167257963Y-73836627D01*
X167206443Y-74006466D01*
X167122778Y-74162991D01*
X167093448Y-74198729D01*
X167010186Y-74300186D01*
X166928758Y-74367011D01*
X166872991Y-74412778D01*
X166716466Y-74496443D01*
X166546627Y-74547963D01*
X166480442Y-74554482D01*
X166414260Y-74561000D01*
X166325740Y-74561000D01*
X166259558Y-74554482D01*
X166193373Y-74547963D01*
X166023534Y-74496443D01*
X165867009Y-74412778D01*
X165811242Y-74367011D01*
X165729814Y-74300186D01*
X165646552Y-74198729D01*
X165617222Y-74162991D01*
X165533557Y-74006466D01*
X165482037Y-73836627D01*
X165464641Y-73660000D01*
X165482037Y-73483373D01*
X165533557Y-73313534D01*
X165617222Y-73157009D01*
X165678142Y-73082778D01*
X165729814Y-73019814D01*
X165831271Y-72936552D01*
X165867009Y-72907222D01*
X166023534Y-72823557D01*
X166193373Y-72772037D01*
X166259558Y-72765518D01*
X166325740Y-72759000D01*
X166414260Y-72759000D01*
X166480442Y-72765518D01*
X166480442Y-72765518D01*
G37*
G36*
X137270443Y-71435519D02*
G01*
X137336627Y-71442037D01*
X137506466Y-71493557D01*
X137662991Y-71577222D01*
X137698729Y-71606552D01*
X137800186Y-71689814D01*
X137883448Y-71791271D01*
X137912778Y-71827009D01*
X137996443Y-71983534D01*
X138047963Y-72153373D01*
X138065359Y-72330000D01*
X138047963Y-72506627D01*
X137996443Y-72676466D01*
X137912778Y-72832991D01*
X137883448Y-72868729D01*
X137800186Y-72970186D01*
X137698729Y-73053448D01*
X137662991Y-73082778D01*
X137506466Y-73166443D01*
X137336627Y-73217963D01*
X137270442Y-73224482D01*
X137204260Y-73231000D01*
X137115740Y-73231000D01*
X137049558Y-73224482D01*
X136983373Y-73217963D01*
X136813534Y-73166443D01*
X136657009Y-73082778D01*
X136621271Y-73053448D01*
X136519814Y-72970186D01*
X136436552Y-72868729D01*
X136407222Y-72832991D01*
X136323557Y-72676466D01*
X136272037Y-72506627D01*
X136254641Y-72330000D01*
X136272037Y-72153373D01*
X136323557Y-71983534D01*
X136407222Y-71827009D01*
X136436552Y-71791271D01*
X136519814Y-71689814D01*
X136621271Y-71606552D01*
X136657009Y-71577222D01*
X136813534Y-71493557D01*
X136983373Y-71442037D01*
X137049557Y-71435519D01*
X137115740Y-71429000D01*
X137204260Y-71429000D01*
X137270443Y-71435519D01*
X137270443Y-71435519D01*
G37*
G36*
X157590443Y-71435519D02*
G01*
X157656627Y-71442037D01*
X157826466Y-71493557D01*
X157982991Y-71577222D01*
X158018729Y-71606552D01*
X158120186Y-71689814D01*
X158203448Y-71791271D01*
X158232778Y-71827009D01*
X158316443Y-71983534D01*
X158367963Y-72153373D01*
X158385359Y-72330000D01*
X158367963Y-72506627D01*
X158316443Y-72676466D01*
X158232778Y-72832991D01*
X158203448Y-72868729D01*
X158120186Y-72970186D01*
X158018729Y-73053448D01*
X157982991Y-73082778D01*
X157826466Y-73166443D01*
X157656627Y-73217963D01*
X157590442Y-73224482D01*
X157524260Y-73231000D01*
X157435740Y-73231000D01*
X157369558Y-73224482D01*
X157303373Y-73217963D01*
X157133534Y-73166443D01*
X156977009Y-73082778D01*
X156941271Y-73053448D01*
X156839814Y-72970186D01*
X156756552Y-72868729D01*
X156727222Y-72832991D01*
X156643557Y-72676466D01*
X156592037Y-72506627D01*
X156574641Y-72330000D01*
X156592037Y-72153373D01*
X156643557Y-71983534D01*
X156727222Y-71827009D01*
X156756552Y-71791271D01*
X156839814Y-71689814D01*
X156941271Y-71606552D01*
X156977009Y-71577222D01*
X157133534Y-71493557D01*
X157303373Y-71442037D01*
X157369557Y-71435519D01*
X157435740Y-71429000D01*
X157524260Y-71429000D01*
X157590443Y-71435519D01*
X157590443Y-71435519D01*
G37*
G36*
X166480442Y-70225518D02*
G01*
X166546627Y-70232037D01*
X166716466Y-70283557D01*
X166872991Y-70367222D01*
X166908729Y-70396552D01*
X167010186Y-70479814D01*
X167061858Y-70542778D01*
X167122778Y-70617009D01*
X167206443Y-70773534D01*
X167257963Y-70943373D01*
X167275359Y-71120000D01*
X167257963Y-71296627D01*
X167206443Y-71466466D01*
X167122778Y-71622991D01*
X167093448Y-71658729D01*
X167010186Y-71760186D01*
X166928758Y-71827011D01*
X166872991Y-71872778D01*
X166716466Y-71956443D01*
X166546627Y-72007963D01*
X166480443Y-72014481D01*
X166414260Y-72021000D01*
X166325740Y-72021000D01*
X166259557Y-72014481D01*
X166193373Y-72007963D01*
X166023534Y-71956443D01*
X165867009Y-71872778D01*
X165811242Y-71827011D01*
X165729814Y-71760186D01*
X165646552Y-71658729D01*
X165617222Y-71622991D01*
X165533557Y-71466466D01*
X165482037Y-71296627D01*
X165464641Y-71120000D01*
X165482037Y-70943373D01*
X165533557Y-70773534D01*
X165617222Y-70617009D01*
X165678142Y-70542778D01*
X165729814Y-70479814D01*
X165831271Y-70396552D01*
X165867009Y-70367222D01*
X166023534Y-70283557D01*
X166193373Y-70232037D01*
X166259558Y-70225518D01*
X166325740Y-70219000D01*
X166414260Y-70219000D01*
X166480442Y-70225518D01*
X166480442Y-70225518D01*
G37*
G36*
X231563241Y-68694760D02*
G01*
X231827305Y-68804139D01*
X232064958Y-68962934D01*
X232267066Y-69165042D01*
X232425861Y-69402695D01*
X232535240Y-69666759D01*
X232591000Y-69947088D01*
X232591000Y-70232912D01*
X232535240Y-70513241D01*
X232425861Y-70777305D01*
X232267066Y-71014958D01*
X232064958Y-71217066D01*
X231827305Y-71375861D01*
X231563241Y-71485240D01*
X231282912Y-71541000D01*
X230997088Y-71541000D01*
X230716759Y-71485240D01*
X230452695Y-71375861D01*
X230215042Y-71217066D01*
X230012934Y-71014958D01*
X229854139Y-70777305D01*
X229744760Y-70513241D01*
X229689000Y-70232912D01*
X229689000Y-69947088D01*
X229744760Y-69666759D01*
X229854139Y-69402695D01*
X230012934Y-69165042D01*
X230215042Y-68962934D01*
X230452695Y-68804139D01*
X230716759Y-68694760D01*
X230997088Y-68639000D01*
X231282912Y-68639000D01*
X231563241Y-68694760D01*
X231563241Y-68694760D01*
G37*
G36*
X137270443Y-68895519D02*
G01*
X137336627Y-68902037D01*
X137506466Y-68953557D01*
X137662991Y-69037222D01*
X137698729Y-69066552D01*
X137800186Y-69149814D01*
X137883448Y-69251271D01*
X137912778Y-69287009D01*
X137996443Y-69443534D01*
X138047963Y-69613373D01*
X138065359Y-69790000D01*
X138047963Y-69966627D01*
X137996443Y-70136466D01*
X137912778Y-70292991D01*
X137883448Y-70328729D01*
X137800186Y-70430186D01*
X137698982Y-70513241D01*
X137662991Y-70542778D01*
X137506466Y-70626443D01*
X137336627Y-70677963D01*
X137270443Y-70684481D01*
X137204260Y-70691000D01*
X137115740Y-70691000D01*
X137049557Y-70684481D01*
X136983373Y-70677963D01*
X136813534Y-70626443D01*
X136657009Y-70542778D01*
X136621018Y-70513241D01*
X136519814Y-70430186D01*
X136436552Y-70328729D01*
X136407222Y-70292991D01*
X136323557Y-70136466D01*
X136272037Y-69966627D01*
X136254641Y-69790000D01*
X136272037Y-69613373D01*
X136323557Y-69443534D01*
X136407222Y-69287009D01*
X136436552Y-69251271D01*
X136519814Y-69149814D01*
X136621271Y-69066552D01*
X136657009Y-69037222D01*
X136813534Y-68953557D01*
X136983373Y-68902037D01*
X137049557Y-68895519D01*
X137115740Y-68889000D01*
X137204260Y-68889000D01*
X137270443Y-68895519D01*
X137270443Y-68895519D01*
G37*
G36*
X157590443Y-68895519D02*
G01*
X157656627Y-68902037D01*
X157826466Y-68953557D01*
X157982991Y-69037222D01*
X158018729Y-69066552D01*
X158120186Y-69149814D01*
X158203448Y-69251271D01*
X158232778Y-69287009D01*
X158316443Y-69443534D01*
X158367963Y-69613373D01*
X158385359Y-69790000D01*
X158367963Y-69966627D01*
X158316443Y-70136466D01*
X158232778Y-70292991D01*
X158203448Y-70328729D01*
X158120186Y-70430186D01*
X158018982Y-70513241D01*
X157982991Y-70542778D01*
X157826466Y-70626443D01*
X157656627Y-70677963D01*
X157590443Y-70684481D01*
X157524260Y-70691000D01*
X157435740Y-70691000D01*
X157369557Y-70684481D01*
X157303373Y-70677963D01*
X157133534Y-70626443D01*
X156977009Y-70542778D01*
X156941018Y-70513241D01*
X156839814Y-70430186D01*
X156756552Y-70328729D01*
X156727222Y-70292991D01*
X156643557Y-70136466D01*
X156592037Y-69966627D01*
X156574641Y-69790000D01*
X156592037Y-69613373D01*
X156643557Y-69443534D01*
X156727222Y-69287009D01*
X156756552Y-69251271D01*
X156839814Y-69149814D01*
X156941271Y-69066552D01*
X156977009Y-69037222D01*
X157133534Y-68953557D01*
X157303373Y-68902037D01*
X157369557Y-68895519D01*
X157435740Y-68889000D01*
X157524260Y-68889000D01*
X157590443Y-68895519D01*
X157590443Y-68895519D01*
G37*
G36*
X166480443Y-67685519D02*
G01*
X166546627Y-67692037D01*
X166716466Y-67743557D01*
X166872991Y-67827222D01*
X166908729Y-67856552D01*
X167010186Y-67939814D01*
X167061858Y-68002778D01*
X167122778Y-68077009D01*
X167206443Y-68233534D01*
X167257963Y-68403373D01*
X167275359Y-68580000D01*
X167257963Y-68756627D01*
X167206443Y-68926466D01*
X167122778Y-69082991D01*
X167093448Y-69118729D01*
X167010186Y-69220186D01*
X166928758Y-69287011D01*
X166872991Y-69332778D01*
X166716466Y-69416443D01*
X166546627Y-69467963D01*
X166480442Y-69474482D01*
X166414260Y-69481000D01*
X166325740Y-69481000D01*
X166259558Y-69474482D01*
X166193373Y-69467963D01*
X166023534Y-69416443D01*
X165867009Y-69332778D01*
X165811242Y-69287011D01*
X165729814Y-69220186D01*
X165646552Y-69118729D01*
X165617222Y-69082991D01*
X165533557Y-68926466D01*
X165482037Y-68756627D01*
X165464641Y-68580000D01*
X165482037Y-68403373D01*
X165533557Y-68233534D01*
X165617222Y-68077009D01*
X165678142Y-68002778D01*
X165729814Y-67939814D01*
X165831271Y-67856552D01*
X165867009Y-67827222D01*
X166023534Y-67743557D01*
X166193373Y-67692037D01*
X166259557Y-67685519D01*
X166325740Y-67679000D01*
X166414260Y-67679000D01*
X166480443Y-67685519D01*
X166480443Y-67685519D01*
G37*
G36*
X157590442Y-66355518D02*
G01*
X157656627Y-66362037D01*
X157826466Y-66413557D01*
X157982991Y-66497222D01*
X158018729Y-66526552D01*
X158120186Y-66609814D01*
X158203448Y-66711271D01*
X158232778Y-66747009D01*
X158316443Y-66903534D01*
X158367963Y-67073373D01*
X158385359Y-67250000D01*
X158367963Y-67426627D01*
X158316443Y-67596466D01*
X158232778Y-67752991D01*
X158203448Y-67788729D01*
X158120186Y-67890186D01*
X158018729Y-67973448D01*
X157982991Y-68002778D01*
X157826466Y-68086443D01*
X157656627Y-68137963D01*
X157590443Y-68144481D01*
X157524260Y-68151000D01*
X157435740Y-68151000D01*
X157369557Y-68144481D01*
X157303373Y-68137963D01*
X157133534Y-68086443D01*
X156977009Y-68002778D01*
X156941271Y-67973448D01*
X156839814Y-67890186D01*
X156756552Y-67788729D01*
X156727222Y-67752991D01*
X156643557Y-67596466D01*
X156592037Y-67426627D01*
X156574641Y-67250000D01*
X156592037Y-67073373D01*
X156643557Y-66903534D01*
X156727222Y-66747009D01*
X156756552Y-66711271D01*
X156839814Y-66609814D01*
X156941271Y-66526552D01*
X156977009Y-66497222D01*
X157133534Y-66413557D01*
X157303373Y-66362037D01*
X157369558Y-66355518D01*
X157435740Y-66349000D01*
X157524260Y-66349000D01*
X157590442Y-66355518D01*
X157590442Y-66355518D01*
G37*
G36*
X137270442Y-66355518D02*
G01*
X137336627Y-66362037D01*
X137506466Y-66413557D01*
X137662991Y-66497222D01*
X137698729Y-66526552D01*
X137800186Y-66609814D01*
X137883448Y-66711271D01*
X137912778Y-66747009D01*
X137996443Y-66903534D01*
X138047963Y-67073373D01*
X138065359Y-67250000D01*
X138047963Y-67426627D01*
X137996443Y-67596466D01*
X137912778Y-67752991D01*
X137883448Y-67788729D01*
X137800186Y-67890186D01*
X137698729Y-67973448D01*
X137662991Y-68002778D01*
X137506466Y-68086443D01*
X137336627Y-68137963D01*
X137270443Y-68144481D01*
X137204260Y-68151000D01*
X137115740Y-68151000D01*
X137049557Y-68144481D01*
X136983373Y-68137963D01*
X136813534Y-68086443D01*
X136657009Y-68002778D01*
X136621271Y-67973448D01*
X136519814Y-67890186D01*
X136436552Y-67788729D01*
X136407222Y-67752991D01*
X136323557Y-67596466D01*
X136272037Y-67426627D01*
X136254641Y-67250000D01*
X136272037Y-67073373D01*
X136323557Y-66903534D01*
X136407222Y-66747009D01*
X136436552Y-66711271D01*
X136519814Y-66609814D01*
X136621271Y-66526552D01*
X136657009Y-66497222D01*
X136813534Y-66413557D01*
X136983373Y-66362037D01*
X137049558Y-66355518D01*
X137115740Y-66349000D01*
X137204260Y-66349000D01*
X137270442Y-66355518D01*
X137270442Y-66355518D01*
G37*
G36*
X166480442Y-65145518D02*
G01*
X166546627Y-65152037D01*
X166716466Y-65203557D01*
X166872991Y-65287222D01*
X166908729Y-65316552D01*
X167010186Y-65399814D01*
X167061858Y-65462778D01*
X167122778Y-65537009D01*
X167206443Y-65693534D01*
X167257963Y-65863373D01*
X167275359Y-66040000D01*
X167257963Y-66216627D01*
X167206443Y-66386466D01*
X167122778Y-66542991D01*
X167093448Y-66578729D01*
X167010186Y-66680186D01*
X166928758Y-66747011D01*
X166872991Y-66792778D01*
X166716466Y-66876443D01*
X166546627Y-66927963D01*
X166480442Y-66934482D01*
X166414260Y-66941000D01*
X166325740Y-66941000D01*
X166259558Y-66934482D01*
X166193373Y-66927963D01*
X166023534Y-66876443D01*
X165867009Y-66792778D01*
X165811242Y-66747011D01*
X165729814Y-66680186D01*
X165646552Y-66578729D01*
X165617222Y-66542991D01*
X165533557Y-66386466D01*
X165482037Y-66216627D01*
X165464641Y-66040000D01*
X165482037Y-65863373D01*
X165533557Y-65693534D01*
X165617222Y-65537009D01*
X165678142Y-65462778D01*
X165729814Y-65399814D01*
X165831271Y-65316552D01*
X165867009Y-65287222D01*
X166023534Y-65203557D01*
X166193373Y-65152037D01*
X166259558Y-65145518D01*
X166325740Y-65139000D01*
X166414260Y-65139000D01*
X166480442Y-65145518D01*
X166480442Y-65145518D01*
G37*
G36*
X231563241Y-63694760D02*
G01*
X231827305Y-63804139D01*
X232064958Y-63962934D01*
X232267066Y-64165042D01*
X232425861Y-64402695D01*
X232535240Y-64666759D01*
X232591000Y-64947088D01*
X232591000Y-65232912D01*
X232535240Y-65513241D01*
X232425861Y-65777305D01*
X232267066Y-66014958D01*
X232064958Y-66217066D01*
X231827305Y-66375861D01*
X231563241Y-66485240D01*
X231282912Y-66541000D01*
X230997088Y-66541000D01*
X230716759Y-66485240D01*
X230452695Y-66375861D01*
X230215042Y-66217066D01*
X230012934Y-66014958D01*
X229854139Y-65777305D01*
X229744760Y-65513241D01*
X229689000Y-65232912D01*
X229689000Y-64947088D01*
X229744760Y-64666759D01*
X229854139Y-64402695D01*
X230012934Y-64165042D01*
X230215042Y-63962934D01*
X230452695Y-63804139D01*
X230716759Y-63694760D01*
X230997088Y-63639000D01*
X231282912Y-63639000D01*
X231563241Y-63694760D01*
X231563241Y-63694760D01*
G37*
G36*
X137270443Y-63815519D02*
G01*
X137336627Y-63822037D01*
X137506466Y-63873557D01*
X137662991Y-63957222D01*
X137669952Y-63962935D01*
X137800186Y-64069814D01*
X137878336Y-64165041D01*
X137912778Y-64207009D01*
X137996443Y-64363534D01*
X138047963Y-64533373D01*
X138065359Y-64710000D01*
X138047963Y-64886627D01*
X137996443Y-65056466D01*
X137912778Y-65212991D01*
X137896430Y-65232911D01*
X137800186Y-65350186D01*
X137698729Y-65433448D01*
X137662991Y-65462778D01*
X137506466Y-65546443D01*
X137336627Y-65597963D01*
X137270443Y-65604481D01*
X137204260Y-65611000D01*
X137115740Y-65611000D01*
X137049557Y-65604481D01*
X136983373Y-65597963D01*
X136813534Y-65546443D01*
X136657009Y-65462778D01*
X136621271Y-65433448D01*
X136519814Y-65350186D01*
X136423570Y-65232911D01*
X136407222Y-65212991D01*
X136323557Y-65056466D01*
X136272037Y-64886627D01*
X136254641Y-64710000D01*
X136272037Y-64533373D01*
X136323557Y-64363534D01*
X136407222Y-64207009D01*
X136441664Y-64165041D01*
X136519814Y-64069814D01*
X136650048Y-63962935D01*
X136657009Y-63957222D01*
X136813534Y-63873557D01*
X136983373Y-63822037D01*
X137049557Y-63815519D01*
X137115740Y-63809000D01*
X137204260Y-63809000D01*
X137270443Y-63815519D01*
X137270443Y-63815519D01*
G37*
G36*
X157590443Y-63815519D02*
G01*
X157656627Y-63822037D01*
X157826466Y-63873557D01*
X157982991Y-63957222D01*
X157989952Y-63962935D01*
X158120186Y-64069814D01*
X158198336Y-64165041D01*
X158232778Y-64207009D01*
X158316443Y-64363534D01*
X158367963Y-64533373D01*
X158385359Y-64710000D01*
X158367963Y-64886627D01*
X158316443Y-65056466D01*
X158232778Y-65212991D01*
X158216430Y-65232911D01*
X158120186Y-65350186D01*
X158018729Y-65433448D01*
X157982991Y-65462778D01*
X157826466Y-65546443D01*
X157656627Y-65597963D01*
X157590443Y-65604481D01*
X157524260Y-65611000D01*
X157435740Y-65611000D01*
X157369557Y-65604481D01*
X157303373Y-65597963D01*
X157133534Y-65546443D01*
X156977009Y-65462778D01*
X156941271Y-65433448D01*
X156839814Y-65350186D01*
X156743570Y-65232911D01*
X156727222Y-65212991D01*
X156643557Y-65056466D01*
X156592037Y-64886627D01*
X156574641Y-64710000D01*
X156592037Y-64533373D01*
X156643557Y-64363534D01*
X156727222Y-64207009D01*
X156761664Y-64165041D01*
X156839814Y-64069814D01*
X156970048Y-63962935D01*
X156977009Y-63957222D01*
X157133534Y-63873557D01*
X157303373Y-63822037D01*
X157369557Y-63815519D01*
X157435740Y-63809000D01*
X157524260Y-63809000D01*
X157590443Y-63815519D01*
X157590443Y-63815519D01*
G37*
G36*
X166480442Y-62605518D02*
G01*
X166546627Y-62612037D01*
X166716466Y-62663557D01*
X166872991Y-62747222D01*
X166908729Y-62776552D01*
X167010186Y-62859814D01*
X167061858Y-62922778D01*
X167122778Y-62997009D01*
X167206443Y-63153534D01*
X167257963Y-63323373D01*
X167275359Y-63500000D01*
X167257963Y-63676627D01*
X167206443Y-63846466D01*
X167122778Y-64002991D01*
X167093448Y-64038729D01*
X167010186Y-64140186D01*
X166928758Y-64207011D01*
X166872991Y-64252778D01*
X166716466Y-64336443D01*
X166546627Y-64387963D01*
X166480442Y-64394482D01*
X166414260Y-64401000D01*
X166325740Y-64401000D01*
X166259558Y-64394482D01*
X166193373Y-64387963D01*
X166023534Y-64336443D01*
X165867009Y-64252778D01*
X165811242Y-64207011D01*
X165729814Y-64140186D01*
X165646552Y-64038729D01*
X165617222Y-64002991D01*
X165533557Y-63846466D01*
X165482037Y-63676627D01*
X165464641Y-63500000D01*
X165482037Y-63323373D01*
X165533557Y-63153534D01*
X165617222Y-62997009D01*
X165678142Y-62922778D01*
X165729814Y-62859814D01*
X165831271Y-62776552D01*
X165867009Y-62747222D01*
X166023534Y-62663557D01*
X166193373Y-62612037D01*
X166259558Y-62605518D01*
X166325740Y-62599000D01*
X166414260Y-62599000D01*
X166480442Y-62605518D01*
X166480442Y-62605518D01*
G37*
G36*
X157590443Y-61275519D02*
G01*
X157656627Y-61282037D01*
X157826466Y-61333557D01*
X157982991Y-61417222D01*
X158004746Y-61435076D01*
X158120186Y-61529814D01*
X158203448Y-61631271D01*
X158232778Y-61667009D01*
X158316443Y-61823534D01*
X158367963Y-61993373D01*
X158385359Y-62170000D01*
X158367963Y-62346627D01*
X158316443Y-62516466D01*
X158232778Y-62672991D01*
X158203448Y-62708729D01*
X158120186Y-62810186D01*
X158018729Y-62893448D01*
X157982991Y-62922778D01*
X157826466Y-63006443D01*
X157656627Y-63057963D01*
X157590442Y-63064482D01*
X157524260Y-63071000D01*
X157435740Y-63071000D01*
X157369558Y-63064482D01*
X157303373Y-63057963D01*
X157133534Y-63006443D01*
X156977009Y-62922778D01*
X156941271Y-62893448D01*
X156839814Y-62810186D01*
X156756552Y-62708729D01*
X156727222Y-62672991D01*
X156643557Y-62516466D01*
X156592037Y-62346627D01*
X156574641Y-62170000D01*
X156592037Y-61993373D01*
X156643557Y-61823534D01*
X156727222Y-61667009D01*
X156756552Y-61631271D01*
X156839814Y-61529814D01*
X156955254Y-61435076D01*
X156977009Y-61417222D01*
X157133534Y-61333557D01*
X157303373Y-61282037D01*
X157369557Y-61275519D01*
X157435740Y-61269000D01*
X157524260Y-61269000D01*
X157590443Y-61275519D01*
X157590443Y-61275519D01*
G37*
G36*
X137270443Y-61275519D02*
G01*
X137336627Y-61282037D01*
X137506466Y-61333557D01*
X137662991Y-61417222D01*
X137684746Y-61435076D01*
X137800186Y-61529814D01*
X137883448Y-61631271D01*
X137912778Y-61667009D01*
X137996443Y-61823534D01*
X138047963Y-61993373D01*
X138065359Y-62170000D01*
X138047963Y-62346627D01*
X137996443Y-62516466D01*
X137912778Y-62672991D01*
X137883448Y-62708729D01*
X137800186Y-62810186D01*
X137698729Y-62893448D01*
X137662991Y-62922778D01*
X137506466Y-63006443D01*
X137336627Y-63057963D01*
X137270442Y-63064482D01*
X137204260Y-63071000D01*
X137115740Y-63071000D01*
X137049558Y-63064482D01*
X136983373Y-63057963D01*
X136813534Y-63006443D01*
X136657009Y-62922778D01*
X136621271Y-62893448D01*
X136519814Y-62810186D01*
X136436552Y-62708729D01*
X136407222Y-62672991D01*
X136323557Y-62516466D01*
X136272037Y-62346627D01*
X136254641Y-62170000D01*
X136272037Y-61993373D01*
X136323557Y-61823534D01*
X136407222Y-61667009D01*
X136436552Y-61631271D01*
X136519814Y-61529814D01*
X136635254Y-61435076D01*
X136657009Y-61417222D01*
X136813534Y-61333557D01*
X136983373Y-61282037D01*
X137049557Y-61275519D01*
X137115740Y-61269000D01*
X137204260Y-61269000D01*
X137270443Y-61275519D01*
X137270443Y-61275519D01*
G37*
G36*
X166480442Y-60065518D02*
G01*
X166546627Y-60072037D01*
X166716466Y-60123557D01*
X166872991Y-60207222D01*
X166904293Y-60232911D01*
X167010186Y-60319814D01*
X167061858Y-60382778D01*
X167122778Y-60457009D01*
X167206443Y-60613534D01*
X167257963Y-60783373D01*
X167275359Y-60960000D01*
X167257963Y-61136627D01*
X167206443Y-61306466D01*
X167122778Y-61462991D01*
X167093448Y-61498729D01*
X167010186Y-61600186D01*
X166908729Y-61683448D01*
X166872991Y-61712778D01*
X166716466Y-61796443D01*
X166546627Y-61847963D01*
X166480443Y-61854481D01*
X166414260Y-61861000D01*
X166325740Y-61861000D01*
X166259557Y-61854481D01*
X166193373Y-61847963D01*
X166023534Y-61796443D01*
X165867009Y-61712778D01*
X165831271Y-61683448D01*
X165729814Y-61600186D01*
X165646552Y-61498729D01*
X165617222Y-61462991D01*
X165533557Y-61306466D01*
X165482037Y-61136627D01*
X165464641Y-60960000D01*
X165482037Y-60783373D01*
X165533557Y-60613534D01*
X165617222Y-60457009D01*
X165678142Y-60382778D01*
X165729814Y-60319814D01*
X165835707Y-60232911D01*
X165867009Y-60207222D01*
X166023534Y-60123557D01*
X166193373Y-60072037D01*
X166259558Y-60065518D01*
X166325740Y-60059000D01*
X166414260Y-60059000D01*
X166480442Y-60065518D01*
X166480442Y-60065518D01*
G37*
G36*
X217336823Y-60121313D02*
G01*
X217497242Y-60169976D01*
X217564361Y-60205852D01*
X217645078Y-60248996D01*
X217774659Y-60355341D01*
X217881004Y-60484922D01*
X217881005Y-60484924D01*
X217960024Y-60632758D01*
X218008687Y-60793177D01*
X218025117Y-60960000D01*
X218008687Y-61126823D01*
X217960024Y-61287242D01*
X217912656Y-61375861D01*
X217881004Y-61435078D01*
X217774659Y-61564659D01*
X217645078Y-61671004D01*
X217645076Y-61671005D01*
X217497242Y-61750024D01*
X217336823Y-61798687D01*
X217211804Y-61811000D01*
X217128196Y-61811000D01*
X217003177Y-61798687D01*
X216842758Y-61750024D01*
X216694924Y-61671005D01*
X216694922Y-61671004D01*
X216565341Y-61564659D01*
X216458996Y-61435078D01*
X216427344Y-61375861D01*
X216379976Y-61287242D01*
X216331313Y-61126823D01*
X216314883Y-60960000D01*
X216331313Y-60793177D01*
X216379976Y-60632758D01*
X216458995Y-60484924D01*
X216458996Y-60484922D01*
X216565341Y-60355341D01*
X216694922Y-60248996D01*
X216775639Y-60205852D01*
X216842758Y-60169976D01*
X217003177Y-60121313D01*
X217128196Y-60109000D01*
X217211804Y-60109000D01*
X217336823Y-60121313D01*
X217336823Y-60121313D01*
G37*
G36*
X207258228Y-60141703D02*
G01*
X207413100Y-60205853D01*
X207552481Y-60298985D01*
X207671015Y-60417519D01*
X207764147Y-60556900D01*
X207828297Y-60711772D01*
X207861000Y-60876184D01*
X207861000Y-61043816D01*
X207828297Y-61208228D01*
X207764147Y-61363100D01*
X207671015Y-61502481D01*
X207552481Y-61621015D01*
X207413100Y-61714147D01*
X207258228Y-61778297D01*
X207093816Y-61811000D01*
X206926184Y-61811000D01*
X206761772Y-61778297D01*
X206606900Y-61714147D01*
X206467519Y-61621015D01*
X206348985Y-61502481D01*
X206255853Y-61363100D01*
X206191703Y-61208228D01*
X206159000Y-61043816D01*
X206159000Y-60876184D01*
X206191703Y-60711772D01*
X206255853Y-60556900D01*
X206348985Y-60417519D01*
X206467519Y-60298985D01*
X206606900Y-60205853D01*
X206761772Y-60141703D01*
X206926184Y-60109000D01*
X207093816Y-60109000D01*
X207258228Y-60141703D01*
X207258228Y-60141703D01*
G37*
G36*
X231563241Y-58694760D02*
G01*
X231827305Y-58804139D01*
X232064958Y-58962934D01*
X232267066Y-59165042D01*
X232425861Y-59402695D01*
X232535240Y-59666759D01*
X232591000Y-59947088D01*
X232591000Y-60232912D01*
X232535240Y-60513241D01*
X232425861Y-60777305D01*
X232267066Y-61014958D01*
X232064958Y-61217066D01*
X231827305Y-61375861D01*
X231563241Y-61485240D01*
X231282912Y-61541000D01*
X230997088Y-61541000D01*
X230716759Y-61485240D01*
X230452695Y-61375861D01*
X230215042Y-61217066D01*
X230012934Y-61014958D01*
X229854139Y-60777305D01*
X229744760Y-60513241D01*
X229689000Y-60232912D01*
X229689000Y-59947088D01*
X229744760Y-59666759D01*
X229854139Y-59402695D01*
X230012934Y-59165042D01*
X230215042Y-58962934D01*
X230452695Y-58804139D01*
X230716759Y-58694760D01*
X230997088Y-58639000D01*
X231282912Y-58639000D01*
X231563241Y-58694760D01*
X231563241Y-58694760D01*
G37*
G36*
X157590442Y-58735518D02*
G01*
X157656627Y-58742037D01*
X157826466Y-58793557D01*
X157982991Y-58877222D01*
X158018729Y-58906552D01*
X158120186Y-58989814D01*
X158203448Y-59091271D01*
X158232778Y-59127009D01*
X158316443Y-59283534D01*
X158367963Y-59453373D01*
X158385359Y-59630000D01*
X158367963Y-59806627D01*
X158316443Y-59976466D01*
X158232778Y-60132991D01*
X158203448Y-60168729D01*
X158120186Y-60270186D01*
X158018729Y-60353448D01*
X157982991Y-60382778D01*
X157826466Y-60466443D01*
X157656627Y-60517963D01*
X157590443Y-60524481D01*
X157524260Y-60531000D01*
X157435740Y-60531000D01*
X157369557Y-60524481D01*
X157303373Y-60517963D01*
X157133534Y-60466443D01*
X156977009Y-60382778D01*
X156941271Y-60353448D01*
X156839814Y-60270186D01*
X156756552Y-60168729D01*
X156727222Y-60132991D01*
X156643557Y-59976466D01*
X156592037Y-59806627D01*
X156574641Y-59630000D01*
X156592037Y-59453373D01*
X156643557Y-59283534D01*
X156727222Y-59127009D01*
X156756552Y-59091271D01*
X156839814Y-58989814D01*
X156941271Y-58906552D01*
X156977009Y-58877222D01*
X157133534Y-58793557D01*
X157303373Y-58742037D01*
X157369558Y-58735518D01*
X157435740Y-58729000D01*
X157524260Y-58729000D01*
X157590442Y-58735518D01*
X157590442Y-58735518D01*
G37*
G36*
X137270442Y-58735518D02*
G01*
X137336627Y-58742037D01*
X137506466Y-58793557D01*
X137662991Y-58877222D01*
X137698729Y-58906552D01*
X137800186Y-58989814D01*
X137883448Y-59091271D01*
X137912778Y-59127009D01*
X137996443Y-59283534D01*
X138047963Y-59453373D01*
X138065359Y-59630000D01*
X138047963Y-59806627D01*
X137996443Y-59976466D01*
X137912778Y-60132991D01*
X137883448Y-60168729D01*
X137800186Y-60270186D01*
X137698729Y-60353448D01*
X137662991Y-60382778D01*
X137506466Y-60466443D01*
X137336627Y-60517963D01*
X137270443Y-60524481D01*
X137204260Y-60531000D01*
X137115740Y-60531000D01*
X137049557Y-60524481D01*
X136983373Y-60517963D01*
X136813534Y-60466443D01*
X136657009Y-60382778D01*
X136621271Y-60353448D01*
X136519814Y-60270186D01*
X136436552Y-60168729D01*
X136407222Y-60132991D01*
X136323557Y-59976466D01*
X136272037Y-59806627D01*
X136254641Y-59630000D01*
X136272037Y-59453373D01*
X136323557Y-59283534D01*
X136407222Y-59127009D01*
X136436552Y-59091271D01*
X136519814Y-58989814D01*
X136621271Y-58906552D01*
X136657009Y-58877222D01*
X136813534Y-58793557D01*
X136983373Y-58742037D01*
X137049558Y-58735518D01*
X137115740Y-58729000D01*
X137204260Y-58729000D01*
X137270442Y-58735518D01*
X137270442Y-58735518D01*
G37*
G36*
X104999549Y-57291116D02*
G01*
X105110734Y-57313232D01*
X105258850Y-57374584D01*
X105315933Y-57398228D01*
X105320203Y-57399997D01*
X105508720Y-57525960D01*
X105669040Y-57686280D01*
X105795003Y-57874797D01*
X105881768Y-58084266D01*
X105926000Y-58306636D01*
X105926000Y-58533364D01*
X105881768Y-58755734D01*
X105831446Y-58877221D01*
X105795943Y-58962935D01*
X105795003Y-58965203D01*
X105669040Y-59153720D01*
X105508720Y-59314040D01*
X105320203Y-59440003D01*
X105110734Y-59526768D01*
X104999549Y-59548884D01*
X104888365Y-59571000D01*
X104661635Y-59571000D01*
X104550451Y-59548884D01*
X104439266Y-59526768D01*
X104229797Y-59440003D01*
X104041280Y-59314040D01*
X103880960Y-59153720D01*
X103754997Y-58965203D01*
X103754058Y-58962935D01*
X103718554Y-58877221D01*
X103668232Y-58755734D01*
X103624000Y-58533364D01*
X103624000Y-58306636D01*
X103668232Y-58084266D01*
X103754997Y-57874797D01*
X103880960Y-57686280D01*
X104041280Y-57525960D01*
X104229797Y-57399997D01*
X104234068Y-57398228D01*
X104291150Y-57374584D01*
X104439266Y-57313232D01*
X104550451Y-57291116D01*
X104661635Y-57269000D01*
X104888365Y-57269000D01*
X104999549Y-57291116D01*
X104999549Y-57291116D01*
G37*
G36*
X56104549Y-57291116D02*
G01*
X56215734Y-57313232D01*
X56363850Y-57374584D01*
X56420933Y-57398228D01*
X56425203Y-57399997D01*
X56613720Y-57525960D01*
X56774040Y-57686280D01*
X56900003Y-57874797D01*
X56986768Y-58084266D01*
X57031000Y-58306636D01*
X57031000Y-58533364D01*
X56986768Y-58755734D01*
X56936446Y-58877221D01*
X56900943Y-58962935D01*
X56900003Y-58965203D01*
X56774040Y-59153720D01*
X56613720Y-59314040D01*
X56425203Y-59440003D01*
X56215734Y-59526768D01*
X56104549Y-59548884D01*
X55993365Y-59571000D01*
X55766635Y-59571000D01*
X55655451Y-59548884D01*
X55544266Y-59526768D01*
X55334797Y-59440003D01*
X55146280Y-59314040D01*
X54985960Y-59153720D01*
X54859997Y-58965203D01*
X54859058Y-58962935D01*
X54823554Y-58877221D01*
X54773232Y-58755734D01*
X54729000Y-58533364D01*
X54729000Y-58306636D01*
X54773232Y-58084266D01*
X54859997Y-57874797D01*
X54985960Y-57686280D01*
X55146280Y-57525960D01*
X55334797Y-57399997D01*
X55339068Y-57398228D01*
X55396150Y-57374584D01*
X55544266Y-57313232D01*
X55655451Y-57291116D01*
X55766635Y-57269000D01*
X55993365Y-57269000D01*
X56104549Y-57291116D01*
X56104549Y-57291116D01*
G37*
G36*
X166480443Y-57525519D02*
G01*
X166546627Y-57532037D01*
X166716466Y-57583557D01*
X166872991Y-57667222D01*
X166896213Y-57686280D01*
X167010186Y-57779814D01*
X167088135Y-57874797D01*
X167122778Y-57917009D01*
X167206443Y-58073534D01*
X167257963Y-58243373D01*
X167275359Y-58420000D01*
X167257963Y-58596627D01*
X167206443Y-58766466D01*
X167122778Y-58922991D01*
X167093448Y-58958729D01*
X167010186Y-59060186D01*
X166928758Y-59127011D01*
X166872991Y-59172778D01*
X166716466Y-59256443D01*
X166546627Y-59307963D01*
X166484925Y-59314040D01*
X166414260Y-59321000D01*
X166325740Y-59321000D01*
X166255075Y-59314040D01*
X166193373Y-59307963D01*
X166023534Y-59256443D01*
X165867009Y-59172778D01*
X165811242Y-59127011D01*
X165729814Y-59060186D01*
X165646552Y-58958729D01*
X165617222Y-58922991D01*
X165533557Y-58766466D01*
X165482037Y-58596627D01*
X165464641Y-58420000D01*
X165482037Y-58243373D01*
X165533557Y-58073534D01*
X165617222Y-57917009D01*
X165651865Y-57874797D01*
X165729814Y-57779814D01*
X165843787Y-57686280D01*
X165867009Y-57667222D01*
X166023534Y-57583557D01*
X166193373Y-57532037D01*
X166259557Y-57525519D01*
X166325740Y-57519000D01*
X166414260Y-57519000D01*
X166480443Y-57525519D01*
X166480443Y-57525519D01*
G37*
G36*
X207258228Y-56331703D02*
G01*
X207413100Y-56395853D01*
X207552481Y-56488985D01*
X207671015Y-56607519D01*
X207764147Y-56746900D01*
X207828297Y-56901772D01*
X207861000Y-57066184D01*
X207861000Y-57233816D01*
X207828297Y-57398228D01*
X207764147Y-57553100D01*
X207671015Y-57692481D01*
X207552481Y-57811015D01*
X207413100Y-57904147D01*
X207258228Y-57968297D01*
X207093816Y-58001000D01*
X206926184Y-58001000D01*
X206761772Y-57968297D01*
X206606900Y-57904147D01*
X206467519Y-57811015D01*
X206348985Y-57692481D01*
X206255853Y-57553100D01*
X206191703Y-57398228D01*
X206159000Y-57233816D01*
X206159000Y-57066184D01*
X206191703Y-56901772D01*
X206255853Y-56746900D01*
X206348985Y-56607519D01*
X206467519Y-56488985D01*
X206606900Y-56395853D01*
X206761772Y-56331703D01*
X206926184Y-56299000D01*
X207093816Y-56299000D01*
X207258228Y-56331703D01*
X207258228Y-56331703D01*
G37*
G36*
X217336823Y-56311313D02*
G01*
X217497242Y-56359976D01*
X217609604Y-56420035D01*
X217645078Y-56438996D01*
X217774659Y-56545341D01*
X217881004Y-56674922D01*
X217881005Y-56674924D01*
X217960024Y-56822758D01*
X218008687Y-56983177D01*
X218025117Y-57150000D01*
X218008687Y-57316823D01*
X217960024Y-57477242D01*
X217919477Y-57553100D01*
X217881004Y-57625078D01*
X217774659Y-57754659D01*
X217645078Y-57861004D01*
X217645076Y-57861005D01*
X217497242Y-57940024D01*
X217336823Y-57988687D01*
X217211804Y-58001000D01*
X217128196Y-58001000D01*
X217003177Y-57988687D01*
X216842758Y-57940024D01*
X216694924Y-57861005D01*
X216694922Y-57861004D01*
X216565341Y-57754659D01*
X216458996Y-57625078D01*
X216420523Y-57553100D01*
X216379976Y-57477242D01*
X216331313Y-57316823D01*
X216314883Y-57150000D01*
X216331313Y-56983177D01*
X216379976Y-56822758D01*
X216458995Y-56674924D01*
X216458996Y-56674922D01*
X216565341Y-56545341D01*
X216694922Y-56438996D01*
X216730396Y-56420035D01*
X216842758Y-56359976D01*
X217003177Y-56311313D01*
X217128196Y-56299000D01*
X217211804Y-56299000D01*
X217336823Y-56311313D01*
X217336823Y-56311313D01*
G37*
G36*
X138061000Y-57991000D02*
G01*
X136259000Y-57991000D01*
X136259000Y-56189000D01*
X138061000Y-56189000D01*
X138061000Y-57991000D01*
X138061000Y-57991000D01*
G37*
G36*
X158381000Y-57991000D02*
G01*
X156579000Y-57991000D01*
X156579000Y-56189000D01*
X158381000Y-56189000D01*
X158381000Y-57991000D01*
X158381000Y-57991000D01*
G37*
G36*
X166480443Y-54985519D02*
G01*
X166546627Y-54992037D01*
X166716466Y-55043557D01*
X166716468Y-55043558D01*
X166782775Y-55079000D01*
X166872991Y-55127222D01*
X166908729Y-55156552D01*
X167010186Y-55239814D01*
X167087024Y-55333443D01*
X167122778Y-55377009D01*
X167206443Y-55533534D01*
X167257963Y-55703373D01*
X167275359Y-55880000D01*
X167257963Y-56056627D01*
X167206443Y-56226466D01*
X167122778Y-56382991D01*
X167111245Y-56397044D01*
X167010186Y-56520186D01*
X166908729Y-56603448D01*
X166872991Y-56632778D01*
X166859987Y-56639729D01*
X166777563Y-56683786D01*
X166716466Y-56716443D01*
X166546627Y-56767963D01*
X166480443Y-56774481D01*
X166414260Y-56781000D01*
X166325740Y-56781000D01*
X166259557Y-56774481D01*
X166193373Y-56767963D01*
X166023534Y-56716443D01*
X165962438Y-56683786D01*
X165880013Y-56639729D01*
X165867009Y-56632778D01*
X165831271Y-56603448D01*
X165729814Y-56520186D01*
X165628755Y-56397044D01*
X165617222Y-56382991D01*
X165533557Y-56226466D01*
X165482037Y-56056627D01*
X165464641Y-55880000D01*
X165482037Y-55703373D01*
X165533557Y-55533534D01*
X165617222Y-55377009D01*
X165652976Y-55333443D01*
X165729814Y-55239814D01*
X165831271Y-55156552D01*
X165867009Y-55127222D01*
X165957225Y-55079000D01*
X166023532Y-55043558D01*
X166023534Y-55043557D01*
X166193373Y-54992037D01*
X166259557Y-54985519D01*
X166325740Y-54979000D01*
X166414260Y-54979000D01*
X166480443Y-54985519D01*
X166480443Y-54985519D01*
G37*
G36*
X203312915Y-55087334D02*
G01*
X203421491Y-55120271D01*
X203421494Y-55120272D01*
X203434494Y-55127221D01*
X203521556Y-55173756D01*
X203609264Y-55245736D01*
X203681244Y-55333443D01*
X203704530Y-55377009D01*
X203734728Y-55433505D01*
X203734729Y-55433508D01*
X203767666Y-55542084D01*
X203776000Y-55626702D01*
X203776000Y-56133297D01*
X203767666Y-56217916D01*
X203735252Y-56324767D01*
X203734728Y-56326495D01*
X203731944Y-56331703D01*
X203681244Y-56426557D01*
X203609264Y-56514264D01*
X203521557Y-56586244D01*
X203457601Y-56620429D01*
X203421495Y-56639728D01*
X203421492Y-56639729D01*
X203312916Y-56672666D01*
X203200000Y-56683787D01*
X203087085Y-56672666D01*
X202978509Y-56639729D01*
X202978506Y-56639728D01*
X202942400Y-56620429D01*
X202878444Y-56586244D01*
X202790737Y-56514264D01*
X202718757Y-56426557D01*
X202675239Y-56345141D01*
X202661625Y-56324766D01*
X202644298Y-56307439D01*
X202623924Y-56293826D01*
X202601285Y-56284448D01*
X202577252Y-56279668D01*
X202552748Y-56279668D01*
X202528715Y-56284448D01*
X202506076Y-56293826D01*
X202485701Y-56307440D01*
X202468374Y-56324767D01*
X202454761Y-56345141D01*
X202411244Y-56426557D01*
X202339264Y-56514264D01*
X202251557Y-56586244D01*
X202187601Y-56620429D01*
X202151495Y-56639728D01*
X202151492Y-56639729D01*
X202042916Y-56672666D01*
X201930000Y-56683787D01*
X201817085Y-56672666D01*
X201708509Y-56639729D01*
X201708506Y-56639728D01*
X201672400Y-56620429D01*
X201608444Y-56586244D01*
X201520737Y-56514264D01*
X201457622Y-56437359D01*
X201440297Y-56420034D01*
X201419923Y-56406420D01*
X201397284Y-56397043D01*
X201373250Y-56392263D01*
X201348746Y-56392263D01*
X201324713Y-56397044D01*
X201302074Y-56406421D01*
X201281700Y-56420035D01*
X201264373Y-56437362D01*
X201250759Y-56457736D01*
X201241382Y-56480375D01*
X201236000Y-56516660D01*
X201236000Y-56681000D01*
X200084000Y-56681000D01*
X200084000Y-55079000D01*
X201236000Y-55079000D01*
X201236000Y-55243341D01*
X201238402Y-55267727D01*
X201245515Y-55291176D01*
X201257066Y-55312787D01*
X201272611Y-55331729D01*
X201291553Y-55347274D01*
X201313164Y-55358825D01*
X201336613Y-55365938D01*
X201360999Y-55368340D01*
X201385385Y-55365938D01*
X201408834Y-55358825D01*
X201430445Y-55347274D01*
X201449387Y-55331729D01*
X201457608Y-55322657D01*
X201520736Y-55245736D01*
X201608443Y-55173756D01*
X201695505Y-55127221D01*
X201708505Y-55120272D01*
X201708508Y-55120271D01*
X201817084Y-55087334D01*
X201930000Y-55076213D01*
X202042915Y-55087334D01*
X202151491Y-55120271D01*
X202151494Y-55120272D01*
X202164494Y-55127221D01*
X202251556Y-55173756D01*
X202339264Y-55245736D01*
X202411244Y-55333443D01*
X202434530Y-55377009D01*
X202454761Y-55414859D01*
X202468375Y-55435234D01*
X202485702Y-55452561D01*
X202506076Y-55466174D01*
X202528715Y-55475552D01*
X202552748Y-55480332D01*
X202577252Y-55480332D01*
X202601285Y-55475552D01*
X202623924Y-55466174D01*
X202644299Y-55452560D01*
X202661626Y-55435233D01*
X202675239Y-55414860D01*
X202718756Y-55333444D01*
X202790736Y-55245736D01*
X202878443Y-55173756D01*
X202965505Y-55127221D01*
X202978505Y-55120272D01*
X202978508Y-55120271D01*
X203087084Y-55087334D01*
X203200000Y-55076213D01*
X203312915Y-55087334D01*
X203312915Y-55087334D01*
G37*
G36*
X221257395Y-53695546D02*
G01*
X221430466Y-53767234D01*
X221502069Y-53815078D01*
X221586227Y-53871310D01*
X221718690Y-54003773D01*
X221750249Y-54051005D01*
X221822766Y-54159534D01*
X221894454Y-54332605D01*
X221931000Y-54516333D01*
X221931000Y-54703667D01*
X221894454Y-54887395D01*
X221822766Y-55060466D01*
X221782805Y-55120272D01*
X221718690Y-55216227D01*
X221586227Y-55348690D01*
X221543844Y-55377009D01*
X221430466Y-55452766D01*
X221257395Y-55524454D01*
X221073667Y-55561000D01*
X220886333Y-55561000D01*
X220702605Y-55524454D01*
X220529534Y-55452766D01*
X220416156Y-55377009D01*
X220373773Y-55348690D01*
X220241310Y-55216227D01*
X220177195Y-55120272D01*
X220137234Y-55060466D01*
X220065546Y-54887395D01*
X220029000Y-54703667D01*
X220029000Y-54516333D01*
X220065546Y-54332605D01*
X220137234Y-54159534D01*
X220209751Y-54051005D01*
X220241310Y-54003773D01*
X220373773Y-53871310D01*
X220457931Y-53815078D01*
X220529534Y-53767234D01*
X220702605Y-53695546D01*
X220886333Y-53659000D01*
X221073667Y-53659000D01*
X221257395Y-53695546D01*
X221257395Y-53695546D01*
G37*
G36*
X232591000Y-54791000D02*
G01*
X229689000Y-54791000D01*
X229689000Y-51889000D01*
X232591000Y-51889000D01*
X232591000Y-54791000D01*
X232591000Y-54791000D01*
G37*
G36*
X166480443Y-52445519D02*
G01*
X166546627Y-52452037D01*
X166716466Y-52503557D01*
X166872991Y-52587222D01*
X166908729Y-52616552D01*
X167010186Y-52699814D01*
X167090369Y-52797519D01*
X167122778Y-52837009D01*
X167206443Y-52993534D01*
X167257963Y-53163373D01*
X167275359Y-53340000D01*
X167257963Y-53516627D01*
X167206443Y-53686466D01*
X167122778Y-53842991D01*
X167099538Y-53871309D01*
X167010186Y-53980186D01*
X166908729Y-54063448D01*
X166872991Y-54092778D01*
X166716466Y-54176443D01*
X166546627Y-54227963D01*
X166480442Y-54234482D01*
X166414260Y-54241000D01*
X166325740Y-54241000D01*
X166259558Y-54234482D01*
X166193373Y-54227963D01*
X166023534Y-54176443D01*
X165867009Y-54092778D01*
X165831271Y-54063448D01*
X165729814Y-53980186D01*
X165640462Y-53871309D01*
X165617222Y-53842991D01*
X165533557Y-53686466D01*
X165482037Y-53516627D01*
X165464641Y-53340000D01*
X165482037Y-53163373D01*
X165533557Y-52993534D01*
X165617222Y-52837009D01*
X165649631Y-52797519D01*
X165729814Y-52699814D01*
X165831271Y-52616552D01*
X165867009Y-52587222D01*
X166023534Y-52503557D01*
X166193373Y-52452037D01*
X166259558Y-52445518D01*
X166325740Y-52439000D01*
X166414260Y-52439000D01*
X166480443Y-52445519D01*
X166480443Y-52445519D01*
G37*
G36*
X207258228Y-52521703D02*
G01*
X207413100Y-52585853D01*
X207552481Y-52678985D01*
X207671015Y-52797519D01*
X207764147Y-52936900D01*
X207828297Y-53091772D01*
X207861000Y-53256184D01*
X207861000Y-53423816D01*
X207828297Y-53588228D01*
X207764147Y-53743100D01*
X207671015Y-53882481D01*
X207552481Y-54001015D01*
X207413100Y-54094147D01*
X207258228Y-54158297D01*
X207093816Y-54191000D01*
X206926184Y-54191000D01*
X206761772Y-54158297D01*
X206606900Y-54094147D01*
X206467519Y-54001015D01*
X206348985Y-53882481D01*
X206255853Y-53743100D01*
X206191703Y-53588228D01*
X206159000Y-53423816D01*
X206159000Y-53256184D01*
X206191703Y-53091772D01*
X206255853Y-52936900D01*
X206348985Y-52797519D01*
X206467519Y-52678985D01*
X206606900Y-52585853D01*
X206761772Y-52521703D01*
X206926184Y-52489000D01*
X207093816Y-52489000D01*
X207258228Y-52521703D01*
X207258228Y-52521703D01*
G37*
G36*
X217336823Y-52501313D02*
G01*
X217497242Y-52549976D01*
X217564361Y-52585852D01*
X217645078Y-52628996D01*
X217774659Y-52735341D01*
X217881004Y-52864922D01*
X217881005Y-52864924D01*
X217960024Y-53012758D01*
X218008687Y-53173177D01*
X218025117Y-53340000D01*
X218008687Y-53506823D01*
X217960024Y-53667242D01*
X217889114Y-53799906D01*
X217881004Y-53815078D01*
X217774659Y-53944659D01*
X217645078Y-54051004D01*
X217645076Y-54051005D01*
X217497242Y-54130024D01*
X217336823Y-54178687D01*
X217211804Y-54191000D01*
X217128196Y-54191000D01*
X217003177Y-54178687D01*
X216842758Y-54130024D01*
X216694924Y-54051005D01*
X216694922Y-54051004D01*
X216565341Y-53944659D01*
X216458996Y-53815078D01*
X216450886Y-53799906D01*
X216379976Y-53667242D01*
X216331313Y-53506823D01*
X216314883Y-53340000D01*
X216331313Y-53173177D01*
X216379976Y-53012758D01*
X216458995Y-52864924D01*
X216458996Y-52864922D01*
X216565341Y-52735341D01*
X216694922Y-52628996D01*
X216775639Y-52585852D01*
X216842758Y-52549976D01*
X217003177Y-52501313D01*
X217128196Y-52489000D01*
X217211804Y-52489000D01*
X217336823Y-52501313D01*
X217336823Y-52501313D01*
G37*
G36*
X221931000Y-53021000D02*
G01*
X220029000Y-53021000D01*
X220029000Y-51119000D01*
X221931000Y-51119000D01*
X221931000Y-53021000D01*
X221931000Y-53021000D01*
G37*
G36*
X167271000Y-51701000D02*
G01*
X165469000Y-51701000D01*
X165469000Y-49899000D01*
X167271000Y-49899000D01*
X167271000Y-51701000D01*
X167271000Y-51701000D01*
G37*
G36*
X217339271Y-48390103D02*
G01*
X217395635Y-48395654D01*
X217612600Y-48461470D01*
X217612602Y-48461471D01*
X217812555Y-48568347D01*
X217987818Y-48712182D01*
X218131653Y-48887445D01*
X218190357Y-48997274D01*
X218238530Y-49087400D01*
X218304346Y-49304365D01*
X218326569Y-49530000D01*
X218304346Y-49755635D01*
X218243129Y-49957440D01*
X218238529Y-49972602D01*
X218131653Y-50172555D01*
X217987818Y-50347818D01*
X217812555Y-50491653D01*
X217612602Y-50598529D01*
X217612600Y-50598530D01*
X217395635Y-50664346D01*
X217339271Y-50669897D01*
X217226545Y-50681000D01*
X217113455Y-50681000D01*
X217000729Y-50669897D01*
X216944365Y-50664346D01*
X216727400Y-50598530D01*
X216727398Y-50598529D01*
X216527445Y-50491653D01*
X216352182Y-50347818D01*
X216208347Y-50172555D01*
X216101471Y-49972602D01*
X216096872Y-49957440D01*
X216035654Y-49755635D01*
X216013431Y-49530000D01*
X216035654Y-49304365D01*
X216101470Y-49087400D01*
X216149643Y-48997274D01*
X216208347Y-48887445D01*
X216352182Y-48712182D01*
X216527445Y-48568347D01*
X216727398Y-48461471D01*
X216727400Y-48461470D01*
X216944365Y-48395654D01*
X217000729Y-48390103D01*
X217113455Y-48379000D01*
X217226545Y-48379000D01*
X217339271Y-48390103D01*
X217339271Y-48390103D01*
G37*
G36*
X208161000Y-50681000D02*
G01*
X205859000Y-50681000D01*
X205859000Y-48379000D01*
X208161000Y-48379000D01*
X208161000Y-50681000D01*
X208161000Y-50681000D01*
G37*
G36*
X203312915Y-48737334D02*
G01*
X203421491Y-48770271D01*
X203421494Y-48770272D01*
X203457600Y-48789571D01*
X203521556Y-48823756D01*
X203609264Y-48895736D01*
X203681244Y-48983443D01*
X203704688Y-49027305D01*
X203734728Y-49083505D01*
X203734729Y-49083508D01*
X203767666Y-49192084D01*
X203776000Y-49276702D01*
X203776000Y-49783297D01*
X203767666Y-49867916D01*
X203735252Y-49974767D01*
X203734728Y-49976495D01*
X203724761Y-49995141D01*
X203681244Y-50076557D01*
X203609264Y-50164264D01*
X203521557Y-50236244D01*
X203457601Y-50270429D01*
X203421495Y-50289728D01*
X203421492Y-50289729D01*
X203312916Y-50322666D01*
X203200000Y-50333787D01*
X203087085Y-50322666D01*
X202978509Y-50289729D01*
X202978506Y-50289728D01*
X202942400Y-50270429D01*
X202878444Y-50236244D01*
X202790737Y-50164264D01*
X202718757Y-50076557D01*
X202675239Y-49995141D01*
X202661625Y-49974766D01*
X202644298Y-49957439D01*
X202623924Y-49943826D01*
X202601285Y-49934448D01*
X202577252Y-49929668D01*
X202552748Y-49929668D01*
X202528715Y-49934448D01*
X202506076Y-49943826D01*
X202485701Y-49957440D01*
X202468374Y-49974767D01*
X202454761Y-49995141D01*
X202411244Y-50076557D01*
X202339264Y-50164264D01*
X202251557Y-50236244D01*
X202187601Y-50270429D01*
X202151495Y-50289728D01*
X202151492Y-50289729D01*
X202042916Y-50322666D01*
X201930000Y-50333787D01*
X201817085Y-50322666D01*
X201708509Y-50289729D01*
X201708506Y-50289728D01*
X201672400Y-50270429D01*
X201608444Y-50236244D01*
X201520737Y-50164264D01*
X201457622Y-50087359D01*
X201440297Y-50070034D01*
X201419923Y-50056420D01*
X201397284Y-50047043D01*
X201373250Y-50042263D01*
X201348746Y-50042263D01*
X201324713Y-50047044D01*
X201302074Y-50056421D01*
X201281700Y-50070035D01*
X201264373Y-50087362D01*
X201250759Y-50107736D01*
X201241382Y-50130375D01*
X201236000Y-50166660D01*
X201236000Y-50331000D01*
X200084000Y-50331000D01*
X200084000Y-48729000D01*
X201236000Y-48729000D01*
X201236000Y-48893341D01*
X201238402Y-48917727D01*
X201245515Y-48941176D01*
X201257066Y-48962787D01*
X201272611Y-48981729D01*
X201291553Y-48997274D01*
X201313164Y-49008825D01*
X201336613Y-49015938D01*
X201360999Y-49018340D01*
X201385385Y-49015938D01*
X201408834Y-49008825D01*
X201430445Y-48997274D01*
X201449387Y-48981729D01*
X201457608Y-48972657D01*
X201520736Y-48895736D01*
X201608443Y-48823756D01*
X201672399Y-48789571D01*
X201708505Y-48770272D01*
X201708508Y-48770271D01*
X201817084Y-48737334D01*
X201930000Y-48726213D01*
X202042915Y-48737334D01*
X202151491Y-48770271D01*
X202151494Y-48770272D01*
X202187600Y-48789571D01*
X202251556Y-48823756D01*
X202339264Y-48895736D01*
X202411244Y-48983443D01*
X202454761Y-49064859D01*
X202468375Y-49085234D01*
X202485702Y-49102561D01*
X202506076Y-49116174D01*
X202528715Y-49125552D01*
X202552748Y-49130332D01*
X202577252Y-49130332D01*
X202601285Y-49125552D01*
X202623924Y-49116174D01*
X202644299Y-49102560D01*
X202661626Y-49085233D01*
X202675239Y-49064860D01*
X202718756Y-48983444D01*
X202790736Y-48895736D01*
X202878443Y-48823756D01*
X202942399Y-48789571D01*
X202978505Y-48770272D01*
X202978508Y-48770271D01*
X203087084Y-48737334D01*
X203200000Y-48726213D01*
X203312915Y-48737334D01*
X203312915Y-48737334D01*
G37*
G36*
X231563241Y-46944760D02*
G01*
X231827305Y-47054139D01*
X232064958Y-47212934D01*
X232267066Y-47415042D01*
X232425861Y-47652695D01*
X232535240Y-47916759D01*
X232591000Y-48197088D01*
X232591000Y-48482912D01*
X232535240Y-48763241D01*
X232425861Y-49027305D01*
X232267066Y-49264958D01*
X232064958Y-49467066D01*
X231827305Y-49625861D01*
X231563241Y-49735240D01*
X231282912Y-49791000D01*
X230997088Y-49791000D01*
X230716759Y-49735240D01*
X230452695Y-49625861D01*
X230215042Y-49467066D01*
X230012934Y-49264958D01*
X229854139Y-49027305D01*
X229744760Y-48763241D01*
X229689000Y-48482912D01*
X229689000Y-48197088D01*
X229744760Y-47916759D01*
X229854139Y-47652695D01*
X230012934Y-47415042D01*
X230215042Y-47212934D01*
X230452695Y-47054139D01*
X230716759Y-46944760D01*
X230997088Y-46889000D01*
X231282912Y-46889000D01*
X231563241Y-46944760D01*
X231563241Y-46944760D01*
G37*
G36*
X231563241Y-41944760D02*
G01*
X231827305Y-42054139D01*
X232064958Y-42212934D01*
X232267066Y-42415042D01*
X232425861Y-42652695D01*
X232535240Y-42916759D01*
X232591000Y-43197088D01*
X232591000Y-43482912D01*
X232535240Y-43763241D01*
X232425861Y-44027305D01*
X232267066Y-44264958D01*
X232064958Y-44467066D01*
X231827305Y-44625861D01*
X231563241Y-44735240D01*
X231282912Y-44791000D01*
X230997088Y-44791000D01*
X230716759Y-44735240D01*
X230452695Y-44625861D01*
X230215042Y-44467066D01*
X230012934Y-44264958D01*
X229854139Y-44027305D01*
X229744760Y-43763241D01*
X229689000Y-43482912D01*
X229689000Y-43197088D01*
X229744760Y-42916759D01*
X229854139Y-42652695D01*
X230012934Y-42415042D01*
X230215042Y-42212934D01*
X230452695Y-42054139D01*
X230716759Y-41944760D01*
X230997088Y-41889000D01*
X231282912Y-41889000D01*
X231563241Y-41944760D01*
X231563241Y-41944760D01*
G37*
G36*
X207519472Y-39578412D02*
G01*
X207615040Y-39587825D01*
X207860280Y-39662218D01*
X208086294Y-39783025D01*
X208137899Y-39825376D01*
X208284397Y-39945603D01*
X208404624Y-40092101D01*
X208446975Y-40143706D01*
X208567782Y-40369720D01*
X208642175Y-40614960D01*
X208667294Y-40870000D01*
X208642175Y-41125040D01*
X208567782Y-41370280D01*
X208446975Y-41596294D01*
X208404624Y-41647899D01*
X208284397Y-41794397D01*
X208137899Y-41914624D01*
X208086294Y-41956975D01*
X207860280Y-42077782D01*
X207615040Y-42152175D01*
X207519473Y-42161587D01*
X207423906Y-42171000D01*
X207296094Y-42171000D01*
X207200527Y-42161587D01*
X207104960Y-42152175D01*
X206859720Y-42077782D01*
X206633706Y-41956975D01*
X206582101Y-41914624D01*
X206435603Y-41794397D01*
X206315376Y-41647899D01*
X206273025Y-41596294D01*
X206152218Y-41370280D01*
X206077825Y-41125040D01*
X206052706Y-40870000D01*
X206077825Y-40614960D01*
X206152218Y-40369720D01*
X206273025Y-40143706D01*
X206315376Y-40092101D01*
X206435603Y-39945603D01*
X206582101Y-39825376D01*
X206633706Y-39783025D01*
X206859720Y-39662218D01*
X207104960Y-39587825D01*
X207200528Y-39578412D01*
X207296094Y-39569000D01*
X207423906Y-39569000D01*
X207519472Y-39578412D01*
X207519472Y-39578412D01*
G37*
G36*
X219519472Y-39578412D02*
G01*
X219615040Y-39587825D01*
X219860280Y-39662218D01*
X220086294Y-39783025D01*
X220137899Y-39825376D01*
X220284397Y-39945603D01*
X220404624Y-40092101D01*
X220446975Y-40143706D01*
X220567782Y-40369720D01*
X220642175Y-40614960D01*
X220667294Y-40870000D01*
X220642175Y-41125040D01*
X220567782Y-41370280D01*
X220446975Y-41596294D01*
X220404624Y-41647899D01*
X220284397Y-41794397D01*
X220137899Y-41914624D01*
X220086294Y-41956975D01*
X219860280Y-42077782D01*
X219615040Y-42152175D01*
X219519473Y-42161587D01*
X219423906Y-42171000D01*
X219296094Y-42171000D01*
X219200527Y-42161587D01*
X219104960Y-42152175D01*
X218859720Y-42077782D01*
X218633706Y-41956975D01*
X218582101Y-41914624D01*
X218435603Y-41794397D01*
X218315376Y-41647899D01*
X218273025Y-41596294D01*
X218152218Y-41370280D01*
X218077825Y-41125040D01*
X218052706Y-40870000D01*
X218077825Y-40614960D01*
X218152218Y-40369720D01*
X218273025Y-40143706D01*
X218315376Y-40092101D01*
X218435603Y-39945603D01*
X218582101Y-39825376D01*
X218633706Y-39783025D01*
X218859720Y-39662218D01*
X219104960Y-39587825D01*
X219200528Y-39578412D01*
X219296094Y-39569000D01*
X219423906Y-39569000D01*
X219519472Y-39578412D01*
X219519472Y-39578412D01*
G37*
G36*
X231563241Y-36944760D02*
G01*
X231827305Y-37054139D01*
X232064958Y-37212934D01*
X232267066Y-37415042D01*
X232425861Y-37652695D01*
X232535240Y-37916759D01*
X232591000Y-38197088D01*
X232591000Y-38482912D01*
X232535240Y-38763241D01*
X232425861Y-39027305D01*
X232267066Y-39264958D01*
X232064958Y-39467066D01*
X231827305Y-39625861D01*
X231563241Y-39735240D01*
X231282912Y-39791000D01*
X230997088Y-39791000D01*
X230716759Y-39735240D01*
X230452695Y-39625861D01*
X230215042Y-39467066D01*
X230012934Y-39264958D01*
X229854139Y-39027305D01*
X229744760Y-38763241D01*
X229689000Y-38482912D01*
X229689000Y-38197088D01*
X229744760Y-37916759D01*
X229854139Y-37652695D01*
X230012934Y-37415042D01*
X230215042Y-37212934D01*
X230452695Y-37054139D01*
X230716759Y-36944760D01*
X230997088Y-36889000D01*
X231282912Y-36889000D01*
X231563241Y-36944760D01*
X231563241Y-36944760D01*
G37*
G36*
X194534549Y-33161116D02*
G01*
X194645734Y-33183232D01*
X194855203Y-33269997D01*
X195043720Y-33395960D01*
X195204040Y-33556280D01*
X195330003Y-33744797D01*
X195416768Y-33954266D01*
X195461000Y-34176636D01*
X195461000Y-34403364D01*
X195416768Y-34625734D01*
X195330003Y-34835203D01*
X195204040Y-35023720D01*
X195043720Y-35184040D01*
X194855203Y-35310003D01*
X194645734Y-35396768D01*
X194534549Y-35418884D01*
X194423365Y-35441000D01*
X194196635Y-35441000D01*
X194085451Y-35418884D01*
X193974266Y-35396768D01*
X193764797Y-35310003D01*
X193576280Y-35184040D01*
X193415960Y-35023720D01*
X193289997Y-34835203D01*
X193203232Y-34625734D01*
X193159000Y-34403364D01*
X193159000Y-34176636D01*
X193203232Y-33954266D01*
X193289997Y-33744797D01*
X193415960Y-33556280D01*
X193576280Y-33395960D01*
X193764797Y-33269997D01*
X193974266Y-33183232D01*
X194085451Y-33161116D01*
X194196635Y-33139000D01*
X194423365Y-33139000D01*
X194534549Y-33161116D01*
X194534549Y-33161116D01*
G37*
G36*
X175484549Y-33161116D02*
G01*
X175595734Y-33183232D01*
X175805203Y-33269997D01*
X175993720Y-33395960D01*
X176154040Y-33556280D01*
X176280003Y-33744797D01*
X176366768Y-33954266D01*
X176411000Y-34176636D01*
X176411000Y-34403364D01*
X176366768Y-34625734D01*
X176280003Y-34835203D01*
X176154040Y-35023720D01*
X175993720Y-35184040D01*
X175805203Y-35310003D01*
X175595734Y-35396768D01*
X175484549Y-35418884D01*
X175373365Y-35441000D01*
X175146635Y-35441000D01*
X175035451Y-35418884D01*
X174924266Y-35396768D01*
X174714797Y-35310003D01*
X174526280Y-35184040D01*
X174365960Y-35023720D01*
X174239997Y-34835203D01*
X174153232Y-34625734D01*
X174109000Y-34403364D01*
X174109000Y-34176636D01*
X174153232Y-33954266D01*
X174239997Y-33744797D01*
X174365960Y-33556280D01*
X174526280Y-33395960D01*
X174714797Y-33269997D01*
X174924266Y-33183232D01*
X175035451Y-33161116D01*
X175146635Y-33139000D01*
X175373365Y-33139000D01*
X175484549Y-33161116D01*
X175484549Y-33161116D01*
G37*
G36*
X232591000Y-33201000D02*
G01*
X229689000Y-33201000D01*
X229689000Y-30299000D01*
X232591000Y-30299000D01*
X232591000Y-33201000D01*
X232591000Y-33201000D01*
G37*
G36*
X219519473Y-27378413D02*
G01*
X219615040Y-27387825D01*
X219860280Y-27462218D01*
X220086294Y-27583025D01*
X220137899Y-27625376D01*
X220284397Y-27745603D01*
X220392284Y-27877065D01*
X220446975Y-27943706D01*
X220567782Y-28169720D01*
X220642175Y-28414960D01*
X220667294Y-28670000D01*
X220642175Y-28925040D01*
X220567782Y-29170280D01*
X220446975Y-29396294D01*
X220404624Y-29447899D01*
X220284397Y-29594397D01*
X220137899Y-29714624D01*
X220086294Y-29756975D01*
X219860280Y-29877782D01*
X219615040Y-29952175D01*
X219519472Y-29961588D01*
X219423906Y-29971000D01*
X219296094Y-29971000D01*
X219200528Y-29961588D01*
X219104960Y-29952175D01*
X218859720Y-29877782D01*
X218633706Y-29756975D01*
X218582101Y-29714624D01*
X218435603Y-29594397D01*
X218315376Y-29447899D01*
X218273025Y-29396294D01*
X218152218Y-29170280D01*
X218077825Y-28925040D01*
X218052706Y-28670000D01*
X218077825Y-28414960D01*
X218152218Y-28169720D01*
X218273025Y-27943706D01*
X218327716Y-27877065D01*
X218435603Y-27745603D01*
X218582101Y-27625376D01*
X218633706Y-27583025D01*
X218859720Y-27462218D01*
X219104960Y-27387825D01*
X219200527Y-27378413D01*
X219296094Y-27369000D01*
X219423906Y-27369000D01*
X219519473Y-27378413D01*
X219519473Y-27378413D01*
G37*
G36*
X207519473Y-27378413D02*
G01*
X207615040Y-27387825D01*
X207860280Y-27462218D01*
X208086294Y-27583025D01*
X208137899Y-27625376D01*
X208284397Y-27745603D01*
X208392284Y-27877065D01*
X208446975Y-27943706D01*
X208567782Y-28169720D01*
X208642175Y-28414960D01*
X208667294Y-28670000D01*
X208642175Y-28925040D01*
X208567782Y-29170280D01*
X208446975Y-29396294D01*
X208404624Y-29447899D01*
X208284397Y-29594397D01*
X208137899Y-29714624D01*
X208086294Y-29756975D01*
X207860280Y-29877782D01*
X207615040Y-29952175D01*
X207519472Y-29961588D01*
X207423906Y-29971000D01*
X207296094Y-29971000D01*
X207200528Y-29961588D01*
X207104960Y-29952175D01*
X206859720Y-29877782D01*
X206633706Y-29756975D01*
X206582101Y-29714624D01*
X206435603Y-29594397D01*
X206315376Y-29447899D01*
X206273025Y-29396294D01*
X206152218Y-29170280D01*
X206077825Y-28925040D01*
X206052706Y-28670000D01*
X206077825Y-28414960D01*
X206152218Y-28169720D01*
X206273025Y-27943706D01*
X206327716Y-27877065D01*
X206435603Y-27745603D01*
X206582101Y-27625376D01*
X206633706Y-27583025D01*
X206859720Y-27462218D01*
X207104960Y-27387825D01*
X207200527Y-27378413D01*
X207296094Y-27369000D01*
X207423906Y-27369000D01*
X207519473Y-27378413D01*
X207519473Y-27378413D01*
G37*
G36*
X125831000Y-29391000D02*
G01*
X122929000Y-29391000D01*
X122929000Y-26489000D01*
X125831000Y-26489000D01*
X125831000Y-29391000D01*
X125831000Y-29391000D01*
G37*
G36*
X119803241Y-26544760D02*
G01*
X120067305Y-26654139D01*
X120304958Y-26812934D01*
X120507066Y-27015042D01*
X120665861Y-27252695D01*
X120775240Y-27516759D01*
X120831000Y-27797088D01*
X120831000Y-28082912D01*
X120775240Y-28363241D01*
X120665861Y-28627305D01*
X120507066Y-28864958D01*
X120304958Y-29067066D01*
X120067305Y-29225861D01*
X119803241Y-29335240D01*
X119522912Y-29391000D01*
X119237088Y-29391000D01*
X118956759Y-29335240D01*
X118692695Y-29225861D01*
X118455042Y-29067066D01*
X118252934Y-28864958D01*
X118094139Y-28627305D01*
X117984760Y-28363241D01*
X117929000Y-28082912D01*
X117929000Y-27797088D01*
X117984760Y-27516759D01*
X118094139Y-27252695D01*
X118252934Y-27015042D01*
X118455042Y-26812934D01*
X118692695Y-26654139D01*
X118956759Y-26544760D01*
X119237088Y-26489000D01*
X119522912Y-26489000D01*
X119803241Y-26544760D01*
X119803241Y-26544760D01*
G37*
G36*
X201035256Y-25061298D02*
G01*
X201141579Y-25082447D01*
X201442042Y-25206903D01*
X201712451Y-25387585D01*
X201942415Y-25617549D01*
X202123097Y-25887958D01*
X202247553Y-26188421D01*
X202311000Y-26507391D01*
X202311000Y-26832609D01*
X202247553Y-27151579D01*
X202123097Y-27452042D01*
X201942415Y-27722451D01*
X201712451Y-27952415D01*
X201442042Y-28133097D01*
X201442041Y-28133098D01*
X201442040Y-28133098D01*
X201354037Y-28169550D01*
X201141579Y-28257553D01*
X201035256Y-28278702D01*
X200822611Y-28321000D01*
X200497389Y-28321000D01*
X200284744Y-28278702D01*
X200178421Y-28257553D01*
X199965963Y-28169550D01*
X199877960Y-28133098D01*
X199877959Y-28133098D01*
X199877958Y-28133097D01*
X199607549Y-27952415D01*
X199377585Y-27722451D01*
X199196903Y-27452042D01*
X199072447Y-27151579D01*
X199009000Y-26832609D01*
X199009000Y-26507391D01*
X199072447Y-26188421D01*
X199196903Y-25887958D01*
X199377585Y-25617549D01*
X199607549Y-25387585D01*
X199877958Y-25206903D01*
X200178421Y-25082447D01*
X200284744Y-25061298D01*
X200497389Y-25019000D01*
X200822611Y-25019000D01*
X201035256Y-25061298D01*
X201035256Y-25061298D01*
G37*
G36*
X54985256Y-25061298D02*
G01*
X55091579Y-25082447D01*
X55392042Y-25206903D01*
X55662451Y-25387585D01*
X55892415Y-25617549D01*
X56073097Y-25887958D01*
X56197553Y-26188421D01*
X56261000Y-26507391D01*
X56261000Y-26832609D01*
X56197553Y-27151579D01*
X56073097Y-27452042D01*
X55892415Y-27722451D01*
X55662451Y-27952415D01*
X55392042Y-28133097D01*
X55392041Y-28133098D01*
X55392040Y-28133098D01*
X55304037Y-28169550D01*
X55091579Y-28257553D01*
X54985256Y-28278702D01*
X54772611Y-28321000D01*
X54447389Y-28321000D01*
X54234744Y-28278702D01*
X54128421Y-28257553D01*
X53915963Y-28169550D01*
X53827960Y-28133098D01*
X53827959Y-28133098D01*
X53827958Y-28133097D01*
X53557549Y-27952415D01*
X53327585Y-27722451D01*
X53146903Y-27452042D01*
X53022447Y-27151579D01*
X52959000Y-26832609D01*
X52959000Y-26507391D01*
X53022447Y-26188421D01*
X53146903Y-25887958D01*
X53327585Y-25617549D01*
X53557549Y-25387585D01*
X53827958Y-25206903D01*
X54128421Y-25082447D01*
X54234744Y-25061298D01*
X54447389Y-25019000D01*
X54772611Y-25019000D01*
X54985256Y-25061298D01*
X54985256Y-25061298D01*
G37*
G36*
X231563241Y-25354760D02*
G01*
X231827305Y-25464139D01*
X232064958Y-25622934D01*
X232267066Y-25825042D01*
X232425861Y-26062695D01*
X232535240Y-26326759D01*
X232591000Y-26607088D01*
X232591000Y-26892912D01*
X232535240Y-27173241D01*
X232425861Y-27437305D01*
X232267066Y-27674958D01*
X232064958Y-27877066D01*
X231827305Y-28035861D01*
X231563241Y-28145240D01*
X231282912Y-28201000D01*
X230997088Y-28201000D01*
X230716759Y-28145240D01*
X230452695Y-28035861D01*
X230215042Y-27877066D01*
X230012934Y-27674958D01*
X229854139Y-27437305D01*
X229744760Y-27173241D01*
X229689000Y-26892912D01*
X229689000Y-26607088D01*
X229744760Y-26326759D01*
X229854139Y-26062695D01*
X230012934Y-25825042D01*
X230215042Y-25622934D01*
X230452695Y-25464139D01*
X230716759Y-25354760D01*
X230997088Y-25299000D01*
X231282912Y-25299000D01*
X231563241Y-25354760D01*
X231563241Y-25354760D01*
G37*
G36*
X214661000Y-27971000D02*
G01*
X212059000Y-27971000D01*
X212059000Y-25369000D01*
X214661000Y-25369000D01*
X214661000Y-27971000D01*
X214661000Y-27971000D01*
G37*
G36*
X189340442Y-24505518D02*
G01*
X189406627Y-24512037D01*
X189576466Y-24563557D01*
X189732991Y-24647222D01*
X189768729Y-24676552D01*
X189870186Y-24759814D01*
X189953448Y-24861271D01*
X189982778Y-24897009D01*
X190066443Y-25053534D01*
X190117963Y-25223373D01*
X190135359Y-25400000D01*
X190117963Y-25576627D01*
X190066443Y-25746466D01*
X189982778Y-25902991D01*
X189953448Y-25938729D01*
X189870186Y-26040186D01*
X189768729Y-26123448D01*
X189732991Y-26152778D01*
X189576466Y-26236443D01*
X189406627Y-26287963D01*
X189340443Y-26294481D01*
X189274260Y-26301000D01*
X189185740Y-26301000D01*
X189119557Y-26294481D01*
X189053373Y-26287963D01*
X188883534Y-26236443D01*
X188727009Y-26152778D01*
X188691271Y-26123448D01*
X188589814Y-26040186D01*
X188506552Y-25938729D01*
X188477222Y-25902991D01*
X188393557Y-25746466D01*
X188342037Y-25576627D01*
X188324641Y-25400000D01*
X188342037Y-25223373D01*
X188393557Y-25053534D01*
X188477222Y-24897009D01*
X188506552Y-24861271D01*
X188589814Y-24759814D01*
X188691271Y-24676552D01*
X188727009Y-24647222D01*
X188883534Y-24563557D01*
X189053373Y-24512037D01*
X189119557Y-24505519D01*
X189185740Y-24499000D01*
X189274260Y-24499000D01*
X189340442Y-24505518D01*
X189340442Y-24505518D01*
G37*
G36*
X186800442Y-24505518D02*
G01*
X186866627Y-24512037D01*
X187036466Y-24563557D01*
X187192991Y-24647222D01*
X187228729Y-24676552D01*
X187330186Y-24759814D01*
X187413448Y-24861271D01*
X187442778Y-24897009D01*
X187526443Y-25053534D01*
X187577963Y-25223373D01*
X187595359Y-25400000D01*
X187577963Y-25576627D01*
X187526443Y-25746466D01*
X187442778Y-25902991D01*
X187413448Y-25938729D01*
X187330186Y-26040186D01*
X187228729Y-26123448D01*
X187192991Y-26152778D01*
X187036466Y-26236443D01*
X186866627Y-26287963D01*
X186800443Y-26294481D01*
X186734260Y-26301000D01*
X186645740Y-26301000D01*
X186579557Y-26294481D01*
X186513373Y-26287963D01*
X186343534Y-26236443D01*
X186187009Y-26152778D01*
X186151271Y-26123448D01*
X186049814Y-26040186D01*
X185966552Y-25938729D01*
X185937222Y-25902991D01*
X185853557Y-25746466D01*
X185802037Y-25576627D01*
X185784641Y-25400000D01*
X185802037Y-25223373D01*
X185853557Y-25053534D01*
X185937222Y-24897009D01*
X185966552Y-24861271D01*
X186049814Y-24759814D01*
X186151271Y-24676552D01*
X186187009Y-24647222D01*
X186343534Y-24563557D01*
X186513373Y-24512037D01*
X186579557Y-24505519D01*
X186645740Y-24499000D01*
X186734260Y-24499000D01*
X186800442Y-24505518D01*
X186800442Y-24505518D01*
G37*
G36*
X184260442Y-24505518D02*
G01*
X184326627Y-24512037D01*
X184496466Y-24563557D01*
X184652991Y-24647222D01*
X184688729Y-24676552D01*
X184790186Y-24759814D01*
X184873448Y-24861271D01*
X184902778Y-24897009D01*
X184986443Y-25053534D01*
X185037963Y-25223373D01*
X185055359Y-25400000D01*
X185037963Y-25576627D01*
X184986443Y-25746466D01*
X184902778Y-25902991D01*
X184873448Y-25938729D01*
X184790186Y-26040186D01*
X184688729Y-26123448D01*
X184652991Y-26152778D01*
X184496466Y-26236443D01*
X184326627Y-26287963D01*
X184260443Y-26294481D01*
X184194260Y-26301000D01*
X184105740Y-26301000D01*
X184039557Y-26294481D01*
X183973373Y-26287963D01*
X183803534Y-26236443D01*
X183647009Y-26152778D01*
X183611271Y-26123448D01*
X183509814Y-26040186D01*
X183426552Y-25938729D01*
X183397222Y-25902991D01*
X183313557Y-25746466D01*
X183262037Y-25576627D01*
X183244641Y-25400000D01*
X183262037Y-25223373D01*
X183313557Y-25053534D01*
X183397222Y-24897009D01*
X183426552Y-24861271D01*
X183509814Y-24759814D01*
X183611271Y-24676552D01*
X183647009Y-24647222D01*
X183803534Y-24563557D01*
X183973373Y-24512037D01*
X184039557Y-24505519D01*
X184105740Y-24499000D01*
X184194260Y-24499000D01*
X184260442Y-24505518D01*
X184260442Y-24505518D01*
G37*
G36*
X182511000Y-26301000D02*
G01*
X180709000Y-26301000D01*
X180709000Y-24499000D01*
X182511000Y-24499000D01*
X182511000Y-26301000D01*
X182511000Y-26301000D01*
G37*
M02*
