M48
; DRILL file {KiCad (5.1.2)-2} date 2019-06-30 10:01:46 AM
; FORMAT={-:-/ absolute / inch / decimal}
; #@! TF.CreationDate,2019-06-30T10:01:46-04:00
; #@! TF.GenerationSoftware,Kicad,Pcbnew,(5.1.2)-2
; #@! TF.FileFunction,Plated,1,2,PTH
FMAT,2
INCH
T1C0.0157
T2C0.0236
T3C0.0295
T4C0.0315
T5C0.0320
T6C0.0354
T7C0.0394
T8C0.0433
T9C0.0472
T10C0.0512
T11C0.0551
%
G90
G05
T1
X5.35Y-4.7
X5.35Y-4.75
X5.84Y-4.4
X5.9055Y-2.9066
X6.08Y-4.8
X6.1528Y-1.9
X6.85Y-4.15
X7.05Y-5.55
X7.8Y-1.6902
X7.8Y-2.25
X7.8Y-2.5
X7.8Y-2.55
X7.8Y-2.6
X7.8Y-2.65
X7.8Y-2.7
X7.95Y-3.75
X7.95Y-3.8
X7.95Y-3.85
X7.95Y-3.9
X7.95Y-3.95
X8.5909Y-4.4909
X8.6Y-4.3492
X8.6Y-4.3965
X8.6Y-4.4437
T2
X8.2Y-3.65
X8.2591Y-3.65
X8.4409Y-3.65
X8.5Y-3.65
T3
X7.9Y-5.0
X7.95Y-5.0
X8.0Y-5.0
X7.9Y-1.95
X7.95Y-1.95
X8.0Y-1.95
X7.9Y-2.2
X7.95Y-2.2
X8.0Y-2.2
X7.9Y-4.75
X7.95Y-4.75
X8.0Y-4.75
T4
X6.15Y-4.5
X6.55Y-4.5
X8.15Y-2.1
X8.55Y-2.1
X8.15Y-4.7
X8.55Y-4.7
X8.15Y-4.85
X8.55Y-4.85
X6.726Y-4.35
X7.126Y-4.35
X6.15Y-4.35
X6.55Y-4.35
X8.15Y-4.55
X8.55Y-4.55
X6.726Y-4.5
X7.126Y-4.5
X6.3016Y-4.65
X6.4Y-4.65
X8.15Y-2.4
X8.55Y-2.4
X8.15Y-2.25
X8.55Y-2.25
X6.8871Y-4.65
X6.9855Y-4.65
T5
X2.6Y-5.2
X2.6Y-5.4
X2.9Y-5.2
X2.9Y-5.4
X2.15Y-5.2
X2.15Y-5.4
X2.45Y-5.2
X2.45Y-5.4
T6
X8.7Y-2.05
X8.7Y-2.15
X8.7Y-4.8
X8.7Y-4.9
T7
X6.55Y-2.0
X6.55Y-2.1
X6.55Y-2.2
X6.55Y-2.3
X6.55Y-2.4
X6.55Y-2.5
X6.55Y-2.6
X6.55Y-2.7
X6.55Y-2.8
X6.55Y-2.9
X7.15Y-1.0
X7.25Y-1.0
X7.35Y-1.0
X7.45Y-1.0
X5.4Y-2.2476
X5.4Y-2.3476
X5.4Y-2.4476
X5.4Y-2.5476
X5.4Y-2.6476
X5.4Y-2.7476
X5.4Y-2.8476
X5.4Y-2.9476
X5.4Y-3.0476
X5.4Y-3.1476
X5.4Y-3.2476
X5.4Y-3.3476
X5.4Y-3.4476
X5.4Y-3.5476
X6.2Y-2.2476
X6.2Y-2.3476
X6.2Y-2.4476
X6.2Y-2.5476
X6.2Y-2.6476
X6.2Y-2.7476
X6.2Y-2.8476
X6.2Y-2.9476
X6.2Y-3.0476
X6.2Y-3.1476
X6.2Y-3.2476
X6.2Y-3.3476
X6.2Y-3.4476
X6.2Y-3.5476
T8
X8.15Y-5.0
X8.55Y-5.0
X8.15Y-1.95
X8.55Y-1.95
T9
X8.25Y-3.35
X8.35Y-3.35
X8.45Y-3.35
T10
X7.0Y-5.25
X7.1969Y-5.25
X7.3937Y-5.25
X8.1638Y-5.3409
X8.1638Y-5.8213
X8.4Y-5.9
X8.6362Y-5.3409
X8.6362Y-5.8213
X8.1638Y-1.1287
X8.1638Y-1.6091
X8.4Y-1.05
X8.6362Y-1.1287
X8.6362Y-1.6091
X4.5Y-5.25
X4.6969Y-5.25
X4.8937Y-5.25
X5.7531Y-5.25
X5.95Y-5.25
X6.1469Y-5.25
X3.25Y-5.25
X3.4469Y-5.25
X3.6437Y-5.25
T11
X9.1Y-4.8594
X9.1Y-5.0563
X9.1Y-5.2531
X9.1Y-5.45
X4.7Y-1.1
X4.8969Y-1.1
X9.1Y-2.3657
X9.1Y-2.5626
X9.1Y-2.7594
X9.1Y-2.9563
X9.1Y-3.1531
X9.1Y-3.35
X9.1Y-1.0531
X9.1Y-1.25
X9.1Y-1.5094
X9.1Y-1.7063
X9.1Y-1.9031
X9.1Y-2.1
X9.1Y-5.7031
X9.1Y-5.9
X9.1Y-3.6157
X9.1Y-3.8126
X9.1Y-4.0094
X9.1Y-4.2063
X9.1Y-4.4031
X9.1Y-4.6
T0
M30
