G04 #@! TF.GenerationSoftware,KiCad,Pcbnew,(5.1.2)-2*
G04 #@! TF.CreationDate,2019-06-30T10:01:43-04:00*
G04 #@! TF.ProjectId,controller,636f6e74-726f-46c6-9c65-722e6b696361,rev?*
G04 #@! TF.SameCoordinates,Original*
G04 #@! TF.FileFunction,Legend,Top*
G04 #@! TF.FilePolarity,Positive*
%FSLAX46Y46*%
G04 Gerber Fmt 4.6, Leading zero omitted, Abs format (unit mm)*
G04 Created by KiCad (PCBNEW (5.1.2)-2) date 2019-06-30 10:01:43*
%MOMM*%
%LPD*%
G04 APERTURE LIST*
%ADD10C,0.150000*%
%ADD11C,0.300000*%
%ADD12C,1.000000*%
%ADD13C,0.250000*%
%ADD14C,0.120000*%
%ADD15C,0.100000*%
%ADD16C,0.200000*%
G04 APERTURE END LIST*
D10*
X188468095Y-27186000D02*
X188372857Y-27138380D01*
X188230000Y-27138380D01*
X188087142Y-27186000D01*
X187991904Y-27281238D01*
X187944285Y-27376476D01*
X187896666Y-27566952D01*
X187896666Y-27709809D01*
X187944285Y-27900285D01*
X187991904Y-27995523D01*
X188087142Y-28090761D01*
X188230000Y-28138380D01*
X188325238Y-28138380D01*
X188468095Y-28090761D01*
X188515714Y-28043142D01*
X188515714Y-27709809D01*
X188325238Y-27709809D01*
X188944285Y-28138380D02*
X188944285Y-27138380D01*
X189515714Y-28138380D01*
X189515714Y-27138380D01*
X189991904Y-28138380D02*
X189991904Y-27138380D01*
X190230000Y-27138380D01*
X190372857Y-27186000D01*
X190468095Y-27281238D01*
X190515714Y-27376476D01*
X190563333Y-27566952D01*
X190563333Y-27709809D01*
X190515714Y-27900285D01*
X190468095Y-27995523D01*
X190372857Y-28090761D01*
X190230000Y-28138380D01*
X189991904Y-28138380D01*
X187094761Y-29662285D02*
X187142380Y-29519428D01*
X187142380Y-29281333D01*
X187094761Y-29186095D01*
X187047142Y-29138476D01*
X186951904Y-29090857D01*
X186856666Y-29090857D01*
X186761428Y-29138476D01*
X186713809Y-29186095D01*
X186666190Y-29281333D01*
X186618571Y-29471809D01*
X186570952Y-29567047D01*
X186523333Y-29614666D01*
X186428095Y-29662285D01*
X186332857Y-29662285D01*
X186237619Y-29614666D01*
X186190000Y-29567047D01*
X186142380Y-29471809D01*
X186142380Y-29233714D01*
X186190000Y-29090857D01*
X187142380Y-28662285D02*
X186142380Y-28662285D01*
X186142380Y-28424190D01*
X186190000Y-28281333D01*
X186285238Y-28186095D01*
X186380476Y-28138476D01*
X186570952Y-28090857D01*
X186713809Y-28090857D01*
X186904285Y-28138476D01*
X186999523Y-28186095D01*
X187094761Y-28281333D01*
X187142380Y-28424190D01*
X187142380Y-28662285D01*
X186856666Y-27709904D02*
X186856666Y-27233714D01*
X187142380Y-27805142D02*
X186142380Y-27471809D01*
X187142380Y-27138476D01*
X184554761Y-29638476D02*
X184602380Y-29495619D01*
X184602380Y-29257523D01*
X184554761Y-29162285D01*
X184507142Y-29114666D01*
X184411904Y-29067047D01*
X184316666Y-29067047D01*
X184221428Y-29114666D01*
X184173809Y-29162285D01*
X184126190Y-29257523D01*
X184078571Y-29448000D01*
X184030952Y-29543238D01*
X183983333Y-29590857D01*
X183888095Y-29638476D01*
X183792857Y-29638476D01*
X183697619Y-29590857D01*
X183650000Y-29543238D01*
X183602380Y-29448000D01*
X183602380Y-29209904D01*
X183650000Y-29067047D01*
X184507142Y-28067047D02*
X184554761Y-28114666D01*
X184602380Y-28257523D01*
X184602380Y-28352761D01*
X184554761Y-28495619D01*
X184459523Y-28590857D01*
X184364285Y-28638476D01*
X184173809Y-28686095D01*
X184030952Y-28686095D01*
X183840476Y-28638476D01*
X183745238Y-28590857D01*
X183650000Y-28495619D01*
X183602380Y-28352761D01*
X183602380Y-28257523D01*
X183650000Y-28114666D01*
X183697619Y-28067047D01*
X184602380Y-27162285D02*
X184602380Y-27638476D01*
X183602380Y-27638476D01*
X181419523Y-27138380D02*
X180943333Y-27138380D01*
X180895714Y-27614571D01*
X180943333Y-27566952D01*
X181038571Y-27519333D01*
X181276666Y-27519333D01*
X181371904Y-27566952D01*
X181419523Y-27614571D01*
X181467142Y-27709809D01*
X181467142Y-27947904D01*
X181419523Y-28043142D01*
X181371904Y-28090761D01*
X181276666Y-28138380D01*
X181038571Y-28138380D01*
X180943333Y-28090761D01*
X180895714Y-28043142D01*
X181752857Y-27138380D02*
X182086190Y-28138380D01*
X182419523Y-27138380D01*
D11*
X130346142Y-105311571D02*
X130346142Y-103811571D01*
X130917571Y-103811571D01*
X131060428Y-103883000D01*
X131131857Y-103954428D01*
X131203285Y-104097285D01*
X131203285Y-104311571D01*
X131131857Y-104454428D01*
X131060428Y-104525857D01*
X130917571Y-104597285D01*
X130346142Y-104597285D01*
X131846142Y-105168714D02*
X131917571Y-105240142D01*
X131846142Y-105311571D01*
X131774714Y-105240142D01*
X131846142Y-105168714D01*
X131846142Y-105311571D01*
X133703285Y-105311571D02*
X133703285Y-103811571D01*
X134203285Y-104883000D01*
X134703285Y-103811571D01*
X134703285Y-105311571D01*
X136060428Y-105311571D02*
X136060428Y-104525857D01*
X135989000Y-104383000D01*
X135846142Y-104311571D01*
X135560428Y-104311571D01*
X135417571Y-104383000D01*
X136060428Y-105240142D02*
X135917571Y-105311571D01*
X135560428Y-105311571D01*
X135417571Y-105240142D01*
X135346142Y-105097285D01*
X135346142Y-104954428D01*
X135417571Y-104811571D01*
X135560428Y-104740142D01*
X135917571Y-104740142D01*
X136060428Y-104668714D01*
X136989000Y-105311571D02*
X136846142Y-105240142D01*
X136774714Y-105097285D01*
X136774714Y-103811571D01*
X137560428Y-105311571D02*
X137560428Y-104311571D01*
X137560428Y-103811571D02*
X137489000Y-103883000D01*
X137560428Y-103954428D01*
X137631857Y-103883000D01*
X137560428Y-103811571D01*
X137560428Y-103954428D01*
X138274714Y-105311571D02*
X138274714Y-103811571D01*
X138417571Y-104740142D02*
X138846142Y-105311571D01*
X138846142Y-104311571D02*
X138274714Y-104883000D01*
X130346142Y-107861571D02*
X130346142Y-106361571D01*
X131203285Y-107861571D02*
X130560428Y-107004428D01*
X131203285Y-106361571D02*
X130346142Y-107218714D01*
X131846142Y-107718714D02*
X131917571Y-107790142D01*
X131846142Y-107861571D01*
X131774714Y-107790142D01*
X131846142Y-107718714D01*
X131846142Y-107861571D01*
X133631857Y-107433000D02*
X134346142Y-107433000D01*
X133489000Y-107861571D02*
X133989000Y-106361571D01*
X134489000Y-107861571D01*
X134989000Y-107861571D02*
X134989000Y-106361571D01*
X135131857Y-107290142D02*
X135560428Y-107861571D01*
X135560428Y-106861571D02*
X134989000Y-107433000D01*
X136203285Y-107861571D02*
X136203285Y-106361571D01*
X136846142Y-107861571D02*
X136846142Y-107075857D01*
X136774714Y-106933000D01*
X136631857Y-106861571D01*
X136417571Y-106861571D01*
X136274714Y-106933000D01*
X136203285Y-107004428D01*
X137560428Y-107861571D02*
X137560428Y-106361571D01*
X137560428Y-106933000D02*
X137703285Y-106861571D01*
X137989000Y-106861571D01*
X138131857Y-106933000D01*
X138203285Y-107004428D01*
X138274714Y-107147285D01*
X138274714Y-107575857D01*
X138203285Y-107718714D01*
X138131857Y-107790142D01*
X137989000Y-107861571D01*
X137703285Y-107861571D01*
X137560428Y-107790142D01*
X139560428Y-107861571D02*
X139560428Y-107075857D01*
X139489000Y-106933000D01*
X139346142Y-106861571D01*
X139060428Y-106861571D01*
X138917571Y-106933000D01*
X139560428Y-107790142D02*
X139417571Y-107861571D01*
X139060428Y-107861571D01*
X138917571Y-107790142D01*
X138846142Y-107647285D01*
X138846142Y-107504428D01*
X138917571Y-107361571D01*
X139060428Y-107290142D01*
X139417571Y-107290142D01*
X139560428Y-107218714D01*
X140274714Y-107861571D02*
X140274714Y-106861571D01*
X140274714Y-107147285D02*
X140346142Y-107004428D01*
X140417571Y-106933000D01*
X140560428Y-106861571D01*
X140703285Y-106861571D01*
X141203285Y-107861571D02*
X141203285Y-106861571D01*
X141203285Y-106361571D02*
X141131857Y-106433000D01*
X141203285Y-106504428D01*
X141274714Y-106433000D01*
X141203285Y-106361571D01*
X141203285Y-106504428D01*
X130346142Y-110411571D02*
X130346142Y-108911571D01*
X130703285Y-108911571D01*
X130917571Y-108983000D01*
X131060428Y-109125857D01*
X131131857Y-109268714D01*
X131203285Y-109554428D01*
X131203285Y-109768714D01*
X131131857Y-110054428D01*
X131060428Y-110197285D01*
X130917571Y-110340142D01*
X130703285Y-110411571D01*
X130346142Y-110411571D01*
X131846142Y-110268714D02*
X131917571Y-110340142D01*
X131846142Y-110411571D01*
X131774714Y-110340142D01*
X131846142Y-110268714D01*
X131846142Y-110411571D01*
X134417571Y-110411571D02*
X133703285Y-110411571D01*
X133703285Y-108911571D01*
X135560428Y-109411571D02*
X135560428Y-110411571D01*
X134917571Y-109411571D02*
X134917571Y-110197285D01*
X134989000Y-110340142D01*
X135131857Y-110411571D01*
X135346142Y-110411571D01*
X135489000Y-110340142D01*
X135560428Y-110268714D01*
X130274714Y-112533000D02*
X130989000Y-112533000D01*
X130131857Y-112961571D02*
X130631857Y-111461571D01*
X131131857Y-112961571D01*
X131631857Y-112818714D02*
X131703285Y-112890142D01*
X131631857Y-112961571D01*
X131560428Y-112890142D01*
X131631857Y-112818714D01*
X131631857Y-112961571D01*
X133989000Y-112175857D02*
X134203285Y-112247285D01*
X134274714Y-112318714D01*
X134346142Y-112461571D01*
X134346142Y-112675857D01*
X134274714Y-112818714D01*
X134203285Y-112890142D01*
X134060428Y-112961571D01*
X133489000Y-112961571D01*
X133489000Y-111461571D01*
X133989000Y-111461571D01*
X134131857Y-111533000D01*
X134203285Y-111604428D01*
X134274714Y-111747285D01*
X134274714Y-111890142D01*
X134203285Y-112033000D01*
X134131857Y-112104428D01*
X133989000Y-112175857D01*
X133489000Y-112175857D01*
X135203285Y-112961571D02*
X135060428Y-112890142D01*
X134989000Y-112818714D01*
X134917571Y-112675857D01*
X134917571Y-112247285D01*
X134989000Y-112104428D01*
X135060428Y-112033000D01*
X135203285Y-111961571D01*
X135417571Y-111961571D01*
X135560428Y-112033000D01*
X135631857Y-112104428D01*
X135703285Y-112247285D01*
X135703285Y-112675857D01*
X135631857Y-112818714D01*
X135560428Y-112890142D01*
X135417571Y-112961571D01*
X135203285Y-112961571D01*
X136989000Y-111961571D02*
X136989000Y-113175857D01*
X136917571Y-113318714D01*
X136846142Y-113390142D01*
X136703285Y-113461571D01*
X136489000Y-113461571D01*
X136346142Y-113390142D01*
X136989000Y-112890142D02*
X136846142Y-112961571D01*
X136560428Y-112961571D01*
X136417571Y-112890142D01*
X136346142Y-112818714D01*
X136274714Y-112675857D01*
X136274714Y-112247285D01*
X136346142Y-112104428D01*
X136417571Y-112033000D01*
X136560428Y-111961571D01*
X136846142Y-111961571D01*
X136989000Y-112033000D01*
X138346142Y-112961571D02*
X138346142Y-111461571D01*
X138346142Y-112890142D02*
X138203285Y-112961571D01*
X137917571Y-112961571D01*
X137774714Y-112890142D01*
X137703285Y-112818714D01*
X137631857Y-112675857D01*
X137631857Y-112247285D01*
X137703285Y-112104428D01*
X137774714Y-112033000D01*
X137917571Y-111961571D01*
X138203285Y-111961571D01*
X138346142Y-112033000D01*
X139703285Y-112961571D02*
X139703285Y-112175857D01*
X139631857Y-112033000D01*
X139489000Y-111961571D01*
X139203285Y-111961571D01*
X139060428Y-112033000D01*
X139703285Y-112890142D02*
X139560428Y-112961571D01*
X139203285Y-112961571D01*
X139060428Y-112890142D01*
X138989000Y-112747285D01*
X138989000Y-112604428D01*
X139060428Y-112461571D01*
X139203285Y-112390142D01*
X139560428Y-112390142D01*
X139703285Y-112318714D01*
X140417571Y-111961571D02*
X140417571Y-112961571D01*
X140417571Y-112104428D02*
X140489000Y-112033000D01*
X140631857Y-111961571D01*
X140846142Y-111961571D01*
X140989000Y-112033000D01*
X141060428Y-112175857D01*
X141060428Y-112961571D01*
X115963285Y-102638714D02*
X115891857Y-102710142D01*
X115677571Y-102781571D01*
X115534714Y-102781571D01*
X115320428Y-102710142D01*
X115177571Y-102567285D01*
X115106142Y-102424428D01*
X115034714Y-102138714D01*
X115034714Y-101924428D01*
X115106142Y-101638714D01*
X115177571Y-101495857D01*
X115320428Y-101353000D01*
X115534714Y-101281571D01*
X115677571Y-101281571D01*
X115891857Y-101353000D01*
X115963285Y-101424428D01*
X116820428Y-102781571D02*
X116677571Y-102710142D01*
X116606142Y-102638714D01*
X116534714Y-102495857D01*
X116534714Y-102067285D01*
X116606142Y-101924428D01*
X116677571Y-101853000D01*
X116820428Y-101781571D01*
X117034714Y-101781571D01*
X117177571Y-101853000D01*
X117249000Y-101924428D01*
X117320428Y-102067285D01*
X117320428Y-102495857D01*
X117249000Y-102638714D01*
X117177571Y-102710142D01*
X117034714Y-102781571D01*
X116820428Y-102781571D01*
X117963285Y-101781571D02*
X117963285Y-102781571D01*
X117963285Y-101924428D02*
X118034714Y-101853000D01*
X118177571Y-101781571D01*
X118391857Y-101781571D01*
X118534714Y-101853000D01*
X118606142Y-101995857D01*
X118606142Y-102781571D01*
X119106142Y-101781571D02*
X119677571Y-101781571D01*
X119320428Y-101281571D02*
X119320428Y-102567285D01*
X119391857Y-102710142D01*
X119534714Y-102781571D01*
X119677571Y-102781571D01*
X120177571Y-102781571D02*
X120177571Y-101781571D01*
X120177571Y-102067285D02*
X120249000Y-101924428D01*
X120320428Y-101853000D01*
X120463285Y-101781571D01*
X120606142Y-101781571D01*
X121320428Y-102781571D02*
X121177571Y-102710142D01*
X121106142Y-102638714D01*
X121034714Y-102495857D01*
X121034714Y-102067285D01*
X121106142Y-101924428D01*
X121177571Y-101853000D01*
X121320428Y-101781571D01*
X121534714Y-101781571D01*
X121677571Y-101853000D01*
X121749000Y-101924428D01*
X121820428Y-102067285D01*
X121820428Y-102495857D01*
X121749000Y-102638714D01*
X121677571Y-102710142D01*
X121534714Y-102781571D01*
X121320428Y-102781571D01*
X122677571Y-102781571D02*
X122534714Y-102710142D01*
X122463285Y-102567285D01*
X122463285Y-101281571D01*
X123463285Y-102781571D02*
X123320428Y-102710142D01*
X123249000Y-102567285D01*
X123249000Y-101281571D01*
X124606142Y-102710142D02*
X124463285Y-102781571D01*
X124177571Y-102781571D01*
X124034714Y-102710142D01*
X123963285Y-102567285D01*
X123963285Y-101995857D01*
X124034714Y-101853000D01*
X124177571Y-101781571D01*
X124463285Y-101781571D01*
X124606142Y-101853000D01*
X124677571Y-101995857D01*
X124677571Y-102138714D01*
X123963285Y-102281571D01*
X125320428Y-102781571D02*
X125320428Y-101781571D01*
X125320428Y-102067285D02*
X125391857Y-101924428D01*
X125463285Y-101853000D01*
X125606142Y-101781571D01*
X125749000Y-101781571D01*
X127249000Y-101781571D02*
X127606142Y-102781571D01*
X127963285Y-101781571D01*
X129320428Y-102781571D02*
X128463285Y-102781571D01*
X128891857Y-102781571D02*
X128891857Y-101281571D01*
X128749000Y-101495857D01*
X128606142Y-101638714D01*
X128463285Y-101710142D01*
X129963285Y-102638714D02*
X130034714Y-102710142D01*
X129963285Y-102781571D01*
X129891857Y-102710142D01*
X129963285Y-102638714D01*
X129963285Y-102781571D01*
X130963285Y-101281571D02*
X131106142Y-101281571D01*
X131249000Y-101353000D01*
X131320428Y-101424428D01*
X131391857Y-101567285D01*
X131463285Y-101853000D01*
X131463285Y-102210142D01*
X131391857Y-102495857D01*
X131320428Y-102638714D01*
X131249000Y-102710142D01*
X131106142Y-102781571D01*
X130963285Y-102781571D01*
X130820428Y-102710142D01*
X130749000Y-102638714D01*
X130677571Y-102495857D01*
X130606142Y-102210142D01*
X130606142Y-101853000D01*
X130677571Y-101567285D01*
X130749000Y-101424428D01*
X130820428Y-101353000D01*
X130963285Y-101281571D01*
X115106142Y-105331571D02*
X115106142Y-103831571D01*
X115463285Y-103831571D01*
X115677571Y-103903000D01*
X115820428Y-104045857D01*
X115891857Y-104188714D01*
X115963285Y-104474428D01*
X115963285Y-104688714D01*
X115891857Y-104974428D01*
X115820428Y-105117285D01*
X115677571Y-105260142D01*
X115463285Y-105331571D01*
X115106142Y-105331571D01*
X117177571Y-105260142D02*
X117034714Y-105331571D01*
X116749000Y-105331571D01*
X116606142Y-105260142D01*
X116534714Y-105117285D01*
X116534714Y-104545857D01*
X116606142Y-104403000D01*
X116749000Y-104331571D01*
X117034714Y-104331571D01*
X117177571Y-104403000D01*
X117249000Y-104545857D01*
X117249000Y-104688714D01*
X116534714Y-104831571D01*
X117820428Y-105260142D02*
X117963285Y-105331571D01*
X118249000Y-105331571D01*
X118391857Y-105260142D01*
X118463285Y-105117285D01*
X118463285Y-105045857D01*
X118391857Y-104903000D01*
X118249000Y-104831571D01*
X118034714Y-104831571D01*
X117891857Y-104760142D01*
X117820428Y-104617285D01*
X117820428Y-104545857D01*
X117891857Y-104403000D01*
X118034714Y-104331571D01*
X118249000Y-104331571D01*
X118391857Y-104403000D01*
X119106142Y-105331571D02*
X119106142Y-104331571D01*
X119106142Y-103831571D02*
X119034714Y-103903000D01*
X119106142Y-103974428D01*
X119177571Y-103903000D01*
X119106142Y-103831571D01*
X119106142Y-103974428D01*
X120463285Y-104331571D02*
X120463285Y-105545857D01*
X120391857Y-105688714D01*
X120320428Y-105760142D01*
X120177571Y-105831571D01*
X119963285Y-105831571D01*
X119820428Y-105760142D01*
X120463285Y-105260142D02*
X120320428Y-105331571D01*
X120034714Y-105331571D01*
X119891857Y-105260142D01*
X119820428Y-105188714D01*
X119749000Y-105045857D01*
X119749000Y-104617285D01*
X119820428Y-104474428D01*
X119891857Y-104403000D01*
X120034714Y-104331571D01*
X120320428Y-104331571D01*
X120463285Y-104403000D01*
X121177571Y-104331571D02*
X121177571Y-105331571D01*
X121177571Y-104474428D02*
X121249000Y-104403000D01*
X121391857Y-104331571D01*
X121606142Y-104331571D01*
X121749000Y-104403000D01*
X121820428Y-104545857D01*
X121820428Y-105331571D01*
X123106142Y-105260142D02*
X122963285Y-105331571D01*
X122677571Y-105331571D01*
X122534714Y-105260142D01*
X122463285Y-105117285D01*
X122463285Y-104545857D01*
X122534714Y-104403000D01*
X122677571Y-104331571D01*
X122963285Y-104331571D01*
X123106142Y-104403000D01*
X123177571Y-104545857D01*
X123177571Y-104688714D01*
X122463285Y-104831571D01*
X124463285Y-105331571D02*
X124463285Y-103831571D01*
X124463285Y-105260142D02*
X124320428Y-105331571D01*
X124034714Y-105331571D01*
X123891857Y-105260142D01*
X123820428Y-105188714D01*
X123749000Y-105045857D01*
X123749000Y-104617285D01*
X123820428Y-104474428D01*
X123891857Y-104403000D01*
X124034714Y-104331571D01*
X124320428Y-104331571D01*
X124463285Y-104403000D01*
X126320428Y-105331571D02*
X126320428Y-103831571D01*
X126320428Y-104403000D02*
X126463285Y-104331571D01*
X126749000Y-104331571D01*
X126891857Y-104403000D01*
X126963285Y-104474428D01*
X127034714Y-104617285D01*
X127034714Y-105045857D01*
X126963285Y-105188714D01*
X126891857Y-105260142D01*
X126749000Y-105331571D01*
X126463285Y-105331571D01*
X126320428Y-105260142D01*
X127534714Y-104331571D02*
X127891857Y-105331571D01*
X128249000Y-104331571D02*
X127891857Y-105331571D01*
X127749000Y-105688714D01*
X127677571Y-105760142D01*
X127534714Y-105831571D01*
X128820428Y-105188714D02*
X128891857Y-105260142D01*
X128820428Y-105331571D01*
X128749000Y-105260142D01*
X128820428Y-105188714D01*
X128820428Y-105331571D01*
X128820428Y-104403000D02*
X128891857Y-104474428D01*
X128820428Y-104545857D01*
X128749000Y-104474428D01*
X128820428Y-104403000D01*
X128820428Y-104545857D01*
D12*
X123348571Y-91597142D02*
X123539047Y-91787619D01*
X123729523Y-92359047D01*
X123729523Y-92740000D01*
X123539047Y-93311428D01*
X123158095Y-93692380D01*
X122777142Y-93882857D01*
X122015238Y-94073333D01*
X121443809Y-94073333D01*
X120681904Y-93882857D01*
X120300952Y-93692380D01*
X119920000Y-93311428D01*
X119729523Y-92740000D01*
X119729523Y-92359047D01*
X119920000Y-91787619D01*
X120110476Y-91597142D01*
X123729523Y-89311428D02*
X123539047Y-89692380D01*
X123348571Y-89882857D01*
X122967619Y-90073333D01*
X121824761Y-90073333D01*
X121443809Y-89882857D01*
X121253333Y-89692380D01*
X121062857Y-89311428D01*
X121062857Y-88740000D01*
X121253333Y-88359047D01*
X121443809Y-88168571D01*
X121824761Y-87978095D01*
X122967619Y-87978095D01*
X123348571Y-88168571D01*
X123539047Y-88359047D01*
X123729523Y-88740000D01*
X123729523Y-89311428D01*
X123729523Y-85692380D02*
X123539047Y-86073333D01*
X123158095Y-86263809D01*
X119729523Y-86263809D01*
X123729523Y-83597142D02*
X123539047Y-83978095D01*
X123158095Y-84168571D01*
X119729523Y-84168571D01*
X123729523Y-80359047D02*
X121634285Y-80359047D01*
X121253333Y-80549523D01*
X121062857Y-80930476D01*
X121062857Y-81692380D01*
X121253333Y-82073333D01*
X123539047Y-80359047D02*
X123729523Y-80740000D01*
X123729523Y-81692380D01*
X123539047Y-82073333D01*
X123158095Y-82263809D01*
X122777142Y-82263809D01*
X122396190Y-82073333D01*
X122205714Y-81692380D01*
X122205714Y-80740000D01*
X122015238Y-80359047D01*
X123729523Y-78454285D02*
X119729523Y-78454285D01*
X121253333Y-78454285D02*
X121062857Y-78073333D01*
X121062857Y-77311428D01*
X121253333Y-76930476D01*
X121443809Y-76740000D01*
X121824761Y-76549523D01*
X122967619Y-76549523D01*
X123348571Y-76740000D01*
X123539047Y-76930476D01*
X123729523Y-77311428D01*
X123729523Y-78073333D01*
X123539047Y-78454285D01*
X121634285Y-73501904D02*
X121824761Y-72930476D01*
X122015238Y-72740000D01*
X122396190Y-72549523D01*
X122967619Y-72549523D01*
X123348571Y-72740000D01*
X123539047Y-72930476D01*
X123729523Y-73311428D01*
X123729523Y-74835238D01*
X119729523Y-74835238D01*
X119729523Y-73501904D01*
X119920000Y-73120952D01*
X120110476Y-72930476D01*
X120491428Y-72740000D01*
X120872380Y-72740000D01*
X121253333Y-72930476D01*
X121443809Y-73120952D01*
X121634285Y-73501904D01*
X121634285Y-74835238D01*
X123729523Y-70263809D02*
X123539047Y-70644761D01*
X123348571Y-70835238D01*
X122967619Y-71025714D01*
X121824761Y-71025714D01*
X121443809Y-70835238D01*
X121253333Y-70644761D01*
X121062857Y-70263809D01*
X121062857Y-69692380D01*
X121253333Y-69311428D01*
X121443809Y-69120952D01*
X121824761Y-68930476D01*
X122967619Y-68930476D01*
X123348571Y-69120952D01*
X123539047Y-69311428D01*
X123729523Y-69692380D01*
X123729523Y-70263809D01*
X121062857Y-67787619D02*
X121062857Y-66263809D01*
X119729523Y-67216190D02*
X123158095Y-67216190D01*
X123539047Y-67025714D01*
X123729523Y-66644761D01*
X123729523Y-66263809D01*
X123539047Y-65120952D02*
X123729523Y-64740000D01*
X123729523Y-63978095D01*
X123539047Y-63597142D01*
X123158095Y-63406666D01*
X122967619Y-63406666D01*
X122586666Y-63597142D01*
X122396190Y-63978095D01*
X122396190Y-64549523D01*
X122205714Y-64930476D01*
X121824761Y-65120952D01*
X121634285Y-65120952D01*
X121253333Y-64930476D01*
X121062857Y-64549523D01*
X121062857Y-63978095D01*
X121253333Y-63597142D01*
D10*
X178499047Y-150630000D02*
X178403809Y-150582380D01*
X178260952Y-150582380D01*
X178118095Y-150630000D01*
X178022857Y-150725238D01*
X177975238Y-150820476D01*
X177927619Y-151010952D01*
X177927619Y-151153809D01*
X177975238Y-151344285D01*
X178022857Y-151439523D01*
X178118095Y-151534761D01*
X178260952Y-151582380D01*
X178356190Y-151582380D01*
X178499047Y-151534761D01*
X178546666Y-151487142D01*
X178546666Y-151153809D01*
X178356190Y-151153809D01*
X178975238Y-151582380D02*
X178975238Y-150915714D01*
X178975238Y-151106190D02*
X179022857Y-151010952D01*
X179070476Y-150963333D01*
X179165714Y-150915714D01*
X179260952Y-150915714D01*
X179594285Y-151582380D02*
X179594285Y-150915714D01*
X179594285Y-150582380D02*
X179546666Y-150630000D01*
X179594285Y-150677619D01*
X179641904Y-150630000D01*
X179594285Y-150582380D01*
X179594285Y-150677619D01*
X180070476Y-150915714D02*
X180070476Y-151915714D01*
X180070476Y-150963333D02*
X180165714Y-150915714D01*
X180356190Y-150915714D01*
X180451428Y-150963333D01*
X180499047Y-151010952D01*
X180546666Y-151106190D01*
X180546666Y-151391904D01*
X180499047Y-151487142D01*
X180451428Y-151534761D01*
X180356190Y-151582380D01*
X180165714Y-151582380D01*
X180070476Y-151534761D01*
X180975238Y-150915714D02*
X180975238Y-151915714D01*
X180975238Y-150963333D02*
X181070476Y-150915714D01*
X181260952Y-150915714D01*
X181356190Y-150963333D01*
X181403809Y-151010952D01*
X181451428Y-151106190D01*
X181451428Y-151391904D01*
X181403809Y-151487142D01*
X181356190Y-151534761D01*
X181260952Y-151582380D01*
X181070476Y-151582380D01*
X180975238Y-151534761D01*
X182260952Y-151534761D02*
X182165714Y-151582380D01*
X181975238Y-151582380D01*
X181880000Y-151534761D01*
X181832380Y-151439523D01*
X181832380Y-151058571D01*
X181880000Y-150963333D01*
X181975238Y-150915714D01*
X182165714Y-150915714D01*
X182260952Y-150963333D01*
X182308571Y-151058571D01*
X182308571Y-151153809D01*
X181832380Y-151249047D01*
X182737142Y-151582380D02*
X182737142Y-150915714D01*
X182737142Y-151106190D02*
X182784761Y-151010952D01*
X182832380Y-150963333D01*
X182927619Y-150915714D01*
X183022857Y-150915714D01*
X184118095Y-151582380D02*
X184118095Y-150582380D01*
X184451428Y-151296666D01*
X184784761Y-150582380D01*
X184784761Y-151582380D01*
X185403809Y-151582380D02*
X185308571Y-151534761D01*
X185260952Y-151487142D01*
X185213333Y-151391904D01*
X185213333Y-151106190D01*
X185260952Y-151010952D01*
X185308571Y-150963333D01*
X185403809Y-150915714D01*
X185546666Y-150915714D01*
X185641904Y-150963333D01*
X185689523Y-151010952D01*
X185737142Y-151106190D01*
X185737142Y-151391904D01*
X185689523Y-151487142D01*
X185641904Y-151534761D01*
X185546666Y-151582380D01*
X185403809Y-151582380D01*
X186022857Y-150915714D02*
X186403809Y-150915714D01*
X186165714Y-150582380D02*
X186165714Y-151439523D01*
X186213333Y-151534761D01*
X186308571Y-151582380D01*
X186403809Y-151582380D01*
X186880000Y-151582380D02*
X186784761Y-151534761D01*
X186737142Y-151487142D01*
X186689523Y-151391904D01*
X186689523Y-151106190D01*
X186737142Y-151010952D01*
X186784761Y-150963333D01*
X186880000Y-150915714D01*
X187022857Y-150915714D01*
X187118095Y-150963333D01*
X187165714Y-151010952D01*
X187213333Y-151106190D01*
X187213333Y-151391904D01*
X187165714Y-151487142D01*
X187118095Y-151534761D01*
X187022857Y-151582380D01*
X186880000Y-151582380D01*
X187641904Y-151582380D02*
X187641904Y-150915714D01*
X187641904Y-151106190D02*
X187689523Y-151010952D01*
X187737142Y-150963333D01*
X187832380Y-150915714D01*
X187927619Y-150915714D01*
X147487142Y-150582380D02*
X148058571Y-150582380D01*
X147772857Y-151582380D02*
X147772857Y-150582380D01*
X148534761Y-151582380D02*
X148439523Y-151534761D01*
X148391904Y-151487142D01*
X148344285Y-151391904D01*
X148344285Y-151106190D01*
X148391904Y-151010952D01*
X148439523Y-150963333D01*
X148534761Y-150915714D01*
X148677619Y-150915714D01*
X148772857Y-150963333D01*
X148820476Y-151010952D01*
X148868095Y-151106190D01*
X148868095Y-151391904D01*
X148820476Y-151487142D01*
X148772857Y-151534761D01*
X148677619Y-151582380D01*
X148534761Y-151582380D01*
X149296666Y-150915714D02*
X149296666Y-151915714D01*
X149296666Y-150963333D02*
X149391904Y-150915714D01*
X149582380Y-150915714D01*
X149677619Y-150963333D01*
X149725238Y-151010952D01*
X149772857Y-151106190D01*
X149772857Y-151391904D01*
X149725238Y-151487142D01*
X149677619Y-151534761D01*
X149582380Y-151582380D01*
X149391904Y-151582380D01*
X149296666Y-151534761D01*
X150963333Y-151582380D02*
X150963333Y-150582380D01*
X151296666Y-151296666D01*
X151630000Y-150582380D01*
X151630000Y-151582380D01*
X152249047Y-151582380D02*
X152153809Y-151534761D01*
X152106190Y-151487142D01*
X152058571Y-151391904D01*
X152058571Y-151106190D01*
X152106190Y-151010952D01*
X152153809Y-150963333D01*
X152249047Y-150915714D01*
X152391904Y-150915714D01*
X152487142Y-150963333D01*
X152534761Y-151010952D01*
X152582380Y-151106190D01*
X152582380Y-151391904D01*
X152534761Y-151487142D01*
X152487142Y-151534761D01*
X152391904Y-151582380D01*
X152249047Y-151582380D01*
X152868095Y-150915714D02*
X153249047Y-150915714D01*
X153010952Y-150582380D02*
X153010952Y-151439523D01*
X153058571Y-151534761D01*
X153153809Y-151582380D01*
X153249047Y-151582380D01*
X153725238Y-151582380D02*
X153630000Y-151534761D01*
X153582380Y-151487142D01*
X153534761Y-151391904D01*
X153534761Y-151106190D01*
X153582380Y-151010952D01*
X153630000Y-150963333D01*
X153725238Y-150915714D01*
X153868095Y-150915714D01*
X153963333Y-150963333D01*
X154010952Y-151010952D01*
X154058571Y-151106190D01*
X154058571Y-151391904D01*
X154010952Y-151487142D01*
X153963333Y-151534761D01*
X153868095Y-151582380D01*
X153725238Y-151582380D01*
X154487142Y-151582380D02*
X154487142Y-150915714D01*
X154487142Y-151106190D02*
X154534761Y-151010952D01*
X154582380Y-150963333D01*
X154677619Y-150915714D01*
X154772857Y-150915714D01*
X114856190Y-151058571D02*
X114999047Y-151106190D01*
X115046666Y-151153809D01*
X115094285Y-151249047D01*
X115094285Y-151391904D01*
X115046666Y-151487142D01*
X114999047Y-151534761D01*
X114903809Y-151582380D01*
X114522857Y-151582380D01*
X114522857Y-150582380D01*
X114856190Y-150582380D01*
X114951428Y-150630000D01*
X114999047Y-150677619D01*
X115046666Y-150772857D01*
X115046666Y-150868095D01*
X114999047Y-150963333D01*
X114951428Y-151010952D01*
X114856190Y-151058571D01*
X114522857Y-151058571D01*
X115665714Y-151582380D02*
X115570476Y-151534761D01*
X115522857Y-151487142D01*
X115475238Y-151391904D01*
X115475238Y-151106190D01*
X115522857Y-151010952D01*
X115570476Y-150963333D01*
X115665714Y-150915714D01*
X115808571Y-150915714D01*
X115903809Y-150963333D01*
X115951428Y-151010952D01*
X115999047Y-151106190D01*
X115999047Y-151391904D01*
X115951428Y-151487142D01*
X115903809Y-151534761D01*
X115808571Y-151582380D01*
X115665714Y-151582380D01*
X116284761Y-150915714D02*
X116665714Y-150915714D01*
X116427619Y-150582380D02*
X116427619Y-151439523D01*
X116475238Y-151534761D01*
X116570476Y-151582380D01*
X116665714Y-151582380D01*
X116856190Y-150915714D02*
X117237142Y-150915714D01*
X116999047Y-150582380D02*
X116999047Y-151439523D01*
X117046666Y-151534761D01*
X117141904Y-151582380D01*
X117237142Y-151582380D01*
X117713333Y-151582380D02*
X117618095Y-151534761D01*
X117570476Y-151487142D01*
X117522857Y-151391904D01*
X117522857Y-151106190D01*
X117570476Y-151010952D01*
X117618095Y-150963333D01*
X117713333Y-150915714D01*
X117856190Y-150915714D01*
X117951428Y-150963333D01*
X117999047Y-151010952D01*
X118046666Y-151106190D01*
X118046666Y-151391904D01*
X117999047Y-151487142D01*
X117951428Y-151534761D01*
X117856190Y-151582380D01*
X117713333Y-151582380D01*
X118475238Y-151582380D02*
X118475238Y-150915714D01*
X118475238Y-151010952D02*
X118522857Y-150963333D01*
X118618095Y-150915714D01*
X118760952Y-150915714D01*
X118856190Y-150963333D01*
X118903809Y-151058571D01*
X118903809Y-151582380D01*
X118903809Y-151058571D02*
X118951428Y-150963333D01*
X119046666Y-150915714D01*
X119189523Y-150915714D01*
X119284761Y-150963333D01*
X119332380Y-151058571D01*
X119332380Y-151582380D01*
X120570476Y-151582380D02*
X120570476Y-150582380D01*
X120903809Y-151296666D01*
X121237142Y-150582380D01*
X121237142Y-151582380D01*
X121856190Y-151582380D02*
X121760952Y-151534761D01*
X121713333Y-151487142D01*
X121665714Y-151391904D01*
X121665714Y-151106190D01*
X121713333Y-151010952D01*
X121760952Y-150963333D01*
X121856190Y-150915714D01*
X121999047Y-150915714D01*
X122094285Y-150963333D01*
X122141904Y-151010952D01*
X122189523Y-151106190D01*
X122189523Y-151391904D01*
X122141904Y-151487142D01*
X122094285Y-151534761D01*
X121999047Y-151582380D01*
X121856190Y-151582380D01*
X122475238Y-150915714D02*
X122856190Y-150915714D01*
X122618095Y-150582380D02*
X122618095Y-151439523D01*
X122665714Y-151534761D01*
X122760952Y-151582380D01*
X122856190Y-151582380D01*
X123332380Y-151582380D02*
X123237142Y-151534761D01*
X123189523Y-151487142D01*
X123141904Y-151391904D01*
X123141904Y-151106190D01*
X123189523Y-151010952D01*
X123237142Y-150963333D01*
X123332380Y-150915714D01*
X123475238Y-150915714D01*
X123570476Y-150963333D01*
X123618095Y-151010952D01*
X123665714Y-151106190D01*
X123665714Y-151391904D01*
X123618095Y-151487142D01*
X123570476Y-151534761D01*
X123475238Y-151582380D01*
X123332380Y-151582380D01*
X124094285Y-151582380D02*
X124094285Y-150915714D01*
X124094285Y-151106190D02*
X124141904Y-151010952D01*
X124189523Y-150963333D01*
X124284761Y-150915714D01*
X124380000Y-150915714D01*
X83709333Y-151058571D02*
X83852190Y-151106190D01*
X83899809Y-151153809D01*
X83947428Y-151249047D01*
X83947428Y-151391904D01*
X83899809Y-151487142D01*
X83852190Y-151534761D01*
X83756952Y-151582380D01*
X83376000Y-151582380D01*
X83376000Y-150582380D01*
X83709333Y-150582380D01*
X83804571Y-150630000D01*
X83852190Y-150677619D01*
X83899809Y-150772857D01*
X83899809Y-150868095D01*
X83852190Y-150963333D01*
X83804571Y-151010952D01*
X83709333Y-151058571D01*
X83376000Y-151058571D01*
X84804571Y-151582380D02*
X84804571Y-151058571D01*
X84756952Y-150963333D01*
X84661714Y-150915714D01*
X84471238Y-150915714D01*
X84376000Y-150963333D01*
X84804571Y-151534761D02*
X84709333Y-151582380D01*
X84471238Y-151582380D01*
X84376000Y-151534761D01*
X84328380Y-151439523D01*
X84328380Y-151344285D01*
X84376000Y-151249047D01*
X84471238Y-151201428D01*
X84709333Y-151201428D01*
X84804571Y-151153809D01*
X85233142Y-151534761D02*
X85328380Y-151582380D01*
X85518857Y-151582380D01*
X85614095Y-151534761D01*
X85661714Y-151439523D01*
X85661714Y-151391904D01*
X85614095Y-151296666D01*
X85518857Y-151249047D01*
X85376000Y-151249047D01*
X85280761Y-151201428D01*
X85233142Y-151106190D01*
X85233142Y-151058571D01*
X85280761Y-150963333D01*
X85376000Y-150915714D01*
X85518857Y-150915714D01*
X85614095Y-150963333D01*
X86471238Y-151534761D02*
X86376000Y-151582380D01*
X86185523Y-151582380D01*
X86090285Y-151534761D01*
X86042666Y-151439523D01*
X86042666Y-151058571D01*
X86090285Y-150963333D01*
X86185523Y-150915714D01*
X86376000Y-150915714D01*
X86471238Y-150963333D01*
X86518857Y-151058571D01*
X86518857Y-151153809D01*
X86042666Y-151249047D01*
X87709333Y-151582380D02*
X87709333Y-150582380D01*
X88042666Y-151296666D01*
X88376000Y-150582380D01*
X88376000Y-151582380D01*
X88995047Y-151582380D02*
X88899809Y-151534761D01*
X88852190Y-151487142D01*
X88804571Y-151391904D01*
X88804571Y-151106190D01*
X88852190Y-151010952D01*
X88899809Y-150963333D01*
X88995047Y-150915714D01*
X89137904Y-150915714D01*
X89233142Y-150963333D01*
X89280761Y-151010952D01*
X89328380Y-151106190D01*
X89328380Y-151391904D01*
X89280761Y-151487142D01*
X89233142Y-151534761D01*
X89137904Y-151582380D01*
X88995047Y-151582380D01*
X89614095Y-150915714D02*
X89995047Y-150915714D01*
X89756952Y-150582380D02*
X89756952Y-151439523D01*
X89804571Y-151534761D01*
X89899809Y-151582380D01*
X89995047Y-151582380D01*
X90471238Y-151582380D02*
X90376000Y-151534761D01*
X90328380Y-151487142D01*
X90280761Y-151391904D01*
X90280761Y-151106190D01*
X90328380Y-151010952D01*
X90376000Y-150963333D01*
X90471238Y-150915714D01*
X90614095Y-150915714D01*
X90709333Y-150963333D01*
X90756952Y-151010952D01*
X90804571Y-151106190D01*
X90804571Y-151391904D01*
X90756952Y-151487142D01*
X90709333Y-151534761D01*
X90614095Y-151582380D01*
X90471238Y-151582380D01*
X91233142Y-151582380D02*
X91233142Y-150915714D01*
X91233142Y-151106190D02*
X91280761Y-151010952D01*
X91328380Y-150963333D01*
X91423619Y-150915714D01*
X91518857Y-150915714D01*
D13*
X119727142Y-146982571D02*
X119727142Y-145482571D01*
X120227142Y-146554000D01*
X120727142Y-145482571D01*
X120727142Y-146982571D01*
X122084285Y-146982571D02*
X122084285Y-146196857D01*
X122012857Y-146054000D01*
X121870000Y-145982571D01*
X121584285Y-145982571D01*
X121441428Y-146054000D01*
X122084285Y-146911142D02*
X121941428Y-146982571D01*
X121584285Y-146982571D01*
X121441428Y-146911142D01*
X121370000Y-146768285D01*
X121370000Y-146625428D01*
X121441428Y-146482571D01*
X121584285Y-146411142D01*
X121941428Y-146411142D01*
X122084285Y-146339714D01*
X122798571Y-145982571D02*
X122798571Y-146982571D01*
X122798571Y-146125428D02*
X122870000Y-146054000D01*
X123012857Y-145982571D01*
X123227142Y-145982571D01*
X123370000Y-146054000D01*
X123441428Y-146196857D01*
X123441428Y-146982571D01*
X124798571Y-145982571D02*
X124798571Y-146982571D01*
X124155714Y-145982571D02*
X124155714Y-146768285D01*
X124227142Y-146911142D01*
X124370000Y-146982571D01*
X124584285Y-146982571D01*
X124727142Y-146911142D01*
X124798571Y-146839714D01*
X126155714Y-146982571D02*
X126155714Y-146196857D01*
X126084285Y-146054000D01*
X125941428Y-145982571D01*
X125655714Y-145982571D01*
X125512857Y-146054000D01*
X126155714Y-146911142D02*
X126012857Y-146982571D01*
X125655714Y-146982571D01*
X125512857Y-146911142D01*
X125441428Y-146768285D01*
X125441428Y-146625428D01*
X125512857Y-146482571D01*
X125655714Y-146411142D01*
X126012857Y-146411142D01*
X126155714Y-146339714D01*
X127084285Y-146982571D02*
X126941428Y-146911142D01*
X126870000Y-146768285D01*
X126870000Y-145482571D01*
X128727142Y-146554000D02*
X129441428Y-146554000D01*
X128584285Y-146982571D02*
X129084285Y-145482571D01*
X129584285Y-146982571D01*
X130084285Y-146982571D02*
X130084285Y-145982571D01*
X130084285Y-146268285D02*
X130155714Y-146125428D01*
X130227142Y-146054000D01*
X130370000Y-145982571D01*
X130512857Y-145982571D01*
X131012857Y-146982571D02*
X131012857Y-145982571D01*
X131012857Y-146125428D02*
X131084285Y-146054000D01*
X131227142Y-145982571D01*
X131441428Y-145982571D01*
X131584285Y-146054000D01*
X131655714Y-146196857D01*
X131655714Y-146982571D01*
X131655714Y-146196857D02*
X131727142Y-146054000D01*
X131870000Y-145982571D01*
X132084285Y-145982571D01*
X132227142Y-146054000D01*
X132298571Y-146196857D01*
X132298571Y-146982571D01*
X135012857Y-146839714D02*
X134941428Y-146911142D01*
X134727142Y-146982571D01*
X134584285Y-146982571D01*
X134370000Y-146911142D01*
X134227142Y-146768285D01*
X134155714Y-146625428D01*
X134084285Y-146339714D01*
X134084285Y-146125428D01*
X134155714Y-145839714D01*
X134227142Y-145696857D01*
X134370000Y-145554000D01*
X134584285Y-145482571D01*
X134727142Y-145482571D01*
X134941428Y-145554000D01*
X135012857Y-145625428D01*
X135870000Y-146982571D02*
X135727142Y-146911142D01*
X135655714Y-146839714D01*
X135584285Y-146696857D01*
X135584285Y-146268285D01*
X135655714Y-146125428D01*
X135727142Y-146054000D01*
X135870000Y-145982571D01*
X136084285Y-145982571D01*
X136227142Y-146054000D01*
X136298571Y-146125428D01*
X136370000Y-146268285D01*
X136370000Y-146696857D01*
X136298571Y-146839714D01*
X136227142Y-146911142D01*
X136084285Y-146982571D01*
X135870000Y-146982571D01*
X137012857Y-145982571D02*
X137012857Y-146982571D01*
X137012857Y-146125428D02*
X137084285Y-146054000D01*
X137227142Y-145982571D01*
X137441428Y-145982571D01*
X137584285Y-146054000D01*
X137655714Y-146196857D01*
X137655714Y-146982571D01*
X138155714Y-145982571D02*
X138727142Y-145982571D01*
X138370000Y-145482571D02*
X138370000Y-146768285D01*
X138441428Y-146911142D01*
X138584285Y-146982571D01*
X138727142Y-146982571D01*
X139227142Y-146982571D02*
X139227142Y-145982571D01*
X139227142Y-146268285D02*
X139298571Y-146125428D01*
X139370000Y-146054000D01*
X139512857Y-145982571D01*
X139655714Y-145982571D01*
X140370000Y-146982571D02*
X140227142Y-146911142D01*
X140155714Y-146839714D01*
X140084285Y-146696857D01*
X140084285Y-146268285D01*
X140155714Y-146125428D01*
X140227142Y-146054000D01*
X140370000Y-145982571D01*
X140584285Y-145982571D01*
X140727142Y-146054000D01*
X140798571Y-146125428D01*
X140870000Y-146268285D01*
X140870000Y-146696857D01*
X140798571Y-146839714D01*
X140727142Y-146911142D01*
X140584285Y-146982571D01*
X140370000Y-146982571D01*
X141727142Y-146982571D02*
X141584285Y-146911142D01*
X141512857Y-146768285D01*
X141512857Y-145482571D01*
X143441428Y-146982571D02*
X143441428Y-145482571D01*
X144298571Y-146982571D02*
X143655714Y-146125428D01*
X144298571Y-145482571D02*
X143441428Y-146339714D01*
X144941428Y-145982571D02*
X144941428Y-146982571D01*
X144941428Y-146125428D02*
X145012857Y-146054000D01*
X145155714Y-145982571D01*
X145370000Y-145982571D01*
X145512857Y-146054000D01*
X145584285Y-146196857D01*
X145584285Y-146982571D01*
X146512857Y-146982571D02*
X146370000Y-146911142D01*
X146298571Y-146839714D01*
X146227142Y-146696857D01*
X146227142Y-146268285D01*
X146298571Y-146125428D01*
X146370000Y-146054000D01*
X146512857Y-145982571D01*
X146727142Y-145982571D01*
X146870000Y-146054000D01*
X146941428Y-146125428D01*
X147012857Y-146268285D01*
X147012857Y-146696857D01*
X146941428Y-146839714D01*
X146870000Y-146911142D01*
X146727142Y-146982571D01*
X146512857Y-146982571D01*
X147655714Y-146982571D02*
X147655714Y-145482571D01*
X147655714Y-146054000D02*
X147798571Y-145982571D01*
X148084285Y-145982571D01*
X148227142Y-146054000D01*
X148298571Y-146125428D01*
X148370000Y-146268285D01*
X148370000Y-146696857D01*
X148298571Y-146839714D01*
X148227142Y-146911142D01*
X148084285Y-146982571D01*
X147798571Y-146982571D01*
X147655714Y-146911142D01*
X148941428Y-146911142D02*
X149084285Y-146982571D01*
X149370000Y-146982571D01*
X149512857Y-146911142D01*
X149584285Y-146768285D01*
X149584285Y-146696857D01*
X149512857Y-146554000D01*
X149370000Y-146482571D01*
X149155714Y-146482571D01*
X149012857Y-146411142D01*
X148941428Y-146268285D01*
X148941428Y-146196857D01*
X149012857Y-146054000D01*
X149155714Y-145982571D01*
X149370000Y-145982571D01*
X149512857Y-146054000D01*
D10*
X66104000Y-140612761D02*
X66246857Y-140660380D01*
X66484952Y-140660380D01*
X66580190Y-140612761D01*
X66627809Y-140565142D01*
X66675428Y-140469904D01*
X66675428Y-140374666D01*
X66627809Y-140279428D01*
X66580190Y-140231809D01*
X66484952Y-140184190D01*
X66294476Y-140136571D01*
X66199238Y-140088952D01*
X66151619Y-140041333D01*
X66104000Y-139946095D01*
X66104000Y-139850857D01*
X66151619Y-139755619D01*
X66199238Y-139708000D01*
X66294476Y-139660380D01*
X66532571Y-139660380D01*
X66675428Y-139708000D01*
X67008761Y-139993714D02*
X67199238Y-140660380D01*
X67389714Y-140184190D01*
X67580190Y-140660380D01*
X67770666Y-139993714D01*
X68151619Y-140660380D02*
X68151619Y-139993714D01*
X68151619Y-139660380D02*
X68104000Y-139708000D01*
X68151619Y-139755619D01*
X68199238Y-139708000D01*
X68151619Y-139660380D01*
X68151619Y-139755619D01*
X68484952Y-139993714D02*
X68865904Y-139993714D01*
X68627809Y-139660380D02*
X68627809Y-140517523D01*
X68675428Y-140612761D01*
X68770666Y-140660380D01*
X68865904Y-140660380D01*
X69627809Y-140612761D02*
X69532571Y-140660380D01*
X69342095Y-140660380D01*
X69246857Y-140612761D01*
X69199238Y-140565142D01*
X69151619Y-140469904D01*
X69151619Y-140184190D01*
X69199238Y-140088952D01*
X69246857Y-140041333D01*
X69342095Y-139993714D01*
X69532571Y-139993714D01*
X69627809Y-140041333D01*
X70056380Y-140660380D02*
X70056380Y-139660380D01*
X70484952Y-140660380D02*
X70484952Y-140136571D01*
X70437333Y-140041333D01*
X70342095Y-139993714D01*
X70199238Y-139993714D01*
X70104000Y-140041333D01*
X70056380Y-140088952D01*
X71675428Y-140374666D02*
X72151619Y-140374666D01*
X71580190Y-140660380D02*
X71913523Y-139660380D01*
X72246857Y-140660380D01*
X72580190Y-140660380D02*
X72580190Y-139993714D01*
X72580190Y-140184190D02*
X72627809Y-140088952D01*
X72675428Y-140041333D01*
X72770666Y-139993714D01*
X72865904Y-139993714D01*
X73199238Y-140660380D02*
X73199238Y-139993714D01*
X73199238Y-140088952D02*
X73246857Y-140041333D01*
X73342095Y-139993714D01*
X73484952Y-139993714D01*
X73580190Y-140041333D01*
X73627809Y-140136571D01*
X73627809Y-140660380D01*
X73627809Y-140136571D02*
X73675428Y-140041333D01*
X73770666Y-139993714D01*
X73913523Y-139993714D01*
X74008761Y-140041333D01*
X74056380Y-140136571D01*
X74056380Y-140660380D01*
X54729523Y-140565142D02*
X54681904Y-140612761D01*
X54539047Y-140660380D01*
X54443809Y-140660380D01*
X54300952Y-140612761D01*
X54205714Y-140517523D01*
X54158095Y-140422285D01*
X54110476Y-140231809D01*
X54110476Y-140088952D01*
X54158095Y-139898476D01*
X54205714Y-139803238D01*
X54300952Y-139708000D01*
X54443809Y-139660380D01*
X54539047Y-139660380D01*
X54681904Y-139708000D01*
X54729523Y-139755619D01*
X55300952Y-140660380D02*
X55205714Y-140612761D01*
X55158095Y-140565142D01*
X55110476Y-140469904D01*
X55110476Y-140184190D01*
X55158095Y-140088952D01*
X55205714Y-140041333D01*
X55300952Y-139993714D01*
X55443809Y-139993714D01*
X55539047Y-140041333D01*
X55586666Y-140088952D01*
X55634285Y-140184190D01*
X55634285Y-140469904D01*
X55586666Y-140565142D01*
X55539047Y-140612761D01*
X55443809Y-140660380D01*
X55300952Y-140660380D01*
X56062857Y-139993714D02*
X56062857Y-140660380D01*
X56062857Y-140088952D02*
X56110476Y-140041333D01*
X56205714Y-139993714D01*
X56348571Y-139993714D01*
X56443809Y-140041333D01*
X56491428Y-140136571D01*
X56491428Y-140660380D01*
X56824761Y-139993714D02*
X57205714Y-139993714D01*
X56967619Y-139660380D02*
X56967619Y-140517523D01*
X57015238Y-140612761D01*
X57110476Y-140660380D01*
X57205714Y-140660380D01*
X57539047Y-140660380D02*
X57539047Y-139993714D01*
X57539047Y-140184190D02*
X57586666Y-140088952D01*
X57634285Y-140041333D01*
X57729523Y-139993714D01*
X57824761Y-139993714D01*
X58300952Y-140660380D02*
X58205714Y-140612761D01*
X58158095Y-140565142D01*
X58110476Y-140469904D01*
X58110476Y-140184190D01*
X58158095Y-140088952D01*
X58205714Y-140041333D01*
X58300952Y-139993714D01*
X58443809Y-139993714D01*
X58539047Y-140041333D01*
X58586666Y-140088952D01*
X58634285Y-140184190D01*
X58634285Y-140469904D01*
X58586666Y-140565142D01*
X58539047Y-140612761D01*
X58443809Y-140660380D01*
X58300952Y-140660380D01*
X59205714Y-140660380D02*
X59110476Y-140612761D01*
X59062857Y-140517523D01*
X59062857Y-139660380D01*
X60300952Y-140374666D02*
X60777142Y-140374666D01*
X60205714Y-140660380D02*
X60539047Y-139660380D01*
X60872380Y-140660380D01*
X61205714Y-140660380D02*
X61205714Y-139993714D01*
X61205714Y-140184190D02*
X61253333Y-140088952D01*
X61300952Y-140041333D01*
X61396190Y-139993714D01*
X61491428Y-139993714D01*
X61824761Y-140660380D02*
X61824761Y-139993714D01*
X61824761Y-140088952D02*
X61872380Y-140041333D01*
X61967619Y-139993714D01*
X62110476Y-139993714D01*
X62205714Y-140041333D01*
X62253333Y-140136571D01*
X62253333Y-140660380D01*
X62253333Y-140136571D02*
X62300952Y-140041333D01*
X62396190Y-139993714D01*
X62539047Y-139993714D01*
X62634285Y-140041333D01*
X62681904Y-140136571D01*
X62681904Y-140660380D01*
X114554095Y-27440000D02*
X114458857Y-27392380D01*
X114316000Y-27392380D01*
X114173142Y-27440000D01*
X114077904Y-27535238D01*
X114030285Y-27630476D01*
X113982666Y-27820952D01*
X113982666Y-27963809D01*
X114030285Y-28154285D01*
X114077904Y-28249523D01*
X114173142Y-28344761D01*
X114316000Y-28392380D01*
X114411238Y-28392380D01*
X114554095Y-28344761D01*
X114601714Y-28297142D01*
X114601714Y-27963809D01*
X114411238Y-27963809D01*
X115030285Y-28392380D02*
X115030285Y-27392380D01*
X115601714Y-28392380D01*
X115601714Y-27392380D01*
X116077904Y-28392380D02*
X116077904Y-27392380D01*
X116316000Y-27392380D01*
X116458857Y-27440000D01*
X116554095Y-27535238D01*
X116601714Y-27630476D01*
X116649333Y-27820952D01*
X116649333Y-27963809D01*
X116601714Y-28154285D01*
X116554095Y-28249523D01*
X116458857Y-28344761D01*
X116316000Y-28392380D01*
X116077904Y-28392380D01*
X127063619Y-27392380D02*
X127396952Y-28392380D01*
X127730285Y-27392380D01*
X128063619Y-28011428D02*
X128825523Y-28011428D01*
X128444571Y-28392380D02*
X128444571Y-27630476D01*
D14*
X133350000Y-30420000D02*
X133350000Y-93920000D01*
D10*
X162274761Y-76604761D02*
X162417619Y-76652380D01*
X162655714Y-76652380D01*
X162750952Y-76604761D01*
X162798571Y-76557142D01*
X162846190Y-76461904D01*
X162846190Y-76366666D01*
X162798571Y-76271428D01*
X162750952Y-76223809D01*
X162655714Y-76176190D01*
X162465238Y-76128571D01*
X162370000Y-76080952D01*
X162322380Y-76033333D01*
X162274761Y-75938095D01*
X162274761Y-75842857D01*
X162322380Y-75747619D01*
X162370000Y-75700000D01*
X162465238Y-75652380D01*
X162703333Y-75652380D01*
X162846190Y-75700000D01*
X163274761Y-76652380D02*
X163274761Y-75652380D01*
X164274761Y-75700000D02*
X164179523Y-75652380D01*
X164036666Y-75652380D01*
X163893809Y-75700000D01*
X163798571Y-75795238D01*
X163750952Y-75890476D01*
X163703333Y-76080952D01*
X163703333Y-76223809D01*
X163750952Y-76414285D01*
X163798571Y-76509523D01*
X163893809Y-76604761D01*
X164036666Y-76652380D01*
X164131904Y-76652380D01*
X164274761Y-76604761D01*
X164322380Y-76557142D01*
X164322380Y-76223809D01*
X164131904Y-76223809D01*
X165227142Y-75652380D02*
X164750952Y-75652380D01*
X164703333Y-76128571D01*
X164750952Y-76080952D01*
X164846190Y-76033333D01*
X165084285Y-76033333D01*
X165179523Y-76080952D01*
X165227142Y-76128571D01*
X165274761Y-76223809D01*
X165274761Y-76461904D01*
X165227142Y-76557142D01*
X165179523Y-76604761D01*
X165084285Y-76652380D01*
X164846190Y-76652380D01*
X164750952Y-76604761D01*
X164703333Y-76557142D01*
X165703333Y-76271428D02*
X166465238Y-76271428D01*
X166893809Y-76366666D02*
X167370000Y-76366666D01*
X166798571Y-76652380D02*
X167131904Y-75652380D01*
X167465238Y-76652380D01*
X168370000Y-76652380D02*
X168036666Y-76176190D01*
X167798571Y-76652380D02*
X167798571Y-75652380D01*
X168179523Y-75652380D01*
X168274761Y-75700000D01*
X168322380Y-75747619D01*
X168370000Y-75842857D01*
X168370000Y-75985714D01*
X168322380Y-76080952D01*
X168274761Y-76128571D01*
X168179523Y-76176190D01*
X167798571Y-76176190D01*
X168798571Y-76652380D02*
X168798571Y-75652380D01*
X169131904Y-76366666D01*
X169465238Y-75652380D01*
X169465238Y-76652380D01*
X169893809Y-75747619D02*
X169941428Y-75700000D01*
X170036666Y-75652380D01*
X170274761Y-75652380D01*
X170370000Y-75700000D01*
X170417619Y-75747619D01*
X170465238Y-75842857D01*
X170465238Y-75938095D01*
X170417619Y-76080952D01*
X169846190Y-76652380D01*
X170465238Y-76652380D01*
X162274761Y-48664761D02*
X162417619Y-48712380D01*
X162655714Y-48712380D01*
X162750952Y-48664761D01*
X162798571Y-48617142D01*
X162846190Y-48521904D01*
X162846190Y-48426666D01*
X162798571Y-48331428D01*
X162750952Y-48283809D01*
X162655714Y-48236190D01*
X162465238Y-48188571D01*
X162370000Y-48140952D01*
X162322380Y-48093333D01*
X162274761Y-47998095D01*
X162274761Y-47902857D01*
X162322380Y-47807619D01*
X162370000Y-47760000D01*
X162465238Y-47712380D01*
X162703333Y-47712380D01*
X162846190Y-47760000D01*
X163274761Y-48712380D02*
X163274761Y-47712380D01*
X164274761Y-47760000D02*
X164179523Y-47712380D01*
X164036666Y-47712380D01*
X163893809Y-47760000D01*
X163798571Y-47855238D01*
X163750952Y-47950476D01*
X163703333Y-48140952D01*
X163703333Y-48283809D01*
X163750952Y-48474285D01*
X163798571Y-48569523D01*
X163893809Y-48664761D01*
X164036666Y-48712380D01*
X164131904Y-48712380D01*
X164274761Y-48664761D01*
X164322380Y-48617142D01*
X164322380Y-48283809D01*
X164131904Y-48283809D01*
X165274761Y-48712380D02*
X164703333Y-48712380D01*
X164989047Y-48712380D02*
X164989047Y-47712380D01*
X164893809Y-47855238D01*
X164798571Y-47950476D01*
X164703333Y-47998095D01*
X165703333Y-48331428D02*
X166465238Y-48331428D01*
X166893809Y-48426666D02*
X167370000Y-48426666D01*
X166798571Y-48712380D02*
X167131904Y-47712380D01*
X167465238Y-48712380D01*
X168370000Y-48712380D02*
X168036666Y-48236190D01*
X167798571Y-48712380D02*
X167798571Y-47712380D01*
X168179523Y-47712380D01*
X168274761Y-47760000D01*
X168322380Y-47807619D01*
X168370000Y-47902857D01*
X168370000Y-48045714D01*
X168322380Y-48140952D01*
X168274761Y-48188571D01*
X168179523Y-48236190D01*
X167798571Y-48236190D01*
X168798571Y-48712380D02*
X168798571Y-47712380D01*
X169131904Y-48426666D01*
X169465238Y-47712380D01*
X169465238Y-48712380D01*
X170465238Y-48712380D02*
X169893809Y-48712380D01*
X170179523Y-48712380D02*
X170179523Y-47712380D01*
X170084285Y-47855238D01*
X169989047Y-47950476D01*
X169893809Y-47998095D01*
D15*
G36*
X165100000Y-62230000D02*
G01*
X163830000Y-62230000D01*
X163830000Y-49530000D01*
X165100000Y-49530000D01*
X165100000Y-62230000D01*
G37*
X165100000Y-62230000D02*
X163830000Y-62230000D01*
X163830000Y-49530000D01*
X165100000Y-49530000D01*
X165100000Y-62230000D01*
G36*
X168910000Y-74930000D02*
G01*
X167640000Y-74930000D01*
X167640000Y-62230000D01*
X168910000Y-62230000D01*
X168910000Y-74930000D01*
G37*
X168910000Y-74930000D02*
X167640000Y-74930000D01*
X167640000Y-62230000D01*
X168910000Y-62230000D01*
X168910000Y-74930000D01*
D16*
X147570000Y-70578571D02*
X147570000Y-69864285D01*
X147998571Y-70721428D02*
X146498571Y-70221428D01*
X147998571Y-69721428D01*
X147998571Y-69221428D02*
X146998571Y-69221428D01*
X147284285Y-69221428D02*
X147141428Y-69150000D01*
X147070000Y-69078571D01*
X146998571Y-68935714D01*
X146998571Y-68792857D01*
X147998571Y-67650000D02*
X146498571Y-67650000D01*
X147927142Y-67650000D02*
X147998571Y-67792857D01*
X147998571Y-68078571D01*
X147927142Y-68221428D01*
X147855714Y-68292857D01*
X147712857Y-68364285D01*
X147284285Y-68364285D01*
X147141428Y-68292857D01*
X147070000Y-68221428D01*
X146998571Y-68078571D01*
X146998571Y-67792857D01*
X147070000Y-67650000D01*
X146998571Y-66292857D02*
X147998571Y-66292857D01*
X146998571Y-66935714D02*
X147784285Y-66935714D01*
X147927142Y-66864285D01*
X147998571Y-66721428D01*
X147998571Y-66507142D01*
X147927142Y-66364285D01*
X147855714Y-66292857D01*
X147998571Y-65578571D02*
X146998571Y-65578571D01*
X146498571Y-65578571D02*
X146570000Y-65650000D01*
X146641428Y-65578571D01*
X146570000Y-65507142D01*
X146498571Y-65578571D01*
X146641428Y-65578571D01*
X146998571Y-64864285D02*
X147998571Y-64864285D01*
X147141428Y-64864285D02*
X147070000Y-64792857D01*
X146998571Y-64650000D01*
X146998571Y-64435714D01*
X147070000Y-64292857D01*
X147212857Y-64221428D01*
X147998571Y-64221428D01*
X147998571Y-63292857D02*
X147927142Y-63435714D01*
X147855714Y-63507142D01*
X147712857Y-63578571D01*
X147284285Y-63578571D01*
X147141428Y-63507142D01*
X147070000Y-63435714D01*
X146998571Y-63292857D01*
X146998571Y-63078571D01*
X147070000Y-62935714D01*
X147141428Y-62864285D01*
X147284285Y-62792857D01*
X147712857Y-62792857D01*
X147855714Y-62864285D01*
X147927142Y-62935714D01*
X147998571Y-63078571D01*
X147998571Y-63292857D01*
X147998571Y-61007142D02*
X146498571Y-61007142D01*
X147570000Y-60507142D01*
X146498571Y-60007142D01*
X147998571Y-60007142D01*
X147998571Y-59292857D02*
X146498571Y-59292857D01*
X147998571Y-58435714D02*
X147141428Y-59078571D01*
X146498571Y-58435714D02*
X147355714Y-59292857D01*
X147998571Y-56935714D02*
X147284285Y-57435714D01*
X147998571Y-57792857D02*
X146498571Y-57792857D01*
X146498571Y-57221428D01*
X146570000Y-57078571D01*
X146641428Y-57007142D01*
X146784285Y-56935714D01*
X146998571Y-56935714D01*
X147141428Y-57007142D01*
X147212857Y-57078571D01*
X147284285Y-57221428D01*
X147284285Y-57792857D01*
X147998571Y-55507142D02*
X147998571Y-56364285D01*
X147998571Y-55935714D02*
X146498571Y-55935714D01*
X146712857Y-56078571D01*
X146855714Y-56221428D01*
X146927142Y-56364285D01*
X146498571Y-54578571D02*
X146498571Y-54435714D01*
X146570000Y-54292857D01*
X146641428Y-54221428D01*
X146784285Y-54150000D01*
X147070000Y-54078571D01*
X147427142Y-54078571D01*
X147712857Y-54150000D01*
X147855714Y-54221428D01*
X147927142Y-54292857D01*
X147998571Y-54435714D01*
X147998571Y-54578571D01*
X147927142Y-54721428D01*
X147855714Y-54792857D01*
X147712857Y-54864285D01*
X147427142Y-54935714D01*
X147070000Y-54935714D01*
X146784285Y-54864285D01*
X146641428Y-54792857D01*
X146570000Y-54721428D01*
X146498571Y-54578571D01*
X146498571Y-53150000D02*
X146498571Y-53007142D01*
X146570000Y-52864285D01*
X146641428Y-52792857D01*
X146784285Y-52721428D01*
X147070000Y-52650000D01*
X147427142Y-52650000D01*
X147712857Y-52721428D01*
X147855714Y-52792857D01*
X147927142Y-52864285D01*
X147998571Y-53007142D01*
X147998571Y-53150000D01*
X147927142Y-53292857D01*
X147855714Y-53364285D01*
X147712857Y-53435714D01*
X147427142Y-53507142D01*
X147070000Y-53507142D01*
X146784285Y-53435714D01*
X146641428Y-53364285D01*
X146570000Y-53292857D01*
X146498571Y-53150000D01*
X146498571Y-51721428D02*
X146498571Y-51578571D01*
X146570000Y-51435714D01*
X146641428Y-51364285D01*
X146784285Y-51292857D01*
X147070000Y-51221428D01*
X147427142Y-51221428D01*
X147712857Y-51292857D01*
X147855714Y-51364285D01*
X147927142Y-51435714D01*
X147998571Y-51578571D01*
X147998571Y-51721428D01*
X147927142Y-51864285D01*
X147855714Y-51935714D01*
X147712857Y-52007142D01*
X147427142Y-52078571D01*
X147070000Y-52078571D01*
X146784285Y-52007142D01*
X146641428Y-51935714D01*
X146570000Y-51864285D01*
X146498571Y-51721428D01*
D10*
X162149404Y-64210000D02*
X162054166Y-64162380D01*
X161911309Y-64162380D01*
X161768452Y-64210000D01*
X161673214Y-64305238D01*
X161625595Y-64400476D01*
X161577976Y-64590952D01*
X161577976Y-64733809D01*
X161625595Y-64924285D01*
X161673214Y-65019523D01*
X161768452Y-65114761D01*
X161911309Y-65162380D01*
X162006547Y-65162380D01*
X162149404Y-65114761D01*
X162197023Y-65067142D01*
X162197023Y-64733809D01*
X162006547Y-64733809D01*
X162625595Y-65162380D02*
X162625595Y-64162380D01*
X163197023Y-65162380D01*
X163197023Y-64162380D01*
X163673214Y-65162380D02*
X163673214Y-64162380D01*
X163911309Y-64162380D01*
X164054166Y-64210000D01*
X164149404Y-64305238D01*
X164197023Y-64400476D01*
X164244642Y-64590952D01*
X164244642Y-64733809D01*
X164197023Y-64924285D01*
X164149404Y-65019523D01*
X164054166Y-65114761D01*
X163911309Y-65162380D01*
X163673214Y-65162380D01*
D15*
G36*
X161290000Y-65980000D02*
G01*
X156210000Y-65980000D01*
X156210000Y-63440000D01*
X161290000Y-63440000D01*
X161290000Y-65980000D01*
G37*
X161290000Y-65980000D02*
X156210000Y-65980000D01*
X156210000Y-63440000D01*
X161290000Y-63440000D01*
X161290000Y-65980000D01*
D14*
X160020000Y-30420000D02*
X161290000Y-30420000D01*
X134620000Y-93920000D02*
X133350000Y-93920000D01*
X160020000Y-30420000D02*
X133350000Y-30420000D01*
X161290000Y-93920000D02*
X161290000Y-30420000D01*
X134620000Y-93920000D02*
X161290000Y-93920000D01*
D16*
X75280000Y-76878571D02*
X74780000Y-76164285D01*
X74422857Y-76878571D02*
X74422857Y-75378571D01*
X74994285Y-75378571D01*
X75137142Y-75450000D01*
X75208571Y-75521428D01*
X75280000Y-75664285D01*
X75280000Y-75878571D01*
X75208571Y-76021428D01*
X75137142Y-76092857D01*
X74994285Y-76164285D01*
X74422857Y-76164285D01*
X76565714Y-76878571D02*
X76565714Y-76092857D01*
X76494285Y-75950000D01*
X76351428Y-75878571D01*
X76065714Y-75878571D01*
X75922857Y-75950000D01*
X76565714Y-76807142D02*
X76422857Y-76878571D01*
X76065714Y-76878571D01*
X75922857Y-76807142D01*
X75851428Y-76664285D01*
X75851428Y-76521428D01*
X75922857Y-76378571D01*
X76065714Y-76307142D01*
X76422857Y-76307142D01*
X76565714Y-76235714D01*
X77208571Y-76807142D02*
X77351428Y-76878571D01*
X77637142Y-76878571D01*
X77780000Y-76807142D01*
X77851428Y-76664285D01*
X77851428Y-76592857D01*
X77780000Y-76450000D01*
X77637142Y-76378571D01*
X77422857Y-76378571D01*
X77280000Y-76307142D01*
X77208571Y-76164285D01*
X77208571Y-76092857D01*
X77280000Y-75950000D01*
X77422857Y-75878571D01*
X77637142Y-75878571D01*
X77780000Y-75950000D01*
X78494285Y-75878571D02*
X78494285Y-77378571D01*
X78494285Y-75950000D02*
X78637142Y-75878571D01*
X78922857Y-75878571D01*
X79065714Y-75950000D01*
X79137142Y-76021428D01*
X79208571Y-76164285D01*
X79208571Y-76592857D01*
X79137142Y-76735714D01*
X79065714Y-76807142D01*
X78922857Y-76878571D01*
X78637142Y-76878571D01*
X78494285Y-76807142D01*
X79851428Y-76878571D02*
X79851428Y-75378571D01*
X79851428Y-75950000D02*
X79994285Y-75878571D01*
X80280000Y-75878571D01*
X80422857Y-75950000D01*
X80494285Y-76021428D01*
X80565714Y-76164285D01*
X80565714Y-76592857D01*
X80494285Y-76735714D01*
X80422857Y-76807142D01*
X80280000Y-76878571D01*
X79994285Y-76878571D01*
X79851428Y-76807142D01*
X81780000Y-76807142D02*
X81637142Y-76878571D01*
X81351428Y-76878571D01*
X81208571Y-76807142D01*
X81137142Y-76664285D01*
X81137142Y-76092857D01*
X81208571Y-75950000D01*
X81351428Y-75878571D01*
X81637142Y-75878571D01*
X81780000Y-75950000D01*
X81851428Y-76092857D01*
X81851428Y-76235714D01*
X81137142Y-76378571D01*
X82494285Y-76878571D02*
X82494285Y-75878571D01*
X82494285Y-76164285D02*
X82565714Y-76021428D01*
X82637142Y-75950000D01*
X82780000Y-75878571D01*
X82922857Y-75878571D01*
X83422857Y-76878571D02*
X83422857Y-75878571D01*
X83422857Y-76164285D02*
X83494285Y-76021428D01*
X83565714Y-75950000D01*
X83708571Y-75878571D01*
X83851428Y-75878571D01*
X84208571Y-75878571D02*
X84565714Y-76878571D01*
X84922857Y-75878571D02*
X84565714Y-76878571D01*
X84422857Y-77235714D01*
X84351428Y-77307142D01*
X84208571Y-77378571D01*
X86637142Y-76878571D02*
X86637142Y-75378571D01*
X87208571Y-75378571D01*
X87351428Y-75450000D01*
X87422857Y-75521428D01*
X87494285Y-75664285D01*
X87494285Y-75878571D01*
X87422857Y-76021428D01*
X87351428Y-76092857D01*
X87208571Y-76164285D01*
X86637142Y-76164285D01*
X88137142Y-76878571D02*
X88137142Y-75878571D01*
X88137142Y-75378571D02*
X88065714Y-75450000D01*
X88137142Y-75521428D01*
X88208571Y-75450000D01*
X88137142Y-75378571D01*
X88137142Y-75521428D01*
D14*
X50800000Y-30480000D02*
X53340000Y-30480000D01*
X50800000Y-120650000D02*
X50800000Y-30480000D01*
X52070000Y-120650000D02*
X50800000Y-120650000D01*
X109220000Y-120650000D02*
X52070000Y-120650000D01*
X109220000Y-30480000D02*
X53340000Y-30480000D01*
X109220000Y-120650000D02*
X109220000Y-30480000D01*
D16*
X184400000Y-86765714D02*
X184400000Y-86051428D01*
X184828571Y-86908571D02*
X183328571Y-86408571D01*
X184828571Y-85908571D01*
X184828571Y-84765714D02*
X183328571Y-84765714D01*
X184757142Y-84765714D02*
X184828571Y-84908571D01*
X184828571Y-85194285D01*
X184757142Y-85337142D01*
X184685714Y-85408571D01*
X184542857Y-85480000D01*
X184114285Y-85480000D01*
X183971428Y-85408571D01*
X183900000Y-85337142D01*
X183828571Y-85194285D01*
X183828571Y-84908571D01*
X183900000Y-84765714D01*
X184828571Y-83408571D02*
X184042857Y-83408571D01*
X183900000Y-83480000D01*
X183828571Y-83622857D01*
X183828571Y-83908571D01*
X183900000Y-84051428D01*
X184757142Y-83408571D02*
X184828571Y-83551428D01*
X184828571Y-83908571D01*
X184757142Y-84051428D01*
X184614285Y-84122857D01*
X184471428Y-84122857D01*
X184328571Y-84051428D01*
X184257142Y-83908571D01*
X184257142Y-83551428D01*
X184185714Y-83408571D01*
X183828571Y-82908571D02*
X183828571Y-82337142D01*
X184828571Y-82694285D02*
X183542857Y-82694285D01*
X183400000Y-82622857D01*
X183328571Y-82480000D01*
X183328571Y-82337142D01*
X184828571Y-81837142D02*
X183828571Y-81837142D01*
X184114285Y-81837142D02*
X183971428Y-81765714D01*
X183900000Y-81694285D01*
X183828571Y-81551428D01*
X183828571Y-81408571D01*
X183828571Y-80265714D02*
X184828571Y-80265714D01*
X183828571Y-80908571D02*
X184614285Y-80908571D01*
X184757142Y-80837142D01*
X184828571Y-80694285D01*
X184828571Y-80480000D01*
X184757142Y-80337142D01*
X184685714Y-80265714D01*
X184828571Y-79551428D02*
X183828571Y-79551428D01*
X183328571Y-79551428D02*
X183400000Y-79622857D01*
X183471428Y-79551428D01*
X183400000Y-79480000D01*
X183328571Y-79551428D01*
X183471428Y-79551428D01*
X183828571Y-79051428D02*
X183828571Y-78480000D01*
X183328571Y-78837142D02*
X184614285Y-78837142D01*
X184757142Y-78765714D01*
X184828571Y-78622857D01*
X184828571Y-78480000D01*
X184828571Y-76837142D02*
X183328571Y-76837142D01*
X183328571Y-76265714D01*
X183400000Y-76122857D01*
X183471428Y-76051428D01*
X183614285Y-75980000D01*
X183828571Y-75980000D01*
X183971428Y-76051428D01*
X184042857Y-76122857D01*
X184114285Y-76265714D01*
X184114285Y-76837142D01*
X184685714Y-74480000D02*
X184757142Y-74551428D01*
X184828571Y-74765714D01*
X184828571Y-74908571D01*
X184757142Y-75122857D01*
X184614285Y-75265714D01*
X184471428Y-75337142D01*
X184185714Y-75408571D01*
X183971428Y-75408571D01*
X183685714Y-75337142D01*
X183542857Y-75265714D01*
X183400000Y-75122857D01*
X183328571Y-74908571D01*
X183328571Y-74765714D01*
X183400000Y-74551428D01*
X183471428Y-74480000D01*
X184400000Y-73908571D02*
X184400000Y-73194285D01*
X184828571Y-74051428D02*
X183328571Y-73551428D01*
X184828571Y-73051428D01*
X184828571Y-72480000D02*
X184828571Y-72194285D01*
X184757142Y-72051428D01*
X184685714Y-71980000D01*
X184471428Y-71837142D01*
X184185714Y-71765714D01*
X183614285Y-71765714D01*
X183471428Y-71837142D01*
X183400000Y-71908571D01*
X183328571Y-72051428D01*
X183328571Y-72337142D01*
X183400000Y-72480000D01*
X183471428Y-72551428D01*
X183614285Y-72622857D01*
X183971428Y-72622857D01*
X184114285Y-72551428D01*
X184185714Y-72480000D01*
X184257142Y-72337142D01*
X184257142Y-72051428D01*
X184185714Y-71908571D01*
X184114285Y-71837142D01*
X183971428Y-71765714D01*
X183328571Y-70480000D02*
X183328571Y-70765714D01*
X183400000Y-70908571D01*
X183471428Y-70980000D01*
X183685714Y-71122857D01*
X183971428Y-71194285D01*
X184542857Y-71194285D01*
X184685714Y-71122857D01*
X184757142Y-71051428D01*
X184828571Y-70908571D01*
X184828571Y-70622857D01*
X184757142Y-70480000D01*
X184685714Y-70408571D01*
X184542857Y-70337142D01*
X184185714Y-70337142D01*
X184042857Y-70408571D01*
X183971428Y-70480000D01*
X183900000Y-70622857D01*
X183900000Y-70908571D01*
X183971428Y-71051428D01*
X184042857Y-71122857D01*
X184185714Y-71194285D01*
X183971428Y-69480000D02*
X183900000Y-69622857D01*
X183828571Y-69694285D01*
X183685714Y-69765714D01*
X183614285Y-69765714D01*
X183471428Y-69694285D01*
X183400000Y-69622857D01*
X183328571Y-69480000D01*
X183328571Y-69194285D01*
X183400000Y-69051428D01*
X183471428Y-68980000D01*
X183614285Y-68908571D01*
X183685714Y-68908571D01*
X183828571Y-68980000D01*
X183900000Y-69051428D01*
X183971428Y-69194285D01*
X183971428Y-69480000D01*
X184042857Y-69622857D01*
X184114285Y-69694285D01*
X184257142Y-69765714D01*
X184542857Y-69765714D01*
X184685714Y-69694285D01*
X184757142Y-69622857D01*
X184828571Y-69480000D01*
X184828571Y-69194285D01*
X184757142Y-69051428D01*
X184685714Y-68980000D01*
X184542857Y-68908571D01*
X184257142Y-68908571D01*
X184114285Y-68980000D01*
X184042857Y-69051428D01*
X183971428Y-69194285D01*
X183328571Y-67551428D02*
X183328571Y-68265714D01*
X184042857Y-68337142D01*
X183971428Y-68265714D01*
X183900000Y-68122857D01*
X183900000Y-67765714D01*
X183971428Y-67622857D01*
X184042857Y-67551428D01*
X184185714Y-67480000D01*
X184542857Y-67480000D01*
X184685714Y-67551428D01*
X184757142Y-67622857D01*
X184828571Y-67765714D01*
X184828571Y-68122857D01*
X184757142Y-68265714D01*
X184685714Y-68337142D01*
X184828571Y-64908571D02*
X184828571Y-65765714D01*
X184828571Y-65337142D02*
X183328571Y-65337142D01*
X183542857Y-65480000D01*
X183685714Y-65622857D01*
X183757142Y-65765714D01*
X183328571Y-63622857D02*
X183328571Y-63908571D01*
X183400000Y-64051428D01*
X183471428Y-64122857D01*
X183685714Y-64265714D01*
X183971428Y-64337142D01*
X184542857Y-64337142D01*
X184685714Y-64265714D01*
X184757142Y-64194285D01*
X184828571Y-64051428D01*
X184828571Y-63765714D01*
X184757142Y-63622857D01*
X184685714Y-63551428D01*
X184542857Y-63480000D01*
X184185714Y-63480000D01*
X184042857Y-63551428D01*
X183971428Y-63622857D01*
X183900000Y-63765714D01*
X183900000Y-64051428D01*
X183971428Y-64194285D01*
X184042857Y-64265714D01*
X184185714Y-64337142D01*
X184257142Y-62837142D02*
X184257142Y-61694285D01*
X184685714Y-60122857D02*
X184757142Y-60194285D01*
X184828571Y-60408571D01*
X184828571Y-60551428D01*
X184757142Y-60765714D01*
X184614285Y-60908571D01*
X184471428Y-60980000D01*
X184185714Y-61051428D01*
X183971428Y-61051428D01*
X183685714Y-60980000D01*
X183542857Y-60908571D01*
X183400000Y-60765714D01*
X183328571Y-60551428D01*
X183328571Y-60408571D01*
X183400000Y-60194285D01*
X183471428Y-60122857D01*
X184828571Y-59480000D02*
X183328571Y-59480000D01*
X184828571Y-58837142D02*
X184042857Y-58837142D01*
X183900000Y-58908571D01*
X183828571Y-59051428D01*
X183828571Y-59265714D01*
X183900000Y-59408571D01*
X183971428Y-59480000D01*
X184828571Y-57480000D02*
X184042857Y-57480000D01*
X183900000Y-57551428D01*
X183828571Y-57694285D01*
X183828571Y-57980000D01*
X183900000Y-58122857D01*
X184757142Y-57480000D02*
X184828571Y-57622857D01*
X184828571Y-57980000D01*
X184757142Y-58122857D01*
X184614285Y-58194285D01*
X184471428Y-58194285D01*
X184328571Y-58122857D01*
X184257142Y-57980000D01*
X184257142Y-57622857D01*
X184185714Y-57480000D01*
X183828571Y-56765714D02*
X184828571Y-56765714D01*
X183971428Y-56765714D02*
X183900000Y-56694285D01*
X183828571Y-56551428D01*
X183828571Y-56337142D01*
X183900000Y-56194285D01*
X184042857Y-56122857D01*
X184828571Y-56122857D01*
X183828571Y-55408571D02*
X184828571Y-55408571D01*
X183971428Y-55408571D02*
X183900000Y-55337142D01*
X183828571Y-55194285D01*
X183828571Y-54980000D01*
X183900000Y-54837142D01*
X184042857Y-54765714D01*
X184828571Y-54765714D01*
X184757142Y-53480000D02*
X184828571Y-53622857D01*
X184828571Y-53908571D01*
X184757142Y-54051428D01*
X184614285Y-54122857D01*
X184042857Y-54122857D01*
X183900000Y-54051428D01*
X183828571Y-53908571D01*
X183828571Y-53622857D01*
X183900000Y-53480000D01*
X184042857Y-53408571D01*
X184185714Y-53408571D01*
X184328571Y-54122857D01*
X184828571Y-52551428D02*
X184757142Y-52694285D01*
X184614285Y-52765714D01*
X183328571Y-52765714D01*
X184757142Y-50908571D02*
X184828571Y-50694285D01*
X184828571Y-50337142D01*
X184757142Y-50194285D01*
X184685714Y-50122857D01*
X184542857Y-50051428D01*
X184400000Y-50051428D01*
X184257142Y-50122857D01*
X184185714Y-50194285D01*
X184114285Y-50337142D01*
X184042857Y-50622857D01*
X183971428Y-50765714D01*
X183900000Y-50837142D01*
X183757142Y-50908571D01*
X183614285Y-50908571D01*
X183471428Y-50837142D01*
X183400000Y-50765714D01*
X183328571Y-50622857D01*
X183328571Y-50265714D01*
X183400000Y-50051428D01*
X184757142Y-48837142D02*
X184828571Y-48980000D01*
X184828571Y-49265714D01*
X184757142Y-49408571D01*
X184614285Y-49480000D01*
X184042857Y-49480000D01*
X183900000Y-49408571D01*
X183828571Y-49265714D01*
X183828571Y-48980000D01*
X183900000Y-48837142D01*
X184042857Y-48765714D01*
X184185714Y-48765714D01*
X184328571Y-49480000D01*
X184828571Y-48122857D02*
X183828571Y-48122857D01*
X184114285Y-48122857D02*
X183971428Y-48051428D01*
X183900000Y-47980000D01*
X183828571Y-47837142D01*
X183828571Y-47694285D01*
X183828571Y-47337142D02*
X184828571Y-46980000D01*
X183828571Y-46622857D01*
X184828571Y-45837142D02*
X184757142Y-45980000D01*
X184685714Y-46051428D01*
X184542857Y-46122857D01*
X184114285Y-46122857D01*
X183971428Y-46051428D01*
X183900000Y-45980000D01*
X183828571Y-45837142D01*
X183828571Y-45622857D01*
X183900000Y-45480000D01*
X183971428Y-45408571D01*
X184114285Y-45337142D01*
X184542857Y-45337142D01*
X184685714Y-45408571D01*
X184757142Y-45480000D01*
X184828571Y-45622857D01*
X184828571Y-45837142D01*
X184828571Y-43551428D02*
X183328571Y-43551428D01*
X183328571Y-43194285D01*
X183400000Y-42980000D01*
X183542857Y-42837142D01*
X183685714Y-42765714D01*
X183971428Y-42694285D01*
X184185714Y-42694285D01*
X184471428Y-42765714D01*
X184614285Y-42837142D01*
X184757142Y-42980000D01*
X184828571Y-43194285D01*
X184828571Y-43551428D01*
X184828571Y-42051428D02*
X183828571Y-42051428D01*
X184114285Y-42051428D02*
X183971428Y-41980000D01*
X183900000Y-41908571D01*
X183828571Y-41765714D01*
X183828571Y-41622857D01*
X184828571Y-41122857D02*
X183828571Y-41122857D01*
X183328571Y-41122857D02*
X183400000Y-41194285D01*
X183471428Y-41122857D01*
X183400000Y-41051428D01*
X183328571Y-41122857D01*
X183471428Y-41122857D01*
X183828571Y-40551428D02*
X184828571Y-40194285D01*
X183828571Y-39837142D01*
X184757142Y-38694285D02*
X184828571Y-38837142D01*
X184828571Y-39122857D01*
X184757142Y-39265714D01*
X184614285Y-39337142D01*
X184042857Y-39337142D01*
X183900000Y-39265714D01*
X183828571Y-39122857D01*
X183828571Y-38837142D01*
X183900000Y-38694285D01*
X184042857Y-38622857D01*
X184185714Y-38622857D01*
X184328571Y-39337142D01*
X184828571Y-37980000D02*
X183828571Y-37980000D01*
X184114285Y-37980000D02*
X183971428Y-37908571D01*
X183900000Y-37837142D01*
X183828571Y-37694285D01*
X183828571Y-37551428D01*
D14*
X198120000Y-93980000D02*
X198120000Y-30480000D01*
X171450000Y-93980000D02*
X198120000Y-93980000D01*
X171450000Y-30480000D02*
X171450000Y-93980000D01*
X198120000Y-30480000D02*
X171450000Y-30480000D01*
X127180000Y-23640000D02*
X125180000Y-23640000D01*
X127180000Y-25880000D02*
X127180000Y-23640000D01*
X120680000Y-26857000D02*
X120730000Y-26807000D01*
X118247000Y-29290000D02*
X118272000Y-29266000D01*
X120488000Y-26615000D02*
X120512000Y-26590000D01*
X118030000Y-29073000D02*
X118079000Y-29023000D01*
X116820000Y-34500000D02*
X116820000Y-23880000D01*
X126940000Y-34500000D02*
X126940000Y-23880000D01*
X126940000Y-23880000D02*
X116820000Y-23880000D01*
X126940000Y-34500000D02*
X116820000Y-34500000D01*
X126940000Y-30940000D02*
X116820000Y-30940000D01*
X126940000Y-29940000D02*
X116820000Y-29940000D01*
X126940000Y-25940000D02*
X116820000Y-25940000D01*
X121160000Y-27940000D02*
G75*
G03X121160000Y-27940000I-1780000J0D01*
G01*
X124349186Y-26159611D02*
G75*
G02X125076000Y-26301000I30814J-1780389D01*
G01*
X126019205Y-27244484D02*
G75*
G02X126019000Y-28636000I-1639205J-695516D01*
G01*
X125075516Y-29579205D02*
G75*
G02X123684000Y-29579000I-695516J1639205D01*
G01*
X122740795Y-28635516D02*
G75*
G02X122741000Y-27244000I1639205J695516D01*
G01*
X123684499Y-26301501D02*
G75*
G02X124380000Y-26160000I695501J-1638499D01*
G01*
X154250000Y-152270000D02*
X148009000Y-152270000D01*
X154250000Y-142270000D02*
X148009000Y-142270000D01*
X148009000Y-142270000D02*
X148009000Y-152270000D01*
X154250000Y-142270000D02*
X154250000Y-152270000D01*
X154750000Y-142270000D02*
X147510000Y-142270000D01*
X154750000Y-137270000D02*
X147510000Y-137270000D01*
X147510000Y-137270000D02*
X147510000Y-142270000D01*
X154750000Y-137270000D02*
X154750000Y-142270000D01*
X160200000Y-137270000D02*
X142060000Y-137270000D01*
X160200000Y-126530000D02*
X142060000Y-126530000D01*
X142060000Y-126530000D02*
X142060000Y-137270000D01*
X160200000Y-126530000D02*
X160200000Y-137270000D01*
X72390000Y-134620000D02*
G75*
G03X72390000Y-134620000I-2540000J0D01*
G01*
X66040000Y-138130000D02*
X66040000Y-138430000D01*
X73660000Y-138130000D02*
X73660000Y-138430000D01*
X66040000Y-133050000D02*
X66040000Y-136190000D01*
X73660000Y-133050000D02*
X73660000Y-136190000D01*
X66040000Y-130810000D02*
X66040000Y-131110000D01*
X73660000Y-138430000D02*
X66040000Y-138430000D01*
X73660000Y-130810000D02*
X73660000Y-131110000D01*
X66040000Y-130810000D02*
X73660000Y-130810000D01*
X165330000Y-114300000D02*
X164560000Y-114300000D01*
X157250000Y-114300000D02*
X158020000Y-114300000D01*
X164560000Y-112930000D02*
X158020000Y-112930000D01*
X164560000Y-115670000D02*
X164560000Y-112930000D01*
X158020000Y-115670000D02*
X164560000Y-115670000D01*
X158020000Y-112930000D02*
X158020000Y-115670000D01*
X179960000Y-114300000D02*
X179190000Y-114300000D01*
X171880000Y-114300000D02*
X172650000Y-114300000D01*
X179190000Y-112930000D02*
X172650000Y-112930000D01*
X179190000Y-115670000D02*
X179190000Y-112930000D01*
X172650000Y-115670000D02*
X179190000Y-115670000D01*
X172650000Y-112930000D02*
X172650000Y-115670000D01*
X171880400Y-110490000D02*
X172650400Y-110490000D01*
X179960400Y-110490000D02*
X179190400Y-110490000D01*
X172650400Y-111860000D02*
X179190400Y-111860000D01*
X172650400Y-109120000D02*
X172650400Y-111860000D01*
X179190400Y-109120000D02*
X172650400Y-109120000D01*
X179190400Y-111860000D02*
X179190400Y-109120000D01*
X161939000Y-117190000D02*
X160681000Y-117190000D01*
X161939000Y-119030000D02*
X160681000Y-119030000D01*
X176810700Y-117190000D02*
X175552700Y-117190000D01*
X176810700Y-119030000D02*
X175552700Y-119030000D01*
X60960000Y-134620000D02*
G75*
G03X60960000Y-134620000I-2540000J0D01*
G01*
X54610000Y-138130000D02*
X54610000Y-138430000D01*
X62230000Y-138130000D02*
X62230000Y-138430000D01*
X54610000Y-133050000D02*
X54610000Y-136190000D01*
X62230000Y-133050000D02*
X62230000Y-136190000D01*
X54610000Y-130810000D02*
X54610000Y-131110000D01*
X62230000Y-138430000D02*
X54610000Y-138430000D01*
X62230000Y-130810000D02*
X62230000Y-131110000D01*
X54610000Y-130810000D02*
X62230000Y-130810000D01*
X185920000Y-152270000D02*
X179679000Y-152270000D01*
X185920000Y-142270000D02*
X179679000Y-142270000D01*
X179679000Y-142270000D02*
X179679000Y-152270000D01*
X185920000Y-142270000D02*
X185920000Y-152270000D01*
X186420000Y-142270000D02*
X179180000Y-142270000D01*
X186420000Y-137270000D02*
X179180000Y-137270000D01*
X179180000Y-137270000D02*
X179180000Y-142270000D01*
X186420000Y-137270000D02*
X186420000Y-142270000D01*
X191870000Y-137270000D02*
X173730000Y-137270000D01*
X191870000Y-126530000D02*
X173730000Y-126530000D01*
X173730000Y-126530000D02*
X173730000Y-137270000D01*
X191870000Y-126530000D02*
X191870000Y-137270000D01*
X122420000Y-152270000D02*
X116179000Y-152270000D01*
X122420000Y-142270000D02*
X116179000Y-142270000D01*
X116179000Y-142270000D02*
X116179000Y-152270000D01*
X122420000Y-142270000D02*
X122420000Y-152270000D01*
X122920000Y-142270000D02*
X115680000Y-142270000D01*
X122920000Y-137270000D02*
X115680000Y-137270000D01*
X115680000Y-137270000D02*
X115680000Y-142270000D01*
X122920000Y-137270000D02*
X122920000Y-142270000D01*
X128370000Y-137270000D02*
X110230000Y-137270000D01*
X128370000Y-126530000D02*
X110230000Y-126530000D01*
X110230000Y-126530000D02*
X110230000Y-137270000D01*
X128370000Y-126530000D02*
X128370000Y-137270000D01*
X90670000Y-152270000D02*
X84429000Y-152270000D01*
X90670000Y-142270000D02*
X84429000Y-142270000D01*
X84429000Y-142270000D02*
X84429000Y-152270000D01*
X90670000Y-142270000D02*
X90670000Y-152270000D01*
X91170000Y-142270000D02*
X83930000Y-142270000D01*
X91170000Y-137270000D02*
X83930000Y-137270000D01*
X83930000Y-137270000D02*
X83930000Y-142270000D01*
X91170000Y-137270000D02*
X91170000Y-142270000D01*
X96620000Y-137270000D02*
X78480000Y-137270000D01*
X96620000Y-126530000D02*
X78480000Y-126530000D01*
X78480000Y-126530000D02*
X78480000Y-137270000D01*
X96620000Y-126530000D02*
X96620000Y-137270000D01*
X157250000Y-110490000D02*
X158020000Y-110490000D01*
X165330000Y-110490000D02*
X164560000Y-110490000D01*
X158020000Y-111860000D02*
X164560000Y-111860000D01*
X158020000Y-109120000D02*
X158020000Y-111860000D01*
X164560000Y-109120000D02*
X158020000Y-109120000D01*
X164560000Y-111860000D02*
X164560000Y-109120000D01*
X208050000Y-123190000D02*
X208820000Y-123190000D01*
X216130000Y-123190000D02*
X215360000Y-123190000D01*
X208820000Y-124560000D02*
X215360000Y-124560000D01*
X208820000Y-121820000D02*
X208820000Y-124560000D01*
X215360000Y-121820000D02*
X208820000Y-121820000D01*
X215360000Y-124560000D02*
X215360000Y-121820000D01*
X216130000Y-119380000D02*
X215360000Y-119380000D01*
X208050000Y-119380000D02*
X208820000Y-119380000D01*
X215360000Y-118010000D02*
X208820000Y-118010000D01*
X215360000Y-120750000D02*
X215360000Y-118010000D01*
X208820000Y-120750000D02*
X215360000Y-120750000D01*
X208820000Y-118010000D02*
X208820000Y-120750000D01*
X216130000Y-115570000D02*
X215360000Y-115570000D01*
X208050000Y-115570000D02*
X208820000Y-115570000D01*
X215360000Y-114200000D02*
X208820000Y-114200000D01*
X215360000Y-116940000D02*
X215360000Y-114200000D01*
X208820000Y-116940000D02*
X215360000Y-116940000D01*
X208820000Y-114200000D02*
X208820000Y-116940000D01*
X216130000Y-53340000D02*
X215360000Y-53340000D01*
X208050000Y-53340000D02*
X208820000Y-53340000D01*
X215360000Y-51970000D02*
X208820000Y-51970000D01*
X215360000Y-54710000D02*
X215360000Y-51970000D01*
X208820000Y-54710000D02*
X215360000Y-54710000D01*
X208820000Y-51970000D02*
X208820000Y-54710000D01*
X216130000Y-57150000D02*
X215360000Y-57150000D01*
X208050000Y-57150000D02*
X208820000Y-57150000D01*
X215360000Y-55780000D02*
X208820000Y-55780000D01*
X215360000Y-58520000D02*
X215360000Y-55780000D01*
X208820000Y-58520000D02*
X215360000Y-58520000D01*
X208820000Y-55780000D02*
X208820000Y-58520000D01*
X216130000Y-60960000D02*
X215360000Y-60960000D01*
X208050000Y-60960000D02*
X208820000Y-60960000D01*
X215360000Y-59590000D02*
X208820000Y-59590000D01*
X215360000Y-62330000D02*
X215360000Y-59590000D01*
X208820000Y-62330000D02*
X215360000Y-62330000D01*
X208820000Y-59590000D02*
X208820000Y-62330000D01*
X200091522Y-125161522D02*
G75*
G03X201930000Y-129600000I1838478J-1838478D01*
G01*
X203768478Y-125161522D02*
G75*
G02X201930000Y-129600000I-1838478J-1838478D01*
G01*
X203730000Y-125150000D02*
X200130000Y-125150000D01*
X200091522Y-118811522D02*
G75*
G03X201930000Y-123250000I1838478J-1838478D01*
G01*
X203768478Y-118811522D02*
G75*
G02X201930000Y-123250000I-1838478J-1838478D01*
G01*
X203730000Y-118800000D02*
X200130000Y-118800000D01*
X203768478Y-57718478D02*
G75*
G03X201930000Y-53280000I-1838478J1838478D01*
G01*
X200091522Y-57718478D02*
G75*
G02X201930000Y-53280000I1838478J1838478D01*
G01*
X200130000Y-57730000D02*
X203730000Y-57730000D01*
X203768478Y-51368478D02*
G75*
G03X201930000Y-46930000I-1838478J1838478D01*
G01*
X200091522Y-51368478D02*
G75*
G02X201930000Y-46930000I1838478J1838478D01*
G01*
X200130000Y-51380000D02*
X203730000Y-51380000D01*
X205010000Y-129810000D02*
X205010000Y-152510000D01*
X205010000Y-152510000D02*
X221710000Y-152510000D01*
X221710000Y-152510000D02*
X221710000Y-129810000D01*
X221710000Y-129810000D02*
X205010000Y-129810000D01*
X213710000Y-147460000D02*
X213010000Y-147860000D01*
X213010000Y-147060000D02*
X213010000Y-148260000D01*
X213010000Y-148260000D02*
X213710000Y-148260000D01*
X213710000Y-148260000D02*
X213710000Y-147060000D01*
X213710000Y-147060000D02*
X213010000Y-147060000D01*
X214360000Y-152770000D02*
X212360000Y-152770000D01*
X217860000Y-147660000D02*
X214710000Y-147660000D01*
X212010000Y-147660000D02*
X208860000Y-147660000D01*
X214710000Y-28870000D02*
X217860000Y-28870000D01*
X208860000Y-28870000D02*
X212010000Y-28870000D01*
X212360000Y-23760000D02*
X214360000Y-23760000D01*
X213010000Y-29470000D02*
X213710000Y-29470000D01*
X213010000Y-28270000D02*
X213010000Y-29470000D01*
X213710000Y-28270000D02*
X213010000Y-28270000D01*
X213710000Y-29470000D02*
X213710000Y-28270000D01*
X213010000Y-29070000D02*
X213710000Y-28670000D01*
X205010000Y-46720000D02*
X221710000Y-46720000D01*
X205010000Y-24020000D02*
X205010000Y-46720000D01*
X221710000Y-24020000D02*
X205010000Y-24020000D01*
X221710000Y-46720000D02*
X221710000Y-24020000D01*
X235440000Y-152660000D02*
X235440000Y-150660000D01*
X233200000Y-152660000D02*
X235440000Y-152660000D01*
X232223000Y-146160000D02*
X232273000Y-146210000D01*
X229790000Y-143727000D02*
X229814000Y-143752000D01*
X232465000Y-145968000D02*
X232490000Y-145992000D01*
X230007000Y-143510000D02*
X230057000Y-143559000D01*
X224580000Y-142300000D02*
X235200000Y-142300000D01*
X224580000Y-152420000D02*
X235200000Y-152420000D01*
X235200000Y-152420000D02*
X235200000Y-142300000D01*
X224580000Y-152420000D02*
X224580000Y-142300000D01*
X228140000Y-152420000D02*
X228140000Y-142300000D01*
X229140000Y-152420000D02*
X229140000Y-142300000D01*
X233140000Y-152420000D02*
X233140000Y-142300000D01*
X232920000Y-144860000D02*
G75*
G03X232920000Y-144860000I-1780000J0D01*
G01*
X232920389Y-149829186D02*
G75*
G02X232779000Y-150556000I-1780389J-30814D01*
G01*
X231835516Y-151499205D02*
G75*
G02X230444000Y-151499000I-695516J1639205D01*
G01*
X229500795Y-150555516D02*
G75*
G02X229501000Y-149164000I1639205J695516D01*
G01*
X230444484Y-148220795D02*
G75*
G02X231836000Y-148221000I695516J-1639205D01*
G01*
X232778499Y-149164499D02*
G75*
G02X232920000Y-149860000I-1638499J-695501D01*
G01*
X235440000Y-34550000D02*
X235440000Y-32550000D01*
X233200000Y-34550000D02*
X235440000Y-34550000D01*
X232223000Y-28050000D02*
X232273000Y-28100000D01*
X229790000Y-25617000D02*
X229814000Y-25642000D01*
X232465000Y-27858000D02*
X232490000Y-27882000D01*
X230007000Y-25400000D02*
X230057000Y-25449000D01*
X224580000Y-24190000D02*
X235200000Y-24190000D01*
X224580000Y-34310000D02*
X235200000Y-34310000D01*
X235200000Y-34310000D02*
X235200000Y-24190000D01*
X224580000Y-34310000D02*
X224580000Y-24190000D01*
X228140000Y-34310000D02*
X228140000Y-24190000D01*
X229140000Y-34310000D02*
X229140000Y-24190000D01*
X233140000Y-34310000D02*
X233140000Y-24190000D01*
X232920000Y-26750000D02*
G75*
G03X232920000Y-26750000I-1780000J0D01*
G01*
X232920389Y-31719186D02*
G75*
G02X232779000Y-32446000I-1780389J-30814D01*
G01*
X231835516Y-33389205D02*
G75*
G02X230444000Y-33389000I-695516J1639205D01*
G01*
X229500795Y-32445516D02*
G75*
G02X229501000Y-31054000I1639205J695516D01*
G01*
X230444484Y-30110795D02*
G75*
G02X231836000Y-30111000I695516J-1639205D01*
G01*
X232778499Y-31054499D02*
G75*
G02X232920000Y-31750000I-1638499J-695501D01*
G01*
X165040000Y-49470000D02*
X166370000Y-49470000D01*
X165040000Y-50800000D02*
X165040000Y-49470000D01*
X165040000Y-52070000D02*
X167700000Y-52070000D01*
X167700000Y-52070000D02*
X167700000Y-74990000D01*
X165040000Y-52070000D02*
X165040000Y-74990000D01*
X165040000Y-74990000D02*
X167700000Y-74990000D01*
X235440000Y-119640000D02*
X235440000Y-117640000D01*
X233200000Y-119640000D02*
X235440000Y-119640000D01*
X232223000Y-93140000D02*
X232273000Y-93190000D01*
X229790000Y-90707000D02*
X229814000Y-90732000D01*
X232465000Y-92948000D02*
X232490000Y-92972000D01*
X230007000Y-90490000D02*
X230057000Y-90539000D01*
X232223000Y-98140000D02*
X232273000Y-98190000D01*
X229790000Y-95707000D02*
X229814000Y-95732000D01*
X232465000Y-97948000D02*
X232490000Y-97972000D01*
X230007000Y-95490000D02*
X230057000Y-95539000D01*
X232223000Y-103140000D02*
X232273000Y-103190000D01*
X229790000Y-100707000D02*
X229814000Y-100732000D01*
X232465000Y-102948000D02*
X232490000Y-102972000D01*
X230007000Y-100490000D02*
X230057000Y-100539000D01*
X232223000Y-108140000D02*
X232273000Y-108190000D01*
X229790000Y-105707000D02*
X229814000Y-105732000D01*
X232465000Y-107948000D02*
X232490000Y-107972000D01*
X230007000Y-105490000D02*
X230057000Y-105539000D01*
X232223000Y-113140000D02*
X232273000Y-113190000D01*
X229790000Y-110707000D02*
X229814000Y-110732000D01*
X232465000Y-112948000D02*
X232490000Y-112972000D01*
X230007000Y-110490000D02*
X230057000Y-110539000D01*
X224580000Y-89280000D02*
X235200000Y-89280000D01*
X224580000Y-119400000D02*
X235200000Y-119400000D01*
X235200000Y-119400000D02*
X235200000Y-89280000D01*
X224580000Y-119400000D02*
X224580000Y-89280000D01*
X228140000Y-119400000D02*
X228140000Y-89280000D01*
X229140000Y-119400000D02*
X229140000Y-89280000D01*
X233140000Y-119400000D02*
X233140000Y-89280000D01*
X232920000Y-91840000D02*
G75*
G03X232920000Y-91840000I-1780000J0D01*
G01*
X232920000Y-96840000D02*
G75*
G03X232920000Y-96840000I-1780000J0D01*
G01*
X232920000Y-101840000D02*
G75*
G03X232920000Y-101840000I-1780000J0D01*
G01*
X232920000Y-106840000D02*
G75*
G03X232920000Y-106840000I-1780000J0D01*
G01*
X232920000Y-111840000D02*
G75*
G03X232920000Y-111840000I-1780000J0D01*
G01*
X232920389Y-116809186D02*
G75*
G02X232779000Y-117536000I-1780389J-30814D01*
G01*
X231835516Y-118479205D02*
G75*
G02X230444000Y-118479000I-695516J1639205D01*
G01*
X229500795Y-117535516D02*
G75*
G02X229501000Y-116144000I1639205J695516D01*
G01*
X230444484Y-115200795D02*
G75*
G02X231836000Y-115201000I695516J-1639205D01*
G01*
X232778499Y-116144499D02*
G75*
G02X232920000Y-116840000I-1638499J-695501D01*
G01*
X235440000Y-141230000D02*
X235440000Y-139230000D01*
X233200000Y-141230000D02*
X235440000Y-141230000D01*
X232223000Y-124730000D02*
X232273000Y-124780000D01*
X229790000Y-122297000D02*
X229814000Y-122322000D01*
X232465000Y-124538000D02*
X232490000Y-124562000D01*
X230007000Y-122080000D02*
X230057000Y-122129000D01*
X232223000Y-129730000D02*
X232273000Y-129780000D01*
X229790000Y-127297000D02*
X229814000Y-127322000D01*
X232465000Y-129538000D02*
X232490000Y-129562000D01*
X230007000Y-127080000D02*
X230057000Y-127129000D01*
X232223000Y-134730000D02*
X232273000Y-134780000D01*
X229790000Y-132297000D02*
X229814000Y-132322000D01*
X232465000Y-134538000D02*
X232490000Y-134562000D01*
X230007000Y-132080000D02*
X230057000Y-132129000D01*
X224580000Y-120869000D02*
X235200000Y-120869000D01*
X224580000Y-140990000D02*
X235200000Y-140990000D01*
X235200000Y-140990000D02*
X235200000Y-120869000D01*
X224580000Y-140990000D02*
X224580000Y-120869000D01*
X228140000Y-140990000D02*
X228140000Y-120869000D01*
X229140000Y-140990000D02*
X229140000Y-120869000D01*
X233140000Y-140990000D02*
X233140000Y-120869000D01*
X232920000Y-123430000D02*
G75*
G03X232920000Y-123430000I-1780000J0D01*
G01*
X232920000Y-128430000D02*
G75*
G03X232920000Y-128430000I-1780000J0D01*
G01*
X232920000Y-133430000D02*
G75*
G03X232920000Y-133430000I-1780000J0D01*
G01*
X232920389Y-138399186D02*
G75*
G02X232779000Y-139126000I-1780389J-30814D01*
G01*
X231835516Y-140069205D02*
G75*
G02X230444000Y-140069000I-695516J1639205D01*
G01*
X229500795Y-139125516D02*
G75*
G02X229501000Y-137734000I1639205J695516D01*
G01*
X230444484Y-136790795D02*
G75*
G02X231836000Y-136791000I695516J-1639205D01*
G01*
X232778499Y-137734499D02*
G75*
G02X232920000Y-138430000I-1638499J-695501D01*
G01*
X235440000Y-56140000D02*
X235440000Y-54140000D01*
X233200000Y-56140000D02*
X235440000Y-56140000D01*
X232223000Y-39640000D02*
X232273000Y-39690000D01*
X229790000Y-37207000D02*
X229814000Y-37232000D01*
X232465000Y-39448000D02*
X232490000Y-39472000D01*
X230007000Y-36990000D02*
X230057000Y-37039000D01*
X232223000Y-44640000D02*
X232273000Y-44690000D01*
X229790000Y-42207000D02*
X229814000Y-42232000D01*
X232465000Y-44448000D02*
X232490000Y-44472000D01*
X230007000Y-41990000D02*
X230057000Y-42039000D01*
X232223000Y-49640000D02*
X232273000Y-49690000D01*
X229790000Y-47207000D02*
X229814000Y-47232000D01*
X232465000Y-49448000D02*
X232490000Y-49472000D01*
X230007000Y-46990000D02*
X230057000Y-47039000D01*
X224580000Y-35779000D02*
X235200000Y-35779000D01*
X224580000Y-55900000D02*
X235200000Y-55900000D01*
X235200000Y-55900000D02*
X235200000Y-35779000D01*
X224580000Y-55900000D02*
X224580000Y-35779000D01*
X228140000Y-55900000D02*
X228140000Y-35779000D01*
X229140000Y-55900000D02*
X229140000Y-35779000D01*
X233140000Y-55900000D02*
X233140000Y-35779000D01*
X232920000Y-38340000D02*
G75*
G03X232920000Y-38340000I-1780000J0D01*
G01*
X232920000Y-43340000D02*
G75*
G03X232920000Y-43340000I-1780000J0D01*
G01*
X232920000Y-48340000D02*
G75*
G03X232920000Y-48340000I-1780000J0D01*
G01*
X232920389Y-53309186D02*
G75*
G02X232779000Y-54036000I-1780389J-30814D01*
G01*
X231835516Y-54979205D02*
G75*
G02X230444000Y-54979000I-695516J1639205D01*
G01*
X229500795Y-54035516D02*
G75*
G02X229501000Y-52644000I1639205J695516D01*
G01*
X230444484Y-51700795D02*
G75*
G02X231836000Y-51701000I695516J-1639205D01*
G01*
X232778499Y-52644499D02*
G75*
G02X232920000Y-53340000I-1638499J-695501D01*
G01*
X235440000Y-87890000D02*
X235440000Y-85890000D01*
X233200000Y-87890000D02*
X235440000Y-87890000D01*
X232223000Y-61390000D02*
X232273000Y-61440000D01*
X229790000Y-58957000D02*
X229814000Y-58982000D01*
X232465000Y-61198000D02*
X232490000Y-61222000D01*
X230007000Y-58740000D02*
X230057000Y-58789000D01*
X232223000Y-66390000D02*
X232273000Y-66440000D01*
X229790000Y-63957000D02*
X229814000Y-63982000D01*
X232465000Y-66198000D02*
X232490000Y-66222000D01*
X230007000Y-63740000D02*
X230057000Y-63789000D01*
X232223000Y-71390000D02*
X232273000Y-71440000D01*
X229790000Y-68957000D02*
X229814000Y-68982000D01*
X232465000Y-71198000D02*
X232490000Y-71222000D01*
X230007000Y-68740000D02*
X230057000Y-68789000D01*
X232223000Y-76390000D02*
X232273000Y-76440000D01*
X229790000Y-73957000D02*
X229814000Y-73982000D01*
X232465000Y-76198000D02*
X232490000Y-76222000D01*
X230007000Y-73740000D02*
X230057000Y-73789000D01*
X232223000Y-81390000D02*
X232273000Y-81440000D01*
X229790000Y-78957000D02*
X229814000Y-78982000D01*
X232465000Y-81198000D02*
X232490000Y-81222000D01*
X230007000Y-78740000D02*
X230057000Y-78789000D01*
X224580000Y-57530000D02*
X235200000Y-57530000D01*
X224580000Y-87650000D02*
X235200000Y-87650000D01*
X235200000Y-87650000D02*
X235200000Y-57530000D01*
X224580000Y-87650000D02*
X224580000Y-57530000D01*
X228140000Y-87650000D02*
X228140000Y-57530000D01*
X229140000Y-87650000D02*
X229140000Y-57530000D01*
X233140000Y-87650000D02*
X233140000Y-57530000D01*
X232920000Y-60090000D02*
G75*
G03X232920000Y-60090000I-1780000J0D01*
G01*
X232920000Y-65090000D02*
G75*
G03X232920000Y-65090000I-1780000J0D01*
G01*
X232920000Y-70090000D02*
G75*
G03X232920000Y-70090000I-1780000J0D01*
G01*
X232920000Y-75090000D02*
G75*
G03X232920000Y-75090000I-1780000J0D01*
G01*
X232920000Y-80090000D02*
G75*
G03X232920000Y-80090000I-1780000J0D01*
G01*
X232920389Y-85059186D02*
G75*
G02X232779000Y-85786000I-1780389J-30814D01*
G01*
X231835516Y-86729205D02*
G75*
G02X230444000Y-86729000I-695516J1639205D01*
G01*
X229500795Y-85785516D02*
G75*
G02X229501000Y-84394000I1639205J695516D01*
G01*
X230444484Y-83450795D02*
G75*
G02X231836000Y-83451000I695516J-1639205D01*
G01*
X232778499Y-84394499D02*
G75*
G02X232920000Y-85090000I-1638499J-695501D01*
G01*
X180280000Y-26730000D02*
X180280000Y-25400000D01*
X181610000Y-26730000D02*
X180280000Y-26730000D01*
X182880000Y-26730000D02*
X182880000Y-24070000D01*
X182880000Y-24070000D02*
X190560000Y-24070000D01*
X182880000Y-26730000D02*
X190560000Y-26730000D01*
X190560000Y-26730000D02*
X190560000Y-24070000D01*
X156150000Y-55760000D02*
X157480000Y-55760000D01*
X156150000Y-57090000D02*
X156150000Y-55760000D01*
X156150000Y-58360000D02*
X158810000Y-58360000D01*
X158810000Y-58360000D02*
X158810000Y-91440000D01*
X156150000Y-58360000D02*
X156150000Y-91440000D01*
X156150000Y-91440000D02*
X158810000Y-91440000D01*
X135830000Y-55760000D02*
X137160000Y-55760000D01*
X135830000Y-57090000D02*
X135830000Y-55760000D01*
X135830000Y-58360000D02*
X138490000Y-58360000D01*
X138490000Y-58360000D02*
X138490000Y-91440000D01*
X135830000Y-58360000D02*
X135830000Y-91440000D01*
X135830000Y-91440000D02*
X138490000Y-91440000D01*
X221805000Y-121180000D02*
X221915000Y-121180000D01*
X220045000Y-121180000D02*
X220155000Y-121180000D01*
X221915000Y-121190000D02*
X221915000Y-121180000D01*
X221915000Y-123380000D02*
X221915000Y-122649000D01*
X220045000Y-121190000D02*
X220045000Y-121180000D01*
X220045000Y-123380000D02*
X220045000Y-122649000D01*
X214030000Y-128470000D02*
X214030000Y-125530000D01*
X213790000Y-128470000D02*
X213790000Y-125530000D01*
X213910000Y-128470000D02*
X213910000Y-125530000D01*
X208350000Y-127000000D02*
X209370000Y-127000000D01*
X215830000Y-127000000D02*
X214810000Y-127000000D01*
X209370000Y-128470000D02*
X214810000Y-128470000D01*
X209370000Y-125530000D02*
X209370000Y-128470000D01*
X214810000Y-125530000D02*
X209370000Y-125530000D01*
X214810000Y-128470000D02*
X214810000Y-125530000D01*
X220155000Y-55350000D02*
X220045000Y-55350000D01*
X221915000Y-55350000D02*
X221805000Y-55350000D01*
X220045000Y-55340000D02*
X220045000Y-55350000D01*
X220045000Y-53150000D02*
X220045000Y-53881000D01*
X221915000Y-55340000D02*
X221915000Y-55350000D01*
X221915000Y-53150000D02*
X221915000Y-53881000D01*
X210150000Y-48060000D02*
X210150000Y-51000000D01*
X210390000Y-48060000D02*
X210390000Y-51000000D01*
X210270000Y-48060000D02*
X210270000Y-51000000D01*
X215830000Y-49530000D02*
X214810000Y-49530000D01*
X208350000Y-49530000D02*
X209370000Y-49530000D01*
X214810000Y-48060000D02*
X209370000Y-48060000D01*
X214810000Y-51000000D02*
X214810000Y-48060000D01*
X209370000Y-51000000D02*
X214810000Y-51000000D01*
X209370000Y-48060000D02*
X209370000Y-51000000D01*
X206960199Y-91315000D02*
X206960199Y-91715000D01*
X206760199Y-91515000D02*
X207160199Y-91515000D01*
X211111000Y-92340000D02*
X211111000Y-93080000D01*
X211071000Y-92173000D02*
X211071000Y-93247000D01*
X211031000Y-92046000D02*
X211031000Y-93374000D01*
X210991000Y-91942000D02*
X210991000Y-93478000D01*
X210951000Y-91851000D02*
X210951000Y-93569000D01*
X210911000Y-91770000D02*
X210911000Y-93650000D01*
X210871000Y-91697000D02*
X210871000Y-93723000D01*
X210831000Y-91630000D02*
X210831000Y-93790000D01*
X210791000Y-91568000D02*
X210791000Y-93852000D01*
X210751000Y-91510000D02*
X210751000Y-93910000D01*
X210711000Y-91456000D02*
X210711000Y-93964000D01*
X210671000Y-91406000D02*
X210671000Y-94014000D01*
X210631000Y-91359000D02*
X210631000Y-94061000D01*
X210591000Y-93550000D02*
X210591000Y-94106000D01*
X210591000Y-91314000D02*
X210591000Y-91870000D01*
X210551000Y-93550000D02*
X210551000Y-94148000D01*
X210551000Y-91272000D02*
X210551000Y-91870000D01*
X210511000Y-93550000D02*
X210511000Y-94188000D01*
X210511000Y-91232000D02*
X210511000Y-91870000D01*
X210471000Y-93550000D02*
X210471000Y-94226000D01*
X210471000Y-91194000D02*
X210471000Y-91870000D01*
X210431000Y-93550000D02*
X210431000Y-94262000D01*
X210431000Y-91158000D02*
X210431000Y-91870000D01*
X210391000Y-93550000D02*
X210391000Y-94297000D01*
X210391000Y-91123000D02*
X210391000Y-91870000D01*
X210351000Y-93550000D02*
X210351000Y-94329000D01*
X210351000Y-91091000D02*
X210351000Y-91870000D01*
X210311000Y-93550000D02*
X210311000Y-94360000D01*
X210311000Y-91060000D02*
X210311000Y-91870000D01*
X210271000Y-93550000D02*
X210271000Y-94390000D01*
X210271000Y-91030000D02*
X210271000Y-91870000D01*
X210231000Y-93550000D02*
X210231000Y-94418000D01*
X210231000Y-91002000D02*
X210231000Y-91870000D01*
X210191000Y-93550000D02*
X210191000Y-94445000D01*
X210191000Y-90975000D02*
X210191000Y-91870000D01*
X210151000Y-93550000D02*
X210151000Y-94470000D01*
X210151000Y-90950000D02*
X210151000Y-91870000D01*
X210111000Y-93550000D02*
X210111000Y-94495000D01*
X210111000Y-90925000D02*
X210111000Y-91870000D01*
X210071000Y-93550000D02*
X210071000Y-94518000D01*
X210071000Y-90902000D02*
X210071000Y-91870000D01*
X210031000Y-93550000D02*
X210031000Y-94540000D01*
X210031000Y-90880000D02*
X210031000Y-91870000D01*
X209991000Y-93550000D02*
X209991000Y-94561000D01*
X209991000Y-90859000D02*
X209991000Y-91870000D01*
X209951000Y-93550000D02*
X209951000Y-94580000D01*
X209951000Y-90840000D02*
X209951000Y-91870000D01*
X209911000Y-93550000D02*
X209911000Y-94599000D01*
X209911000Y-90821000D02*
X209911000Y-91870000D01*
X209871000Y-93550000D02*
X209871000Y-94617000D01*
X209871000Y-90803000D02*
X209871000Y-91870000D01*
X209831000Y-93550000D02*
X209831000Y-94634000D01*
X209831000Y-90786000D02*
X209831000Y-91870000D01*
X209791000Y-93550000D02*
X209791000Y-94650000D01*
X209791000Y-90770000D02*
X209791000Y-91870000D01*
X209751000Y-93550000D02*
X209751000Y-94664000D01*
X209751000Y-90756000D02*
X209751000Y-91870000D01*
X209710000Y-93550000D02*
X209710000Y-94678000D01*
X209710000Y-90742000D02*
X209710000Y-91870000D01*
X209670000Y-93550000D02*
X209670000Y-94692000D01*
X209670000Y-90728000D02*
X209670000Y-91870000D01*
X209630000Y-93550000D02*
X209630000Y-94704000D01*
X209630000Y-90716000D02*
X209630000Y-91870000D01*
X209590000Y-93550000D02*
X209590000Y-94715000D01*
X209590000Y-90705000D02*
X209590000Y-91870000D01*
X209550000Y-93550000D02*
X209550000Y-94726000D01*
X209550000Y-90694000D02*
X209550000Y-91870000D01*
X209510000Y-93550000D02*
X209510000Y-94735000D01*
X209510000Y-90685000D02*
X209510000Y-91870000D01*
X209470000Y-93550000D02*
X209470000Y-94744000D01*
X209470000Y-90676000D02*
X209470000Y-91870000D01*
X209430000Y-93550000D02*
X209430000Y-94752000D01*
X209430000Y-90668000D02*
X209430000Y-91870000D01*
X209390000Y-93550000D02*
X209390000Y-94760000D01*
X209390000Y-90660000D02*
X209390000Y-91870000D01*
X209350000Y-93550000D02*
X209350000Y-94766000D01*
X209350000Y-90654000D02*
X209350000Y-91870000D01*
X209310000Y-93550000D02*
X209310000Y-94772000D01*
X209310000Y-90648000D02*
X209310000Y-91870000D01*
X209270000Y-93550000D02*
X209270000Y-94777000D01*
X209270000Y-90643000D02*
X209270000Y-91870000D01*
X209230000Y-93550000D02*
X209230000Y-94781000D01*
X209230000Y-90639000D02*
X209230000Y-91870000D01*
X209190000Y-93550000D02*
X209190000Y-94784000D01*
X209190000Y-90636000D02*
X209190000Y-91870000D01*
X209150000Y-93550000D02*
X209150000Y-94787000D01*
X209150000Y-90633000D02*
X209150000Y-91870000D01*
X209110000Y-90631000D02*
X209110000Y-91870000D01*
X209110000Y-93550000D02*
X209110000Y-94789000D01*
X209070000Y-90630000D02*
X209070000Y-91870000D01*
X209070000Y-93550000D02*
X209070000Y-94790000D01*
X209030000Y-90630000D02*
X209030000Y-91870000D01*
X209030000Y-93550000D02*
X209030000Y-94790000D01*
X211150000Y-92710000D02*
G75*
G03X211150000Y-92710000I-2120000J0D01*
G01*
X217219801Y-94105000D02*
X217219801Y-93705000D01*
X217419801Y-93905000D02*
X217019801Y-93905000D01*
X213069000Y-93080000D02*
X213069000Y-92340000D01*
X213109000Y-93247000D02*
X213109000Y-92173000D01*
X213149000Y-93374000D02*
X213149000Y-92046000D01*
X213189000Y-93478000D02*
X213189000Y-91942000D01*
X213229000Y-93569000D02*
X213229000Y-91851000D01*
X213269000Y-93650000D02*
X213269000Y-91770000D01*
X213309000Y-93723000D02*
X213309000Y-91697000D01*
X213349000Y-93790000D02*
X213349000Y-91630000D01*
X213389000Y-93852000D02*
X213389000Y-91568000D01*
X213429000Y-93910000D02*
X213429000Y-91510000D01*
X213469000Y-93964000D02*
X213469000Y-91456000D01*
X213509000Y-94014000D02*
X213509000Y-91406000D01*
X213549000Y-94061000D02*
X213549000Y-91359000D01*
X213589000Y-91870000D02*
X213589000Y-91314000D01*
X213589000Y-94106000D02*
X213589000Y-93550000D01*
X213629000Y-91870000D02*
X213629000Y-91272000D01*
X213629000Y-94148000D02*
X213629000Y-93550000D01*
X213669000Y-91870000D02*
X213669000Y-91232000D01*
X213669000Y-94188000D02*
X213669000Y-93550000D01*
X213709000Y-91870000D02*
X213709000Y-91194000D01*
X213709000Y-94226000D02*
X213709000Y-93550000D01*
X213749000Y-91870000D02*
X213749000Y-91158000D01*
X213749000Y-94262000D02*
X213749000Y-93550000D01*
X213789000Y-91870000D02*
X213789000Y-91123000D01*
X213789000Y-94297000D02*
X213789000Y-93550000D01*
X213829000Y-91870000D02*
X213829000Y-91091000D01*
X213829000Y-94329000D02*
X213829000Y-93550000D01*
X213869000Y-91870000D02*
X213869000Y-91060000D01*
X213869000Y-94360000D02*
X213869000Y-93550000D01*
X213909000Y-91870000D02*
X213909000Y-91030000D01*
X213909000Y-94390000D02*
X213909000Y-93550000D01*
X213949000Y-91870000D02*
X213949000Y-91002000D01*
X213949000Y-94418000D02*
X213949000Y-93550000D01*
X213989000Y-91870000D02*
X213989000Y-90975000D01*
X213989000Y-94445000D02*
X213989000Y-93550000D01*
X214029000Y-91870000D02*
X214029000Y-90950000D01*
X214029000Y-94470000D02*
X214029000Y-93550000D01*
X214069000Y-91870000D02*
X214069000Y-90925000D01*
X214069000Y-94495000D02*
X214069000Y-93550000D01*
X214109000Y-91870000D02*
X214109000Y-90902000D01*
X214109000Y-94518000D02*
X214109000Y-93550000D01*
X214149000Y-91870000D02*
X214149000Y-90880000D01*
X214149000Y-94540000D02*
X214149000Y-93550000D01*
X214189000Y-91870000D02*
X214189000Y-90859000D01*
X214189000Y-94561000D02*
X214189000Y-93550000D01*
X214229000Y-91870000D02*
X214229000Y-90840000D01*
X214229000Y-94580000D02*
X214229000Y-93550000D01*
X214269000Y-91870000D02*
X214269000Y-90821000D01*
X214269000Y-94599000D02*
X214269000Y-93550000D01*
X214309000Y-91870000D02*
X214309000Y-90803000D01*
X214309000Y-94617000D02*
X214309000Y-93550000D01*
X214349000Y-91870000D02*
X214349000Y-90786000D01*
X214349000Y-94634000D02*
X214349000Y-93550000D01*
X214389000Y-91870000D02*
X214389000Y-90770000D01*
X214389000Y-94650000D02*
X214389000Y-93550000D01*
X214429000Y-91870000D02*
X214429000Y-90756000D01*
X214429000Y-94664000D02*
X214429000Y-93550000D01*
X214470000Y-91870000D02*
X214470000Y-90742000D01*
X214470000Y-94678000D02*
X214470000Y-93550000D01*
X214510000Y-91870000D02*
X214510000Y-90728000D01*
X214510000Y-94692000D02*
X214510000Y-93550000D01*
X214550000Y-91870000D02*
X214550000Y-90716000D01*
X214550000Y-94704000D02*
X214550000Y-93550000D01*
X214590000Y-91870000D02*
X214590000Y-90705000D01*
X214590000Y-94715000D02*
X214590000Y-93550000D01*
X214630000Y-91870000D02*
X214630000Y-90694000D01*
X214630000Y-94726000D02*
X214630000Y-93550000D01*
X214670000Y-91870000D02*
X214670000Y-90685000D01*
X214670000Y-94735000D02*
X214670000Y-93550000D01*
X214710000Y-91870000D02*
X214710000Y-90676000D01*
X214710000Y-94744000D02*
X214710000Y-93550000D01*
X214750000Y-91870000D02*
X214750000Y-90668000D01*
X214750000Y-94752000D02*
X214750000Y-93550000D01*
X214790000Y-91870000D02*
X214790000Y-90660000D01*
X214790000Y-94760000D02*
X214790000Y-93550000D01*
X214830000Y-91870000D02*
X214830000Y-90654000D01*
X214830000Y-94766000D02*
X214830000Y-93550000D01*
X214870000Y-91870000D02*
X214870000Y-90648000D01*
X214870000Y-94772000D02*
X214870000Y-93550000D01*
X214910000Y-91870000D02*
X214910000Y-90643000D01*
X214910000Y-94777000D02*
X214910000Y-93550000D01*
X214950000Y-91870000D02*
X214950000Y-90639000D01*
X214950000Y-94781000D02*
X214950000Y-93550000D01*
X214990000Y-91870000D02*
X214990000Y-90636000D01*
X214990000Y-94784000D02*
X214990000Y-93550000D01*
X215030000Y-91870000D02*
X215030000Y-90633000D01*
X215030000Y-94787000D02*
X215030000Y-93550000D01*
X215070000Y-94789000D02*
X215070000Y-93550000D01*
X215070000Y-91870000D02*
X215070000Y-90631000D01*
X215110000Y-94790000D02*
X215110000Y-93550000D01*
X215110000Y-91870000D02*
X215110000Y-90630000D01*
X215150000Y-94790000D02*
X215150000Y-93550000D01*
X215150000Y-91870000D02*
X215150000Y-90630000D01*
X217270000Y-92710000D02*
G75*
G03X217270000Y-92710000I-2120000J0D01*
G01*
X210239000Y-88258000D02*
X210239000Y-86240000D01*
X213940000Y-88258000D02*
X213940000Y-86240000D01*
X208447000Y-85498000D02*
X206840000Y-85498000D01*
X210987000Y-85498000D02*
X210652000Y-85498000D01*
X213527000Y-85498000D02*
X213192000Y-85498000D01*
X217340000Y-85498000D02*
X215733000Y-85498000D01*
X206840000Y-88258000D02*
X206840000Y-83317000D01*
X217340000Y-88258000D02*
X217340000Y-83317000D01*
X217340000Y-83317000D02*
X206840000Y-83317000D01*
X217340000Y-88258000D02*
X206840000Y-88258000D01*
D10*
X121070476Y-34952380D02*
X121070476Y-35666666D01*
X121022857Y-35809523D01*
X120927619Y-35904761D01*
X120784761Y-35952380D01*
X120689523Y-35952380D01*
X121499047Y-35047619D02*
X121546666Y-35000000D01*
X121641904Y-34952380D01*
X121880000Y-34952380D01*
X121975238Y-35000000D01*
X122022857Y-35047619D01*
X122070476Y-35142857D01*
X122070476Y-35238095D01*
X122022857Y-35380952D01*
X121451428Y-35952380D01*
X122070476Y-35952380D01*
X122403809Y-34952380D02*
X123022857Y-34952380D01*
X122689523Y-35333333D01*
X122832380Y-35333333D01*
X122927619Y-35380952D01*
X122975238Y-35428571D01*
X123022857Y-35523809D01*
X123022857Y-35761904D01*
X122975238Y-35857142D01*
X122927619Y-35904761D01*
X122832380Y-35952380D01*
X122546666Y-35952380D01*
X122451428Y-35904761D01*
X122403809Y-35857142D01*
X116808571Y-23332380D02*
X116808571Y-22332380D01*
X117189523Y-22332380D01*
X117284761Y-22380000D01*
X117332380Y-22427619D01*
X117380000Y-22522857D01*
X117380000Y-22665714D01*
X117332380Y-22760952D01*
X117284761Y-22808571D01*
X117189523Y-22856190D01*
X116808571Y-22856190D01*
X117951428Y-23332380D02*
X117856190Y-23284761D01*
X117808571Y-23237142D01*
X117760952Y-23141904D01*
X117760952Y-22856190D01*
X117808571Y-22760952D01*
X117856190Y-22713333D01*
X117951428Y-22665714D01*
X118094285Y-22665714D01*
X118189523Y-22713333D01*
X118237142Y-22760952D01*
X118284761Y-22856190D01*
X118284761Y-23141904D01*
X118237142Y-23237142D01*
X118189523Y-23284761D01*
X118094285Y-23332380D01*
X117951428Y-23332380D01*
X118618095Y-22665714D02*
X118808571Y-23332380D01*
X118999047Y-22856190D01*
X119189523Y-23332380D01*
X119380000Y-22665714D01*
X120141904Y-23284761D02*
X120046666Y-23332380D01*
X119856190Y-23332380D01*
X119760952Y-23284761D01*
X119713333Y-23189523D01*
X119713333Y-22808571D01*
X119760952Y-22713333D01*
X119856190Y-22665714D01*
X120046666Y-22665714D01*
X120141904Y-22713333D01*
X120189523Y-22808571D01*
X120189523Y-22903809D01*
X119713333Y-22999047D01*
X120618095Y-23332380D02*
X120618095Y-22665714D01*
X120618095Y-22856190D02*
X120665714Y-22760952D01*
X120713333Y-22713333D01*
X120808571Y-22665714D01*
X120903809Y-22665714D01*
X121237142Y-22951428D02*
X121999047Y-22951428D01*
X122427619Y-23284761D02*
X122570476Y-23332380D01*
X122808571Y-23332380D01*
X122903809Y-23284761D01*
X122951428Y-23237142D01*
X122999047Y-23141904D01*
X122999047Y-23046666D01*
X122951428Y-22951428D01*
X122903809Y-22903809D01*
X122808571Y-22856190D01*
X122618095Y-22808571D01*
X122522857Y-22760952D01*
X122475238Y-22713333D01*
X122427619Y-22618095D01*
X122427619Y-22522857D01*
X122475238Y-22427619D01*
X122522857Y-22380000D01*
X122618095Y-22332380D01*
X122856190Y-22332380D01*
X122999047Y-22380000D01*
X123856190Y-22665714D02*
X123856190Y-23332380D01*
X123427619Y-22665714D02*
X123427619Y-23189523D01*
X123475238Y-23284761D01*
X123570476Y-23332380D01*
X123713333Y-23332380D01*
X123808571Y-23284761D01*
X123856190Y-23237142D01*
X124332380Y-22665714D02*
X124332380Y-23665714D01*
X124332380Y-22713333D02*
X124427619Y-22665714D01*
X124618095Y-22665714D01*
X124713333Y-22713333D01*
X124760952Y-22760952D01*
X124808571Y-22856190D01*
X124808571Y-23141904D01*
X124760952Y-23237142D01*
X124713333Y-23284761D01*
X124618095Y-23332380D01*
X124427619Y-23332380D01*
X124332380Y-23284761D01*
X125237142Y-22665714D02*
X125237142Y-23665714D01*
X125237142Y-22713333D02*
X125332380Y-22665714D01*
X125522857Y-22665714D01*
X125618095Y-22713333D01*
X125665714Y-22760952D01*
X125713333Y-22856190D01*
X125713333Y-23141904D01*
X125665714Y-23237142D01*
X125618095Y-23284761D01*
X125522857Y-23332380D01*
X125332380Y-23332380D01*
X125237142Y-23284761D01*
X126284761Y-23332380D02*
X126189523Y-23284761D01*
X126141904Y-23189523D01*
X126141904Y-22332380D01*
X126570476Y-22665714D02*
X126808571Y-23332380D01*
X127046666Y-22665714D02*
X126808571Y-23332380D01*
X126713333Y-23570476D01*
X126665714Y-23618095D01*
X126570476Y-23665714D01*
X161782380Y-133945238D02*
X161306190Y-134278571D01*
X161782380Y-134516666D02*
X160782380Y-134516666D01*
X160782380Y-134135714D01*
X160830000Y-134040476D01*
X160877619Y-133992857D01*
X160972857Y-133945238D01*
X161115714Y-133945238D01*
X161210952Y-133992857D01*
X161258571Y-134040476D01*
X161306190Y-134135714D01*
X161306190Y-134516666D01*
X160782380Y-133659523D02*
X161782380Y-133326190D01*
X160782380Y-132992857D01*
X160782380Y-132754761D02*
X160782380Y-132135714D01*
X161163333Y-132469047D01*
X161163333Y-132326190D01*
X161210952Y-132230952D01*
X161258571Y-132183333D01*
X161353809Y-132135714D01*
X161591904Y-132135714D01*
X161687142Y-132183333D01*
X161734761Y-132230952D01*
X161782380Y-132326190D01*
X161782380Y-132611904D01*
X161734761Y-132707142D01*
X161687142Y-132754761D01*
X68516666Y-130404761D02*
X68659523Y-130452380D01*
X68897619Y-130452380D01*
X68992857Y-130404761D01*
X69040476Y-130357142D01*
X69088095Y-130261904D01*
X69088095Y-130166666D01*
X69040476Y-130071428D01*
X68992857Y-130023809D01*
X68897619Y-129976190D01*
X68707142Y-129928571D01*
X68611904Y-129880952D01*
X68564285Y-129833333D01*
X68516666Y-129738095D01*
X68516666Y-129642857D01*
X68564285Y-129547619D01*
X68611904Y-129500000D01*
X68707142Y-129452380D01*
X68945238Y-129452380D01*
X69088095Y-129500000D01*
X69421428Y-129452380D02*
X69659523Y-130452380D01*
X69850000Y-129738095D01*
X70040476Y-130452380D01*
X70278571Y-129452380D01*
X70611904Y-129547619D02*
X70659523Y-129500000D01*
X70754761Y-129452380D01*
X70992857Y-129452380D01*
X71088095Y-129500000D01*
X71135714Y-129547619D01*
X71183333Y-129642857D01*
X71183333Y-129738095D01*
X71135714Y-129880952D01*
X70564285Y-130452380D01*
X71183333Y-130452380D01*
X160123333Y-114752380D02*
X159551904Y-114752380D01*
X159837619Y-114752380D02*
X159837619Y-113752380D01*
X159742380Y-113895238D01*
X159647142Y-113990476D01*
X159551904Y-114038095D01*
X160742380Y-113752380D02*
X160837619Y-113752380D01*
X160932857Y-113800000D01*
X160980476Y-113847619D01*
X161028095Y-113942857D01*
X161075714Y-114133333D01*
X161075714Y-114371428D01*
X161028095Y-114561904D01*
X160980476Y-114657142D01*
X160932857Y-114704761D01*
X160837619Y-114752380D01*
X160742380Y-114752380D01*
X160647142Y-114704761D01*
X160599523Y-114657142D01*
X160551904Y-114561904D01*
X160504285Y-114371428D01*
X160504285Y-114133333D01*
X160551904Y-113942857D01*
X160599523Y-113847619D01*
X160647142Y-113800000D01*
X160742380Y-113752380D01*
X161504285Y-114752380D02*
X161504285Y-113752380D01*
X161599523Y-114371428D02*
X161885238Y-114752380D01*
X161885238Y-114085714D02*
X161504285Y-114466666D01*
X162266190Y-114752380D02*
X162504285Y-114752380D01*
X162504285Y-114561904D01*
X162409047Y-114514285D01*
X162313809Y-114419047D01*
X162266190Y-114276190D01*
X162266190Y-114038095D01*
X162313809Y-113895238D01*
X162409047Y-113800000D01*
X162551904Y-113752380D01*
X162742380Y-113752380D01*
X162885238Y-113800000D01*
X162980476Y-113895238D01*
X163028095Y-114038095D01*
X163028095Y-114276190D01*
X162980476Y-114419047D01*
X162885238Y-114514285D01*
X162790000Y-114561904D01*
X162790000Y-114752380D01*
X163028095Y-114752380D01*
X174753333Y-114757380D02*
X174181904Y-114757380D01*
X174467619Y-114757380D02*
X174467619Y-113757380D01*
X174372380Y-113900238D01*
X174277142Y-113995476D01*
X174181904Y-114043095D01*
X175372380Y-113757380D02*
X175467619Y-113757380D01*
X175562857Y-113805000D01*
X175610476Y-113852619D01*
X175658095Y-113947857D01*
X175705714Y-114138333D01*
X175705714Y-114376428D01*
X175658095Y-114566904D01*
X175610476Y-114662142D01*
X175562857Y-114709761D01*
X175467619Y-114757380D01*
X175372380Y-114757380D01*
X175277142Y-114709761D01*
X175229523Y-114662142D01*
X175181904Y-114566904D01*
X175134285Y-114376428D01*
X175134285Y-114138333D01*
X175181904Y-113947857D01*
X175229523Y-113852619D01*
X175277142Y-113805000D01*
X175372380Y-113757380D01*
X176134285Y-114757380D02*
X176134285Y-113757380D01*
X176229523Y-114376428D02*
X176515238Y-114757380D01*
X176515238Y-114090714D02*
X176134285Y-114471666D01*
X176896190Y-114757380D02*
X177134285Y-114757380D01*
X177134285Y-114566904D01*
X177039047Y-114519285D01*
X176943809Y-114424047D01*
X176896190Y-114281190D01*
X176896190Y-114043095D01*
X176943809Y-113900238D01*
X177039047Y-113805000D01*
X177181904Y-113757380D01*
X177372380Y-113757380D01*
X177515238Y-113805000D01*
X177610476Y-113900238D01*
X177658095Y-114043095D01*
X177658095Y-114281190D01*
X177610476Y-114424047D01*
X177515238Y-114519285D01*
X177420000Y-114566904D01*
X177420000Y-114757380D01*
X177658095Y-114757380D01*
X174200942Y-110916980D02*
X173629514Y-110916980D01*
X173915228Y-110916980D02*
X173915228Y-109916980D01*
X173819990Y-110059838D01*
X173724752Y-110155076D01*
X173629514Y-110202695D01*
X174819990Y-109916980D02*
X174915228Y-109916980D01*
X175010466Y-109964600D01*
X175058085Y-110012219D01*
X175105704Y-110107457D01*
X175153323Y-110297933D01*
X175153323Y-110536028D01*
X175105704Y-110726504D01*
X175058085Y-110821742D01*
X175010466Y-110869361D01*
X174915228Y-110916980D01*
X174819990Y-110916980D01*
X174724752Y-110869361D01*
X174677133Y-110821742D01*
X174629514Y-110726504D01*
X174581895Y-110536028D01*
X174581895Y-110297933D01*
X174629514Y-110107457D01*
X174677133Y-110012219D01*
X174724752Y-109964600D01*
X174819990Y-109916980D01*
X175772371Y-109916980D02*
X175867609Y-109916980D01*
X175962847Y-109964600D01*
X176010466Y-110012219D01*
X176058085Y-110107457D01*
X176105704Y-110297933D01*
X176105704Y-110536028D01*
X176058085Y-110726504D01*
X176010466Y-110821742D01*
X175962847Y-110869361D01*
X175867609Y-110916980D01*
X175772371Y-110916980D01*
X175677133Y-110869361D01*
X175629514Y-110821742D01*
X175581895Y-110726504D01*
X175534276Y-110536028D01*
X175534276Y-110297933D01*
X175581895Y-110107457D01*
X175629514Y-110012219D01*
X175677133Y-109964600D01*
X175772371Y-109916980D01*
X176534276Y-110916980D02*
X176534276Y-109916980D01*
X176629514Y-110536028D02*
X176915228Y-110916980D01*
X176915228Y-110250314D02*
X176534276Y-110631266D01*
X177296180Y-110916980D02*
X177534276Y-110916980D01*
X177534276Y-110726504D01*
X177439038Y-110678885D01*
X177343800Y-110583647D01*
X177296180Y-110440790D01*
X177296180Y-110202695D01*
X177343800Y-110059838D01*
X177439038Y-109964600D01*
X177581895Y-109916980D01*
X177772371Y-109916980D01*
X177915228Y-109964600D01*
X178010466Y-110059838D01*
X178058085Y-110202695D01*
X178058085Y-110440790D01*
X178010466Y-110583647D01*
X177915228Y-110678885D01*
X177819990Y-110726504D01*
X177819990Y-110916980D01*
X178058085Y-110916980D01*
X161143333Y-120517142D02*
X161095714Y-120564761D01*
X160952857Y-120612380D01*
X160857619Y-120612380D01*
X160714761Y-120564761D01*
X160619523Y-120469523D01*
X160571904Y-120374285D01*
X160524285Y-120183809D01*
X160524285Y-120040952D01*
X160571904Y-119850476D01*
X160619523Y-119755238D01*
X160714761Y-119660000D01*
X160857619Y-119612380D01*
X160952857Y-119612380D01*
X161095714Y-119660000D01*
X161143333Y-119707619D01*
X162000476Y-119945714D02*
X162000476Y-120612380D01*
X161762380Y-119564761D02*
X161524285Y-120279047D01*
X162143333Y-120279047D01*
X164457142Y-117562380D02*
X163980952Y-117562380D01*
X163933333Y-118038571D01*
X163980952Y-117990952D01*
X164076190Y-117943333D01*
X164314285Y-117943333D01*
X164409523Y-117990952D01*
X164457142Y-118038571D01*
X164504761Y-118133809D01*
X164504761Y-118371904D01*
X164457142Y-118467142D01*
X164409523Y-118514761D01*
X164314285Y-118562380D01*
X164076190Y-118562380D01*
X163980952Y-118514761D01*
X163933333Y-118467142D01*
X165361904Y-117895714D02*
X165361904Y-118562380D01*
X164933333Y-117895714D02*
X164933333Y-118419523D01*
X164980952Y-118514761D01*
X165076190Y-118562380D01*
X165219047Y-118562380D01*
X165314285Y-118514761D01*
X165361904Y-118467142D01*
X166171428Y-118038571D02*
X165838095Y-118038571D01*
X165838095Y-118562380D02*
X165838095Y-117562380D01*
X166314285Y-117562380D01*
X176015033Y-120517142D02*
X175967414Y-120564761D01*
X175824557Y-120612380D01*
X175729319Y-120612380D01*
X175586461Y-120564761D01*
X175491223Y-120469523D01*
X175443604Y-120374285D01*
X175395985Y-120183809D01*
X175395985Y-120040952D01*
X175443604Y-119850476D01*
X175491223Y-119755238D01*
X175586461Y-119660000D01*
X175729319Y-119612380D01*
X175824557Y-119612380D01*
X175967414Y-119660000D01*
X176015033Y-119707619D01*
X176348366Y-119612380D02*
X176967414Y-119612380D01*
X176634080Y-119993333D01*
X176776938Y-119993333D01*
X176872176Y-120040952D01*
X176919795Y-120088571D01*
X176967414Y-120183809D01*
X176967414Y-120421904D01*
X176919795Y-120517142D01*
X176872176Y-120564761D01*
X176776938Y-120612380D01*
X176491223Y-120612380D01*
X176395985Y-120564761D01*
X176348366Y-120517142D01*
X179328842Y-117562380D02*
X178852652Y-117562380D01*
X178805033Y-118038571D01*
X178852652Y-117990952D01*
X178947890Y-117943333D01*
X179185985Y-117943333D01*
X179281223Y-117990952D01*
X179328842Y-118038571D01*
X179376461Y-118133809D01*
X179376461Y-118371904D01*
X179328842Y-118467142D01*
X179281223Y-118514761D01*
X179185985Y-118562380D01*
X178947890Y-118562380D01*
X178852652Y-118514761D01*
X178805033Y-118467142D01*
X180233604Y-117895714D02*
X180233604Y-118562380D01*
X179805033Y-117895714D02*
X179805033Y-118419523D01*
X179852652Y-118514761D01*
X179947890Y-118562380D01*
X180090747Y-118562380D01*
X180185985Y-118514761D01*
X180233604Y-118467142D01*
X181043128Y-118038571D02*
X180709795Y-118038571D01*
X180709795Y-118562380D02*
X180709795Y-117562380D01*
X181185985Y-117562380D01*
X57086666Y-130404761D02*
X57229523Y-130452380D01*
X57467619Y-130452380D01*
X57562857Y-130404761D01*
X57610476Y-130357142D01*
X57658095Y-130261904D01*
X57658095Y-130166666D01*
X57610476Y-130071428D01*
X57562857Y-130023809D01*
X57467619Y-129976190D01*
X57277142Y-129928571D01*
X57181904Y-129880952D01*
X57134285Y-129833333D01*
X57086666Y-129738095D01*
X57086666Y-129642857D01*
X57134285Y-129547619D01*
X57181904Y-129500000D01*
X57277142Y-129452380D01*
X57515238Y-129452380D01*
X57658095Y-129500000D01*
X57991428Y-129452380D02*
X58229523Y-130452380D01*
X58420000Y-129738095D01*
X58610476Y-130452380D01*
X58848571Y-129452380D01*
X59753333Y-130452380D02*
X59181904Y-130452380D01*
X59467619Y-130452380D02*
X59467619Y-129452380D01*
X59372380Y-129595238D01*
X59277142Y-129690476D01*
X59181904Y-129738095D01*
X193452380Y-133945238D02*
X192976190Y-134278571D01*
X193452380Y-134516666D02*
X192452380Y-134516666D01*
X192452380Y-134135714D01*
X192500000Y-134040476D01*
X192547619Y-133992857D01*
X192642857Y-133945238D01*
X192785714Y-133945238D01*
X192880952Y-133992857D01*
X192928571Y-134040476D01*
X192976190Y-134135714D01*
X192976190Y-134516666D01*
X192452380Y-133659523D02*
X193452380Y-133326190D01*
X192452380Y-132992857D01*
X192785714Y-132230952D02*
X193452380Y-132230952D01*
X192404761Y-132469047D02*
X193119047Y-132707142D01*
X193119047Y-132088095D01*
X129952380Y-133945238D02*
X129476190Y-134278571D01*
X129952380Y-134516666D02*
X128952380Y-134516666D01*
X128952380Y-134135714D01*
X129000000Y-134040476D01*
X129047619Y-133992857D01*
X129142857Y-133945238D01*
X129285714Y-133945238D01*
X129380952Y-133992857D01*
X129428571Y-134040476D01*
X129476190Y-134135714D01*
X129476190Y-134516666D01*
X128952380Y-133659523D02*
X129952380Y-133326190D01*
X128952380Y-132992857D01*
X129047619Y-132707142D02*
X129000000Y-132659523D01*
X128952380Y-132564285D01*
X128952380Y-132326190D01*
X129000000Y-132230952D01*
X129047619Y-132183333D01*
X129142857Y-132135714D01*
X129238095Y-132135714D01*
X129380952Y-132183333D01*
X129952380Y-132754761D01*
X129952380Y-132135714D01*
X98202380Y-133945238D02*
X97726190Y-134278571D01*
X98202380Y-134516666D02*
X97202380Y-134516666D01*
X97202380Y-134135714D01*
X97250000Y-134040476D01*
X97297619Y-133992857D01*
X97392857Y-133945238D01*
X97535714Y-133945238D01*
X97630952Y-133992857D01*
X97678571Y-134040476D01*
X97726190Y-134135714D01*
X97726190Y-134516666D01*
X97202380Y-133659523D02*
X98202380Y-133326190D01*
X97202380Y-132992857D01*
X98202380Y-132135714D02*
X98202380Y-132707142D01*
X98202380Y-132421428D02*
X97202380Y-132421428D01*
X97345238Y-132516666D01*
X97440476Y-132611904D01*
X97488095Y-132707142D01*
X159647142Y-110942380D02*
X159075714Y-110942380D01*
X159361428Y-110942380D02*
X159361428Y-109942380D01*
X159266190Y-110085238D01*
X159170952Y-110180476D01*
X159075714Y-110228095D01*
X160266190Y-109942380D02*
X160361428Y-109942380D01*
X160456666Y-109990000D01*
X160504285Y-110037619D01*
X160551904Y-110132857D01*
X160599523Y-110323333D01*
X160599523Y-110561428D01*
X160551904Y-110751904D01*
X160504285Y-110847142D01*
X160456666Y-110894761D01*
X160361428Y-110942380D01*
X160266190Y-110942380D01*
X160170952Y-110894761D01*
X160123333Y-110847142D01*
X160075714Y-110751904D01*
X160028095Y-110561428D01*
X160028095Y-110323333D01*
X160075714Y-110132857D01*
X160123333Y-110037619D01*
X160170952Y-109990000D01*
X160266190Y-109942380D01*
X161218571Y-109942380D02*
X161313809Y-109942380D01*
X161409047Y-109990000D01*
X161456666Y-110037619D01*
X161504285Y-110132857D01*
X161551904Y-110323333D01*
X161551904Y-110561428D01*
X161504285Y-110751904D01*
X161456666Y-110847142D01*
X161409047Y-110894761D01*
X161313809Y-110942380D01*
X161218571Y-110942380D01*
X161123333Y-110894761D01*
X161075714Y-110847142D01*
X161028095Y-110751904D01*
X160980476Y-110561428D01*
X160980476Y-110323333D01*
X161028095Y-110132857D01*
X161075714Y-110037619D01*
X161123333Y-109990000D01*
X161218571Y-109942380D01*
X161980476Y-110942380D02*
X161980476Y-109942380D01*
X162075714Y-110561428D02*
X162361428Y-110942380D01*
X162361428Y-110275714D02*
X161980476Y-110656666D01*
X162742380Y-110942380D02*
X162980476Y-110942380D01*
X162980476Y-110751904D01*
X162885238Y-110704285D01*
X162790000Y-110609047D01*
X162742380Y-110466190D01*
X162742380Y-110228095D01*
X162790000Y-110085238D01*
X162885238Y-109990000D01*
X163028095Y-109942380D01*
X163218571Y-109942380D01*
X163361428Y-109990000D01*
X163456666Y-110085238D01*
X163504285Y-110228095D01*
X163504285Y-110466190D01*
X163456666Y-110609047D01*
X163361428Y-110704285D01*
X163266190Y-110751904D01*
X163266190Y-110942380D01*
X163504285Y-110942380D01*
X210804285Y-122642380D02*
X210328095Y-122642380D01*
X210280476Y-123118571D01*
X210328095Y-123070952D01*
X210423333Y-123023333D01*
X210661428Y-123023333D01*
X210756666Y-123070952D01*
X210804285Y-123118571D01*
X210851904Y-123213809D01*
X210851904Y-123451904D01*
X210804285Y-123547142D01*
X210756666Y-123594761D01*
X210661428Y-123642380D01*
X210423333Y-123642380D01*
X210328095Y-123594761D01*
X210280476Y-123547142D01*
X211470952Y-122642380D02*
X211566190Y-122642380D01*
X211661428Y-122690000D01*
X211709047Y-122737619D01*
X211756666Y-122832857D01*
X211804285Y-123023333D01*
X211804285Y-123261428D01*
X211756666Y-123451904D01*
X211709047Y-123547142D01*
X211661428Y-123594761D01*
X211566190Y-123642380D01*
X211470952Y-123642380D01*
X211375714Y-123594761D01*
X211328095Y-123547142D01*
X211280476Y-123451904D01*
X211232857Y-123261428D01*
X211232857Y-123023333D01*
X211280476Y-122832857D01*
X211328095Y-122737619D01*
X211375714Y-122690000D01*
X211470952Y-122642380D01*
X212423333Y-122642380D02*
X212518571Y-122642380D01*
X212613809Y-122690000D01*
X212661428Y-122737619D01*
X212709047Y-122832857D01*
X212756666Y-123023333D01*
X212756666Y-123261428D01*
X212709047Y-123451904D01*
X212661428Y-123547142D01*
X212613809Y-123594761D01*
X212518571Y-123642380D01*
X212423333Y-123642380D01*
X212328095Y-123594761D01*
X212280476Y-123547142D01*
X212232857Y-123451904D01*
X212185238Y-123261428D01*
X212185238Y-123023333D01*
X212232857Y-122832857D01*
X212280476Y-122737619D01*
X212328095Y-122690000D01*
X212423333Y-122642380D01*
X213137619Y-123642380D02*
X213375714Y-123642380D01*
X213375714Y-123451904D01*
X213280476Y-123404285D01*
X213185238Y-123309047D01*
X213137619Y-123166190D01*
X213137619Y-122928095D01*
X213185238Y-122785238D01*
X213280476Y-122690000D01*
X213423333Y-122642380D01*
X213613809Y-122642380D01*
X213756666Y-122690000D01*
X213851904Y-122785238D01*
X213899523Y-122928095D01*
X213899523Y-123166190D01*
X213851904Y-123309047D01*
X213756666Y-123404285D01*
X213661428Y-123451904D01*
X213661428Y-123642380D01*
X213899523Y-123642380D01*
X210851904Y-119832380D02*
X210280476Y-119832380D01*
X210566190Y-119832380D02*
X210566190Y-118832380D01*
X210470952Y-118975238D01*
X210375714Y-119070476D01*
X210280476Y-119118095D01*
X211470952Y-118832380D02*
X211566190Y-118832380D01*
X211661428Y-118880000D01*
X211709047Y-118927619D01*
X211756666Y-119022857D01*
X211804285Y-119213333D01*
X211804285Y-119451428D01*
X211756666Y-119641904D01*
X211709047Y-119737142D01*
X211661428Y-119784761D01*
X211566190Y-119832380D01*
X211470952Y-119832380D01*
X211375714Y-119784761D01*
X211328095Y-119737142D01*
X211280476Y-119641904D01*
X211232857Y-119451428D01*
X211232857Y-119213333D01*
X211280476Y-119022857D01*
X211328095Y-118927619D01*
X211375714Y-118880000D01*
X211470952Y-118832380D01*
X212423333Y-118832380D02*
X212518571Y-118832380D01*
X212613809Y-118880000D01*
X212661428Y-118927619D01*
X212709047Y-119022857D01*
X212756666Y-119213333D01*
X212756666Y-119451428D01*
X212709047Y-119641904D01*
X212661428Y-119737142D01*
X212613809Y-119784761D01*
X212518571Y-119832380D01*
X212423333Y-119832380D01*
X212328095Y-119784761D01*
X212280476Y-119737142D01*
X212232857Y-119641904D01*
X212185238Y-119451428D01*
X212185238Y-119213333D01*
X212232857Y-119022857D01*
X212280476Y-118927619D01*
X212328095Y-118880000D01*
X212423333Y-118832380D01*
X213137619Y-119832380D02*
X213375714Y-119832380D01*
X213375714Y-119641904D01*
X213280476Y-119594285D01*
X213185238Y-119499047D01*
X213137619Y-119356190D01*
X213137619Y-119118095D01*
X213185238Y-118975238D01*
X213280476Y-118880000D01*
X213423333Y-118832380D01*
X213613809Y-118832380D01*
X213756666Y-118880000D01*
X213851904Y-118975238D01*
X213899523Y-119118095D01*
X213899523Y-119356190D01*
X213851904Y-119499047D01*
X213756666Y-119594285D01*
X213661428Y-119641904D01*
X213661428Y-119832380D01*
X213899523Y-119832380D01*
X211399523Y-116022380D02*
X210828095Y-116022380D01*
X211113809Y-116022380D02*
X211113809Y-115022380D01*
X211018571Y-115165238D01*
X210923333Y-115260476D01*
X210828095Y-115308095D01*
X211828095Y-116022380D02*
X211828095Y-115022380D01*
X211923333Y-115641428D02*
X212209047Y-116022380D01*
X212209047Y-115355714D02*
X211828095Y-115736666D01*
X212590000Y-116022380D02*
X212828095Y-116022380D01*
X212828095Y-115831904D01*
X212732857Y-115784285D01*
X212637619Y-115689047D01*
X212590000Y-115546190D01*
X212590000Y-115308095D01*
X212637619Y-115165238D01*
X212732857Y-115070000D01*
X212875714Y-115022380D01*
X213066190Y-115022380D01*
X213209047Y-115070000D01*
X213304285Y-115165238D01*
X213351904Y-115308095D01*
X213351904Y-115546190D01*
X213304285Y-115689047D01*
X213209047Y-115784285D01*
X213113809Y-115831904D01*
X213113809Y-116022380D01*
X213351904Y-116022380D01*
X210804285Y-52792380D02*
X210328095Y-52792380D01*
X210280476Y-53268571D01*
X210328095Y-53220952D01*
X210423333Y-53173333D01*
X210661428Y-53173333D01*
X210756666Y-53220952D01*
X210804285Y-53268571D01*
X210851904Y-53363809D01*
X210851904Y-53601904D01*
X210804285Y-53697142D01*
X210756666Y-53744761D01*
X210661428Y-53792380D01*
X210423333Y-53792380D01*
X210328095Y-53744761D01*
X210280476Y-53697142D01*
X211470952Y-52792380D02*
X211566190Y-52792380D01*
X211661428Y-52840000D01*
X211709047Y-52887619D01*
X211756666Y-52982857D01*
X211804285Y-53173333D01*
X211804285Y-53411428D01*
X211756666Y-53601904D01*
X211709047Y-53697142D01*
X211661428Y-53744761D01*
X211566190Y-53792380D01*
X211470952Y-53792380D01*
X211375714Y-53744761D01*
X211328095Y-53697142D01*
X211280476Y-53601904D01*
X211232857Y-53411428D01*
X211232857Y-53173333D01*
X211280476Y-52982857D01*
X211328095Y-52887619D01*
X211375714Y-52840000D01*
X211470952Y-52792380D01*
X212423333Y-52792380D02*
X212518571Y-52792380D01*
X212613809Y-52840000D01*
X212661428Y-52887619D01*
X212709047Y-52982857D01*
X212756666Y-53173333D01*
X212756666Y-53411428D01*
X212709047Y-53601904D01*
X212661428Y-53697142D01*
X212613809Y-53744761D01*
X212518571Y-53792380D01*
X212423333Y-53792380D01*
X212328095Y-53744761D01*
X212280476Y-53697142D01*
X212232857Y-53601904D01*
X212185238Y-53411428D01*
X212185238Y-53173333D01*
X212232857Y-52982857D01*
X212280476Y-52887619D01*
X212328095Y-52840000D01*
X212423333Y-52792380D01*
X213137619Y-53792380D02*
X213375714Y-53792380D01*
X213375714Y-53601904D01*
X213280476Y-53554285D01*
X213185238Y-53459047D01*
X213137619Y-53316190D01*
X213137619Y-53078095D01*
X213185238Y-52935238D01*
X213280476Y-52840000D01*
X213423333Y-52792380D01*
X213613809Y-52792380D01*
X213756666Y-52840000D01*
X213851904Y-52935238D01*
X213899523Y-53078095D01*
X213899523Y-53316190D01*
X213851904Y-53459047D01*
X213756666Y-53554285D01*
X213661428Y-53601904D01*
X213661428Y-53792380D01*
X213899523Y-53792380D01*
X210851904Y-57602380D02*
X210280476Y-57602380D01*
X210566190Y-57602380D02*
X210566190Y-56602380D01*
X210470952Y-56745238D01*
X210375714Y-56840476D01*
X210280476Y-56888095D01*
X211470952Y-56602380D02*
X211566190Y-56602380D01*
X211661428Y-56650000D01*
X211709047Y-56697619D01*
X211756666Y-56792857D01*
X211804285Y-56983333D01*
X211804285Y-57221428D01*
X211756666Y-57411904D01*
X211709047Y-57507142D01*
X211661428Y-57554761D01*
X211566190Y-57602380D01*
X211470952Y-57602380D01*
X211375714Y-57554761D01*
X211328095Y-57507142D01*
X211280476Y-57411904D01*
X211232857Y-57221428D01*
X211232857Y-56983333D01*
X211280476Y-56792857D01*
X211328095Y-56697619D01*
X211375714Y-56650000D01*
X211470952Y-56602380D01*
X212423333Y-56602380D02*
X212518571Y-56602380D01*
X212613809Y-56650000D01*
X212661428Y-56697619D01*
X212709047Y-56792857D01*
X212756666Y-56983333D01*
X212756666Y-57221428D01*
X212709047Y-57411904D01*
X212661428Y-57507142D01*
X212613809Y-57554761D01*
X212518571Y-57602380D01*
X212423333Y-57602380D01*
X212328095Y-57554761D01*
X212280476Y-57507142D01*
X212232857Y-57411904D01*
X212185238Y-57221428D01*
X212185238Y-56983333D01*
X212232857Y-56792857D01*
X212280476Y-56697619D01*
X212328095Y-56650000D01*
X212423333Y-56602380D01*
X213137619Y-57602380D02*
X213375714Y-57602380D01*
X213375714Y-57411904D01*
X213280476Y-57364285D01*
X213185238Y-57269047D01*
X213137619Y-57126190D01*
X213137619Y-56888095D01*
X213185238Y-56745238D01*
X213280476Y-56650000D01*
X213423333Y-56602380D01*
X213613809Y-56602380D01*
X213756666Y-56650000D01*
X213851904Y-56745238D01*
X213899523Y-56888095D01*
X213899523Y-57126190D01*
X213851904Y-57269047D01*
X213756666Y-57364285D01*
X213661428Y-57411904D01*
X213661428Y-57602380D01*
X213899523Y-57602380D01*
X211399523Y-61412380D02*
X210828095Y-61412380D01*
X211113809Y-61412380D02*
X211113809Y-60412380D01*
X211018571Y-60555238D01*
X210923333Y-60650476D01*
X210828095Y-60698095D01*
X211828095Y-61412380D02*
X211828095Y-60412380D01*
X211923333Y-61031428D02*
X212209047Y-61412380D01*
X212209047Y-60745714D02*
X211828095Y-61126666D01*
X212590000Y-61412380D02*
X212828095Y-61412380D01*
X212828095Y-61221904D01*
X212732857Y-61174285D01*
X212637619Y-61079047D01*
X212590000Y-60936190D01*
X212590000Y-60698095D01*
X212637619Y-60555238D01*
X212732857Y-60460000D01*
X212875714Y-60412380D01*
X213066190Y-60412380D01*
X213209047Y-60460000D01*
X213304285Y-60555238D01*
X213351904Y-60698095D01*
X213351904Y-60936190D01*
X213304285Y-61079047D01*
X213209047Y-61174285D01*
X213113809Y-61221904D01*
X213113809Y-61412380D01*
X213351904Y-61412380D01*
X201834761Y-131107619D02*
X201739523Y-131060000D01*
X201644285Y-130964761D01*
X201501428Y-130821904D01*
X201406190Y-130774285D01*
X201310952Y-130774285D01*
X201358571Y-131012380D02*
X201263333Y-130964761D01*
X201168095Y-130869523D01*
X201120476Y-130679047D01*
X201120476Y-130345714D01*
X201168095Y-130155238D01*
X201263333Y-130060000D01*
X201358571Y-130012380D01*
X201549047Y-130012380D01*
X201644285Y-130060000D01*
X201739523Y-130155238D01*
X201787142Y-130345714D01*
X201787142Y-130679047D01*
X201739523Y-130869523D01*
X201644285Y-130964761D01*
X201549047Y-131012380D01*
X201358571Y-131012380D01*
X202644285Y-130345714D02*
X202644285Y-131012380D01*
X202406190Y-129964761D02*
X202168095Y-130679047D01*
X202787142Y-130679047D01*
X200072857Y-128198571D02*
X200215714Y-128246190D01*
X200263333Y-128293809D01*
X200310952Y-128389047D01*
X200310952Y-128531904D01*
X200263333Y-128627142D01*
X200215714Y-128674761D01*
X200120476Y-128722380D01*
X199739523Y-128722380D01*
X199739523Y-127722380D01*
X200072857Y-127722380D01*
X200168095Y-127770000D01*
X200215714Y-127817619D01*
X200263333Y-127912857D01*
X200263333Y-128008095D01*
X200215714Y-128103333D01*
X200168095Y-128150952D01*
X200072857Y-128198571D01*
X199739523Y-128198571D01*
X201310952Y-128627142D02*
X201263333Y-128674761D01*
X201120476Y-128722380D01*
X201025238Y-128722380D01*
X200882380Y-128674761D01*
X200787142Y-128579523D01*
X200739523Y-128484285D01*
X200691904Y-128293809D01*
X200691904Y-128150952D01*
X200739523Y-127960476D01*
X200787142Y-127865238D01*
X200882380Y-127770000D01*
X201025238Y-127722380D01*
X201120476Y-127722380D01*
X201263333Y-127770000D01*
X201310952Y-127817619D01*
X202215714Y-127722380D02*
X201739523Y-127722380D01*
X201691904Y-128198571D01*
X201739523Y-128150952D01*
X201834761Y-128103333D01*
X202072857Y-128103333D01*
X202168095Y-128150952D01*
X202215714Y-128198571D01*
X202263333Y-128293809D01*
X202263333Y-128531904D01*
X202215714Y-128627142D01*
X202168095Y-128674761D01*
X202072857Y-128722380D01*
X201834761Y-128722380D01*
X201739523Y-128674761D01*
X201691904Y-128627142D01*
X203120476Y-128055714D02*
X203120476Y-128722380D01*
X202882380Y-127674761D02*
X202644285Y-128389047D01*
X203263333Y-128389047D01*
X203691904Y-128722380D02*
X203882380Y-128722380D01*
X203977619Y-128674761D01*
X204025238Y-128627142D01*
X204120476Y-128484285D01*
X204168095Y-128293809D01*
X204168095Y-127912857D01*
X204120476Y-127817619D01*
X204072857Y-127770000D01*
X203977619Y-127722380D01*
X203787142Y-127722380D01*
X203691904Y-127770000D01*
X203644285Y-127817619D01*
X203596666Y-127912857D01*
X203596666Y-128150952D01*
X203644285Y-128246190D01*
X203691904Y-128293809D01*
X203787142Y-128341428D01*
X203977619Y-128341428D01*
X204072857Y-128293809D01*
X204120476Y-128246190D01*
X204168095Y-128150952D01*
X201834761Y-124757619D02*
X201739523Y-124710000D01*
X201644285Y-124614761D01*
X201501428Y-124471904D01*
X201406190Y-124424285D01*
X201310952Y-124424285D01*
X201358571Y-124662380D02*
X201263333Y-124614761D01*
X201168095Y-124519523D01*
X201120476Y-124329047D01*
X201120476Y-123995714D01*
X201168095Y-123805238D01*
X201263333Y-123710000D01*
X201358571Y-123662380D01*
X201549047Y-123662380D01*
X201644285Y-123710000D01*
X201739523Y-123805238D01*
X201787142Y-123995714D01*
X201787142Y-124329047D01*
X201739523Y-124519523D01*
X201644285Y-124614761D01*
X201549047Y-124662380D01*
X201358571Y-124662380D01*
X202120476Y-123662380D02*
X202739523Y-123662380D01*
X202406190Y-124043333D01*
X202549047Y-124043333D01*
X202644285Y-124090952D01*
X202691904Y-124138571D01*
X202739523Y-124233809D01*
X202739523Y-124471904D01*
X202691904Y-124567142D01*
X202644285Y-124614761D01*
X202549047Y-124662380D01*
X202263333Y-124662380D01*
X202168095Y-124614761D01*
X202120476Y-124567142D01*
X200072857Y-121848571D02*
X200215714Y-121896190D01*
X200263333Y-121943809D01*
X200310952Y-122039047D01*
X200310952Y-122181904D01*
X200263333Y-122277142D01*
X200215714Y-122324761D01*
X200120476Y-122372380D01*
X199739523Y-122372380D01*
X199739523Y-121372380D01*
X200072857Y-121372380D01*
X200168095Y-121420000D01*
X200215714Y-121467619D01*
X200263333Y-121562857D01*
X200263333Y-121658095D01*
X200215714Y-121753333D01*
X200168095Y-121800952D01*
X200072857Y-121848571D01*
X199739523Y-121848571D01*
X201310952Y-122277142D02*
X201263333Y-122324761D01*
X201120476Y-122372380D01*
X201025238Y-122372380D01*
X200882380Y-122324761D01*
X200787142Y-122229523D01*
X200739523Y-122134285D01*
X200691904Y-121943809D01*
X200691904Y-121800952D01*
X200739523Y-121610476D01*
X200787142Y-121515238D01*
X200882380Y-121420000D01*
X201025238Y-121372380D01*
X201120476Y-121372380D01*
X201263333Y-121420000D01*
X201310952Y-121467619D01*
X202215714Y-121372380D02*
X201739523Y-121372380D01*
X201691904Y-121848571D01*
X201739523Y-121800952D01*
X201834761Y-121753333D01*
X202072857Y-121753333D01*
X202168095Y-121800952D01*
X202215714Y-121848571D01*
X202263333Y-121943809D01*
X202263333Y-122181904D01*
X202215714Y-122277142D01*
X202168095Y-122324761D01*
X202072857Y-122372380D01*
X201834761Y-122372380D01*
X201739523Y-122324761D01*
X201691904Y-122277142D01*
X203120476Y-121705714D02*
X203120476Y-122372380D01*
X202882380Y-121324761D02*
X202644285Y-122039047D01*
X203263333Y-122039047D01*
X203691904Y-122372380D02*
X203882380Y-122372380D01*
X203977619Y-122324761D01*
X204025238Y-122277142D01*
X204120476Y-122134285D01*
X204168095Y-121943809D01*
X204168095Y-121562857D01*
X204120476Y-121467619D01*
X204072857Y-121420000D01*
X203977619Y-121372380D01*
X203787142Y-121372380D01*
X203691904Y-121420000D01*
X203644285Y-121467619D01*
X203596666Y-121562857D01*
X203596666Y-121800952D01*
X203644285Y-121896190D01*
X203691904Y-121943809D01*
X203787142Y-121991428D01*
X203977619Y-121991428D01*
X204072857Y-121943809D01*
X204120476Y-121896190D01*
X204168095Y-121800952D01*
X201834761Y-52867619D02*
X201739523Y-52820000D01*
X201644285Y-52724761D01*
X201501428Y-52581904D01*
X201406190Y-52534285D01*
X201310952Y-52534285D01*
X201358571Y-52772380D02*
X201263333Y-52724761D01*
X201168095Y-52629523D01*
X201120476Y-52439047D01*
X201120476Y-52105714D01*
X201168095Y-51915238D01*
X201263333Y-51820000D01*
X201358571Y-51772380D01*
X201549047Y-51772380D01*
X201644285Y-51820000D01*
X201739523Y-51915238D01*
X201787142Y-52105714D01*
X201787142Y-52439047D01*
X201739523Y-52629523D01*
X201644285Y-52724761D01*
X201549047Y-52772380D01*
X201358571Y-52772380D01*
X202168095Y-51867619D02*
X202215714Y-51820000D01*
X202310952Y-51772380D01*
X202549047Y-51772380D01*
X202644285Y-51820000D01*
X202691904Y-51867619D01*
X202739523Y-51962857D01*
X202739523Y-52058095D01*
X202691904Y-52200952D01*
X202120476Y-52772380D01*
X202739523Y-52772380D01*
X200072857Y-54538571D02*
X200215714Y-54586190D01*
X200263333Y-54633809D01*
X200310952Y-54729047D01*
X200310952Y-54871904D01*
X200263333Y-54967142D01*
X200215714Y-55014761D01*
X200120476Y-55062380D01*
X199739523Y-55062380D01*
X199739523Y-54062380D01*
X200072857Y-54062380D01*
X200168095Y-54110000D01*
X200215714Y-54157619D01*
X200263333Y-54252857D01*
X200263333Y-54348095D01*
X200215714Y-54443333D01*
X200168095Y-54490952D01*
X200072857Y-54538571D01*
X199739523Y-54538571D01*
X201310952Y-54967142D02*
X201263333Y-55014761D01*
X201120476Y-55062380D01*
X201025238Y-55062380D01*
X200882380Y-55014761D01*
X200787142Y-54919523D01*
X200739523Y-54824285D01*
X200691904Y-54633809D01*
X200691904Y-54490952D01*
X200739523Y-54300476D01*
X200787142Y-54205238D01*
X200882380Y-54110000D01*
X201025238Y-54062380D01*
X201120476Y-54062380D01*
X201263333Y-54110000D01*
X201310952Y-54157619D01*
X202215714Y-54062380D02*
X201739523Y-54062380D01*
X201691904Y-54538571D01*
X201739523Y-54490952D01*
X201834761Y-54443333D01*
X202072857Y-54443333D01*
X202168095Y-54490952D01*
X202215714Y-54538571D01*
X202263333Y-54633809D01*
X202263333Y-54871904D01*
X202215714Y-54967142D01*
X202168095Y-55014761D01*
X202072857Y-55062380D01*
X201834761Y-55062380D01*
X201739523Y-55014761D01*
X201691904Y-54967142D01*
X203120476Y-54395714D02*
X203120476Y-55062380D01*
X202882380Y-54014761D02*
X202644285Y-54729047D01*
X203263333Y-54729047D01*
X203691904Y-55062380D02*
X203882380Y-55062380D01*
X203977619Y-55014761D01*
X204025238Y-54967142D01*
X204120476Y-54824285D01*
X204168095Y-54633809D01*
X204168095Y-54252857D01*
X204120476Y-54157619D01*
X204072857Y-54110000D01*
X203977619Y-54062380D01*
X203787142Y-54062380D01*
X203691904Y-54110000D01*
X203644285Y-54157619D01*
X203596666Y-54252857D01*
X203596666Y-54490952D01*
X203644285Y-54586190D01*
X203691904Y-54633809D01*
X203787142Y-54681428D01*
X203977619Y-54681428D01*
X204072857Y-54633809D01*
X204120476Y-54586190D01*
X204168095Y-54490952D01*
X201834761Y-46517619D02*
X201739523Y-46470000D01*
X201644285Y-46374761D01*
X201501428Y-46231904D01*
X201406190Y-46184285D01*
X201310952Y-46184285D01*
X201358571Y-46422380D02*
X201263333Y-46374761D01*
X201168095Y-46279523D01*
X201120476Y-46089047D01*
X201120476Y-45755714D01*
X201168095Y-45565238D01*
X201263333Y-45470000D01*
X201358571Y-45422380D01*
X201549047Y-45422380D01*
X201644285Y-45470000D01*
X201739523Y-45565238D01*
X201787142Y-45755714D01*
X201787142Y-46089047D01*
X201739523Y-46279523D01*
X201644285Y-46374761D01*
X201549047Y-46422380D01*
X201358571Y-46422380D01*
X202739523Y-46422380D02*
X202168095Y-46422380D01*
X202453809Y-46422380D02*
X202453809Y-45422380D01*
X202358571Y-45565238D01*
X202263333Y-45660476D01*
X202168095Y-45708095D01*
X200072857Y-48188571D02*
X200215714Y-48236190D01*
X200263333Y-48283809D01*
X200310952Y-48379047D01*
X200310952Y-48521904D01*
X200263333Y-48617142D01*
X200215714Y-48664761D01*
X200120476Y-48712380D01*
X199739523Y-48712380D01*
X199739523Y-47712380D01*
X200072857Y-47712380D01*
X200168095Y-47760000D01*
X200215714Y-47807619D01*
X200263333Y-47902857D01*
X200263333Y-47998095D01*
X200215714Y-48093333D01*
X200168095Y-48140952D01*
X200072857Y-48188571D01*
X199739523Y-48188571D01*
X201310952Y-48617142D02*
X201263333Y-48664761D01*
X201120476Y-48712380D01*
X201025238Y-48712380D01*
X200882380Y-48664761D01*
X200787142Y-48569523D01*
X200739523Y-48474285D01*
X200691904Y-48283809D01*
X200691904Y-48140952D01*
X200739523Y-47950476D01*
X200787142Y-47855238D01*
X200882380Y-47760000D01*
X201025238Y-47712380D01*
X201120476Y-47712380D01*
X201263333Y-47760000D01*
X201310952Y-47807619D01*
X202215714Y-47712380D02*
X201739523Y-47712380D01*
X201691904Y-48188571D01*
X201739523Y-48140952D01*
X201834761Y-48093333D01*
X202072857Y-48093333D01*
X202168095Y-48140952D01*
X202215714Y-48188571D01*
X202263333Y-48283809D01*
X202263333Y-48521904D01*
X202215714Y-48617142D01*
X202168095Y-48664761D01*
X202072857Y-48712380D01*
X201834761Y-48712380D01*
X201739523Y-48664761D01*
X201691904Y-48617142D01*
X203120476Y-48045714D02*
X203120476Y-48712380D01*
X202882380Y-47664761D02*
X202644285Y-48379047D01*
X203263333Y-48379047D01*
X203691904Y-48712380D02*
X203882380Y-48712380D01*
X203977619Y-48664761D01*
X204025238Y-48617142D01*
X204120476Y-48474285D01*
X204168095Y-48283809D01*
X204168095Y-47902857D01*
X204120476Y-47807619D01*
X204072857Y-47760000D01*
X203977619Y-47712380D01*
X203787142Y-47712380D01*
X203691904Y-47760000D01*
X203644285Y-47807619D01*
X203596666Y-47902857D01*
X203596666Y-48140952D01*
X203644285Y-48236190D01*
X203691904Y-48283809D01*
X203787142Y-48331428D01*
X203977619Y-48331428D01*
X204072857Y-48283809D01*
X204120476Y-48236190D01*
X204168095Y-48140952D01*
X212621904Y-154112380D02*
X212621904Y-153112380D01*
X213193333Y-154112380D02*
X212764761Y-153540952D01*
X213193333Y-153112380D02*
X212621904Y-153683809D01*
X213574285Y-153207619D02*
X213621904Y-153160000D01*
X213717142Y-153112380D01*
X213955238Y-153112380D01*
X214050476Y-153160000D01*
X214098095Y-153207619D01*
X214145714Y-153302857D01*
X214145714Y-153398095D01*
X214098095Y-153540952D01*
X213526666Y-154112380D01*
X214145714Y-154112380D01*
X211193333Y-140470000D02*
X211098095Y-140422380D01*
X210955238Y-140422380D01*
X210812380Y-140470000D01*
X210717142Y-140565238D01*
X210669523Y-140660476D01*
X210621904Y-140850952D01*
X210621904Y-140993809D01*
X210669523Y-141184285D01*
X210717142Y-141279523D01*
X210812380Y-141374761D01*
X210955238Y-141422380D01*
X211050476Y-141422380D01*
X211193333Y-141374761D01*
X211240952Y-141327142D01*
X211240952Y-140993809D01*
X211050476Y-140993809D01*
X212145714Y-140422380D02*
X211669523Y-140422380D01*
X211621904Y-140898571D01*
X211669523Y-140850952D01*
X211764761Y-140803333D01*
X212002857Y-140803333D01*
X212098095Y-140850952D01*
X212145714Y-140898571D01*
X212193333Y-140993809D01*
X212193333Y-141231904D01*
X212145714Y-141327142D01*
X212098095Y-141374761D01*
X212002857Y-141422380D01*
X211764761Y-141422380D01*
X211669523Y-141374761D01*
X211621904Y-141327142D01*
X213098095Y-141422380D02*
X212621904Y-141422380D01*
X212621904Y-140422380D01*
X213431428Y-140898571D02*
X213764761Y-140898571D01*
X213907619Y-141422380D02*
X213431428Y-141422380D01*
X213431428Y-140422380D01*
X213907619Y-140422380D01*
X214336190Y-141041428D02*
X215098095Y-141041428D01*
X216098095Y-141422380D02*
X215526666Y-141422380D01*
X215812380Y-141422380D02*
X215812380Y-140422380D01*
X215717142Y-140565238D01*
X215621904Y-140660476D01*
X215526666Y-140708095D01*
X212621904Y-23322380D02*
X212621904Y-22322380D01*
X213193333Y-23322380D02*
X212764761Y-22750952D01*
X213193333Y-22322380D02*
X212621904Y-22893809D01*
X214145714Y-23322380D02*
X213574285Y-23322380D01*
X213860000Y-23322380D02*
X213860000Y-22322380D01*
X213764761Y-22465238D01*
X213669523Y-22560476D01*
X213574285Y-22608095D01*
X211193333Y-35060000D02*
X211098095Y-35012380D01*
X210955238Y-35012380D01*
X210812380Y-35060000D01*
X210717142Y-35155238D01*
X210669523Y-35250476D01*
X210621904Y-35440952D01*
X210621904Y-35583809D01*
X210669523Y-35774285D01*
X210717142Y-35869523D01*
X210812380Y-35964761D01*
X210955238Y-36012380D01*
X211050476Y-36012380D01*
X211193333Y-35964761D01*
X211240952Y-35917142D01*
X211240952Y-35583809D01*
X211050476Y-35583809D01*
X212145714Y-35012380D02*
X211669523Y-35012380D01*
X211621904Y-35488571D01*
X211669523Y-35440952D01*
X211764761Y-35393333D01*
X212002857Y-35393333D01*
X212098095Y-35440952D01*
X212145714Y-35488571D01*
X212193333Y-35583809D01*
X212193333Y-35821904D01*
X212145714Y-35917142D01*
X212098095Y-35964761D01*
X212002857Y-36012380D01*
X211764761Y-36012380D01*
X211669523Y-35964761D01*
X211621904Y-35917142D01*
X213098095Y-36012380D02*
X212621904Y-36012380D01*
X212621904Y-35012380D01*
X213431428Y-35488571D02*
X213764761Y-35488571D01*
X213907619Y-36012380D02*
X213431428Y-36012380D01*
X213431428Y-35012380D01*
X213907619Y-35012380D01*
X214336190Y-35631428D02*
X215098095Y-35631428D01*
X216098095Y-36012380D02*
X215526666Y-36012380D01*
X215812380Y-36012380D02*
X215812380Y-35012380D01*
X215717142Y-35155238D01*
X215621904Y-35250476D01*
X215526666Y-35298095D01*
X223032380Y-148169523D02*
X223746666Y-148169523D01*
X223889523Y-148217142D01*
X223984761Y-148312380D01*
X224032380Y-148455238D01*
X224032380Y-148550476D01*
X223127619Y-147740952D02*
X223080000Y-147693333D01*
X223032380Y-147598095D01*
X223032380Y-147360000D01*
X223080000Y-147264761D01*
X223127619Y-147217142D01*
X223222857Y-147169523D01*
X223318095Y-147169523D01*
X223460952Y-147217142D01*
X224032380Y-147788571D01*
X224032380Y-147169523D01*
X223127619Y-146788571D02*
X223080000Y-146740952D01*
X223032380Y-146645714D01*
X223032380Y-146407619D01*
X223080000Y-146312380D01*
X223127619Y-146264761D01*
X223222857Y-146217142D01*
X223318095Y-146217142D01*
X223460952Y-146264761D01*
X224032380Y-146836190D01*
X224032380Y-146217142D01*
X236652380Y-152550476D02*
X235652380Y-152550476D01*
X235652380Y-152169523D01*
X235700000Y-152074285D01*
X235747619Y-152026666D01*
X235842857Y-151979047D01*
X235985714Y-151979047D01*
X236080952Y-152026666D01*
X236128571Y-152074285D01*
X236176190Y-152169523D01*
X236176190Y-152550476D01*
X236652380Y-151407619D02*
X236604761Y-151502857D01*
X236557142Y-151550476D01*
X236461904Y-151598095D01*
X236176190Y-151598095D01*
X236080952Y-151550476D01*
X236033333Y-151502857D01*
X235985714Y-151407619D01*
X235985714Y-151264761D01*
X236033333Y-151169523D01*
X236080952Y-151121904D01*
X236176190Y-151074285D01*
X236461904Y-151074285D01*
X236557142Y-151121904D01*
X236604761Y-151169523D01*
X236652380Y-151264761D01*
X236652380Y-151407619D01*
X235985714Y-150740952D02*
X236652380Y-150550476D01*
X236176190Y-150360000D01*
X236652380Y-150169523D01*
X235985714Y-149979047D01*
X236604761Y-149217142D02*
X236652380Y-149312380D01*
X236652380Y-149502857D01*
X236604761Y-149598095D01*
X236509523Y-149645714D01*
X236128571Y-149645714D01*
X236033333Y-149598095D01*
X235985714Y-149502857D01*
X235985714Y-149312380D01*
X236033333Y-149217142D01*
X236128571Y-149169523D01*
X236223809Y-149169523D01*
X236319047Y-149645714D01*
X236652380Y-148740952D02*
X235985714Y-148740952D01*
X236176190Y-148740952D02*
X236080952Y-148693333D01*
X236033333Y-148645714D01*
X235985714Y-148550476D01*
X235985714Y-148455238D01*
X236271428Y-148121904D02*
X236271428Y-147360000D01*
X236366666Y-146931428D02*
X236366666Y-146455238D01*
X236652380Y-147026666D02*
X235652380Y-146693333D01*
X236652380Y-146360000D01*
X236652380Y-145455238D02*
X236176190Y-145788571D01*
X236652380Y-146026666D02*
X235652380Y-146026666D01*
X235652380Y-145645714D01*
X235700000Y-145550476D01*
X235747619Y-145502857D01*
X235842857Y-145455238D01*
X235985714Y-145455238D01*
X236080952Y-145502857D01*
X236128571Y-145550476D01*
X236176190Y-145645714D01*
X236176190Y-146026666D01*
X236652380Y-145026666D02*
X235652380Y-145026666D01*
X236366666Y-144693333D01*
X235652380Y-144360000D01*
X236652380Y-144360000D01*
X236271428Y-143883809D02*
X236271428Y-143121904D01*
X235747619Y-142693333D02*
X235700000Y-142645714D01*
X235652380Y-142550476D01*
X235652380Y-142312380D01*
X235700000Y-142217142D01*
X235747619Y-142169523D01*
X235842857Y-142121904D01*
X235938095Y-142121904D01*
X236080952Y-142169523D01*
X236652380Y-142740952D01*
X236652380Y-142121904D01*
X223032380Y-30059523D02*
X223746666Y-30059523D01*
X223889523Y-30107142D01*
X223984761Y-30202380D01*
X224032380Y-30345238D01*
X224032380Y-30440476D01*
X223127619Y-29630952D02*
X223080000Y-29583333D01*
X223032380Y-29488095D01*
X223032380Y-29250000D01*
X223080000Y-29154761D01*
X223127619Y-29107142D01*
X223222857Y-29059523D01*
X223318095Y-29059523D01*
X223460952Y-29107142D01*
X224032380Y-29678571D01*
X224032380Y-29059523D01*
X224032380Y-28107142D02*
X224032380Y-28678571D01*
X224032380Y-28392857D02*
X223032380Y-28392857D01*
X223175238Y-28488095D01*
X223270476Y-28583333D01*
X223318095Y-28678571D01*
X236652380Y-34440476D02*
X235652380Y-34440476D01*
X235652380Y-34059523D01*
X235700000Y-33964285D01*
X235747619Y-33916666D01*
X235842857Y-33869047D01*
X235985714Y-33869047D01*
X236080952Y-33916666D01*
X236128571Y-33964285D01*
X236176190Y-34059523D01*
X236176190Y-34440476D01*
X236652380Y-33297619D02*
X236604761Y-33392857D01*
X236557142Y-33440476D01*
X236461904Y-33488095D01*
X236176190Y-33488095D01*
X236080952Y-33440476D01*
X236033333Y-33392857D01*
X235985714Y-33297619D01*
X235985714Y-33154761D01*
X236033333Y-33059523D01*
X236080952Y-33011904D01*
X236176190Y-32964285D01*
X236461904Y-32964285D01*
X236557142Y-33011904D01*
X236604761Y-33059523D01*
X236652380Y-33154761D01*
X236652380Y-33297619D01*
X235985714Y-32630952D02*
X236652380Y-32440476D01*
X236176190Y-32250000D01*
X236652380Y-32059523D01*
X235985714Y-31869047D01*
X236604761Y-31107142D02*
X236652380Y-31202380D01*
X236652380Y-31392857D01*
X236604761Y-31488095D01*
X236509523Y-31535714D01*
X236128571Y-31535714D01*
X236033333Y-31488095D01*
X235985714Y-31392857D01*
X235985714Y-31202380D01*
X236033333Y-31107142D01*
X236128571Y-31059523D01*
X236223809Y-31059523D01*
X236319047Y-31535714D01*
X236652380Y-30630952D02*
X235985714Y-30630952D01*
X236176190Y-30630952D02*
X236080952Y-30583333D01*
X236033333Y-30535714D01*
X235985714Y-30440476D01*
X235985714Y-30345238D01*
X236271428Y-30011904D02*
X236271428Y-29250000D01*
X236366666Y-28821428D02*
X236366666Y-28345238D01*
X236652380Y-28916666D02*
X235652380Y-28583333D01*
X236652380Y-28250000D01*
X236652380Y-27345238D02*
X236176190Y-27678571D01*
X236652380Y-27916666D02*
X235652380Y-27916666D01*
X235652380Y-27535714D01*
X235700000Y-27440476D01*
X235747619Y-27392857D01*
X235842857Y-27345238D01*
X235985714Y-27345238D01*
X236080952Y-27392857D01*
X236128571Y-27440476D01*
X236176190Y-27535714D01*
X236176190Y-27916666D01*
X236652380Y-26916666D02*
X235652380Y-26916666D01*
X236366666Y-26583333D01*
X235652380Y-26250000D01*
X236652380Y-26250000D01*
X236271428Y-25773809D02*
X236271428Y-25011904D01*
X236652380Y-24011904D02*
X236652380Y-24583333D01*
X236652380Y-24297619D02*
X235652380Y-24297619D01*
X235795238Y-24392857D01*
X235890476Y-24488095D01*
X235938095Y-24583333D01*
X196040476Y-23582380D02*
X196040476Y-24296666D01*
X195992857Y-24439523D01*
X195897619Y-24534761D01*
X195754761Y-24582380D01*
X195659523Y-24582380D01*
X196469047Y-23677619D02*
X196516666Y-23630000D01*
X196611904Y-23582380D01*
X196850000Y-23582380D01*
X196945238Y-23630000D01*
X196992857Y-23677619D01*
X197040476Y-23772857D01*
X197040476Y-23868095D01*
X196992857Y-24010952D01*
X196421428Y-24582380D01*
X197040476Y-24582380D01*
X197659523Y-23582380D02*
X197754761Y-23582380D01*
X197850000Y-23630000D01*
X197897619Y-23677619D01*
X197945238Y-23772857D01*
X197992857Y-23963333D01*
X197992857Y-24201428D01*
X197945238Y-24391904D01*
X197897619Y-24487142D01*
X197850000Y-24534761D01*
X197754761Y-24582380D01*
X197659523Y-24582380D01*
X197564285Y-24534761D01*
X197516666Y-24487142D01*
X197469047Y-24391904D01*
X197421428Y-24201428D01*
X197421428Y-23963333D01*
X197469047Y-23772857D01*
X197516666Y-23677619D01*
X197564285Y-23630000D01*
X197659523Y-23582380D01*
X103965476Y-112457380D02*
X103965476Y-113171666D01*
X103917857Y-113314523D01*
X103822619Y-113409761D01*
X103679761Y-113457380D01*
X103584523Y-113457380D01*
X104965476Y-113457380D02*
X104394047Y-113457380D01*
X104679761Y-113457380D02*
X104679761Y-112457380D01*
X104584523Y-112600238D01*
X104489285Y-112695476D01*
X104394047Y-112743095D01*
X105441666Y-113457380D02*
X105632142Y-113457380D01*
X105727380Y-113409761D01*
X105775000Y-113362142D01*
X105870238Y-113219285D01*
X105917857Y-113028809D01*
X105917857Y-112647857D01*
X105870238Y-112552619D01*
X105822619Y-112505000D01*
X105727380Y-112457380D01*
X105536904Y-112457380D01*
X105441666Y-112505000D01*
X105394047Y-112552619D01*
X105346428Y-112647857D01*
X105346428Y-112885952D01*
X105394047Y-112981190D01*
X105441666Y-113028809D01*
X105536904Y-113076428D01*
X105727380Y-113076428D01*
X105822619Y-113028809D01*
X105870238Y-112981190D01*
X105917857Y-112885952D01*
X178260476Y-32472380D02*
X178260476Y-33186666D01*
X178212857Y-33329523D01*
X178117619Y-33424761D01*
X177974761Y-33472380D01*
X177879523Y-33472380D01*
X179260476Y-33472380D02*
X178689047Y-33472380D01*
X178974761Y-33472380D02*
X178974761Y-32472380D01*
X178879523Y-32615238D01*
X178784285Y-32710476D01*
X178689047Y-32758095D01*
X179831904Y-32900952D02*
X179736666Y-32853333D01*
X179689047Y-32805714D01*
X179641428Y-32710476D01*
X179641428Y-32662857D01*
X179689047Y-32567619D01*
X179736666Y-32520000D01*
X179831904Y-32472380D01*
X180022380Y-32472380D01*
X180117619Y-32520000D01*
X180165238Y-32567619D01*
X180212857Y-32662857D01*
X180212857Y-32710476D01*
X180165238Y-32805714D01*
X180117619Y-32853333D01*
X180022380Y-32900952D01*
X179831904Y-32900952D01*
X179736666Y-32948571D01*
X179689047Y-32996190D01*
X179641428Y-33091428D01*
X179641428Y-33281904D01*
X179689047Y-33377142D01*
X179736666Y-33424761D01*
X179831904Y-33472380D01*
X180022380Y-33472380D01*
X180117619Y-33424761D01*
X180165238Y-33377142D01*
X180212857Y-33281904D01*
X180212857Y-33091428D01*
X180165238Y-32996190D01*
X180117619Y-32948571D01*
X180022380Y-32900952D01*
X169632380Y-63039523D02*
X170346666Y-63039523D01*
X170489523Y-63087142D01*
X170584761Y-63182380D01*
X170632380Y-63325238D01*
X170632380Y-63420476D01*
X170632380Y-62039523D02*
X170632380Y-62610952D01*
X170632380Y-62325238D02*
X169632380Y-62325238D01*
X169775238Y-62420476D01*
X169870476Y-62515714D01*
X169918095Y-62610952D01*
X169632380Y-61706190D02*
X169632380Y-61039523D01*
X170632380Y-61468095D01*
X199850476Y-145112380D02*
X199850476Y-145826666D01*
X199802857Y-145969523D01*
X199707619Y-146064761D01*
X199564761Y-146112380D01*
X199469523Y-146112380D01*
X200850476Y-146112380D02*
X200279047Y-146112380D01*
X200564761Y-146112380D02*
X200564761Y-145112380D01*
X200469523Y-145255238D01*
X200374285Y-145350476D01*
X200279047Y-145398095D01*
X201707619Y-145112380D02*
X201517142Y-145112380D01*
X201421904Y-145160000D01*
X201374285Y-145207619D01*
X201279047Y-145350476D01*
X201231428Y-145540952D01*
X201231428Y-145921904D01*
X201279047Y-146017142D01*
X201326666Y-146064761D01*
X201421904Y-146112380D01*
X201612380Y-146112380D01*
X201707619Y-146064761D01*
X201755238Y-146017142D01*
X201802857Y-145921904D01*
X201802857Y-145683809D01*
X201755238Y-145588571D01*
X201707619Y-145540952D01*
X201612380Y-145493333D01*
X201421904Y-145493333D01*
X201326666Y-145540952D01*
X201279047Y-145588571D01*
X201231428Y-145683809D01*
X55070476Y-54672380D02*
X55070476Y-55386666D01*
X55022857Y-55529523D01*
X54927619Y-55624761D01*
X54784761Y-55672380D01*
X54689523Y-55672380D01*
X56070476Y-55672380D02*
X55499047Y-55672380D01*
X55784761Y-55672380D02*
X55784761Y-54672380D01*
X55689523Y-54815238D01*
X55594285Y-54910476D01*
X55499047Y-54958095D01*
X56975238Y-54672380D02*
X56499047Y-54672380D01*
X56451428Y-55148571D01*
X56499047Y-55100952D01*
X56594285Y-55053333D01*
X56832380Y-55053333D01*
X56927619Y-55100952D01*
X56975238Y-55148571D01*
X57022857Y-55243809D01*
X57022857Y-55481904D01*
X56975238Y-55577142D01*
X56927619Y-55624761D01*
X56832380Y-55672380D01*
X56594285Y-55672380D01*
X56499047Y-55624761D01*
X56451428Y-55577142D01*
X189690476Y-32472380D02*
X189690476Y-33186666D01*
X189642857Y-33329523D01*
X189547619Y-33424761D01*
X189404761Y-33472380D01*
X189309523Y-33472380D01*
X190690476Y-33472380D02*
X190119047Y-33472380D01*
X190404761Y-33472380D02*
X190404761Y-32472380D01*
X190309523Y-32615238D01*
X190214285Y-32710476D01*
X190119047Y-32758095D01*
X191547619Y-32805714D02*
X191547619Y-33472380D01*
X191309523Y-32424761D02*
X191071428Y-33139047D01*
X191690476Y-33139047D01*
X223032380Y-105149523D02*
X223746666Y-105149523D01*
X223889523Y-105197142D01*
X223984761Y-105292380D01*
X224032380Y-105435238D01*
X224032380Y-105530476D01*
X224032380Y-104149523D02*
X224032380Y-104720952D01*
X224032380Y-104435238D02*
X223032380Y-104435238D01*
X223175238Y-104530476D01*
X223270476Y-104625714D01*
X223318095Y-104720952D01*
X223032380Y-103816190D02*
X223032380Y-103197142D01*
X223413333Y-103530476D01*
X223413333Y-103387619D01*
X223460952Y-103292380D01*
X223508571Y-103244761D01*
X223603809Y-103197142D01*
X223841904Y-103197142D01*
X223937142Y-103244761D01*
X223984761Y-103292380D01*
X224032380Y-103387619D01*
X224032380Y-103673333D01*
X223984761Y-103768571D01*
X223937142Y-103816190D01*
X236604761Y-111054285D02*
X236652380Y-110911428D01*
X236652380Y-110673333D01*
X236604761Y-110578095D01*
X236557142Y-110530476D01*
X236461904Y-110482857D01*
X236366666Y-110482857D01*
X236271428Y-110530476D01*
X236223809Y-110578095D01*
X236176190Y-110673333D01*
X236128571Y-110863809D01*
X236080952Y-110959047D01*
X236033333Y-111006666D01*
X235938095Y-111054285D01*
X235842857Y-111054285D01*
X235747619Y-111006666D01*
X235700000Y-110959047D01*
X235652380Y-110863809D01*
X235652380Y-110625714D01*
X235700000Y-110482857D01*
X236604761Y-109673333D02*
X236652380Y-109768571D01*
X236652380Y-109959047D01*
X236604761Y-110054285D01*
X236509523Y-110101904D01*
X236128571Y-110101904D01*
X236033333Y-110054285D01*
X235985714Y-109959047D01*
X235985714Y-109768571D01*
X236033333Y-109673333D01*
X236128571Y-109625714D01*
X236223809Y-109625714D01*
X236319047Y-110101904D01*
X236652380Y-109197142D02*
X235985714Y-109197142D01*
X236176190Y-109197142D02*
X236080952Y-109149523D01*
X236033333Y-109101904D01*
X235985714Y-109006666D01*
X235985714Y-108911428D01*
X235985714Y-108673333D02*
X236652380Y-108435238D01*
X235985714Y-108197142D01*
X236652380Y-107673333D02*
X236604761Y-107768571D01*
X236557142Y-107816190D01*
X236461904Y-107863809D01*
X236176190Y-107863809D01*
X236080952Y-107816190D01*
X236033333Y-107768571D01*
X235985714Y-107673333D01*
X235985714Y-107530476D01*
X236033333Y-107435238D01*
X236080952Y-107387619D01*
X236176190Y-107340000D01*
X236461904Y-107340000D01*
X236557142Y-107387619D01*
X236604761Y-107435238D01*
X236652380Y-107530476D01*
X236652380Y-107673333D01*
X236271428Y-106911428D02*
X236271428Y-106149523D01*
X236652380Y-105673333D02*
X235652380Y-105673333D01*
X235652380Y-105292380D01*
X235700000Y-105197142D01*
X235747619Y-105149523D01*
X235842857Y-105101904D01*
X235985714Y-105101904D01*
X236080952Y-105149523D01*
X236128571Y-105197142D01*
X236176190Y-105292380D01*
X236176190Y-105673333D01*
X235652380Y-104768571D02*
X236652380Y-104530476D01*
X235938095Y-104340000D01*
X236652380Y-104149523D01*
X235652380Y-103911428D01*
X236652380Y-103530476D02*
X235652380Y-103530476D01*
X236366666Y-103197142D01*
X235652380Y-102863809D01*
X236652380Y-102863809D01*
X236271428Y-102387619D02*
X236271428Y-101625714D01*
X236366666Y-101197142D02*
X236366666Y-100720952D01*
X236652380Y-101292380D02*
X235652380Y-100959047D01*
X236652380Y-100625714D01*
X236652380Y-99720952D02*
X236176190Y-100054285D01*
X236652380Y-100292380D02*
X235652380Y-100292380D01*
X235652380Y-99911428D01*
X235700000Y-99816190D01*
X235747619Y-99768571D01*
X235842857Y-99720952D01*
X235985714Y-99720952D01*
X236080952Y-99768571D01*
X236128571Y-99816190D01*
X236176190Y-99911428D01*
X236176190Y-100292380D01*
X236652380Y-99292380D02*
X235652380Y-99292380D01*
X236366666Y-98959047D01*
X235652380Y-98625714D01*
X236652380Y-98625714D01*
X235747619Y-98197142D02*
X235700000Y-98149523D01*
X235652380Y-98054285D01*
X235652380Y-97816190D01*
X235700000Y-97720952D01*
X235747619Y-97673333D01*
X235842857Y-97625714D01*
X235938095Y-97625714D01*
X236080952Y-97673333D01*
X236652380Y-98244761D01*
X236652380Y-97625714D01*
X223032380Y-131739523D02*
X223746666Y-131739523D01*
X223889523Y-131787142D01*
X223984761Y-131882380D01*
X224032380Y-132025238D01*
X224032380Y-132120476D01*
X224032380Y-130739523D02*
X224032380Y-131310952D01*
X224032380Y-131025238D02*
X223032380Y-131025238D01*
X223175238Y-131120476D01*
X223270476Y-131215714D01*
X223318095Y-131310952D01*
X223127619Y-130358571D02*
X223080000Y-130310952D01*
X223032380Y-130215714D01*
X223032380Y-129977619D01*
X223080000Y-129882380D01*
X223127619Y-129834761D01*
X223222857Y-129787142D01*
X223318095Y-129787142D01*
X223460952Y-129834761D01*
X224032380Y-130406190D01*
X224032380Y-129787142D01*
X236652380Y-136906190D02*
X235652380Y-136906190D01*
X235985714Y-136430000D02*
X236652380Y-136430000D01*
X236080952Y-136430000D02*
X236033333Y-136382380D01*
X235985714Y-136287142D01*
X235985714Y-136144285D01*
X236033333Y-136049047D01*
X236128571Y-136001428D01*
X236652380Y-136001428D01*
X235985714Y-135668095D02*
X235985714Y-135287142D01*
X235652380Y-135525238D02*
X236509523Y-135525238D01*
X236604761Y-135477619D01*
X236652380Y-135382380D01*
X236652380Y-135287142D01*
X236604761Y-134572857D02*
X236652380Y-134668095D01*
X236652380Y-134858571D01*
X236604761Y-134953809D01*
X236509523Y-135001428D01*
X236128571Y-135001428D01*
X236033333Y-134953809D01*
X235985714Y-134858571D01*
X235985714Y-134668095D01*
X236033333Y-134572857D01*
X236128571Y-134525238D01*
X236223809Y-134525238D01*
X236319047Y-135001428D01*
X236652380Y-134096666D02*
X235985714Y-134096666D01*
X236176190Y-134096666D02*
X236080952Y-134049047D01*
X236033333Y-134001428D01*
X235985714Y-133906190D01*
X235985714Y-133810952D01*
X236652380Y-133477619D02*
X235985714Y-133477619D01*
X236176190Y-133477619D02*
X236080952Y-133430000D01*
X236033333Y-133382380D01*
X235985714Y-133287142D01*
X235985714Y-133191904D01*
X235985714Y-132430000D02*
X236652380Y-132430000D01*
X235985714Y-132858571D02*
X236509523Y-132858571D01*
X236604761Y-132810952D01*
X236652380Y-132715714D01*
X236652380Y-132572857D01*
X236604761Y-132477619D01*
X236557142Y-132430000D01*
X235985714Y-131953809D02*
X236985714Y-131953809D01*
X236033333Y-131953809D02*
X235985714Y-131858571D01*
X235985714Y-131668095D01*
X236033333Y-131572857D01*
X236080952Y-131525238D01*
X236176190Y-131477619D01*
X236461904Y-131477619D01*
X236557142Y-131525238D01*
X236604761Y-131572857D01*
X236652380Y-131668095D01*
X236652380Y-131858571D01*
X236604761Y-131953809D01*
X235985714Y-131191904D02*
X235985714Y-130810952D01*
X235652380Y-131049047D02*
X236509523Y-131049047D01*
X236604761Y-131001428D01*
X236652380Y-130906190D01*
X236652380Y-130810952D01*
X236604761Y-130525238D02*
X236652380Y-130430000D01*
X236652380Y-130239523D01*
X236604761Y-130144285D01*
X236509523Y-130096666D01*
X236461904Y-130096666D01*
X236366666Y-130144285D01*
X236319047Y-130239523D01*
X236319047Y-130382380D01*
X236271428Y-130477619D01*
X236176190Y-130525238D01*
X236128571Y-130525238D01*
X236033333Y-130477619D01*
X235985714Y-130382380D01*
X235985714Y-130239523D01*
X236033333Y-130144285D01*
X236271428Y-129668095D02*
X236271428Y-128906190D01*
X236366666Y-128477619D02*
X236366666Y-128001428D01*
X236652380Y-128572857D02*
X235652380Y-128239523D01*
X236652380Y-127906190D01*
X236652380Y-127001428D02*
X236176190Y-127334761D01*
X236652380Y-127572857D02*
X235652380Y-127572857D01*
X235652380Y-127191904D01*
X235700000Y-127096666D01*
X235747619Y-127049047D01*
X235842857Y-127001428D01*
X235985714Y-127001428D01*
X236080952Y-127049047D01*
X236128571Y-127096666D01*
X236176190Y-127191904D01*
X236176190Y-127572857D01*
X236652380Y-126572857D02*
X235652380Y-126572857D01*
X236366666Y-126239523D01*
X235652380Y-125906190D01*
X236652380Y-125906190D01*
X235747619Y-125477619D02*
X235700000Y-125430000D01*
X235652380Y-125334761D01*
X235652380Y-125096666D01*
X235700000Y-125001428D01*
X235747619Y-124953809D01*
X235842857Y-124906190D01*
X235938095Y-124906190D01*
X236080952Y-124953809D01*
X236652380Y-125525238D01*
X236652380Y-124906190D01*
X223032380Y-46649523D02*
X223746666Y-46649523D01*
X223889523Y-46697142D01*
X223984761Y-46792380D01*
X224032380Y-46935238D01*
X224032380Y-47030476D01*
X224032380Y-45649523D02*
X224032380Y-46220952D01*
X224032380Y-45935238D02*
X223032380Y-45935238D01*
X223175238Y-46030476D01*
X223270476Y-46125714D01*
X223318095Y-46220952D01*
X224032380Y-44697142D02*
X224032380Y-45268571D01*
X224032380Y-44982857D02*
X223032380Y-44982857D01*
X223175238Y-45078095D01*
X223270476Y-45173333D01*
X223318095Y-45268571D01*
X236652380Y-51816190D02*
X235652380Y-51816190D01*
X235985714Y-51340000D02*
X236652380Y-51340000D01*
X236080952Y-51340000D02*
X236033333Y-51292380D01*
X235985714Y-51197142D01*
X235985714Y-51054285D01*
X236033333Y-50959047D01*
X236128571Y-50911428D01*
X236652380Y-50911428D01*
X235985714Y-50578095D02*
X235985714Y-50197142D01*
X235652380Y-50435238D02*
X236509523Y-50435238D01*
X236604761Y-50387619D01*
X236652380Y-50292380D01*
X236652380Y-50197142D01*
X236604761Y-49482857D02*
X236652380Y-49578095D01*
X236652380Y-49768571D01*
X236604761Y-49863809D01*
X236509523Y-49911428D01*
X236128571Y-49911428D01*
X236033333Y-49863809D01*
X235985714Y-49768571D01*
X235985714Y-49578095D01*
X236033333Y-49482857D01*
X236128571Y-49435238D01*
X236223809Y-49435238D01*
X236319047Y-49911428D01*
X236652380Y-49006666D02*
X235985714Y-49006666D01*
X236176190Y-49006666D02*
X236080952Y-48959047D01*
X236033333Y-48911428D01*
X235985714Y-48816190D01*
X235985714Y-48720952D01*
X236652380Y-48387619D02*
X235985714Y-48387619D01*
X236176190Y-48387619D02*
X236080952Y-48340000D01*
X236033333Y-48292380D01*
X235985714Y-48197142D01*
X235985714Y-48101904D01*
X235985714Y-47340000D02*
X236652380Y-47340000D01*
X235985714Y-47768571D02*
X236509523Y-47768571D01*
X236604761Y-47720952D01*
X236652380Y-47625714D01*
X236652380Y-47482857D01*
X236604761Y-47387619D01*
X236557142Y-47340000D01*
X235985714Y-46863809D02*
X236985714Y-46863809D01*
X236033333Y-46863809D02*
X235985714Y-46768571D01*
X235985714Y-46578095D01*
X236033333Y-46482857D01*
X236080952Y-46435238D01*
X236176190Y-46387619D01*
X236461904Y-46387619D01*
X236557142Y-46435238D01*
X236604761Y-46482857D01*
X236652380Y-46578095D01*
X236652380Y-46768571D01*
X236604761Y-46863809D01*
X235985714Y-46101904D02*
X235985714Y-45720952D01*
X235652380Y-45959047D02*
X236509523Y-45959047D01*
X236604761Y-45911428D01*
X236652380Y-45816190D01*
X236652380Y-45720952D01*
X236604761Y-45435238D02*
X236652380Y-45340000D01*
X236652380Y-45149523D01*
X236604761Y-45054285D01*
X236509523Y-45006666D01*
X236461904Y-45006666D01*
X236366666Y-45054285D01*
X236319047Y-45149523D01*
X236319047Y-45292380D01*
X236271428Y-45387619D01*
X236176190Y-45435238D01*
X236128571Y-45435238D01*
X236033333Y-45387619D01*
X235985714Y-45292380D01*
X235985714Y-45149523D01*
X236033333Y-45054285D01*
X236271428Y-44578095D02*
X236271428Y-43816190D01*
X236366666Y-43387619D02*
X236366666Y-42911428D01*
X236652380Y-43482857D02*
X235652380Y-43149523D01*
X236652380Y-42816190D01*
X236652380Y-41911428D02*
X236176190Y-42244761D01*
X236652380Y-42482857D02*
X235652380Y-42482857D01*
X235652380Y-42101904D01*
X235700000Y-42006666D01*
X235747619Y-41959047D01*
X235842857Y-41911428D01*
X235985714Y-41911428D01*
X236080952Y-41959047D01*
X236128571Y-42006666D01*
X236176190Y-42101904D01*
X236176190Y-42482857D01*
X236652380Y-41482857D02*
X235652380Y-41482857D01*
X236366666Y-41149523D01*
X235652380Y-40816190D01*
X236652380Y-40816190D01*
X236652380Y-39816190D02*
X236652380Y-40387619D01*
X236652380Y-40101904D02*
X235652380Y-40101904D01*
X235795238Y-40197142D01*
X235890476Y-40292380D01*
X235938095Y-40387619D01*
X223032380Y-73399523D02*
X223746666Y-73399523D01*
X223889523Y-73447142D01*
X223984761Y-73542380D01*
X224032380Y-73685238D01*
X224032380Y-73780476D01*
X224032380Y-72399523D02*
X224032380Y-72970952D01*
X224032380Y-72685238D02*
X223032380Y-72685238D01*
X223175238Y-72780476D01*
X223270476Y-72875714D01*
X223318095Y-72970952D01*
X223032380Y-71780476D02*
X223032380Y-71685238D01*
X223080000Y-71590000D01*
X223127619Y-71542380D01*
X223222857Y-71494761D01*
X223413333Y-71447142D01*
X223651428Y-71447142D01*
X223841904Y-71494761D01*
X223937142Y-71542380D01*
X223984761Y-71590000D01*
X224032380Y-71685238D01*
X224032380Y-71780476D01*
X223984761Y-71875714D01*
X223937142Y-71923333D01*
X223841904Y-71970952D01*
X223651428Y-72018571D01*
X223413333Y-72018571D01*
X223222857Y-71970952D01*
X223127619Y-71923333D01*
X223080000Y-71875714D01*
X223032380Y-71780476D01*
X236604761Y-79304285D02*
X236652380Y-79161428D01*
X236652380Y-78923333D01*
X236604761Y-78828095D01*
X236557142Y-78780476D01*
X236461904Y-78732857D01*
X236366666Y-78732857D01*
X236271428Y-78780476D01*
X236223809Y-78828095D01*
X236176190Y-78923333D01*
X236128571Y-79113809D01*
X236080952Y-79209047D01*
X236033333Y-79256666D01*
X235938095Y-79304285D01*
X235842857Y-79304285D01*
X235747619Y-79256666D01*
X235700000Y-79209047D01*
X235652380Y-79113809D01*
X235652380Y-78875714D01*
X235700000Y-78732857D01*
X236604761Y-77923333D02*
X236652380Y-78018571D01*
X236652380Y-78209047D01*
X236604761Y-78304285D01*
X236509523Y-78351904D01*
X236128571Y-78351904D01*
X236033333Y-78304285D01*
X235985714Y-78209047D01*
X235985714Y-78018571D01*
X236033333Y-77923333D01*
X236128571Y-77875714D01*
X236223809Y-77875714D01*
X236319047Y-78351904D01*
X236652380Y-77447142D02*
X235985714Y-77447142D01*
X236176190Y-77447142D02*
X236080952Y-77399523D01*
X236033333Y-77351904D01*
X235985714Y-77256666D01*
X235985714Y-77161428D01*
X235985714Y-76923333D02*
X236652380Y-76685238D01*
X235985714Y-76447142D01*
X236652380Y-75923333D02*
X236604761Y-76018571D01*
X236557142Y-76066190D01*
X236461904Y-76113809D01*
X236176190Y-76113809D01*
X236080952Y-76066190D01*
X236033333Y-76018571D01*
X235985714Y-75923333D01*
X235985714Y-75780476D01*
X236033333Y-75685238D01*
X236080952Y-75637619D01*
X236176190Y-75590000D01*
X236461904Y-75590000D01*
X236557142Y-75637619D01*
X236604761Y-75685238D01*
X236652380Y-75780476D01*
X236652380Y-75923333D01*
X236271428Y-75161428D02*
X236271428Y-74399523D01*
X236652380Y-73923333D02*
X235652380Y-73923333D01*
X235652380Y-73542380D01*
X235700000Y-73447142D01*
X235747619Y-73399523D01*
X235842857Y-73351904D01*
X235985714Y-73351904D01*
X236080952Y-73399523D01*
X236128571Y-73447142D01*
X236176190Y-73542380D01*
X236176190Y-73923333D01*
X235652380Y-73018571D02*
X236652380Y-72780476D01*
X235938095Y-72590000D01*
X236652380Y-72399523D01*
X235652380Y-72161428D01*
X236652380Y-71780476D02*
X235652380Y-71780476D01*
X236366666Y-71447142D01*
X235652380Y-71113809D01*
X236652380Y-71113809D01*
X236271428Y-70637619D02*
X236271428Y-69875714D01*
X236366666Y-69447142D02*
X236366666Y-68970952D01*
X236652380Y-69542380D02*
X235652380Y-69209047D01*
X236652380Y-68875714D01*
X236652380Y-67970952D02*
X236176190Y-68304285D01*
X236652380Y-68542380D02*
X235652380Y-68542380D01*
X235652380Y-68161428D01*
X235700000Y-68066190D01*
X235747619Y-68018571D01*
X235842857Y-67970952D01*
X235985714Y-67970952D01*
X236080952Y-68018571D01*
X236128571Y-68066190D01*
X236176190Y-68161428D01*
X236176190Y-68542380D01*
X236652380Y-67542380D02*
X235652380Y-67542380D01*
X236366666Y-67209047D01*
X235652380Y-66875714D01*
X236652380Y-66875714D01*
X236652380Y-65875714D02*
X236652380Y-66447142D01*
X236652380Y-66161428D02*
X235652380Y-66161428D01*
X235795238Y-66256666D01*
X235890476Y-66351904D01*
X235938095Y-66447142D01*
X54276666Y-30322380D02*
X54276666Y-31036666D01*
X54229047Y-31179523D01*
X54133809Y-31274761D01*
X53990952Y-31322380D01*
X53895714Y-31322380D01*
X54800476Y-31322380D02*
X54990952Y-31322380D01*
X55086190Y-31274761D01*
X55133809Y-31227142D01*
X55229047Y-31084285D01*
X55276666Y-30893809D01*
X55276666Y-30512857D01*
X55229047Y-30417619D01*
X55181428Y-30370000D01*
X55086190Y-30322380D01*
X54895714Y-30322380D01*
X54800476Y-30370000D01*
X54752857Y-30417619D01*
X54705238Y-30512857D01*
X54705238Y-30750952D01*
X54752857Y-30846190D01*
X54800476Y-30893809D01*
X54895714Y-30941428D01*
X55086190Y-30941428D01*
X55181428Y-30893809D01*
X55229047Y-30846190D01*
X55276666Y-30750952D01*
X104441666Y-54672380D02*
X104441666Y-55386666D01*
X104394047Y-55529523D01*
X104298809Y-55624761D01*
X104155952Y-55672380D01*
X104060714Y-55672380D01*
X105060714Y-55100952D02*
X104965476Y-55053333D01*
X104917857Y-55005714D01*
X104870238Y-54910476D01*
X104870238Y-54862857D01*
X104917857Y-54767619D01*
X104965476Y-54720000D01*
X105060714Y-54672380D01*
X105251190Y-54672380D01*
X105346428Y-54720000D01*
X105394047Y-54767619D01*
X105441666Y-54862857D01*
X105441666Y-54910476D01*
X105394047Y-55005714D01*
X105346428Y-55053333D01*
X105251190Y-55100952D01*
X105060714Y-55100952D01*
X104965476Y-55148571D01*
X104917857Y-55196190D01*
X104870238Y-55291428D01*
X104870238Y-55481904D01*
X104917857Y-55577142D01*
X104965476Y-55624761D01*
X105060714Y-55672380D01*
X105251190Y-55672380D01*
X105346428Y-55624761D01*
X105394047Y-55577142D01*
X105441666Y-55481904D01*
X105441666Y-55291428D01*
X105394047Y-55196190D01*
X105346428Y-55148571D01*
X105251190Y-55100952D01*
X174926666Y-86422380D02*
X174926666Y-87136666D01*
X174879047Y-87279523D01*
X174783809Y-87374761D01*
X174640952Y-87422380D01*
X174545714Y-87422380D01*
X175307619Y-86422380D02*
X175974285Y-86422380D01*
X175545714Y-87422380D01*
X178732380Y-25733333D02*
X179446666Y-25733333D01*
X179589523Y-25780952D01*
X179684761Y-25876190D01*
X179732380Y-26019047D01*
X179732380Y-26114285D01*
X178732380Y-24828571D02*
X178732380Y-25019047D01*
X178780000Y-25114285D01*
X178827619Y-25161904D01*
X178970476Y-25257142D01*
X179160952Y-25304761D01*
X179541904Y-25304761D01*
X179637142Y-25257142D01*
X179684761Y-25209523D01*
X179732380Y-25114285D01*
X179732380Y-24923809D01*
X179684761Y-24828571D01*
X179637142Y-24780952D01*
X179541904Y-24733333D01*
X179303809Y-24733333D01*
X179208571Y-24780952D01*
X179160952Y-24828571D01*
X179113333Y-24923809D01*
X179113333Y-25114285D01*
X179160952Y-25209523D01*
X179208571Y-25257142D01*
X179303809Y-25304761D01*
X54276666Y-145112380D02*
X54276666Y-145826666D01*
X54229047Y-145969523D01*
X54133809Y-146064761D01*
X53990952Y-146112380D01*
X53895714Y-146112380D01*
X55229047Y-145112380D02*
X54752857Y-145112380D01*
X54705238Y-145588571D01*
X54752857Y-145540952D01*
X54848095Y-145493333D01*
X55086190Y-145493333D01*
X55181428Y-145540952D01*
X55229047Y-145588571D01*
X55276666Y-145683809D01*
X55276666Y-145921904D01*
X55229047Y-146017142D01*
X55181428Y-146064761D01*
X55086190Y-146112380D01*
X54848095Y-146112380D01*
X54752857Y-146064761D01*
X54705238Y-146017142D01*
X55546666Y-112457380D02*
X55546666Y-113171666D01*
X55499047Y-113314523D01*
X55403809Y-113409761D01*
X55260952Y-113457380D01*
X55165714Y-113457380D01*
X56451428Y-112790714D02*
X56451428Y-113457380D01*
X56213333Y-112409761D02*
X55975238Y-113124047D01*
X56594285Y-113124047D01*
X193976666Y-86422380D02*
X193976666Y-87136666D01*
X193929047Y-87279523D01*
X193833809Y-87374761D01*
X193690952Y-87422380D01*
X193595714Y-87422380D01*
X194357619Y-86422380D02*
X194976666Y-86422380D01*
X194643333Y-86803333D01*
X194786190Y-86803333D01*
X194881428Y-86850952D01*
X194929047Y-86898571D01*
X194976666Y-86993809D01*
X194976666Y-87231904D01*
X194929047Y-87327142D01*
X194881428Y-87374761D01*
X194786190Y-87422380D01*
X194500476Y-87422380D01*
X194405238Y-87374761D01*
X194357619Y-87327142D01*
X157146666Y-54212380D02*
X157146666Y-54926666D01*
X157099047Y-55069523D01*
X157003809Y-55164761D01*
X156860952Y-55212380D01*
X156765714Y-55212380D01*
X157575238Y-54307619D02*
X157622857Y-54260000D01*
X157718095Y-54212380D01*
X157956190Y-54212380D01*
X158051428Y-54260000D01*
X158099047Y-54307619D01*
X158146666Y-54402857D01*
X158146666Y-54498095D01*
X158099047Y-54640952D01*
X157527619Y-55212380D01*
X158146666Y-55212380D01*
X136826666Y-54212380D02*
X136826666Y-54926666D01*
X136779047Y-55069523D01*
X136683809Y-55164761D01*
X136540952Y-55212380D01*
X136445714Y-55212380D01*
X137826666Y-55212380D02*
X137255238Y-55212380D01*
X137540952Y-55212380D02*
X137540952Y-54212380D01*
X137445714Y-54355238D01*
X137350476Y-54450476D01*
X137255238Y-54498095D01*
X223367380Y-123832857D02*
X223367380Y-124309047D01*
X222367380Y-124309047D01*
X222843571Y-123499523D02*
X222843571Y-123166190D01*
X223367380Y-123023333D02*
X223367380Y-123499523D01*
X222367380Y-123499523D01*
X222367380Y-123023333D01*
X223367380Y-122594761D02*
X222367380Y-122594761D01*
X222367380Y-122356666D01*
X222415000Y-122213809D01*
X222510238Y-122118571D01*
X222605476Y-122070952D01*
X222795952Y-122023333D01*
X222938809Y-122023333D01*
X223129285Y-122070952D01*
X223224523Y-122118571D01*
X223319761Y-122213809D01*
X223367380Y-122356666D01*
X223367380Y-122594761D01*
X209947142Y-127452380D02*
X209375714Y-127452380D01*
X209661428Y-127452380D02*
X209661428Y-126452380D01*
X209566190Y-126595238D01*
X209470952Y-126690476D01*
X209375714Y-126738095D01*
X210375714Y-127452380D02*
X210375714Y-126452380D01*
X210947142Y-127452380D01*
X210947142Y-126452380D01*
X211851904Y-126785714D02*
X211851904Y-127452380D01*
X211613809Y-126404761D02*
X211375714Y-127119047D01*
X211994761Y-127119047D01*
X212566190Y-126452380D02*
X212661428Y-126452380D01*
X212756666Y-126500000D01*
X212804285Y-126547619D01*
X212851904Y-126642857D01*
X212899523Y-126833333D01*
X212899523Y-127071428D01*
X212851904Y-127261904D01*
X212804285Y-127357142D01*
X212756666Y-127404761D01*
X212661428Y-127452380D01*
X212566190Y-127452380D01*
X212470952Y-127404761D01*
X212423333Y-127357142D01*
X212375714Y-127261904D01*
X212328095Y-127071428D01*
X212328095Y-126833333D01*
X212375714Y-126642857D01*
X212423333Y-126547619D01*
X212470952Y-126500000D01*
X212566190Y-126452380D01*
X213518571Y-126452380D02*
X213613809Y-126452380D01*
X213709047Y-126500000D01*
X213756666Y-126547619D01*
X213804285Y-126642857D01*
X213851904Y-126833333D01*
X213851904Y-127071428D01*
X213804285Y-127261904D01*
X213756666Y-127357142D01*
X213709047Y-127404761D01*
X213613809Y-127452380D01*
X213518571Y-127452380D01*
X213423333Y-127404761D01*
X213375714Y-127357142D01*
X213328095Y-127261904D01*
X213280476Y-127071428D01*
X213280476Y-126833333D01*
X213328095Y-126642857D01*
X213375714Y-126547619D01*
X213423333Y-126500000D01*
X213518571Y-126452380D01*
X214804285Y-127452380D02*
X214232857Y-127452380D01*
X214518571Y-127452380D02*
X214518571Y-126452380D01*
X214423333Y-126595238D01*
X214328095Y-126690476D01*
X214232857Y-126738095D01*
X223452380Y-53982857D02*
X223452380Y-54459047D01*
X222452380Y-54459047D01*
X222928571Y-53649523D02*
X222928571Y-53316190D01*
X223452380Y-53173333D02*
X223452380Y-53649523D01*
X222452380Y-53649523D01*
X222452380Y-53173333D01*
X223452380Y-52744761D02*
X222452380Y-52744761D01*
X222452380Y-52506666D01*
X222500000Y-52363809D01*
X222595238Y-52268571D01*
X222690476Y-52220952D01*
X222880952Y-52173333D01*
X223023809Y-52173333D01*
X223214285Y-52220952D01*
X223309523Y-52268571D01*
X223404761Y-52363809D01*
X223452380Y-52506666D01*
X223452380Y-52744761D01*
X209947142Y-49982380D02*
X209375714Y-49982380D01*
X209661428Y-49982380D02*
X209661428Y-48982380D01*
X209566190Y-49125238D01*
X209470952Y-49220476D01*
X209375714Y-49268095D01*
X210375714Y-49982380D02*
X210375714Y-48982380D01*
X210947142Y-49982380D01*
X210947142Y-48982380D01*
X211851904Y-49315714D02*
X211851904Y-49982380D01*
X211613809Y-48934761D02*
X211375714Y-49649047D01*
X211994761Y-49649047D01*
X212566190Y-48982380D02*
X212661428Y-48982380D01*
X212756666Y-49030000D01*
X212804285Y-49077619D01*
X212851904Y-49172857D01*
X212899523Y-49363333D01*
X212899523Y-49601428D01*
X212851904Y-49791904D01*
X212804285Y-49887142D01*
X212756666Y-49934761D01*
X212661428Y-49982380D01*
X212566190Y-49982380D01*
X212470952Y-49934761D01*
X212423333Y-49887142D01*
X212375714Y-49791904D01*
X212328095Y-49601428D01*
X212328095Y-49363333D01*
X212375714Y-49172857D01*
X212423333Y-49077619D01*
X212470952Y-49030000D01*
X212566190Y-48982380D01*
X213518571Y-48982380D02*
X213613809Y-48982380D01*
X213709047Y-49030000D01*
X213756666Y-49077619D01*
X213804285Y-49172857D01*
X213851904Y-49363333D01*
X213851904Y-49601428D01*
X213804285Y-49791904D01*
X213756666Y-49887142D01*
X213709047Y-49934761D01*
X213613809Y-49982380D01*
X213518571Y-49982380D01*
X213423333Y-49934761D01*
X213375714Y-49887142D01*
X213328095Y-49791904D01*
X213280476Y-49601428D01*
X213280476Y-49363333D01*
X213328095Y-49172857D01*
X213375714Y-49077619D01*
X213423333Y-49030000D01*
X213518571Y-48982380D01*
X214804285Y-49982380D02*
X214232857Y-49982380D01*
X214518571Y-49982380D02*
X214518571Y-48982380D01*
X214423333Y-49125238D01*
X214328095Y-49220476D01*
X214232857Y-49268095D01*
X205573333Y-93067142D02*
X205525714Y-93114761D01*
X205382857Y-93162380D01*
X205287619Y-93162380D01*
X205144761Y-93114761D01*
X205049523Y-93019523D01*
X205001904Y-92924285D01*
X204954285Y-92733809D01*
X204954285Y-92590952D01*
X205001904Y-92400476D01*
X205049523Y-92305238D01*
X205144761Y-92210000D01*
X205287619Y-92162380D01*
X205382857Y-92162380D01*
X205525714Y-92210000D01*
X205573333Y-92257619D01*
X205954285Y-92257619D02*
X206001904Y-92210000D01*
X206097142Y-92162380D01*
X206335238Y-92162380D01*
X206430476Y-92210000D01*
X206478095Y-92257619D01*
X206525714Y-92352857D01*
X206525714Y-92448095D01*
X206478095Y-92590952D01*
X205906666Y-93162380D01*
X206525714Y-93162380D01*
X207863333Y-95543714D02*
X207863333Y-96210380D01*
X207625238Y-95162761D02*
X207387142Y-95877047D01*
X208006190Y-95877047D01*
X208291904Y-95210380D02*
X208958571Y-95210380D01*
X208530000Y-96210380D01*
X209768095Y-95543714D02*
X209768095Y-96210380D01*
X209339523Y-95543714D02*
X209339523Y-96067523D01*
X209387142Y-96162761D01*
X209482380Y-96210380D01*
X209625238Y-96210380D01*
X209720476Y-96162761D01*
X209768095Y-96115142D01*
X210577619Y-95686571D02*
X210244285Y-95686571D01*
X210244285Y-96210380D02*
X210244285Y-95210380D01*
X210720476Y-95210380D01*
X218273333Y-93067142D02*
X218225714Y-93114761D01*
X218082857Y-93162380D01*
X217987619Y-93162380D01*
X217844761Y-93114761D01*
X217749523Y-93019523D01*
X217701904Y-92924285D01*
X217654285Y-92733809D01*
X217654285Y-92590952D01*
X217701904Y-92400476D01*
X217749523Y-92305238D01*
X217844761Y-92210000D01*
X217987619Y-92162380D01*
X218082857Y-92162380D01*
X218225714Y-92210000D01*
X218273333Y-92257619D01*
X219225714Y-93162380D02*
X218654285Y-93162380D01*
X218940000Y-93162380D02*
X218940000Y-92162380D01*
X218844761Y-92305238D01*
X218749523Y-92400476D01*
X218654285Y-92448095D01*
X213983333Y-95543714D02*
X213983333Y-96210380D01*
X213745238Y-95162761D02*
X213507142Y-95877047D01*
X214126190Y-95877047D01*
X214411904Y-95210380D02*
X215078571Y-95210380D01*
X214650000Y-96210380D01*
X215888095Y-95543714D02*
X215888095Y-96210380D01*
X215459523Y-95543714D02*
X215459523Y-96067523D01*
X215507142Y-96162761D01*
X215602380Y-96210380D01*
X215745238Y-96210380D01*
X215840476Y-96162761D01*
X215888095Y-96115142D01*
X216697619Y-95686571D02*
X216364285Y-95686571D01*
X216364285Y-96210380D02*
X216364285Y-95210380D01*
X216840476Y-95210380D01*
X207209047Y-88709880D02*
X206732857Y-88709880D01*
X206685238Y-89186071D01*
X206732857Y-89138452D01*
X206828095Y-89090833D01*
X207066190Y-89090833D01*
X207161428Y-89138452D01*
X207209047Y-89186071D01*
X207256666Y-89281309D01*
X207256666Y-89519404D01*
X207209047Y-89614642D01*
X207161428Y-89662261D01*
X207066190Y-89709880D01*
X206828095Y-89709880D01*
X206732857Y-89662261D01*
X206685238Y-89614642D01*
X207542380Y-88709880D02*
X207875714Y-89709880D01*
X208209047Y-88709880D01*
X208542380Y-89328928D02*
X209304285Y-89328928D01*
X210351904Y-89709880D02*
X210018571Y-89233690D01*
X209780476Y-89709880D02*
X209780476Y-88709880D01*
X210161428Y-88709880D01*
X210256666Y-88757500D01*
X210304285Y-88805119D01*
X210351904Y-88900357D01*
X210351904Y-89043214D01*
X210304285Y-89138452D01*
X210256666Y-89186071D01*
X210161428Y-89233690D01*
X209780476Y-89233690D01*
X211161428Y-89662261D02*
X211066190Y-89709880D01*
X210875714Y-89709880D01*
X210780476Y-89662261D01*
X210732857Y-89567023D01*
X210732857Y-89186071D01*
X210780476Y-89090833D01*
X210875714Y-89043214D01*
X211066190Y-89043214D01*
X211161428Y-89090833D01*
X211209047Y-89186071D01*
X211209047Y-89281309D01*
X210732857Y-89376547D01*
X212066190Y-89043214D02*
X212066190Y-89852738D01*
X212018571Y-89947976D01*
X211970952Y-89995595D01*
X211875714Y-90043214D01*
X211732857Y-90043214D01*
X211637619Y-89995595D01*
X212066190Y-89662261D02*
X211970952Y-89709880D01*
X211780476Y-89709880D01*
X211685238Y-89662261D01*
X211637619Y-89614642D01*
X211590000Y-89519404D01*
X211590000Y-89233690D01*
X211637619Y-89138452D01*
X211685238Y-89090833D01*
X211780476Y-89043214D01*
X211970952Y-89043214D01*
X212066190Y-89090833D01*
X212970952Y-89043214D02*
X212970952Y-89709880D01*
X212542380Y-89043214D02*
X212542380Y-89567023D01*
X212590000Y-89662261D01*
X212685238Y-89709880D01*
X212828095Y-89709880D01*
X212923333Y-89662261D01*
X212970952Y-89614642D01*
X213590000Y-89709880D02*
X213494761Y-89662261D01*
X213447142Y-89567023D01*
X213447142Y-88709880D01*
X214399523Y-89709880D02*
X214399523Y-89186071D01*
X214351904Y-89090833D01*
X214256666Y-89043214D01*
X214066190Y-89043214D01*
X213970952Y-89090833D01*
X214399523Y-89662261D02*
X214304285Y-89709880D01*
X214066190Y-89709880D01*
X213970952Y-89662261D01*
X213923333Y-89567023D01*
X213923333Y-89471785D01*
X213970952Y-89376547D01*
X214066190Y-89328928D01*
X214304285Y-89328928D01*
X214399523Y-89281309D01*
X214732857Y-89043214D02*
X215113809Y-89043214D01*
X214875714Y-88709880D02*
X214875714Y-89567023D01*
X214923333Y-89662261D01*
X215018571Y-89709880D01*
X215113809Y-89709880D01*
X215590000Y-89709880D02*
X215494761Y-89662261D01*
X215447142Y-89614642D01*
X215399523Y-89519404D01*
X215399523Y-89233690D01*
X215447142Y-89138452D01*
X215494761Y-89090833D01*
X215590000Y-89043214D01*
X215732857Y-89043214D01*
X215828095Y-89090833D01*
X215875714Y-89138452D01*
X215923333Y-89233690D01*
X215923333Y-89519404D01*
X215875714Y-89614642D01*
X215828095Y-89662261D01*
X215732857Y-89709880D01*
X215590000Y-89709880D01*
X216351904Y-89709880D02*
X216351904Y-89043214D01*
X216351904Y-89233690D02*
X216399523Y-89138452D01*
X216447142Y-89090833D01*
X216542380Y-89043214D01*
X216637619Y-89043214D01*
X217494761Y-89709880D02*
X216923333Y-89709880D01*
X217209047Y-89709880D02*
X217209047Y-88709880D01*
X217113809Y-88852738D01*
X217018571Y-88947976D01*
X216923333Y-88995595D01*
X210494761Y-82639880D02*
X210018571Y-82639880D01*
X210018571Y-81639880D01*
X210732857Y-81639880D02*
X211399523Y-81639880D01*
X210970952Y-82639880D01*
X211923333Y-82068452D02*
X211828095Y-82020833D01*
X211780476Y-81973214D01*
X211732857Y-81877976D01*
X211732857Y-81830357D01*
X211780476Y-81735119D01*
X211828095Y-81687500D01*
X211923333Y-81639880D01*
X212113809Y-81639880D01*
X212209047Y-81687500D01*
X212256666Y-81735119D01*
X212304285Y-81830357D01*
X212304285Y-81877976D01*
X212256666Y-81973214D01*
X212209047Y-82020833D01*
X212113809Y-82068452D01*
X211923333Y-82068452D01*
X211828095Y-82116071D01*
X211780476Y-82163690D01*
X211732857Y-82258928D01*
X211732857Y-82449404D01*
X211780476Y-82544642D01*
X211828095Y-82592261D01*
X211923333Y-82639880D01*
X212113809Y-82639880D01*
X212209047Y-82592261D01*
X212256666Y-82544642D01*
X212304285Y-82449404D01*
X212304285Y-82258928D01*
X212256666Y-82163690D01*
X212209047Y-82116071D01*
X212113809Y-82068452D01*
X212923333Y-81639880D02*
X213018571Y-81639880D01*
X213113809Y-81687500D01*
X213161428Y-81735119D01*
X213209047Y-81830357D01*
X213256666Y-82020833D01*
X213256666Y-82258928D01*
X213209047Y-82449404D01*
X213161428Y-82544642D01*
X213113809Y-82592261D01*
X213018571Y-82639880D01*
X212923333Y-82639880D01*
X212828095Y-82592261D01*
X212780476Y-82544642D01*
X212732857Y-82449404D01*
X212685238Y-82258928D01*
X212685238Y-82020833D01*
X212732857Y-81830357D01*
X212780476Y-81735119D01*
X212828095Y-81687500D01*
X212923333Y-81639880D01*
X214161428Y-81639880D02*
X213685238Y-81639880D01*
X213637619Y-82116071D01*
X213685238Y-82068452D01*
X213780476Y-82020833D01*
X214018571Y-82020833D01*
X214113809Y-82068452D01*
X214161428Y-82116071D01*
X214209047Y-82211309D01*
X214209047Y-82449404D01*
X214161428Y-82544642D01*
X214113809Y-82592261D01*
X214018571Y-82639880D01*
X213780476Y-82639880D01*
X213685238Y-82592261D01*
X213637619Y-82544642D01*
M02*
