M48
; DRILL file {KiCad (5.1.2)-2} date 2019-06-27 8:53:20 PM
; FORMAT={-:-/ absolute / inch / decimal}
; #@! TF.CreationDate,2019-06-27T20:53:20-04:00
; #@! TF.GenerationSoftware,Kicad,Pcbnew,(5.1.2)-2
; #@! TF.FileFunction,Plated,1,2,PTH
FMAT,2
INCH
T1C0.0315
T2C0.0354
T3C0.0394
T4C0.0551
%
G90
G05
T1
X6.2Y-3.25
X6.6Y-3.25
X6.2Y-3.55
X6.6Y-3.55
X6.2Y-4.15
X6.6Y-4.15
X6.2Y-4.45
X6.6Y-4.45
X6.2Y-3.85
X6.6Y-3.85
T2
X5.95Y-3.55
X6.05Y-3.55
X5.95Y-4.15
X6.05Y-4.15
X5.95Y-4.45
X6.05Y-4.45
X5.95Y-3.85
X6.05Y-3.85
X5.95Y-3.25
X6.05Y-3.25
T3
X6.9Y-3.25
X6.9Y-3.35
X6.9Y-3.45
X6.9Y-3.55
X6.9Y-3.65
X6.9Y-3.75
X6.9Y-3.85
X6.9Y-3.95
X6.9Y-4.05
X6.9Y-4.15
X6.9Y-4.25
X6.9Y-4.35
X6.9Y-4.45
X6.9Y-4.55
X6.9Y-4.65
T4
X3.85Y-4.85
X4.0469Y-4.85
X4.2437Y-4.85
X4.4406Y-4.85
X6.15Y-4.85
X6.3469Y-4.85
X4.75Y-3.15
X4.9469Y-3.15
X4.8Y-4.85
X4.9969Y-4.85
X5.1937Y-4.85
X5.3906Y-4.85
X5.5874Y-4.85
X5.7843Y-4.85
X3.85Y-3.15
X4.0469Y-3.15
X4.2437Y-3.15
X4.4406Y-3.15
T0
M30
