G04 #@! TF.GenerationSoftware,KiCad,Pcbnew,(5.1.2)-2*
G04 #@! TF.CreationDate,2019-06-27T20:53:15-04:00*
G04 #@! TF.ProjectId,connection-portal,636f6e6e-6563-4746-996f-6e2d706f7274,rev?*
G04 #@! TF.SameCoordinates,Original*
G04 #@! TF.FileFunction,Copper,L1,Top*
G04 #@! TF.FilePolarity,Positive*
%FSLAX46Y46*%
G04 Gerber Fmt 4.6, Leading zero omitted, Abs format (unit mm)*
G04 Created by KiCad (PCBNEW (5.1.2)-2) date 2019-06-27 20:53:15*
%MOMM*%
%LPD*%
G04 APERTURE LIST*
%ADD10O,1.600000X1.600000*%
%ADD11C,1.600000*%
%ADD12O,1.700000X1.700000*%
%ADD13R,1.700000X1.700000*%
%ADD14C,2.800000*%
%ADD15R,2.800000X2.800000*%
%ADD16C,1.800000*%
%ADD17R,1.800000X1.800000*%
%ADD18C,1.000000*%
%ADD19C,1.700000*%
%ADD20C,5.000000*%
%ADD21C,0.254000*%
G04 APERTURE END LIST*
D10*
X167640000Y-113030000D03*
D11*
X157480000Y-113030000D03*
D10*
X167640000Y-105410000D03*
D11*
X157480000Y-105410000D03*
D10*
X167640000Y-97790000D03*
D11*
X157480000Y-97790000D03*
D10*
X167640000Y-90170000D03*
D11*
X157480000Y-90170000D03*
D10*
X167640000Y-82550000D03*
D11*
X157480000Y-82550000D03*
D12*
X175260000Y-118110000D03*
X175260000Y-115570000D03*
X175260000Y-113030000D03*
X175260000Y-110490000D03*
X175260000Y-107950000D03*
X175260000Y-105410000D03*
X175260000Y-102870000D03*
X175260000Y-100330000D03*
X175260000Y-97790000D03*
X175260000Y-95250000D03*
X175260000Y-92710000D03*
X175260000Y-90170000D03*
X175260000Y-87630000D03*
X175260000Y-85090000D03*
D13*
X175260000Y-82550000D03*
D14*
X112790000Y-80010000D03*
X107790000Y-80010000D03*
X102790000Y-80010000D03*
D15*
X97790000Y-80010000D03*
D14*
X125650000Y-80010000D03*
D15*
X120650000Y-80010000D03*
D14*
X146920000Y-123190000D03*
X141920000Y-123190000D03*
X136920000Y-123190000D03*
X131920000Y-123190000D03*
X126920000Y-123190000D03*
D15*
X121920000Y-123190000D03*
D14*
X112790000Y-123190000D03*
X107790000Y-123190000D03*
X102790000Y-123190000D03*
D15*
X97790000Y-123190000D03*
D14*
X161210000Y-123190000D03*
D15*
X156210000Y-123190000D03*
D16*
X151130000Y-113030000D03*
D17*
X153670000Y-113030000D03*
D16*
X151130000Y-105410000D03*
D17*
X153670000Y-105410000D03*
D16*
X151130000Y-97790000D03*
D17*
X153670000Y-97790000D03*
D16*
X151130000Y-90170000D03*
D17*
X153670000Y-90170000D03*
D16*
X151130000Y-82550000D03*
D17*
X153670000Y-82550000D03*
D18*
X151130000Y-82550000D02*
X151130000Y-86360000D01*
X151130000Y-86360000D02*
X152400000Y-87630000D01*
X152400000Y-87630000D02*
X175260000Y-87630000D01*
X127322931Y-121089999D02*
X128522941Y-119889989D01*
X121920000Y-123190000D02*
X124020001Y-121089999D01*
X124020001Y-121089999D02*
X127322931Y-121089999D01*
X131825871Y-119889989D02*
X133025881Y-118689979D01*
X128522941Y-119889989D02*
X131825871Y-119889989D01*
X133025881Y-118689979D02*
X136328811Y-118689979D01*
X138178790Y-116840000D02*
X143461618Y-116840000D01*
X136328811Y-118689979D02*
X138178790Y-116840000D01*
X143461618Y-116840000D02*
X144989970Y-115311648D01*
X144989970Y-88690030D02*
X151130000Y-82550000D01*
X144989970Y-115311648D02*
X144989970Y-88690030D01*
X153670000Y-82550000D02*
X157480000Y-82550000D01*
X151130000Y-90170000D02*
X151130000Y-93980000D01*
X151130000Y-93980000D02*
X152400000Y-95250000D01*
X152400000Y-95250000D02*
X175260000Y-95250000D01*
X132322931Y-121089999D02*
X133522941Y-119889989D01*
X126920000Y-123190000D02*
X129020001Y-121089999D01*
X129020001Y-121089999D02*
X132322931Y-121089999D01*
X133522941Y-119889989D02*
X136825871Y-119889989D01*
X138605860Y-118110000D02*
X143888688Y-118110000D01*
X136825871Y-119889989D02*
X138605860Y-118110000D01*
X150230001Y-91069999D02*
X151130000Y-90170000D01*
X146189980Y-95110020D02*
X150230001Y-91069999D01*
X146189980Y-115808708D02*
X146189980Y-95110020D01*
X143888688Y-118110000D02*
X146189980Y-115808708D01*
X153670000Y-90170000D02*
X157480000Y-90170000D01*
X152400000Y-102870000D02*
X175260000Y-102870000D01*
X151130000Y-97790000D02*
X151130000Y-101600000D01*
X151130000Y-101600000D02*
X152400000Y-102870000D01*
X150230001Y-98689999D02*
X151130000Y-97790000D01*
X147389990Y-101530010D02*
X150230001Y-98689999D01*
X147389990Y-116305768D02*
X147389990Y-101530010D01*
X144315758Y-119380000D02*
X147389990Y-116305768D01*
X134020001Y-121089999D02*
X137322931Y-121089999D01*
X131920000Y-123190000D02*
X134020001Y-121089999D01*
X139032930Y-119380000D02*
X144315758Y-119380000D01*
X137322931Y-121089999D02*
X139032930Y-119380000D01*
X153670000Y-97790000D02*
X157480000Y-97790000D01*
X151130000Y-105410000D02*
X151130000Y-109220000D01*
X151130000Y-109220000D02*
X152400000Y-110490000D01*
X152400000Y-110490000D02*
X175260000Y-110490000D01*
X136920000Y-123190000D02*
X139478586Y-120631414D01*
X139478586Y-120631414D02*
X144761414Y-120631414D01*
X144761414Y-120631414D02*
X148590000Y-116802828D01*
X148590000Y-107950000D02*
X151130000Y-105410000D01*
X148590000Y-116802828D02*
X148590000Y-107950000D01*
X153670000Y-105410000D02*
X157480000Y-105410000D01*
X151130000Y-113030000D02*
X151130000Y-116840000D01*
X151130000Y-116840000D02*
X152400000Y-118110000D01*
X152400000Y-118110000D02*
X175260000Y-118110000D01*
X149860000Y-113030000D02*
X151130000Y-113030000D01*
X149860000Y-117229898D02*
X149860000Y-113030000D01*
X141920000Y-123190000D02*
X141920000Y-122240000D01*
X145258474Y-121831424D02*
X149860000Y-117229898D01*
X142328576Y-121831424D02*
X145258474Y-121831424D01*
X141920000Y-122240000D02*
X142328576Y-121831424D01*
X153670000Y-113030000D02*
X157480000Y-113030000D01*
D19*
X180340000Y-90170000D02*
X181610000Y-88900000D01*
X175260000Y-90170000D02*
X180340000Y-90170000D01*
X175260000Y-82550000D02*
X181610000Y-82550000D01*
X175260000Y-97790000D02*
X181610000Y-97790000D01*
X180340000Y-105410000D02*
X181610000Y-106680000D01*
X175260000Y-105410000D02*
X180340000Y-105410000D01*
X175260000Y-113030000D02*
X181610000Y-113030000D01*
D18*
X167640000Y-82550000D02*
X175260000Y-82550000D01*
X167640000Y-90170000D02*
X175260000Y-90170000D01*
X167640000Y-97790000D02*
X175260000Y-97790000D01*
X167640000Y-113030000D02*
X175260000Y-113030000D01*
X167640000Y-105410000D02*
X175260000Y-105410000D01*
D20*
X181610000Y-82540000D02*
X181610000Y-82550000D01*
D18*
X156210000Y-123190000D02*
X158510001Y-125490001D01*
X112790000Y-80010000D02*
X112790000Y-123190000D01*
X107790000Y-123190000D02*
X107790000Y-80010000D01*
X102790000Y-121210102D02*
X102790000Y-80010000D01*
X102790000Y-123190000D02*
X102790000Y-121210102D01*
X97790000Y-120790000D02*
X97790000Y-80010000D01*
X97790000Y-123190000D02*
X97790000Y-120790000D01*
X120650000Y-81660000D02*
X120650000Y-80010000D01*
X118110000Y-84200000D02*
X120650000Y-81660000D01*
X118110000Y-84200000D02*
X118110000Y-92710000D01*
X118110000Y-123440002D02*
X118110000Y-121920000D01*
X119959999Y-125290001D02*
X118110000Y-123440002D01*
X144819999Y-125290001D02*
X119959999Y-125290001D01*
X146920000Y-123190000D02*
X144819999Y-125290001D01*
X118110000Y-121920000D02*
X118110000Y-91820000D01*
D21*
G36*
X186030000Y-127610000D02*
G01*
X94640000Y-127610000D01*
X94640000Y-78610000D01*
X95751928Y-78610000D01*
X95751928Y-81410000D01*
X95764188Y-81534482D01*
X95800498Y-81654180D01*
X95859463Y-81764494D01*
X95938815Y-81861185D01*
X96035506Y-81940537D01*
X96145820Y-81999502D01*
X96265518Y-82035812D01*
X96390000Y-82048072D01*
X96655001Y-82048072D01*
X96655000Y-120845751D01*
X96655001Y-120845761D01*
X96655001Y-121151928D01*
X96390000Y-121151928D01*
X96265518Y-121164188D01*
X96145820Y-121200498D01*
X96035506Y-121259463D01*
X95938815Y-121338815D01*
X95859463Y-121435506D01*
X95800498Y-121545820D01*
X95764188Y-121665518D01*
X95751928Y-121790000D01*
X95751928Y-124590000D01*
X95764188Y-124714482D01*
X95800498Y-124834180D01*
X95859463Y-124944494D01*
X95938815Y-125041185D01*
X96035506Y-125120537D01*
X96145820Y-125179502D01*
X96265518Y-125215812D01*
X96390000Y-125228072D01*
X99190000Y-125228072D01*
X99314482Y-125215812D01*
X99434180Y-125179502D01*
X99544494Y-125120537D01*
X99641185Y-125041185D01*
X99720537Y-124944494D01*
X99779502Y-124834180D01*
X99815812Y-124714482D01*
X99828072Y-124590000D01*
X99828072Y-121790000D01*
X99815812Y-121665518D01*
X99779502Y-121545820D01*
X99720537Y-121435506D01*
X99641185Y-121338815D01*
X99544494Y-121259463D01*
X99434180Y-121200498D01*
X99314482Y-121164188D01*
X99190000Y-121151928D01*
X98925000Y-121151928D01*
X98925000Y-82048072D01*
X99190000Y-82048072D01*
X99314482Y-82035812D01*
X99434180Y-81999502D01*
X99544494Y-81940537D01*
X99641185Y-81861185D01*
X99720537Y-81764494D01*
X99779502Y-81654180D01*
X99815812Y-81534482D01*
X99828072Y-81410000D01*
X99828072Y-79809570D01*
X100755000Y-79809570D01*
X100755000Y-80210430D01*
X100833204Y-80603587D01*
X100986607Y-80973934D01*
X101209313Y-81307237D01*
X101492763Y-81590687D01*
X101655001Y-81699091D01*
X101655000Y-121265853D01*
X101655001Y-121265863D01*
X101655001Y-121500909D01*
X101492763Y-121609313D01*
X101209313Y-121892763D01*
X100986607Y-122226066D01*
X100833204Y-122596413D01*
X100755000Y-122989570D01*
X100755000Y-123390430D01*
X100833204Y-123783587D01*
X100986607Y-124153934D01*
X101209313Y-124487237D01*
X101492763Y-124770687D01*
X101826066Y-124993393D01*
X102196413Y-125146796D01*
X102589570Y-125225000D01*
X102990430Y-125225000D01*
X103383587Y-125146796D01*
X103753934Y-124993393D01*
X104087237Y-124770687D01*
X104370687Y-124487237D01*
X104593393Y-124153934D01*
X104746796Y-123783587D01*
X104825000Y-123390430D01*
X104825000Y-122989570D01*
X104746796Y-122596413D01*
X104593393Y-122226066D01*
X104370687Y-121892763D01*
X104087237Y-121609313D01*
X103925000Y-121500910D01*
X103925000Y-81699090D01*
X104087237Y-81590687D01*
X104370687Y-81307237D01*
X104593393Y-80973934D01*
X104746796Y-80603587D01*
X104825000Y-80210430D01*
X104825000Y-79809570D01*
X105755000Y-79809570D01*
X105755000Y-80210430D01*
X105833204Y-80603587D01*
X105986607Y-80973934D01*
X106209313Y-81307237D01*
X106492763Y-81590687D01*
X106655001Y-81699091D01*
X106655000Y-121500910D01*
X106492763Y-121609313D01*
X106209313Y-121892763D01*
X105986607Y-122226066D01*
X105833204Y-122596413D01*
X105755000Y-122989570D01*
X105755000Y-123390430D01*
X105833204Y-123783587D01*
X105986607Y-124153934D01*
X106209313Y-124487237D01*
X106492763Y-124770687D01*
X106826066Y-124993393D01*
X107196413Y-125146796D01*
X107589570Y-125225000D01*
X107990430Y-125225000D01*
X108383587Y-125146796D01*
X108753934Y-124993393D01*
X109087237Y-124770687D01*
X109370687Y-124487237D01*
X109593393Y-124153934D01*
X109746796Y-123783587D01*
X109825000Y-123390430D01*
X109825000Y-122989570D01*
X109746796Y-122596413D01*
X109593393Y-122226066D01*
X109370687Y-121892763D01*
X109087237Y-121609313D01*
X108925000Y-121500910D01*
X108925000Y-81699090D01*
X109087237Y-81590687D01*
X109370687Y-81307237D01*
X109593393Y-80973934D01*
X109746796Y-80603587D01*
X109825000Y-80210430D01*
X109825000Y-79809570D01*
X110755000Y-79809570D01*
X110755000Y-80210430D01*
X110833204Y-80603587D01*
X110986607Y-80973934D01*
X111209313Y-81307237D01*
X111492763Y-81590687D01*
X111655000Y-81699090D01*
X111655001Y-121500909D01*
X111492763Y-121609313D01*
X111209313Y-121892763D01*
X110986607Y-122226066D01*
X110833204Y-122596413D01*
X110755000Y-122989570D01*
X110755000Y-123390430D01*
X110833204Y-123783587D01*
X110986607Y-124153934D01*
X111209313Y-124487237D01*
X111492763Y-124770687D01*
X111826066Y-124993393D01*
X112196413Y-125146796D01*
X112589570Y-125225000D01*
X112990430Y-125225000D01*
X113383587Y-125146796D01*
X113753934Y-124993393D01*
X114087237Y-124770687D01*
X114370687Y-124487237D01*
X114593393Y-124153934D01*
X114746796Y-123783587D01*
X114825000Y-123390430D01*
X114825000Y-122989570D01*
X114746796Y-122596413D01*
X114593393Y-122226066D01*
X114370687Y-121892763D01*
X114087237Y-121609313D01*
X113925000Y-121500910D01*
X113925000Y-84200000D01*
X116969509Y-84200000D01*
X116975000Y-84255752D01*
X116975001Y-91764248D01*
X116975000Y-121864248D01*
X116975000Y-123384251D01*
X116969509Y-123440002D01*
X116975000Y-123495753D01*
X116991423Y-123662500D01*
X117056324Y-123876448D01*
X117161716Y-124073625D01*
X117303551Y-124246451D01*
X117346864Y-124281997D01*
X119118012Y-126053147D01*
X119153550Y-126096450D01*
X119196853Y-126131988D01*
X119196855Y-126131990D01*
X119326376Y-126238285D01*
X119523552Y-126343677D01*
X119737500Y-126408578D01*
X119959999Y-126430492D01*
X120015751Y-126425001D01*
X144764248Y-126425001D01*
X144819999Y-126430492D01*
X144875750Y-126425001D01*
X144875751Y-126425001D01*
X145042498Y-126408578D01*
X145256446Y-126343677D01*
X145453622Y-126238285D01*
X145626448Y-126096450D01*
X145661995Y-126053136D01*
X146528198Y-125186934D01*
X146719570Y-125225000D01*
X147120430Y-125225000D01*
X147513587Y-125146796D01*
X147883934Y-124993393D01*
X148217237Y-124770687D01*
X148397924Y-124590000D01*
X154171928Y-124590000D01*
X154184188Y-124714482D01*
X154220498Y-124834180D01*
X154279463Y-124944494D01*
X154358815Y-125041185D01*
X154455506Y-125120537D01*
X154565820Y-125179502D01*
X154685518Y-125215812D01*
X154810000Y-125228072D01*
X155924250Y-125225000D01*
X156083000Y-125066250D01*
X156083000Y-123317000D01*
X156337000Y-123317000D01*
X156337000Y-125066250D01*
X156495750Y-125225000D01*
X157610000Y-125228072D01*
X157734482Y-125215812D01*
X157854180Y-125179502D01*
X157964494Y-125120537D01*
X158061185Y-125041185D01*
X158140537Y-124944494D01*
X158199502Y-124834180D01*
X158235812Y-124714482D01*
X158248072Y-124590000D01*
X158245000Y-123475750D01*
X158086250Y-123317000D01*
X156337000Y-123317000D01*
X156083000Y-123317000D01*
X154333750Y-123317000D01*
X154175000Y-123475750D01*
X154171928Y-124590000D01*
X148397924Y-124590000D01*
X148500687Y-124487237D01*
X148723393Y-124153934D01*
X148876796Y-123783587D01*
X148955000Y-123390430D01*
X148955000Y-122989570D01*
X148876796Y-122596413D01*
X148723393Y-122226066D01*
X148500687Y-121892763D01*
X148397924Y-121790000D01*
X154171928Y-121790000D01*
X154175000Y-122904250D01*
X154333750Y-123063000D01*
X156083000Y-123063000D01*
X156083000Y-121313750D01*
X156337000Y-121313750D01*
X156337000Y-123063000D01*
X158086250Y-123063000D01*
X158159680Y-122989570D01*
X159175000Y-122989570D01*
X159175000Y-123390430D01*
X159253204Y-123783587D01*
X159406607Y-124153934D01*
X159629313Y-124487237D01*
X159912763Y-124770687D01*
X160246066Y-124993393D01*
X160616413Y-125146796D01*
X161009570Y-125225000D01*
X161410430Y-125225000D01*
X161803587Y-125146796D01*
X162173934Y-124993393D01*
X162507237Y-124770687D01*
X162790687Y-124487237D01*
X163013393Y-124153934D01*
X163166796Y-123783587D01*
X163245000Y-123390430D01*
X163245000Y-122989570D01*
X163241082Y-122969872D01*
X167945000Y-122969872D01*
X167945000Y-123410128D01*
X168030890Y-123841925D01*
X168199369Y-124248669D01*
X168443962Y-124614729D01*
X168755271Y-124926038D01*
X169121331Y-125170631D01*
X169528075Y-125339110D01*
X169959872Y-125425000D01*
X170400128Y-125425000D01*
X170831925Y-125339110D01*
X171238669Y-125170631D01*
X171604729Y-124926038D01*
X171916038Y-124614729D01*
X172160631Y-124248669D01*
X172329110Y-123841925D01*
X172415000Y-123410128D01*
X172415000Y-122969872D01*
X172329110Y-122538075D01*
X172160631Y-122131331D01*
X171916038Y-121765271D01*
X171604729Y-121453962D01*
X171238669Y-121209369D01*
X170831925Y-121040890D01*
X170400128Y-120955000D01*
X169959872Y-120955000D01*
X169528075Y-121040890D01*
X169121331Y-121209369D01*
X168755271Y-121453962D01*
X168443962Y-121765271D01*
X168199369Y-122131331D01*
X168030890Y-122538075D01*
X167945000Y-122969872D01*
X163241082Y-122969872D01*
X163166796Y-122596413D01*
X163013393Y-122226066D01*
X162790687Y-121892763D01*
X162507237Y-121609313D01*
X162173934Y-121386607D01*
X161803587Y-121233204D01*
X161410430Y-121155000D01*
X161009570Y-121155000D01*
X160616413Y-121233204D01*
X160246066Y-121386607D01*
X159912763Y-121609313D01*
X159629313Y-121892763D01*
X159406607Y-122226066D01*
X159253204Y-122596413D01*
X159175000Y-122989570D01*
X158159680Y-122989570D01*
X158245000Y-122904250D01*
X158248072Y-121790000D01*
X158235812Y-121665518D01*
X158199502Y-121545820D01*
X158140537Y-121435506D01*
X158061185Y-121338815D01*
X157964494Y-121259463D01*
X157854180Y-121200498D01*
X157734482Y-121164188D01*
X157610000Y-121151928D01*
X156495750Y-121155000D01*
X156337000Y-121313750D01*
X156083000Y-121313750D01*
X155924250Y-121155000D01*
X154810000Y-121151928D01*
X154685518Y-121164188D01*
X154565820Y-121200498D01*
X154455506Y-121259463D01*
X154358815Y-121338815D01*
X154279463Y-121435506D01*
X154220498Y-121545820D01*
X154184188Y-121665518D01*
X154171928Y-121790000D01*
X148397924Y-121790000D01*
X148217237Y-121609313D01*
X147883934Y-121386607D01*
X147513587Y-121233204D01*
X147470413Y-121224616D01*
X150623141Y-118071889D01*
X150666449Y-118036347D01*
X150691135Y-118006267D01*
X151558008Y-118873140D01*
X151593551Y-118916449D01*
X151766377Y-119058284D01*
X151963553Y-119163676D01*
X152127705Y-119213471D01*
X152177500Y-119228577D01*
X152198493Y-119230644D01*
X152344248Y-119245000D01*
X152344255Y-119245000D01*
X152399999Y-119250490D01*
X152455743Y-119245000D01*
X174302183Y-119245000D01*
X174430986Y-119350706D01*
X174688966Y-119488599D01*
X174968889Y-119573513D01*
X175187050Y-119595000D01*
X175332950Y-119595000D01*
X175551111Y-119573513D01*
X175831034Y-119488599D01*
X176089014Y-119350706D01*
X176315134Y-119165134D01*
X176500706Y-118939014D01*
X176638599Y-118681034D01*
X176723513Y-118401111D01*
X176752185Y-118110000D01*
X176723513Y-117818889D01*
X176638599Y-117538966D01*
X176500706Y-117280986D01*
X176315134Y-117054866D01*
X176089014Y-116869294D01*
X176034209Y-116840000D01*
X176089014Y-116810706D01*
X176315134Y-116625134D01*
X176500706Y-116399014D01*
X176638599Y-116141034D01*
X176723513Y-115861111D01*
X176752185Y-115570000D01*
X176723513Y-115278889D01*
X176638599Y-114998966D01*
X176500706Y-114740986D01*
X176315134Y-114514866D01*
X176089014Y-114329294D01*
X176024477Y-114294799D01*
X176141355Y-114225178D01*
X176357588Y-114030269D01*
X176531641Y-113796920D01*
X176656825Y-113534099D01*
X176701476Y-113386890D01*
X176580155Y-113157000D01*
X175387000Y-113157000D01*
X175387000Y-113177000D01*
X175133000Y-113177000D01*
X175133000Y-113157000D01*
X173939845Y-113157000D01*
X173818524Y-113386890D01*
X173863175Y-113534099D01*
X173988359Y-113796920D01*
X174162412Y-114030269D01*
X174378645Y-114225178D01*
X174495523Y-114294799D01*
X174430986Y-114329294D01*
X174204866Y-114514866D01*
X174019294Y-114740986D01*
X173881401Y-114998966D01*
X173796487Y-115278889D01*
X173767815Y-115570000D01*
X173796487Y-115861111D01*
X173881401Y-116141034D01*
X174019294Y-116399014D01*
X174204866Y-116625134D01*
X174430986Y-116810706D01*
X174485791Y-116840000D01*
X174430986Y-116869294D01*
X174302183Y-116975000D01*
X152870132Y-116975000D01*
X152265000Y-116369869D01*
X152265000Y-114315611D01*
X152318815Y-114381185D01*
X152415506Y-114460537D01*
X152525820Y-114519502D01*
X152645518Y-114555812D01*
X152770000Y-114568072D01*
X154570000Y-114568072D01*
X154694482Y-114555812D01*
X154814180Y-114519502D01*
X154924494Y-114460537D01*
X155021185Y-114381185D01*
X155100537Y-114284494D01*
X155159502Y-114174180D01*
X155162287Y-114165000D01*
X156595716Y-114165000D01*
X156800273Y-114301680D01*
X157061426Y-114409853D01*
X157338665Y-114465000D01*
X157621335Y-114465000D01*
X157898574Y-114409853D01*
X158159727Y-114301680D01*
X158394759Y-114144637D01*
X158594637Y-113944759D01*
X158751680Y-113709727D01*
X158859853Y-113448574D01*
X158873684Y-113379039D01*
X166248096Y-113379039D01*
X166288754Y-113513087D01*
X166408963Y-113767420D01*
X166576481Y-113993414D01*
X166784869Y-114182385D01*
X167026119Y-114327070D01*
X167290960Y-114421909D01*
X167513000Y-114300624D01*
X167513000Y-113157000D01*
X167767000Y-113157000D01*
X167767000Y-114300624D01*
X167989040Y-114421909D01*
X168253881Y-114327070D01*
X168495131Y-114182385D01*
X168703519Y-113993414D01*
X168871037Y-113767420D01*
X168991246Y-113513087D01*
X169031904Y-113379039D01*
X168909915Y-113157000D01*
X167767000Y-113157000D01*
X167513000Y-113157000D01*
X166370085Y-113157000D01*
X166248096Y-113379039D01*
X158873684Y-113379039D01*
X158915000Y-113171335D01*
X158915000Y-112888665D01*
X158859853Y-112611426D01*
X158751680Y-112350273D01*
X158594637Y-112115241D01*
X158394759Y-111915363D01*
X158159727Y-111758320D01*
X157898574Y-111650147D01*
X157772153Y-111625000D01*
X167512998Y-111625000D01*
X167512998Y-111759375D01*
X167290960Y-111638091D01*
X167026119Y-111732930D01*
X166784869Y-111877615D01*
X166576481Y-112066586D01*
X166408963Y-112292580D01*
X166288754Y-112546913D01*
X166248096Y-112680961D01*
X166370085Y-112903000D01*
X167513000Y-112903000D01*
X167513000Y-112883000D01*
X167767000Y-112883000D01*
X167767000Y-112903000D01*
X168909915Y-112903000D01*
X169031904Y-112680961D01*
X168991246Y-112546913D01*
X168871037Y-112292580D01*
X168703519Y-112066586D01*
X168495131Y-111877615D01*
X168253881Y-111732930D01*
X167989040Y-111638091D01*
X167767002Y-111759375D01*
X167767002Y-111625000D01*
X174302183Y-111625000D01*
X174430986Y-111730706D01*
X174495523Y-111765201D01*
X174378645Y-111834822D01*
X174162412Y-112029731D01*
X173988359Y-112263080D01*
X173863175Y-112525901D01*
X173818524Y-112673110D01*
X173939845Y-112903000D01*
X175133000Y-112903000D01*
X175133000Y-112883000D01*
X175387000Y-112883000D01*
X175387000Y-112903000D01*
X176580155Y-112903000D01*
X176701476Y-112673110D01*
X176656825Y-112525901D01*
X176531641Y-112263080D01*
X176357588Y-112029731D01*
X176141355Y-111834822D01*
X176024477Y-111765201D01*
X176089014Y-111730706D01*
X176315134Y-111545134D01*
X176500706Y-111319014D01*
X176638599Y-111061034D01*
X176723513Y-110781111D01*
X176752185Y-110490000D01*
X176723513Y-110198889D01*
X176638599Y-109918966D01*
X176500706Y-109660986D01*
X176315134Y-109434866D01*
X176089014Y-109249294D01*
X176034209Y-109220000D01*
X176089014Y-109190706D01*
X176315134Y-109005134D01*
X176500706Y-108779014D01*
X176638599Y-108521034D01*
X176723513Y-108241111D01*
X176752185Y-107950000D01*
X176723513Y-107658889D01*
X176638599Y-107378966D01*
X176500706Y-107120986D01*
X176315134Y-106894866D01*
X176089014Y-106709294D01*
X176024477Y-106674799D01*
X176141355Y-106605178D01*
X176357588Y-106410269D01*
X176531641Y-106176920D01*
X176656825Y-105914099D01*
X176701476Y-105766890D01*
X176580155Y-105537000D01*
X175387000Y-105537000D01*
X175387000Y-105557000D01*
X175133000Y-105557000D01*
X175133000Y-105537000D01*
X173939845Y-105537000D01*
X173818524Y-105766890D01*
X173863175Y-105914099D01*
X173988359Y-106176920D01*
X174162412Y-106410269D01*
X174378645Y-106605178D01*
X174495523Y-106674799D01*
X174430986Y-106709294D01*
X174204866Y-106894866D01*
X174019294Y-107120986D01*
X173881401Y-107378966D01*
X173796487Y-107658889D01*
X173767815Y-107950000D01*
X173796487Y-108241111D01*
X173881401Y-108521034D01*
X174019294Y-108779014D01*
X174204866Y-109005134D01*
X174430986Y-109190706D01*
X174485791Y-109220000D01*
X174430986Y-109249294D01*
X174302183Y-109355000D01*
X152870132Y-109355000D01*
X152265000Y-108749869D01*
X152265000Y-106695611D01*
X152318815Y-106761185D01*
X152415506Y-106840537D01*
X152525820Y-106899502D01*
X152645518Y-106935812D01*
X152770000Y-106948072D01*
X154570000Y-106948072D01*
X154694482Y-106935812D01*
X154814180Y-106899502D01*
X154924494Y-106840537D01*
X155021185Y-106761185D01*
X155100537Y-106664494D01*
X155159502Y-106554180D01*
X155162287Y-106545000D01*
X156595716Y-106545000D01*
X156800273Y-106681680D01*
X157061426Y-106789853D01*
X157338665Y-106845000D01*
X157621335Y-106845000D01*
X157898574Y-106789853D01*
X158159727Y-106681680D01*
X158394759Y-106524637D01*
X158594637Y-106324759D01*
X158751680Y-106089727D01*
X158859853Y-105828574D01*
X158873684Y-105759039D01*
X166248096Y-105759039D01*
X166288754Y-105893087D01*
X166408963Y-106147420D01*
X166576481Y-106373414D01*
X166784869Y-106562385D01*
X167026119Y-106707070D01*
X167290960Y-106801909D01*
X167513000Y-106680624D01*
X167513000Y-105537000D01*
X167767000Y-105537000D01*
X167767000Y-106680624D01*
X167989040Y-106801909D01*
X168253881Y-106707070D01*
X168495131Y-106562385D01*
X168703519Y-106373414D01*
X168871037Y-106147420D01*
X168991246Y-105893087D01*
X169031904Y-105759039D01*
X168909915Y-105537000D01*
X167767000Y-105537000D01*
X167513000Y-105537000D01*
X166370085Y-105537000D01*
X166248096Y-105759039D01*
X158873684Y-105759039D01*
X158915000Y-105551335D01*
X158915000Y-105268665D01*
X158859853Y-104991426D01*
X158751680Y-104730273D01*
X158594637Y-104495241D01*
X158394759Y-104295363D01*
X158159727Y-104138320D01*
X157898574Y-104030147D01*
X157772153Y-104005000D01*
X167512998Y-104005000D01*
X167512998Y-104139375D01*
X167290960Y-104018091D01*
X167026119Y-104112930D01*
X166784869Y-104257615D01*
X166576481Y-104446586D01*
X166408963Y-104672580D01*
X166288754Y-104926913D01*
X166248096Y-105060961D01*
X166370085Y-105283000D01*
X167513000Y-105283000D01*
X167513000Y-105263000D01*
X167767000Y-105263000D01*
X167767000Y-105283000D01*
X168909915Y-105283000D01*
X169031904Y-105060961D01*
X168991246Y-104926913D01*
X168871037Y-104672580D01*
X168703519Y-104446586D01*
X168495131Y-104257615D01*
X168253881Y-104112930D01*
X167989040Y-104018091D01*
X167767002Y-104139375D01*
X167767002Y-104005000D01*
X174302183Y-104005000D01*
X174430986Y-104110706D01*
X174495523Y-104145201D01*
X174378645Y-104214822D01*
X174162412Y-104409731D01*
X173988359Y-104643080D01*
X173863175Y-104905901D01*
X173818524Y-105053110D01*
X173939845Y-105283000D01*
X175133000Y-105283000D01*
X175133000Y-105263000D01*
X175387000Y-105263000D01*
X175387000Y-105283000D01*
X176580155Y-105283000D01*
X176701476Y-105053110D01*
X176656825Y-104905901D01*
X176531641Y-104643080D01*
X176357588Y-104409731D01*
X176141355Y-104214822D01*
X176024477Y-104145201D01*
X176089014Y-104110706D01*
X176315134Y-103925134D01*
X176500706Y-103699014D01*
X176638599Y-103441034D01*
X176723513Y-103161111D01*
X176752185Y-102870000D01*
X176723513Y-102578889D01*
X176638599Y-102298966D01*
X176500706Y-102040986D01*
X176315134Y-101814866D01*
X176089014Y-101629294D01*
X176034209Y-101600000D01*
X176089014Y-101570706D01*
X176315134Y-101385134D01*
X176500706Y-101159014D01*
X176638599Y-100901034D01*
X176723513Y-100621111D01*
X176752185Y-100330000D01*
X176723513Y-100038889D01*
X176638599Y-99758966D01*
X176500706Y-99500986D01*
X176315134Y-99274866D01*
X176089014Y-99089294D01*
X176024477Y-99054799D01*
X176141355Y-98985178D01*
X176357588Y-98790269D01*
X176531641Y-98556920D01*
X176656825Y-98294099D01*
X176701476Y-98146890D01*
X176580155Y-97917000D01*
X175387000Y-97917000D01*
X175387000Y-97937000D01*
X175133000Y-97937000D01*
X175133000Y-97917000D01*
X173939845Y-97917000D01*
X173818524Y-98146890D01*
X173863175Y-98294099D01*
X173988359Y-98556920D01*
X174162412Y-98790269D01*
X174378645Y-98985178D01*
X174495523Y-99054799D01*
X174430986Y-99089294D01*
X174204866Y-99274866D01*
X174019294Y-99500986D01*
X173881401Y-99758966D01*
X173796487Y-100038889D01*
X173767815Y-100330000D01*
X173796487Y-100621111D01*
X173881401Y-100901034D01*
X174019294Y-101159014D01*
X174204866Y-101385134D01*
X174430986Y-101570706D01*
X174485791Y-101600000D01*
X174430986Y-101629294D01*
X174302183Y-101735000D01*
X152870132Y-101735000D01*
X152265000Y-101129869D01*
X152265000Y-99075611D01*
X152318815Y-99141185D01*
X152415506Y-99220537D01*
X152525820Y-99279502D01*
X152645518Y-99315812D01*
X152770000Y-99328072D01*
X154570000Y-99328072D01*
X154694482Y-99315812D01*
X154814180Y-99279502D01*
X154924494Y-99220537D01*
X155021185Y-99141185D01*
X155100537Y-99044494D01*
X155159502Y-98934180D01*
X155162287Y-98925000D01*
X156595716Y-98925000D01*
X156800273Y-99061680D01*
X157061426Y-99169853D01*
X157338665Y-99225000D01*
X157621335Y-99225000D01*
X157898574Y-99169853D01*
X158159727Y-99061680D01*
X158394759Y-98904637D01*
X158594637Y-98704759D01*
X158751680Y-98469727D01*
X158859853Y-98208574D01*
X158873684Y-98139039D01*
X166248096Y-98139039D01*
X166288754Y-98273087D01*
X166408963Y-98527420D01*
X166576481Y-98753414D01*
X166784869Y-98942385D01*
X167026119Y-99087070D01*
X167290960Y-99181909D01*
X167513000Y-99060624D01*
X167513000Y-97917000D01*
X167767000Y-97917000D01*
X167767000Y-99060624D01*
X167989040Y-99181909D01*
X168253881Y-99087070D01*
X168495131Y-98942385D01*
X168703519Y-98753414D01*
X168871037Y-98527420D01*
X168991246Y-98273087D01*
X169031904Y-98139039D01*
X168909915Y-97917000D01*
X167767000Y-97917000D01*
X167513000Y-97917000D01*
X166370085Y-97917000D01*
X166248096Y-98139039D01*
X158873684Y-98139039D01*
X158915000Y-97931335D01*
X158915000Y-97648665D01*
X158859853Y-97371426D01*
X158751680Y-97110273D01*
X158594637Y-96875241D01*
X158394759Y-96675363D01*
X158159727Y-96518320D01*
X157898574Y-96410147D01*
X157772153Y-96385000D01*
X167512998Y-96385000D01*
X167512998Y-96519375D01*
X167290960Y-96398091D01*
X167026119Y-96492930D01*
X166784869Y-96637615D01*
X166576481Y-96826586D01*
X166408963Y-97052580D01*
X166288754Y-97306913D01*
X166248096Y-97440961D01*
X166370085Y-97663000D01*
X167513000Y-97663000D01*
X167513000Y-97643000D01*
X167767000Y-97643000D01*
X167767000Y-97663000D01*
X168909915Y-97663000D01*
X169031904Y-97440961D01*
X168991246Y-97306913D01*
X168871037Y-97052580D01*
X168703519Y-96826586D01*
X168495131Y-96637615D01*
X168253881Y-96492930D01*
X167989040Y-96398091D01*
X167767002Y-96519375D01*
X167767002Y-96385000D01*
X174302183Y-96385000D01*
X174430986Y-96490706D01*
X174495523Y-96525201D01*
X174378645Y-96594822D01*
X174162412Y-96789731D01*
X173988359Y-97023080D01*
X173863175Y-97285901D01*
X173818524Y-97433110D01*
X173939845Y-97663000D01*
X175133000Y-97663000D01*
X175133000Y-97643000D01*
X175387000Y-97643000D01*
X175387000Y-97663000D01*
X176580155Y-97663000D01*
X176701476Y-97433110D01*
X176656825Y-97285901D01*
X176531641Y-97023080D01*
X176357588Y-96789731D01*
X176141355Y-96594822D01*
X176024477Y-96525201D01*
X176089014Y-96490706D01*
X176315134Y-96305134D01*
X176500706Y-96079014D01*
X176638599Y-95821034D01*
X176723513Y-95541111D01*
X176752185Y-95250000D01*
X176723513Y-94958889D01*
X176638599Y-94678966D01*
X176500706Y-94420986D01*
X176315134Y-94194866D01*
X176089014Y-94009294D01*
X176034209Y-93980000D01*
X176089014Y-93950706D01*
X176315134Y-93765134D01*
X176500706Y-93539014D01*
X176638599Y-93281034D01*
X176723513Y-93001111D01*
X176752185Y-92710000D01*
X176723513Y-92418889D01*
X176638599Y-92138966D01*
X176500706Y-91880986D01*
X176315134Y-91654866D01*
X176089014Y-91469294D01*
X176024477Y-91434799D01*
X176141355Y-91365178D01*
X176357588Y-91170269D01*
X176531641Y-90936920D01*
X176656825Y-90674099D01*
X176701476Y-90526890D01*
X176580155Y-90297000D01*
X175387000Y-90297000D01*
X175387000Y-90317000D01*
X175133000Y-90317000D01*
X175133000Y-90297000D01*
X173939845Y-90297000D01*
X173818524Y-90526890D01*
X173863175Y-90674099D01*
X173988359Y-90936920D01*
X174162412Y-91170269D01*
X174378645Y-91365178D01*
X174495523Y-91434799D01*
X174430986Y-91469294D01*
X174204866Y-91654866D01*
X174019294Y-91880986D01*
X173881401Y-92138966D01*
X173796487Y-92418889D01*
X173767815Y-92710000D01*
X173796487Y-93001111D01*
X173881401Y-93281034D01*
X174019294Y-93539014D01*
X174204866Y-93765134D01*
X174430986Y-93950706D01*
X174485791Y-93980000D01*
X174430986Y-94009294D01*
X174302183Y-94115000D01*
X152870132Y-94115000D01*
X152265000Y-93509869D01*
X152265000Y-91455611D01*
X152318815Y-91521185D01*
X152415506Y-91600537D01*
X152525820Y-91659502D01*
X152645518Y-91695812D01*
X152770000Y-91708072D01*
X154570000Y-91708072D01*
X154694482Y-91695812D01*
X154814180Y-91659502D01*
X154924494Y-91600537D01*
X155021185Y-91521185D01*
X155100537Y-91424494D01*
X155159502Y-91314180D01*
X155162287Y-91305000D01*
X156595716Y-91305000D01*
X156800273Y-91441680D01*
X157061426Y-91549853D01*
X157338665Y-91605000D01*
X157621335Y-91605000D01*
X157898574Y-91549853D01*
X158159727Y-91441680D01*
X158394759Y-91284637D01*
X158594637Y-91084759D01*
X158751680Y-90849727D01*
X158859853Y-90588574D01*
X158873684Y-90519039D01*
X166248096Y-90519039D01*
X166288754Y-90653087D01*
X166408963Y-90907420D01*
X166576481Y-91133414D01*
X166784869Y-91322385D01*
X167026119Y-91467070D01*
X167290960Y-91561909D01*
X167513000Y-91440624D01*
X167513000Y-90297000D01*
X167767000Y-90297000D01*
X167767000Y-91440624D01*
X167989040Y-91561909D01*
X168253881Y-91467070D01*
X168495131Y-91322385D01*
X168703519Y-91133414D01*
X168871037Y-90907420D01*
X168991246Y-90653087D01*
X169031904Y-90519039D01*
X168909915Y-90297000D01*
X167767000Y-90297000D01*
X167513000Y-90297000D01*
X166370085Y-90297000D01*
X166248096Y-90519039D01*
X158873684Y-90519039D01*
X158915000Y-90311335D01*
X158915000Y-90028665D01*
X158859853Y-89751426D01*
X158751680Y-89490273D01*
X158594637Y-89255241D01*
X158394759Y-89055363D01*
X158159727Y-88898320D01*
X157898574Y-88790147D01*
X157772153Y-88765000D01*
X167512998Y-88765000D01*
X167512998Y-88899375D01*
X167290960Y-88778091D01*
X167026119Y-88872930D01*
X166784869Y-89017615D01*
X166576481Y-89206586D01*
X166408963Y-89432580D01*
X166288754Y-89686913D01*
X166248096Y-89820961D01*
X166370085Y-90043000D01*
X167513000Y-90043000D01*
X167513000Y-90023000D01*
X167767000Y-90023000D01*
X167767000Y-90043000D01*
X168909915Y-90043000D01*
X169031904Y-89820961D01*
X168991246Y-89686913D01*
X168871037Y-89432580D01*
X168703519Y-89206586D01*
X168495131Y-89017615D01*
X168253881Y-88872930D01*
X167989040Y-88778091D01*
X167767002Y-88899375D01*
X167767002Y-88765000D01*
X174302183Y-88765000D01*
X174430986Y-88870706D01*
X174495523Y-88905201D01*
X174378645Y-88974822D01*
X174162412Y-89169731D01*
X173988359Y-89403080D01*
X173863175Y-89665901D01*
X173818524Y-89813110D01*
X173939845Y-90043000D01*
X175133000Y-90043000D01*
X175133000Y-90023000D01*
X175387000Y-90023000D01*
X175387000Y-90043000D01*
X176580155Y-90043000D01*
X176701476Y-89813110D01*
X176656825Y-89665901D01*
X176531641Y-89403080D01*
X176357588Y-89169731D01*
X176141355Y-88974822D01*
X176024477Y-88905201D01*
X176089014Y-88870706D01*
X176315134Y-88685134D01*
X176500706Y-88459014D01*
X176638599Y-88201034D01*
X176723513Y-87921111D01*
X176752185Y-87630000D01*
X176723513Y-87338889D01*
X176638599Y-87058966D01*
X176500706Y-86800986D01*
X176315134Y-86574866D01*
X176089014Y-86389294D01*
X176034209Y-86360000D01*
X176089014Y-86330706D01*
X176315134Y-86145134D01*
X176500706Y-85919014D01*
X176638599Y-85661034D01*
X176723513Y-85381111D01*
X176752185Y-85090000D01*
X176723513Y-84798889D01*
X176638599Y-84518966D01*
X176500706Y-84260986D01*
X176315134Y-84034866D01*
X176285313Y-84010393D01*
X176354180Y-83989502D01*
X176464494Y-83930537D01*
X176561185Y-83851185D01*
X176640537Y-83754494D01*
X176699502Y-83644180D01*
X176735812Y-83524482D01*
X176748072Y-83400000D01*
X176745000Y-82835750D01*
X176586250Y-82677000D01*
X175387000Y-82677000D01*
X175387000Y-82697000D01*
X175133000Y-82697000D01*
X175133000Y-82677000D01*
X173933750Y-82677000D01*
X173775000Y-82835750D01*
X173771928Y-83400000D01*
X173784188Y-83524482D01*
X173820498Y-83644180D01*
X173879463Y-83754494D01*
X173958815Y-83851185D01*
X174055506Y-83930537D01*
X174165820Y-83989502D01*
X174234687Y-84010393D01*
X174204866Y-84034866D01*
X174019294Y-84260986D01*
X173881401Y-84518966D01*
X173796487Y-84798889D01*
X173767815Y-85090000D01*
X173796487Y-85381111D01*
X173881401Y-85661034D01*
X174019294Y-85919014D01*
X174204866Y-86145134D01*
X174430986Y-86330706D01*
X174485791Y-86360000D01*
X174430986Y-86389294D01*
X174302183Y-86495000D01*
X152870132Y-86495000D01*
X152265000Y-85889869D01*
X152265000Y-83835611D01*
X152318815Y-83901185D01*
X152415506Y-83980537D01*
X152525820Y-84039502D01*
X152645518Y-84075812D01*
X152770000Y-84088072D01*
X154570000Y-84088072D01*
X154694482Y-84075812D01*
X154814180Y-84039502D01*
X154924494Y-83980537D01*
X155021185Y-83901185D01*
X155100537Y-83804494D01*
X155159502Y-83694180D01*
X155162287Y-83685000D01*
X156595716Y-83685000D01*
X156800273Y-83821680D01*
X157061426Y-83929853D01*
X157338665Y-83985000D01*
X157621335Y-83985000D01*
X157898574Y-83929853D01*
X158159727Y-83821680D01*
X158394759Y-83664637D01*
X158594637Y-83464759D01*
X158751680Y-83229727D01*
X158859853Y-82968574D01*
X158873684Y-82899039D01*
X166248096Y-82899039D01*
X166288754Y-83033087D01*
X166408963Y-83287420D01*
X166576481Y-83513414D01*
X166784869Y-83702385D01*
X167026119Y-83847070D01*
X167290960Y-83941909D01*
X167513000Y-83820624D01*
X167513000Y-82677000D01*
X167767000Y-82677000D01*
X167767000Y-83820624D01*
X167989040Y-83941909D01*
X168253881Y-83847070D01*
X168495131Y-83702385D01*
X168703519Y-83513414D01*
X168871037Y-83287420D01*
X168991246Y-83033087D01*
X169031904Y-82899039D01*
X168909915Y-82677000D01*
X167767000Y-82677000D01*
X167513000Y-82677000D01*
X166370085Y-82677000D01*
X166248096Y-82899039D01*
X158873684Y-82899039D01*
X158915000Y-82691335D01*
X158915000Y-82408665D01*
X158873685Y-82200961D01*
X166248096Y-82200961D01*
X166370085Y-82423000D01*
X167513000Y-82423000D01*
X167513000Y-81279376D01*
X167767000Y-81279376D01*
X167767000Y-82423000D01*
X168909915Y-82423000D01*
X169031904Y-82200961D01*
X168991246Y-82066913D01*
X168871037Y-81812580D01*
X168787588Y-81700000D01*
X173771928Y-81700000D01*
X173775000Y-82264250D01*
X173933750Y-82423000D01*
X175133000Y-82423000D01*
X175133000Y-81223750D01*
X175387000Y-81223750D01*
X175387000Y-82423000D01*
X176586250Y-82423000D01*
X176745000Y-82264250D01*
X176748072Y-81700000D01*
X176735812Y-81575518D01*
X176699502Y-81455820D01*
X176640537Y-81345506D01*
X176561185Y-81248815D01*
X176464494Y-81169463D01*
X176354180Y-81110498D01*
X176234482Y-81074188D01*
X176110000Y-81061928D01*
X175545750Y-81065000D01*
X175387000Y-81223750D01*
X175133000Y-81223750D01*
X174974250Y-81065000D01*
X174410000Y-81061928D01*
X174285518Y-81074188D01*
X174165820Y-81110498D01*
X174055506Y-81169463D01*
X173958815Y-81248815D01*
X173879463Y-81345506D01*
X173820498Y-81455820D01*
X173784188Y-81575518D01*
X173771928Y-81700000D01*
X168787588Y-81700000D01*
X168703519Y-81586586D01*
X168495131Y-81397615D01*
X168253881Y-81252930D01*
X167989040Y-81158091D01*
X167767000Y-81279376D01*
X167513000Y-81279376D01*
X167290960Y-81158091D01*
X167026119Y-81252930D01*
X166784869Y-81397615D01*
X166576481Y-81586586D01*
X166408963Y-81812580D01*
X166288754Y-82066913D01*
X166248096Y-82200961D01*
X158873685Y-82200961D01*
X158859853Y-82131426D01*
X158751680Y-81870273D01*
X158594637Y-81635241D01*
X158394759Y-81435363D01*
X158159727Y-81278320D01*
X157898574Y-81170147D01*
X157621335Y-81115000D01*
X157338665Y-81115000D01*
X157061426Y-81170147D01*
X156800273Y-81278320D01*
X156595716Y-81415000D01*
X155162287Y-81415000D01*
X155159502Y-81405820D01*
X155100537Y-81295506D01*
X155021185Y-81198815D01*
X154924494Y-81119463D01*
X154814180Y-81060498D01*
X154694482Y-81024188D01*
X154570000Y-81011928D01*
X152770000Y-81011928D01*
X152645518Y-81024188D01*
X152525820Y-81060498D01*
X152415506Y-81119463D01*
X152318815Y-81198815D01*
X152239463Y-81295506D01*
X152180498Y-81405820D01*
X152174944Y-81424127D01*
X152108505Y-81357688D01*
X151857095Y-81189701D01*
X151577743Y-81073989D01*
X151281184Y-81015000D01*
X150978816Y-81015000D01*
X150682257Y-81073989D01*
X150402905Y-81189701D01*
X150151495Y-81357688D01*
X149937688Y-81571495D01*
X149769701Y-81822905D01*
X149653989Y-82102257D01*
X149595000Y-82398816D01*
X149595000Y-82479867D01*
X144226830Y-87848039D01*
X144183522Y-87883581D01*
X144041687Y-88056407D01*
X144036321Y-88066447D01*
X143936294Y-88253584D01*
X143871393Y-88467532D01*
X143849479Y-88690030D01*
X143854971Y-88745792D01*
X143854970Y-114841516D01*
X142991487Y-115705000D01*
X138234531Y-115705000D01*
X138178789Y-115699510D01*
X138123047Y-115705000D01*
X138123038Y-115705000D01*
X137956291Y-115721423D01*
X137742343Y-115786324D01*
X137545167Y-115891716D01*
X137372341Y-116033551D01*
X137336801Y-116076857D01*
X135858680Y-117554979D01*
X133081622Y-117554979D01*
X133025880Y-117549489D01*
X132970138Y-117554979D01*
X132970129Y-117554979D01*
X132803382Y-117571402D01*
X132589434Y-117636303D01*
X132392258Y-117741695D01*
X132219432Y-117883530D01*
X132183892Y-117926836D01*
X131355740Y-118754989D01*
X128578682Y-118754989D01*
X128522940Y-118749499D01*
X128467198Y-118754989D01*
X128467189Y-118754989D01*
X128300442Y-118771412D01*
X128086494Y-118836313D01*
X127889318Y-118941705D01*
X127716492Y-119083540D01*
X127680952Y-119126846D01*
X126852800Y-119954999D01*
X124075753Y-119954999D01*
X124020001Y-119949508D01*
X123964249Y-119954999D01*
X123797502Y-119971422D01*
X123583554Y-120036323D01*
X123386378Y-120141715D01*
X123213552Y-120283550D01*
X123178012Y-120326856D01*
X122352940Y-121151928D01*
X120520000Y-121151928D01*
X120395518Y-121164188D01*
X120275820Y-121200498D01*
X120165506Y-121259463D01*
X120068815Y-121338815D01*
X119989463Y-121435506D01*
X119930498Y-121545820D01*
X119894188Y-121665518D01*
X119881928Y-121790000D01*
X119881928Y-123606798D01*
X119245000Y-122969871D01*
X119245000Y-107729872D01*
X122225000Y-107729872D01*
X122225000Y-108170128D01*
X122310890Y-108601925D01*
X122479369Y-109008669D01*
X122723962Y-109374729D01*
X123035271Y-109686038D01*
X123401331Y-109930631D01*
X123808075Y-110099110D01*
X124239872Y-110185000D01*
X124680128Y-110185000D01*
X125111925Y-110099110D01*
X125518669Y-109930631D01*
X125884729Y-109686038D01*
X126196038Y-109374729D01*
X126440631Y-109008669D01*
X126609110Y-108601925D01*
X126695000Y-108170128D01*
X126695000Y-107729872D01*
X126609110Y-107298075D01*
X126440631Y-106891331D01*
X126196038Y-106525271D01*
X125884729Y-106213962D01*
X125518669Y-105969369D01*
X125111925Y-105800890D01*
X124680128Y-105715000D01*
X124239872Y-105715000D01*
X123808075Y-105800890D01*
X123401331Y-105969369D01*
X123035271Y-106213962D01*
X122723962Y-106525271D01*
X122479369Y-106891331D01*
X122310890Y-107298075D01*
X122225000Y-107729872D01*
X119245000Y-107729872D01*
X119245000Y-89949872D01*
X122225000Y-89949872D01*
X122225000Y-90390128D01*
X122310890Y-90821925D01*
X122479369Y-91228669D01*
X122723962Y-91594729D01*
X123035271Y-91906038D01*
X123401331Y-92150631D01*
X123808075Y-92319110D01*
X124239872Y-92405000D01*
X124680128Y-92405000D01*
X125111925Y-92319110D01*
X125518669Y-92150631D01*
X125884729Y-91906038D01*
X126196038Y-91594729D01*
X126440631Y-91228669D01*
X126609110Y-90821925D01*
X126695000Y-90390128D01*
X126695000Y-89949872D01*
X126609110Y-89518075D01*
X126440631Y-89111331D01*
X126196038Y-88745271D01*
X125884729Y-88433962D01*
X125518669Y-88189369D01*
X125111925Y-88020890D01*
X124680128Y-87935000D01*
X124239872Y-87935000D01*
X123808075Y-88020890D01*
X123401331Y-88189369D01*
X123035271Y-88433962D01*
X122723962Y-88745271D01*
X122479369Y-89111331D01*
X122310890Y-89518075D01*
X122225000Y-89949872D01*
X119245000Y-89949872D01*
X119245000Y-84670131D01*
X121413141Y-82501991D01*
X121456449Y-82466449D01*
X121598284Y-82293623D01*
X121703676Y-82096447D01*
X121718351Y-82048072D01*
X122050000Y-82048072D01*
X122174482Y-82035812D01*
X122294180Y-81999502D01*
X122404494Y-81940537D01*
X122501185Y-81861185D01*
X122580537Y-81764494D01*
X122639502Y-81654180D01*
X122675812Y-81534482D01*
X122686058Y-81430447D01*
X124409158Y-81430447D01*
X124553135Y-81735770D01*
X124910892Y-81916597D01*
X125297053Y-82024155D01*
X125696777Y-82054310D01*
X126094704Y-82005904D01*
X126475540Y-81880795D01*
X126746865Y-81735770D01*
X126890842Y-81430447D01*
X125650000Y-80189605D01*
X124409158Y-81430447D01*
X122686058Y-81430447D01*
X122688072Y-81410000D01*
X122688072Y-80056777D01*
X123605690Y-80056777D01*
X123654096Y-80454704D01*
X123779205Y-80835540D01*
X123924230Y-81106865D01*
X124229553Y-81250842D01*
X125470395Y-80010000D01*
X125829605Y-80010000D01*
X127070447Y-81250842D01*
X127375770Y-81106865D01*
X127556597Y-80749108D01*
X127664155Y-80362947D01*
X127694310Y-79963223D01*
X127645904Y-79565296D01*
X127520795Y-79184460D01*
X127375770Y-78913135D01*
X127070447Y-78769158D01*
X125829605Y-80010000D01*
X125470395Y-80010000D01*
X124229553Y-78769158D01*
X123924230Y-78913135D01*
X123743403Y-79270892D01*
X123635845Y-79657053D01*
X123605690Y-80056777D01*
X122688072Y-80056777D01*
X122688072Y-78610000D01*
X122686059Y-78589553D01*
X124409158Y-78589553D01*
X125650000Y-79830395D01*
X126890842Y-78589553D01*
X126746865Y-78284230D01*
X126389108Y-78103403D01*
X126002947Y-77995845D01*
X125603223Y-77965690D01*
X125205296Y-78014096D01*
X124824460Y-78139205D01*
X124553135Y-78284230D01*
X124409158Y-78589553D01*
X122686059Y-78589553D01*
X122675812Y-78485518D01*
X122639502Y-78365820D01*
X122580537Y-78255506D01*
X122501185Y-78158815D01*
X122404494Y-78079463D01*
X122294180Y-78020498D01*
X122174482Y-77984188D01*
X122050000Y-77971928D01*
X119250000Y-77971928D01*
X119125518Y-77984188D01*
X119005820Y-78020498D01*
X118895506Y-78079463D01*
X118798815Y-78158815D01*
X118719463Y-78255506D01*
X118660498Y-78365820D01*
X118624188Y-78485518D01*
X118611928Y-78610000D01*
X118611928Y-81410000D01*
X118624188Y-81534482D01*
X118660498Y-81654180D01*
X118719463Y-81764494D01*
X118798815Y-81861185D01*
X118823459Y-81881410D01*
X117346865Y-83358004D01*
X117303551Y-83393551D01*
X117161716Y-83566377D01*
X117084200Y-83711401D01*
X117056324Y-83763554D01*
X116991423Y-83977502D01*
X116969509Y-84200000D01*
X113925000Y-84200000D01*
X113925000Y-81699090D01*
X114087237Y-81590687D01*
X114370687Y-81307237D01*
X114593393Y-80973934D01*
X114746796Y-80603587D01*
X114825000Y-80210430D01*
X114825000Y-79809570D01*
X114746796Y-79416413D01*
X114593393Y-79046066D01*
X114370687Y-78712763D01*
X114087237Y-78429313D01*
X113753934Y-78206607D01*
X113383587Y-78053204D01*
X112990430Y-77975000D01*
X112589570Y-77975000D01*
X112196413Y-78053204D01*
X111826066Y-78206607D01*
X111492763Y-78429313D01*
X111209313Y-78712763D01*
X110986607Y-79046066D01*
X110833204Y-79416413D01*
X110755000Y-79809570D01*
X109825000Y-79809570D01*
X109746796Y-79416413D01*
X109593393Y-79046066D01*
X109370687Y-78712763D01*
X109087237Y-78429313D01*
X108753934Y-78206607D01*
X108383587Y-78053204D01*
X107990430Y-77975000D01*
X107589570Y-77975000D01*
X107196413Y-78053204D01*
X106826066Y-78206607D01*
X106492763Y-78429313D01*
X106209313Y-78712763D01*
X105986607Y-79046066D01*
X105833204Y-79416413D01*
X105755000Y-79809570D01*
X104825000Y-79809570D01*
X104746796Y-79416413D01*
X104593393Y-79046066D01*
X104370687Y-78712763D01*
X104087237Y-78429313D01*
X103753934Y-78206607D01*
X103383587Y-78053204D01*
X102990430Y-77975000D01*
X102589570Y-77975000D01*
X102196413Y-78053204D01*
X101826066Y-78206607D01*
X101492763Y-78429313D01*
X101209313Y-78712763D01*
X100986607Y-79046066D01*
X100833204Y-79416413D01*
X100755000Y-79809570D01*
X99828072Y-79809570D01*
X99828072Y-78610000D01*
X99815812Y-78485518D01*
X99779502Y-78365820D01*
X99720537Y-78255506D01*
X99641185Y-78158815D01*
X99544494Y-78079463D01*
X99434180Y-78020498D01*
X99314482Y-77984188D01*
X99190000Y-77971928D01*
X96390000Y-77971928D01*
X96265518Y-77984188D01*
X96145820Y-78020498D01*
X96035506Y-78079463D01*
X95938815Y-78158815D01*
X95859463Y-78255506D01*
X95800498Y-78365820D01*
X95764188Y-78485518D01*
X95751928Y-78610000D01*
X94640000Y-78610000D01*
X94640000Y-77249872D01*
X167945000Y-77249872D01*
X167945000Y-77690128D01*
X168030890Y-78121925D01*
X168199369Y-78528669D01*
X168443962Y-78894729D01*
X168755271Y-79206038D01*
X169121331Y-79450631D01*
X169528075Y-79619110D01*
X169959872Y-79705000D01*
X170400128Y-79705000D01*
X170831925Y-79619110D01*
X171238669Y-79450631D01*
X171604729Y-79206038D01*
X171916038Y-78894729D01*
X172160631Y-78528669D01*
X172329110Y-78121925D01*
X172415000Y-77690128D01*
X172415000Y-77249872D01*
X172329110Y-76818075D01*
X172160631Y-76411331D01*
X171916038Y-76045271D01*
X171604729Y-75733962D01*
X171238669Y-75489369D01*
X170831925Y-75320890D01*
X170400128Y-75235000D01*
X169959872Y-75235000D01*
X169528075Y-75320890D01*
X169121331Y-75489369D01*
X168755271Y-75733962D01*
X168443962Y-76045271D01*
X168199369Y-76411331D01*
X168030890Y-76818075D01*
X167945000Y-77249872D01*
X94640000Y-77249872D01*
X94640000Y-73050000D01*
X186030001Y-73050000D01*
X186030000Y-127610000D01*
X186030000Y-127610000D01*
G37*
X186030000Y-127610000D02*
X94640000Y-127610000D01*
X94640000Y-78610000D01*
X95751928Y-78610000D01*
X95751928Y-81410000D01*
X95764188Y-81534482D01*
X95800498Y-81654180D01*
X95859463Y-81764494D01*
X95938815Y-81861185D01*
X96035506Y-81940537D01*
X96145820Y-81999502D01*
X96265518Y-82035812D01*
X96390000Y-82048072D01*
X96655001Y-82048072D01*
X96655000Y-120845751D01*
X96655001Y-120845761D01*
X96655001Y-121151928D01*
X96390000Y-121151928D01*
X96265518Y-121164188D01*
X96145820Y-121200498D01*
X96035506Y-121259463D01*
X95938815Y-121338815D01*
X95859463Y-121435506D01*
X95800498Y-121545820D01*
X95764188Y-121665518D01*
X95751928Y-121790000D01*
X95751928Y-124590000D01*
X95764188Y-124714482D01*
X95800498Y-124834180D01*
X95859463Y-124944494D01*
X95938815Y-125041185D01*
X96035506Y-125120537D01*
X96145820Y-125179502D01*
X96265518Y-125215812D01*
X96390000Y-125228072D01*
X99190000Y-125228072D01*
X99314482Y-125215812D01*
X99434180Y-125179502D01*
X99544494Y-125120537D01*
X99641185Y-125041185D01*
X99720537Y-124944494D01*
X99779502Y-124834180D01*
X99815812Y-124714482D01*
X99828072Y-124590000D01*
X99828072Y-121790000D01*
X99815812Y-121665518D01*
X99779502Y-121545820D01*
X99720537Y-121435506D01*
X99641185Y-121338815D01*
X99544494Y-121259463D01*
X99434180Y-121200498D01*
X99314482Y-121164188D01*
X99190000Y-121151928D01*
X98925000Y-121151928D01*
X98925000Y-82048072D01*
X99190000Y-82048072D01*
X99314482Y-82035812D01*
X99434180Y-81999502D01*
X99544494Y-81940537D01*
X99641185Y-81861185D01*
X99720537Y-81764494D01*
X99779502Y-81654180D01*
X99815812Y-81534482D01*
X99828072Y-81410000D01*
X99828072Y-79809570D01*
X100755000Y-79809570D01*
X100755000Y-80210430D01*
X100833204Y-80603587D01*
X100986607Y-80973934D01*
X101209313Y-81307237D01*
X101492763Y-81590687D01*
X101655001Y-81699091D01*
X101655000Y-121265853D01*
X101655001Y-121265863D01*
X101655001Y-121500909D01*
X101492763Y-121609313D01*
X101209313Y-121892763D01*
X100986607Y-122226066D01*
X100833204Y-122596413D01*
X100755000Y-122989570D01*
X100755000Y-123390430D01*
X100833204Y-123783587D01*
X100986607Y-124153934D01*
X101209313Y-124487237D01*
X101492763Y-124770687D01*
X101826066Y-124993393D01*
X102196413Y-125146796D01*
X102589570Y-125225000D01*
X102990430Y-125225000D01*
X103383587Y-125146796D01*
X103753934Y-124993393D01*
X104087237Y-124770687D01*
X104370687Y-124487237D01*
X104593393Y-124153934D01*
X104746796Y-123783587D01*
X104825000Y-123390430D01*
X104825000Y-122989570D01*
X104746796Y-122596413D01*
X104593393Y-122226066D01*
X104370687Y-121892763D01*
X104087237Y-121609313D01*
X103925000Y-121500910D01*
X103925000Y-81699090D01*
X104087237Y-81590687D01*
X104370687Y-81307237D01*
X104593393Y-80973934D01*
X104746796Y-80603587D01*
X104825000Y-80210430D01*
X104825000Y-79809570D01*
X105755000Y-79809570D01*
X105755000Y-80210430D01*
X105833204Y-80603587D01*
X105986607Y-80973934D01*
X106209313Y-81307237D01*
X106492763Y-81590687D01*
X106655001Y-81699091D01*
X106655000Y-121500910D01*
X106492763Y-121609313D01*
X106209313Y-121892763D01*
X105986607Y-122226066D01*
X105833204Y-122596413D01*
X105755000Y-122989570D01*
X105755000Y-123390430D01*
X105833204Y-123783587D01*
X105986607Y-124153934D01*
X106209313Y-124487237D01*
X106492763Y-124770687D01*
X106826066Y-124993393D01*
X107196413Y-125146796D01*
X107589570Y-125225000D01*
X107990430Y-125225000D01*
X108383587Y-125146796D01*
X108753934Y-124993393D01*
X109087237Y-124770687D01*
X109370687Y-124487237D01*
X109593393Y-124153934D01*
X109746796Y-123783587D01*
X109825000Y-123390430D01*
X109825000Y-122989570D01*
X109746796Y-122596413D01*
X109593393Y-122226066D01*
X109370687Y-121892763D01*
X109087237Y-121609313D01*
X108925000Y-121500910D01*
X108925000Y-81699090D01*
X109087237Y-81590687D01*
X109370687Y-81307237D01*
X109593393Y-80973934D01*
X109746796Y-80603587D01*
X109825000Y-80210430D01*
X109825000Y-79809570D01*
X110755000Y-79809570D01*
X110755000Y-80210430D01*
X110833204Y-80603587D01*
X110986607Y-80973934D01*
X111209313Y-81307237D01*
X111492763Y-81590687D01*
X111655000Y-81699090D01*
X111655001Y-121500909D01*
X111492763Y-121609313D01*
X111209313Y-121892763D01*
X110986607Y-122226066D01*
X110833204Y-122596413D01*
X110755000Y-122989570D01*
X110755000Y-123390430D01*
X110833204Y-123783587D01*
X110986607Y-124153934D01*
X111209313Y-124487237D01*
X111492763Y-124770687D01*
X111826066Y-124993393D01*
X112196413Y-125146796D01*
X112589570Y-125225000D01*
X112990430Y-125225000D01*
X113383587Y-125146796D01*
X113753934Y-124993393D01*
X114087237Y-124770687D01*
X114370687Y-124487237D01*
X114593393Y-124153934D01*
X114746796Y-123783587D01*
X114825000Y-123390430D01*
X114825000Y-122989570D01*
X114746796Y-122596413D01*
X114593393Y-122226066D01*
X114370687Y-121892763D01*
X114087237Y-121609313D01*
X113925000Y-121500910D01*
X113925000Y-84200000D01*
X116969509Y-84200000D01*
X116975000Y-84255752D01*
X116975001Y-91764248D01*
X116975000Y-121864248D01*
X116975000Y-123384251D01*
X116969509Y-123440002D01*
X116975000Y-123495753D01*
X116991423Y-123662500D01*
X117056324Y-123876448D01*
X117161716Y-124073625D01*
X117303551Y-124246451D01*
X117346864Y-124281997D01*
X119118012Y-126053147D01*
X119153550Y-126096450D01*
X119196853Y-126131988D01*
X119196855Y-126131990D01*
X119326376Y-126238285D01*
X119523552Y-126343677D01*
X119737500Y-126408578D01*
X119959999Y-126430492D01*
X120015751Y-126425001D01*
X144764248Y-126425001D01*
X144819999Y-126430492D01*
X144875750Y-126425001D01*
X144875751Y-126425001D01*
X145042498Y-126408578D01*
X145256446Y-126343677D01*
X145453622Y-126238285D01*
X145626448Y-126096450D01*
X145661995Y-126053136D01*
X146528198Y-125186934D01*
X146719570Y-125225000D01*
X147120430Y-125225000D01*
X147513587Y-125146796D01*
X147883934Y-124993393D01*
X148217237Y-124770687D01*
X148397924Y-124590000D01*
X154171928Y-124590000D01*
X154184188Y-124714482D01*
X154220498Y-124834180D01*
X154279463Y-124944494D01*
X154358815Y-125041185D01*
X154455506Y-125120537D01*
X154565820Y-125179502D01*
X154685518Y-125215812D01*
X154810000Y-125228072D01*
X155924250Y-125225000D01*
X156083000Y-125066250D01*
X156083000Y-123317000D01*
X156337000Y-123317000D01*
X156337000Y-125066250D01*
X156495750Y-125225000D01*
X157610000Y-125228072D01*
X157734482Y-125215812D01*
X157854180Y-125179502D01*
X157964494Y-125120537D01*
X158061185Y-125041185D01*
X158140537Y-124944494D01*
X158199502Y-124834180D01*
X158235812Y-124714482D01*
X158248072Y-124590000D01*
X158245000Y-123475750D01*
X158086250Y-123317000D01*
X156337000Y-123317000D01*
X156083000Y-123317000D01*
X154333750Y-123317000D01*
X154175000Y-123475750D01*
X154171928Y-124590000D01*
X148397924Y-124590000D01*
X148500687Y-124487237D01*
X148723393Y-124153934D01*
X148876796Y-123783587D01*
X148955000Y-123390430D01*
X148955000Y-122989570D01*
X148876796Y-122596413D01*
X148723393Y-122226066D01*
X148500687Y-121892763D01*
X148397924Y-121790000D01*
X154171928Y-121790000D01*
X154175000Y-122904250D01*
X154333750Y-123063000D01*
X156083000Y-123063000D01*
X156083000Y-121313750D01*
X156337000Y-121313750D01*
X156337000Y-123063000D01*
X158086250Y-123063000D01*
X158159680Y-122989570D01*
X159175000Y-122989570D01*
X159175000Y-123390430D01*
X159253204Y-123783587D01*
X159406607Y-124153934D01*
X159629313Y-124487237D01*
X159912763Y-124770687D01*
X160246066Y-124993393D01*
X160616413Y-125146796D01*
X161009570Y-125225000D01*
X161410430Y-125225000D01*
X161803587Y-125146796D01*
X162173934Y-124993393D01*
X162507237Y-124770687D01*
X162790687Y-124487237D01*
X163013393Y-124153934D01*
X163166796Y-123783587D01*
X163245000Y-123390430D01*
X163245000Y-122989570D01*
X163241082Y-122969872D01*
X167945000Y-122969872D01*
X167945000Y-123410128D01*
X168030890Y-123841925D01*
X168199369Y-124248669D01*
X168443962Y-124614729D01*
X168755271Y-124926038D01*
X169121331Y-125170631D01*
X169528075Y-125339110D01*
X169959872Y-125425000D01*
X170400128Y-125425000D01*
X170831925Y-125339110D01*
X171238669Y-125170631D01*
X171604729Y-124926038D01*
X171916038Y-124614729D01*
X172160631Y-124248669D01*
X172329110Y-123841925D01*
X172415000Y-123410128D01*
X172415000Y-122969872D01*
X172329110Y-122538075D01*
X172160631Y-122131331D01*
X171916038Y-121765271D01*
X171604729Y-121453962D01*
X171238669Y-121209369D01*
X170831925Y-121040890D01*
X170400128Y-120955000D01*
X169959872Y-120955000D01*
X169528075Y-121040890D01*
X169121331Y-121209369D01*
X168755271Y-121453962D01*
X168443962Y-121765271D01*
X168199369Y-122131331D01*
X168030890Y-122538075D01*
X167945000Y-122969872D01*
X163241082Y-122969872D01*
X163166796Y-122596413D01*
X163013393Y-122226066D01*
X162790687Y-121892763D01*
X162507237Y-121609313D01*
X162173934Y-121386607D01*
X161803587Y-121233204D01*
X161410430Y-121155000D01*
X161009570Y-121155000D01*
X160616413Y-121233204D01*
X160246066Y-121386607D01*
X159912763Y-121609313D01*
X159629313Y-121892763D01*
X159406607Y-122226066D01*
X159253204Y-122596413D01*
X159175000Y-122989570D01*
X158159680Y-122989570D01*
X158245000Y-122904250D01*
X158248072Y-121790000D01*
X158235812Y-121665518D01*
X158199502Y-121545820D01*
X158140537Y-121435506D01*
X158061185Y-121338815D01*
X157964494Y-121259463D01*
X157854180Y-121200498D01*
X157734482Y-121164188D01*
X157610000Y-121151928D01*
X156495750Y-121155000D01*
X156337000Y-121313750D01*
X156083000Y-121313750D01*
X155924250Y-121155000D01*
X154810000Y-121151928D01*
X154685518Y-121164188D01*
X154565820Y-121200498D01*
X154455506Y-121259463D01*
X154358815Y-121338815D01*
X154279463Y-121435506D01*
X154220498Y-121545820D01*
X154184188Y-121665518D01*
X154171928Y-121790000D01*
X148397924Y-121790000D01*
X148217237Y-121609313D01*
X147883934Y-121386607D01*
X147513587Y-121233204D01*
X147470413Y-121224616D01*
X150623141Y-118071889D01*
X150666449Y-118036347D01*
X150691135Y-118006267D01*
X151558008Y-118873140D01*
X151593551Y-118916449D01*
X151766377Y-119058284D01*
X151963553Y-119163676D01*
X152127705Y-119213471D01*
X152177500Y-119228577D01*
X152198493Y-119230644D01*
X152344248Y-119245000D01*
X152344255Y-119245000D01*
X152399999Y-119250490D01*
X152455743Y-119245000D01*
X174302183Y-119245000D01*
X174430986Y-119350706D01*
X174688966Y-119488599D01*
X174968889Y-119573513D01*
X175187050Y-119595000D01*
X175332950Y-119595000D01*
X175551111Y-119573513D01*
X175831034Y-119488599D01*
X176089014Y-119350706D01*
X176315134Y-119165134D01*
X176500706Y-118939014D01*
X176638599Y-118681034D01*
X176723513Y-118401111D01*
X176752185Y-118110000D01*
X176723513Y-117818889D01*
X176638599Y-117538966D01*
X176500706Y-117280986D01*
X176315134Y-117054866D01*
X176089014Y-116869294D01*
X176034209Y-116840000D01*
X176089014Y-116810706D01*
X176315134Y-116625134D01*
X176500706Y-116399014D01*
X176638599Y-116141034D01*
X176723513Y-115861111D01*
X176752185Y-115570000D01*
X176723513Y-115278889D01*
X176638599Y-114998966D01*
X176500706Y-114740986D01*
X176315134Y-114514866D01*
X176089014Y-114329294D01*
X176024477Y-114294799D01*
X176141355Y-114225178D01*
X176357588Y-114030269D01*
X176531641Y-113796920D01*
X176656825Y-113534099D01*
X176701476Y-113386890D01*
X176580155Y-113157000D01*
X175387000Y-113157000D01*
X175387000Y-113177000D01*
X175133000Y-113177000D01*
X175133000Y-113157000D01*
X173939845Y-113157000D01*
X173818524Y-113386890D01*
X173863175Y-113534099D01*
X173988359Y-113796920D01*
X174162412Y-114030269D01*
X174378645Y-114225178D01*
X174495523Y-114294799D01*
X174430986Y-114329294D01*
X174204866Y-114514866D01*
X174019294Y-114740986D01*
X173881401Y-114998966D01*
X173796487Y-115278889D01*
X173767815Y-115570000D01*
X173796487Y-115861111D01*
X173881401Y-116141034D01*
X174019294Y-116399014D01*
X174204866Y-116625134D01*
X174430986Y-116810706D01*
X174485791Y-116840000D01*
X174430986Y-116869294D01*
X174302183Y-116975000D01*
X152870132Y-116975000D01*
X152265000Y-116369869D01*
X152265000Y-114315611D01*
X152318815Y-114381185D01*
X152415506Y-114460537D01*
X152525820Y-114519502D01*
X152645518Y-114555812D01*
X152770000Y-114568072D01*
X154570000Y-114568072D01*
X154694482Y-114555812D01*
X154814180Y-114519502D01*
X154924494Y-114460537D01*
X155021185Y-114381185D01*
X155100537Y-114284494D01*
X155159502Y-114174180D01*
X155162287Y-114165000D01*
X156595716Y-114165000D01*
X156800273Y-114301680D01*
X157061426Y-114409853D01*
X157338665Y-114465000D01*
X157621335Y-114465000D01*
X157898574Y-114409853D01*
X158159727Y-114301680D01*
X158394759Y-114144637D01*
X158594637Y-113944759D01*
X158751680Y-113709727D01*
X158859853Y-113448574D01*
X158873684Y-113379039D01*
X166248096Y-113379039D01*
X166288754Y-113513087D01*
X166408963Y-113767420D01*
X166576481Y-113993414D01*
X166784869Y-114182385D01*
X167026119Y-114327070D01*
X167290960Y-114421909D01*
X167513000Y-114300624D01*
X167513000Y-113157000D01*
X167767000Y-113157000D01*
X167767000Y-114300624D01*
X167989040Y-114421909D01*
X168253881Y-114327070D01*
X168495131Y-114182385D01*
X168703519Y-113993414D01*
X168871037Y-113767420D01*
X168991246Y-113513087D01*
X169031904Y-113379039D01*
X168909915Y-113157000D01*
X167767000Y-113157000D01*
X167513000Y-113157000D01*
X166370085Y-113157000D01*
X166248096Y-113379039D01*
X158873684Y-113379039D01*
X158915000Y-113171335D01*
X158915000Y-112888665D01*
X158859853Y-112611426D01*
X158751680Y-112350273D01*
X158594637Y-112115241D01*
X158394759Y-111915363D01*
X158159727Y-111758320D01*
X157898574Y-111650147D01*
X157772153Y-111625000D01*
X167512998Y-111625000D01*
X167512998Y-111759375D01*
X167290960Y-111638091D01*
X167026119Y-111732930D01*
X166784869Y-111877615D01*
X166576481Y-112066586D01*
X166408963Y-112292580D01*
X166288754Y-112546913D01*
X166248096Y-112680961D01*
X166370085Y-112903000D01*
X167513000Y-112903000D01*
X167513000Y-112883000D01*
X167767000Y-112883000D01*
X167767000Y-112903000D01*
X168909915Y-112903000D01*
X169031904Y-112680961D01*
X168991246Y-112546913D01*
X168871037Y-112292580D01*
X168703519Y-112066586D01*
X168495131Y-111877615D01*
X168253881Y-111732930D01*
X167989040Y-111638091D01*
X167767002Y-111759375D01*
X167767002Y-111625000D01*
X174302183Y-111625000D01*
X174430986Y-111730706D01*
X174495523Y-111765201D01*
X174378645Y-111834822D01*
X174162412Y-112029731D01*
X173988359Y-112263080D01*
X173863175Y-112525901D01*
X173818524Y-112673110D01*
X173939845Y-112903000D01*
X175133000Y-112903000D01*
X175133000Y-112883000D01*
X175387000Y-112883000D01*
X175387000Y-112903000D01*
X176580155Y-112903000D01*
X176701476Y-112673110D01*
X176656825Y-112525901D01*
X176531641Y-112263080D01*
X176357588Y-112029731D01*
X176141355Y-111834822D01*
X176024477Y-111765201D01*
X176089014Y-111730706D01*
X176315134Y-111545134D01*
X176500706Y-111319014D01*
X176638599Y-111061034D01*
X176723513Y-110781111D01*
X176752185Y-110490000D01*
X176723513Y-110198889D01*
X176638599Y-109918966D01*
X176500706Y-109660986D01*
X176315134Y-109434866D01*
X176089014Y-109249294D01*
X176034209Y-109220000D01*
X176089014Y-109190706D01*
X176315134Y-109005134D01*
X176500706Y-108779014D01*
X176638599Y-108521034D01*
X176723513Y-108241111D01*
X176752185Y-107950000D01*
X176723513Y-107658889D01*
X176638599Y-107378966D01*
X176500706Y-107120986D01*
X176315134Y-106894866D01*
X176089014Y-106709294D01*
X176024477Y-106674799D01*
X176141355Y-106605178D01*
X176357588Y-106410269D01*
X176531641Y-106176920D01*
X176656825Y-105914099D01*
X176701476Y-105766890D01*
X176580155Y-105537000D01*
X175387000Y-105537000D01*
X175387000Y-105557000D01*
X175133000Y-105557000D01*
X175133000Y-105537000D01*
X173939845Y-105537000D01*
X173818524Y-105766890D01*
X173863175Y-105914099D01*
X173988359Y-106176920D01*
X174162412Y-106410269D01*
X174378645Y-106605178D01*
X174495523Y-106674799D01*
X174430986Y-106709294D01*
X174204866Y-106894866D01*
X174019294Y-107120986D01*
X173881401Y-107378966D01*
X173796487Y-107658889D01*
X173767815Y-107950000D01*
X173796487Y-108241111D01*
X173881401Y-108521034D01*
X174019294Y-108779014D01*
X174204866Y-109005134D01*
X174430986Y-109190706D01*
X174485791Y-109220000D01*
X174430986Y-109249294D01*
X174302183Y-109355000D01*
X152870132Y-109355000D01*
X152265000Y-108749869D01*
X152265000Y-106695611D01*
X152318815Y-106761185D01*
X152415506Y-106840537D01*
X152525820Y-106899502D01*
X152645518Y-106935812D01*
X152770000Y-106948072D01*
X154570000Y-106948072D01*
X154694482Y-106935812D01*
X154814180Y-106899502D01*
X154924494Y-106840537D01*
X155021185Y-106761185D01*
X155100537Y-106664494D01*
X155159502Y-106554180D01*
X155162287Y-106545000D01*
X156595716Y-106545000D01*
X156800273Y-106681680D01*
X157061426Y-106789853D01*
X157338665Y-106845000D01*
X157621335Y-106845000D01*
X157898574Y-106789853D01*
X158159727Y-106681680D01*
X158394759Y-106524637D01*
X158594637Y-106324759D01*
X158751680Y-106089727D01*
X158859853Y-105828574D01*
X158873684Y-105759039D01*
X166248096Y-105759039D01*
X166288754Y-105893087D01*
X166408963Y-106147420D01*
X166576481Y-106373414D01*
X166784869Y-106562385D01*
X167026119Y-106707070D01*
X167290960Y-106801909D01*
X167513000Y-106680624D01*
X167513000Y-105537000D01*
X167767000Y-105537000D01*
X167767000Y-106680624D01*
X167989040Y-106801909D01*
X168253881Y-106707070D01*
X168495131Y-106562385D01*
X168703519Y-106373414D01*
X168871037Y-106147420D01*
X168991246Y-105893087D01*
X169031904Y-105759039D01*
X168909915Y-105537000D01*
X167767000Y-105537000D01*
X167513000Y-105537000D01*
X166370085Y-105537000D01*
X166248096Y-105759039D01*
X158873684Y-105759039D01*
X158915000Y-105551335D01*
X158915000Y-105268665D01*
X158859853Y-104991426D01*
X158751680Y-104730273D01*
X158594637Y-104495241D01*
X158394759Y-104295363D01*
X158159727Y-104138320D01*
X157898574Y-104030147D01*
X157772153Y-104005000D01*
X167512998Y-104005000D01*
X167512998Y-104139375D01*
X167290960Y-104018091D01*
X167026119Y-104112930D01*
X166784869Y-104257615D01*
X166576481Y-104446586D01*
X166408963Y-104672580D01*
X166288754Y-104926913D01*
X166248096Y-105060961D01*
X166370085Y-105283000D01*
X167513000Y-105283000D01*
X167513000Y-105263000D01*
X167767000Y-105263000D01*
X167767000Y-105283000D01*
X168909915Y-105283000D01*
X169031904Y-105060961D01*
X168991246Y-104926913D01*
X168871037Y-104672580D01*
X168703519Y-104446586D01*
X168495131Y-104257615D01*
X168253881Y-104112930D01*
X167989040Y-104018091D01*
X167767002Y-104139375D01*
X167767002Y-104005000D01*
X174302183Y-104005000D01*
X174430986Y-104110706D01*
X174495523Y-104145201D01*
X174378645Y-104214822D01*
X174162412Y-104409731D01*
X173988359Y-104643080D01*
X173863175Y-104905901D01*
X173818524Y-105053110D01*
X173939845Y-105283000D01*
X175133000Y-105283000D01*
X175133000Y-105263000D01*
X175387000Y-105263000D01*
X175387000Y-105283000D01*
X176580155Y-105283000D01*
X176701476Y-105053110D01*
X176656825Y-104905901D01*
X176531641Y-104643080D01*
X176357588Y-104409731D01*
X176141355Y-104214822D01*
X176024477Y-104145201D01*
X176089014Y-104110706D01*
X176315134Y-103925134D01*
X176500706Y-103699014D01*
X176638599Y-103441034D01*
X176723513Y-103161111D01*
X176752185Y-102870000D01*
X176723513Y-102578889D01*
X176638599Y-102298966D01*
X176500706Y-102040986D01*
X176315134Y-101814866D01*
X176089014Y-101629294D01*
X176034209Y-101600000D01*
X176089014Y-101570706D01*
X176315134Y-101385134D01*
X176500706Y-101159014D01*
X176638599Y-100901034D01*
X176723513Y-100621111D01*
X176752185Y-100330000D01*
X176723513Y-100038889D01*
X176638599Y-99758966D01*
X176500706Y-99500986D01*
X176315134Y-99274866D01*
X176089014Y-99089294D01*
X176024477Y-99054799D01*
X176141355Y-98985178D01*
X176357588Y-98790269D01*
X176531641Y-98556920D01*
X176656825Y-98294099D01*
X176701476Y-98146890D01*
X176580155Y-97917000D01*
X175387000Y-97917000D01*
X175387000Y-97937000D01*
X175133000Y-97937000D01*
X175133000Y-97917000D01*
X173939845Y-97917000D01*
X173818524Y-98146890D01*
X173863175Y-98294099D01*
X173988359Y-98556920D01*
X174162412Y-98790269D01*
X174378645Y-98985178D01*
X174495523Y-99054799D01*
X174430986Y-99089294D01*
X174204866Y-99274866D01*
X174019294Y-99500986D01*
X173881401Y-99758966D01*
X173796487Y-100038889D01*
X173767815Y-100330000D01*
X173796487Y-100621111D01*
X173881401Y-100901034D01*
X174019294Y-101159014D01*
X174204866Y-101385134D01*
X174430986Y-101570706D01*
X174485791Y-101600000D01*
X174430986Y-101629294D01*
X174302183Y-101735000D01*
X152870132Y-101735000D01*
X152265000Y-101129869D01*
X152265000Y-99075611D01*
X152318815Y-99141185D01*
X152415506Y-99220537D01*
X152525820Y-99279502D01*
X152645518Y-99315812D01*
X152770000Y-99328072D01*
X154570000Y-99328072D01*
X154694482Y-99315812D01*
X154814180Y-99279502D01*
X154924494Y-99220537D01*
X155021185Y-99141185D01*
X155100537Y-99044494D01*
X155159502Y-98934180D01*
X155162287Y-98925000D01*
X156595716Y-98925000D01*
X156800273Y-99061680D01*
X157061426Y-99169853D01*
X157338665Y-99225000D01*
X157621335Y-99225000D01*
X157898574Y-99169853D01*
X158159727Y-99061680D01*
X158394759Y-98904637D01*
X158594637Y-98704759D01*
X158751680Y-98469727D01*
X158859853Y-98208574D01*
X158873684Y-98139039D01*
X166248096Y-98139039D01*
X166288754Y-98273087D01*
X166408963Y-98527420D01*
X166576481Y-98753414D01*
X166784869Y-98942385D01*
X167026119Y-99087070D01*
X167290960Y-99181909D01*
X167513000Y-99060624D01*
X167513000Y-97917000D01*
X167767000Y-97917000D01*
X167767000Y-99060624D01*
X167989040Y-99181909D01*
X168253881Y-99087070D01*
X168495131Y-98942385D01*
X168703519Y-98753414D01*
X168871037Y-98527420D01*
X168991246Y-98273087D01*
X169031904Y-98139039D01*
X168909915Y-97917000D01*
X167767000Y-97917000D01*
X167513000Y-97917000D01*
X166370085Y-97917000D01*
X166248096Y-98139039D01*
X158873684Y-98139039D01*
X158915000Y-97931335D01*
X158915000Y-97648665D01*
X158859853Y-97371426D01*
X158751680Y-97110273D01*
X158594637Y-96875241D01*
X158394759Y-96675363D01*
X158159727Y-96518320D01*
X157898574Y-96410147D01*
X157772153Y-96385000D01*
X167512998Y-96385000D01*
X167512998Y-96519375D01*
X167290960Y-96398091D01*
X167026119Y-96492930D01*
X166784869Y-96637615D01*
X166576481Y-96826586D01*
X166408963Y-97052580D01*
X166288754Y-97306913D01*
X166248096Y-97440961D01*
X166370085Y-97663000D01*
X167513000Y-97663000D01*
X167513000Y-97643000D01*
X167767000Y-97643000D01*
X167767000Y-97663000D01*
X168909915Y-97663000D01*
X169031904Y-97440961D01*
X168991246Y-97306913D01*
X168871037Y-97052580D01*
X168703519Y-96826586D01*
X168495131Y-96637615D01*
X168253881Y-96492930D01*
X167989040Y-96398091D01*
X167767002Y-96519375D01*
X167767002Y-96385000D01*
X174302183Y-96385000D01*
X174430986Y-96490706D01*
X174495523Y-96525201D01*
X174378645Y-96594822D01*
X174162412Y-96789731D01*
X173988359Y-97023080D01*
X173863175Y-97285901D01*
X173818524Y-97433110D01*
X173939845Y-97663000D01*
X175133000Y-97663000D01*
X175133000Y-97643000D01*
X175387000Y-97643000D01*
X175387000Y-97663000D01*
X176580155Y-97663000D01*
X176701476Y-97433110D01*
X176656825Y-97285901D01*
X176531641Y-97023080D01*
X176357588Y-96789731D01*
X176141355Y-96594822D01*
X176024477Y-96525201D01*
X176089014Y-96490706D01*
X176315134Y-96305134D01*
X176500706Y-96079014D01*
X176638599Y-95821034D01*
X176723513Y-95541111D01*
X176752185Y-95250000D01*
X176723513Y-94958889D01*
X176638599Y-94678966D01*
X176500706Y-94420986D01*
X176315134Y-94194866D01*
X176089014Y-94009294D01*
X176034209Y-93980000D01*
X176089014Y-93950706D01*
X176315134Y-93765134D01*
X176500706Y-93539014D01*
X176638599Y-93281034D01*
X176723513Y-93001111D01*
X176752185Y-92710000D01*
X176723513Y-92418889D01*
X176638599Y-92138966D01*
X176500706Y-91880986D01*
X176315134Y-91654866D01*
X176089014Y-91469294D01*
X176024477Y-91434799D01*
X176141355Y-91365178D01*
X176357588Y-91170269D01*
X176531641Y-90936920D01*
X176656825Y-90674099D01*
X176701476Y-90526890D01*
X176580155Y-90297000D01*
X175387000Y-90297000D01*
X175387000Y-90317000D01*
X175133000Y-90317000D01*
X175133000Y-90297000D01*
X173939845Y-90297000D01*
X173818524Y-90526890D01*
X173863175Y-90674099D01*
X173988359Y-90936920D01*
X174162412Y-91170269D01*
X174378645Y-91365178D01*
X174495523Y-91434799D01*
X174430986Y-91469294D01*
X174204866Y-91654866D01*
X174019294Y-91880986D01*
X173881401Y-92138966D01*
X173796487Y-92418889D01*
X173767815Y-92710000D01*
X173796487Y-93001111D01*
X173881401Y-93281034D01*
X174019294Y-93539014D01*
X174204866Y-93765134D01*
X174430986Y-93950706D01*
X174485791Y-93980000D01*
X174430986Y-94009294D01*
X174302183Y-94115000D01*
X152870132Y-94115000D01*
X152265000Y-93509869D01*
X152265000Y-91455611D01*
X152318815Y-91521185D01*
X152415506Y-91600537D01*
X152525820Y-91659502D01*
X152645518Y-91695812D01*
X152770000Y-91708072D01*
X154570000Y-91708072D01*
X154694482Y-91695812D01*
X154814180Y-91659502D01*
X154924494Y-91600537D01*
X155021185Y-91521185D01*
X155100537Y-91424494D01*
X155159502Y-91314180D01*
X155162287Y-91305000D01*
X156595716Y-91305000D01*
X156800273Y-91441680D01*
X157061426Y-91549853D01*
X157338665Y-91605000D01*
X157621335Y-91605000D01*
X157898574Y-91549853D01*
X158159727Y-91441680D01*
X158394759Y-91284637D01*
X158594637Y-91084759D01*
X158751680Y-90849727D01*
X158859853Y-90588574D01*
X158873684Y-90519039D01*
X166248096Y-90519039D01*
X166288754Y-90653087D01*
X166408963Y-90907420D01*
X166576481Y-91133414D01*
X166784869Y-91322385D01*
X167026119Y-91467070D01*
X167290960Y-91561909D01*
X167513000Y-91440624D01*
X167513000Y-90297000D01*
X167767000Y-90297000D01*
X167767000Y-91440624D01*
X167989040Y-91561909D01*
X168253881Y-91467070D01*
X168495131Y-91322385D01*
X168703519Y-91133414D01*
X168871037Y-90907420D01*
X168991246Y-90653087D01*
X169031904Y-90519039D01*
X168909915Y-90297000D01*
X167767000Y-90297000D01*
X167513000Y-90297000D01*
X166370085Y-90297000D01*
X166248096Y-90519039D01*
X158873684Y-90519039D01*
X158915000Y-90311335D01*
X158915000Y-90028665D01*
X158859853Y-89751426D01*
X158751680Y-89490273D01*
X158594637Y-89255241D01*
X158394759Y-89055363D01*
X158159727Y-88898320D01*
X157898574Y-88790147D01*
X157772153Y-88765000D01*
X167512998Y-88765000D01*
X167512998Y-88899375D01*
X167290960Y-88778091D01*
X167026119Y-88872930D01*
X166784869Y-89017615D01*
X166576481Y-89206586D01*
X166408963Y-89432580D01*
X166288754Y-89686913D01*
X166248096Y-89820961D01*
X166370085Y-90043000D01*
X167513000Y-90043000D01*
X167513000Y-90023000D01*
X167767000Y-90023000D01*
X167767000Y-90043000D01*
X168909915Y-90043000D01*
X169031904Y-89820961D01*
X168991246Y-89686913D01*
X168871037Y-89432580D01*
X168703519Y-89206586D01*
X168495131Y-89017615D01*
X168253881Y-88872930D01*
X167989040Y-88778091D01*
X167767002Y-88899375D01*
X167767002Y-88765000D01*
X174302183Y-88765000D01*
X174430986Y-88870706D01*
X174495523Y-88905201D01*
X174378645Y-88974822D01*
X174162412Y-89169731D01*
X173988359Y-89403080D01*
X173863175Y-89665901D01*
X173818524Y-89813110D01*
X173939845Y-90043000D01*
X175133000Y-90043000D01*
X175133000Y-90023000D01*
X175387000Y-90023000D01*
X175387000Y-90043000D01*
X176580155Y-90043000D01*
X176701476Y-89813110D01*
X176656825Y-89665901D01*
X176531641Y-89403080D01*
X176357588Y-89169731D01*
X176141355Y-88974822D01*
X176024477Y-88905201D01*
X176089014Y-88870706D01*
X176315134Y-88685134D01*
X176500706Y-88459014D01*
X176638599Y-88201034D01*
X176723513Y-87921111D01*
X176752185Y-87630000D01*
X176723513Y-87338889D01*
X176638599Y-87058966D01*
X176500706Y-86800986D01*
X176315134Y-86574866D01*
X176089014Y-86389294D01*
X176034209Y-86360000D01*
X176089014Y-86330706D01*
X176315134Y-86145134D01*
X176500706Y-85919014D01*
X176638599Y-85661034D01*
X176723513Y-85381111D01*
X176752185Y-85090000D01*
X176723513Y-84798889D01*
X176638599Y-84518966D01*
X176500706Y-84260986D01*
X176315134Y-84034866D01*
X176285313Y-84010393D01*
X176354180Y-83989502D01*
X176464494Y-83930537D01*
X176561185Y-83851185D01*
X176640537Y-83754494D01*
X176699502Y-83644180D01*
X176735812Y-83524482D01*
X176748072Y-83400000D01*
X176745000Y-82835750D01*
X176586250Y-82677000D01*
X175387000Y-82677000D01*
X175387000Y-82697000D01*
X175133000Y-82697000D01*
X175133000Y-82677000D01*
X173933750Y-82677000D01*
X173775000Y-82835750D01*
X173771928Y-83400000D01*
X173784188Y-83524482D01*
X173820498Y-83644180D01*
X173879463Y-83754494D01*
X173958815Y-83851185D01*
X174055506Y-83930537D01*
X174165820Y-83989502D01*
X174234687Y-84010393D01*
X174204866Y-84034866D01*
X174019294Y-84260986D01*
X173881401Y-84518966D01*
X173796487Y-84798889D01*
X173767815Y-85090000D01*
X173796487Y-85381111D01*
X173881401Y-85661034D01*
X174019294Y-85919014D01*
X174204866Y-86145134D01*
X174430986Y-86330706D01*
X174485791Y-86360000D01*
X174430986Y-86389294D01*
X174302183Y-86495000D01*
X152870132Y-86495000D01*
X152265000Y-85889869D01*
X152265000Y-83835611D01*
X152318815Y-83901185D01*
X152415506Y-83980537D01*
X152525820Y-84039502D01*
X152645518Y-84075812D01*
X152770000Y-84088072D01*
X154570000Y-84088072D01*
X154694482Y-84075812D01*
X154814180Y-84039502D01*
X154924494Y-83980537D01*
X155021185Y-83901185D01*
X155100537Y-83804494D01*
X155159502Y-83694180D01*
X155162287Y-83685000D01*
X156595716Y-83685000D01*
X156800273Y-83821680D01*
X157061426Y-83929853D01*
X157338665Y-83985000D01*
X157621335Y-83985000D01*
X157898574Y-83929853D01*
X158159727Y-83821680D01*
X158394759Y-83664637D01*
X158594637Y-83464759D01*
X158751680Y-83229727D01*
X158859853Y-82968574D01*
X158873684Y-82899039D01*
X166248096Y-82899039D01*
X166288754Y-83033087D01*
X166408963Y-83287420D01*
X166576481Y-83513414D01*
X166784869Y-83702385D01*
X167026119Y-83847070D01*
X167290960Y-83941909D01*
X167513000Y-83820624D01*
X167513000Y-82677000D01*
X167767000Y-82677000D01*
X167767000Y-83820624D01*
X167989040Y-83941909D01*
X168253881Y-83847070D01*
X168495131Y-83702385D01*
X168703519Y-83513414D01*
X168871037Y-83287420D01*
X168991246Y-83033087D01*
X169031904Y-82899039D01*
X168909915Y-82677000D01*
X167767000Y-82677000D01*
X167513000Y-82677000D01*
X166370085Y-82677000D01*
X166248096Y-82899039D01*
X158873684Y-82899039D01*
X158915000Y-82691335D01*
X158915000Y-82408665D01*
X158873685Y-82200961D01*
X166248096Y-82200961D01*
X166370085Y-82423000D01*
X167513000Y-82423000D01*
X167513000Y-81279376D01*
X167767000Y-81279376D01*
X167767000Y-82423000D01*
X168909915Y-82423000D01*
X169031904Y-82200961D01*
X168991246Y-82066913D01*
X168871037Y-81812580D01*
X168787588Y-81700000D01*
X173771928Y-81700000D01*
X173775000Y-82264250D01*
X173933750Y-82423000D01*
X175133000Y-82423000D01*
X175133000Y-81223750D01*
X175387000Y-81223750D01*
X175387000Y-82423000D01*
X176586250Y-82423000D01*
X176745000Y-82264250D01*
X176748072Y-81700000D01*
X176735812Y-81575518D01*
X176699502Y-81455820D01*
X176640537Y-81345506D01*
X176561185Y-81248815D01*
X176464494Y-81169463D01*
X176354180Y-81110498D01*
X176234482Y-81074188D01*
X176110000Y-81061928D01*
X175545750Y-81065000D01*
X175387000Y-81223750D01*
X175133000Y-81223750D01*
X174974250Y-81065000D01*
X174410000Y-81061928D01*
X174285518Y-81074188D01*
X174165820Y-81110498D01*
X174055506Y-81169463D01*
X173958815Y-81248815D01*
X173879463Y-81345506D01*
X173820498Y-81455820D01*
X173784188Y-81575518D01*
X173771928Y-81700000D01*
X168787588Y-81700000D01*
X168703519Y-81586586D01*
X168495131Y-81397615D01*
X168253881Y-81252930D01*
X167989040Y-81158091D01*
X167767000Y-81279376D01*
X167513000Y-81279376D01*
X167290960Y-81158091D01*
X167026119Y-81252930D01*
X166784869Y-81397615D01*
X166576481Y-81586586D01*
X166408963Y-81812580D01*
X166288754Y-82066913D01*
X166248096Y-82200961D01*
X158873685Y-82200961D01*
X158859853Y-82131426D01*
X158751680Y-81870273D01*
X158594637Y-81635241D01*
X158394759Y-81435363D01*
X158159727Y-81278320D01*
X157898574Y-81170147D01*
X157621335Y-81115000D01*
X157338665Y-81115000D01*
X157061426Y-81170147D01*
X156800273Y-81278320D01*
X156595716Y-81415000D01*
X155162287Y-81415000D01*
X155159502Y-81405820D01*
X155100537Y-81295506D01*
X155021185Y-81198815D01*
X154924494Y-81119463D01*
X154814180Y-81060498D01*
X154694482Y-81024188D01*
X154570000Y-81011928D01*
X152770000Y-81011928D01*
X152645518Y-81024188D01*
X152525820Y-81060498D01*
X152415506Y-81119463D01*
X152318815Y-81198815D01*
X152239463Y-81295506D01*
X152180498Y-81405820D01*
X152174944Y-81424127D01*
X152108505Y-81357688D01*
X151857095Y-81189701D01*
X151577743Y-81073989D01*
X151281184Y-81015000D01*
X150978816Y-81015000D01*
X150682257Y-81073989D01*
X150402905Y-81189701D01*
X150151495Y-81357688D01*
X149937688Y-81571495D01*
X149769701Y-81822905D01*
X149653989Y-82102257D01*
X149595000Y-82398816D01*
X149595000Y-82479867D01*
X144226830Y-87848039D01*
X144183522Y-87883581D01*
X144041687Y-88056407D01*
X144036321Y-88066447D01*
X143936294Y-88253584D01*
X143871393Y-88467532D01*
X143849479Y-88690030D01*
X143854971Y-88745792D01*
X143854970Y-114841516D01*
X142991487Y-115705000D01*
X138234531Y-115705000D01*
X138178789Y-115699510D01*
X138123047Y-115705000D01*
X138123038Y-115705000D01*
X137956291Y-115721423D01*
X137742343Y-115786324D01*
X137545167Y-115891716D01*
X137372341Y-116033551D01*
X137336801Y-116076857D01*
X135858680Y-117554979D01*
X133081622Y-117554979D01*
X133025880Y-117549489D01*
X132970138Y-117554979D01*
X132970129Y-117554979D01*
X132803382Y-117571402D01*
X132589434Y-117636303D01*
X132392258Y-117741695D01*
X132219432Y-117883530D01*
X132183892Y-117926836D01*
X131355740Y-118754989D01*
X128578682Y-118754989D01*
X128522940Y-118749499D01*
X128467198Y-118754989D01*
X128467189Y-118754989D01*
X128300442Y-118771412D01*
X128086494Y-118836313D01*
X127889318Y-118941705D01*
X127716492Y-119083540D01*
X127680952Y-119126846D01*
X126852800Y-119954999D01*
X124075753Y-119954999D01*
X124020001Y-119949508D01*
X123964249Y-119954999D01*
X123797502Y-119971422D01*
X123583554Y-120036323D01*
X123386378Y-120141715D01*
X123213552Y-120283550D01*
X123178012Y-120326856D01*
X122352940Y-121151928D01*
X120520000Y-121151928D01*
X120395518Y-121164188D01*
X120275820Y-121200498D01*
X120165506Y-121259463D01*
X120068815Y-121338815D01*
X119989463Y-121435506D01*
X119930498Y-121545820D01*
X119894188Y-121665518D01*
X119881928Y-121790000D01*
X119881928Y-123606798D01*
X119245000Y-122969871D01*
X119245000Y-107729872D01*
X122225000Y-107729872D01*
X122225000Y-108170128D01*
X122310890Y-108601925D01*
X122479369Y-109008669D01*
X122723962Y-109374729D01*
X123035271Y-109686038D01*
X123401331Y-109930631D01*
X123808075Y-110099110D01*
X124239872Y-110185000D01*
X124680128Y-110185000D01*
X125111925Y-110099110D01*
X125518669Y-109930631D01*
X125884729Y-109686038D01*
X126196038Y-109374729D01*
X126440631Y-109008669D01*
X126609110Y-108601925D01*
X126695000Y-108170128D01*
X126695000Y-107729872D01*
X126609110Y-107298075D01*
X126440631Y-106891331D01*
X126196038Y-106525271D01*
X125884729Y-106213962D01*
X125518669Y-105969369D01*
X125111925Y-105800890D01*
X124680128Y-105715000D01*
X124239872Y-105715000D01*
X123808075Y-105800890D01*
X123401331Y-105969369D01*
X123035271Y-106213962D01*
X122723962Y-106525271D01*
X122479369Y-106891331D01*
X122310890Y-107298075D01*
X122225000Y-107729872D01*
X119245000Y-107729872D01*
X119245000Y-89949872D01*
X122225000Y-89949872D01*
X122225000Y-90390128D01*
X122310890Y-90821925D01*
X122479369Y-91228669D01*
X122723962Y-91594729D01*
X123035271Y-91906038D01*
X123401331Y-92150631D01*
X123808075Y-92319110D01*
X124239872Y-92405000D01*
X124680128Y-92405000D01*
X125111925Y-92319110D01*
X125518669Y-92150631D01*
X125884729Y-91906038D01*
X126196038Y-91594729D01*
X126440631Y-91228669D01*
X126609110Y-90821925D01*
X126695000Y-90390128D01*
X126695000Y-89949872D01*
X126609110Y-89518075D01*
X126440631Y-89111331D01*
X126196038Y-88745271D01*
X125884729Y-88433962D01*
X125518669Y-88189369D01*
X125111925Y-88020890D01*
X124680128Y-87935000D01*
X124239872Y-87935000D01*
X123808075Y-88020890D01*
X123401331Y-88189369D01*
X123035271Y-88433962D01*
X122723962Y-88745271D01*
X122479369Y-89111331D01*
X122310890Y-89518075D01*
X122225000Y-89949872D01*
X119245000Y-89949872D01*
X119245000Y-84670131D01*
X121413141Y-82501991D01*
X121456449Y-82466449D01*
X121598284Y-82293623D01*
X121703676Y-82096447D01*
X121718351Y-82048072D01*
X122050000Y-82048072D01*
X122174482Y-82035812D01*
X122294180Y-81999502D01*
X122404494Y-81940537D01*
X122501185Y-81861185D01*
X122580537Y-81764494D01*
X122639502Y-81654180D01*
X122675812Y-81534482D01*
X122686058Y-81430447D01*
X124409158Y-81430447D01*
X124553135Y-81735770D01*
X124910892Y-81916597D01*
X125297053Y-82024155D01*
X125696777Y-82054310D01*
X126094704Y-82005904D01*
X126475540Y-81880795D01*
X126746865Y-81735770D01*
X126890842Y-81430447D01*
X125650000Y-80189605D01*
X124409158Y-81430447D01*
X122686058Y-81430447D01*
X122688072Y-81410000D01*
X122688072Y-80056777D01*
X123605690Y-80056777D01*
X123654096Y-80454704D01*
X123779205Y-80835540D01*
X123924230Y-81106865D01*
X124229553Y-81250842D01*
X125470395Y-80010000D01*
X125829605Y-80010000D01*
X127070447Y-81250842D01*
X127375770Y-81106865D01*
X127556597Y-80749108D01*
X127664155Y-80362947D01*
X127694310Y-79963223D01*
X127645904Y-79565296D01*
X127520795Y-79184460D01*
X127375770Y-78913135D01*
X127070447Y-78769158D01*
X125829605Y-80010000D01*
X125470395Y-80010000D01*
X124229553Y-78769158D01*
X123924230Y-78913135D01*
X123743403Y-79270892D01*
X123635845Y-79657053D01*
X123605690Y-80056777D01*
X122688072Y-80056777D01*
X122688072Y-78610000D01*
X122686059Y-78589553D01*
X124409158Y-78589553D01*
X125650000Y-79830395D01*
X126890842Y-78589553D01*
X126746865Y-78284230D01*
X126389108Y-78103403D01*
X126002947Y-77995845D01*
X125603223Y-77965690D01*
X125205296Y-78014096D01*
X124824460Y-78139205D01*
X124553135Y-78284230D01*
X124409158Y-78589553D01*
X122686059Y-78589553D01*
X122675812Y-78485518D01*
X122639502Y-78365820D01*
X122580537Y-78255506D01*
X122501185Y-78158815D01*
X122404494Y-78079463D01*
X122294180Y-78020498D01*
X122174482Y-77984188D01*
X122050000Y-77971928D01*
X119250000Y-77971928D01*
X119125518Y-77984188D01*
X119005820Y-78020498D01*
X118895506Y-78079463D01*
X118798815Y-78158815D01*
X118719463Y-78255506D01*
X118660498Y-78365820D01*
X118624188Y-78485518D01*
X118611928Y-78610000D01*
X118611928Y-81410000D01*
X118624188Y-81534482D01*
X118660498Y-81654180D01*
X118719463Y-81764494D01*
X118798815Y-81861185D01*
X118823459Y-81881410D01*
X117346865Y-83358004D01*
X117303551Y-83393551D01*
X117161716Y-83566377D01*
X117084200Y-83711401D01*
X117056324Y-83763554D01*
X116991423Y-83977502D01*
X116969509Y-84200000D01*
X113925000Y-84200000D01*
X113925000Y-81699090D01*
X114087237Y-81590687D01*
X114370687Y-81307237D01*
X114593393Y-80973934D01*
X114746796Y-80603587D01*
X114825000Y-80210430D01*
X114825000Y-79809570D01*
X114746796Y-79416413D01*
X114593393Y-79046066D01*
X114370687Y-78712763D01*
X114087237Y-78429313D01*
X113753934Y-78206607D01*
X113383587Y-78053204D01*
X112990430Y-77975000D01*
X112589570Y-77975000D01*
X112196413Y-78053204D01*
X111826066Y-78206607D01*
X111492763Y-78429313D01*
X111209313Y-78712763D01*
X110986607Y-79046066D01*
X110833204Y-79416413D01*
X110755000Y-79809570D01*
X109825000Y-79809570D01*
X109746796Y-79416413D01*
X109593393Y-79046066D01*
X109370687Y-78712763D01*
X109087237Y-78429313D01*
X108753934Y-78206607D01*
X108383587Y-78053204D01*
X107990430Y-77975000D01*
X107589570Y-77975000D01*
X107196413Y-78053204D01*
X106826066Y-78206607D01*
X106492763Y-78429313D01*
X106209313Y-78712763D01*
X105986607Y-79046066D01*
X105833204Y-79416413D01*
X105755000Y-79809570D01*
X104825000Y-79809570D01*
X104746796Y-79416413D01*
X104593393Y-79046066D01*
X104370687Y-78712763D01*
X104087237Y-78429313D01*
X103753934Y-78206607D01*
X103383587Y-78053204D01*
X102990430Y-77975000D01*
X102589570Y-77975000D01*
X102196413Y-78053204D01*
X101826066Y-78206607D01*
X101492763Y-78429313D01*
X101209313Y-78712763D01*
X100986607Y-79046066D01*
X100833204Y-79416413D01*
X100755000Y-79809570D01*
X99828072Y-79809570D01*
X99828072Y-78610000D01*
X99815812Y-78485518D01*
X99779502Y-78365820D01*
X99720537Y-78255506D01*
X99641185Y-78158815D01*
X99544494Y-78079463D01*
X99434180Y-78020498D01*
X99314482Y-77984188D01*
X99190000Y-77971928D01*
X96390000Y-77971928D01*
X96265518Y-77984188D01*
X96145820Y-78020498D01*
X96035506Y-78079463D01*
X95938815Y-78158815D01*
X95859463Y-78255506D01*
X95800498Y-78365820D01*
X95764188Y-78485518D01*
X95751928Y-78610000D01*
X94640000Y-78610000D01*
X94640000Y-77249872D01*
X167945000Y-77249872D01*
X167945000Y-77690128D01*
X168030890Y-78121925D01*
X168199369Y-78528669D01*
X168443962Y-78894729D01*
X168755271Y-79206038D01*
X169121331Y-79450631D01*
X169528075Y-79619110D01*
X169959872Y-79705000D01*
X170400128Y-79705000D01*
X170831925Y-79619110D01*
X171238669Y-79450631D01*
X171604729Y-79206038D01*
X171916038Y-78894729D01*
X172160631Y-78528669D01*
X172329110Y-78121925D01*
X172415000Y-77690128D01*
X172415000Y-77249872D01*
X172329110Y-76818075D01*
X172160631Y-76411331D01*
X171916038Y-76045271D01*
X171604729Y-75733962D01*
X171238669Y-75489369D01*
X170831925Y-75320890D01*
X170400128Y-75235000D01*
X169959872Y-75235000D01*
X169528075Y-75320890D01*
X169121331Y-75489369D01*
X168755271Y-75733962D01*
X168443962Y-76045271D01*
X168199369Y-76411331D01*
X168030890Y-76818075D01*
X167945000Y-77249872D01*
X94640000Y-77249872D01*
X94640000Y-73050000D01*
X186030001Y-73050000D01*
X186030000Y-127610000D01*
M02*
