G04 #@! TF.GenerationSoftware,KiCad,Pcbnew,(5.1.2)-2*
G04 #@! TF.CreationDate,2019-06-27T20:53:15-04:00*
G04 #@! TF.ProjectId,connection-portal,636f6e6e-6563-4746-996f-6e2d706f7274,rev?*
G04 #@! TF.SameCoordinates,Original*
G04 #@! TF.FileFunction,Copper,L2,Bot*
G04 #@! TF.FilePolarity,Positive*
%FSLAX46Y46*%
G04 Gerber Fmt 4.6, Leading zero omitted, Abs format (unit mm)*
G04 Created by KiCad (PCBNEW (5.1.2)-2) date 2019-06-27 20:53:15*
%MOMM*%
%LPD*%
G04 APERTURE LIST*
%ADD10O,1.600000X1.600000*%
%ADD11C,1.600000*%
%ADD12O,1.700000X1.700000*%
%ADD13R,1.700000X1.700000*%
%ADD14C,2.800000*%
%ADD15R,2.800000X2.800000*%
%ADD16C,1.800000*%
%ADD17R,1.800000X1.800000*%
%ADD18C,1.700000*%
%ADD19C,0.254000*%
G04 APERTURE END LIST*
D10*
X167640000Y-113030000D03*
D11*
X157480000Y-113030000D03*
D10*
X167640000Y-105410000D03*
D11*
X157480000Y-105410000D03*
D10*
X167640000Y-97790000D03*
D11*
X157480000Y-97790000D03*
D10*
X167640000Y-90170000D03*
D11*
X157480000Y-90170000D03*
D10*
X167640000Y-82550000D03*
D11*
X157480000Y-82550000D03*
D12*
X175260000Y-118110000D03*
X175260000Y-115570000D03*
X175260000Y-113030000D03*
X175260000Y-110490000D03*
X175260000Y-107950000D03*
X175260000Y-105410000D03*
X175260000Y-102870000D03*
X175260000Y-100330000D03*
X175260000Y-97790000D03*
X175260000Y-95250000D03*
X175260000Y-92710000D03*
X175260000Y-90170000D03*
X175260000Y-87630000D03*
X175260000Y-85090000D03*
D13*
X175260000Y-82550000D03*
D14*
X112790000Y-80010000D03*
X107790000Y-80010000D03*
X102790000Y-80010000D03*
D15*
X97790000Y-80010000D03*
D14*
X125650000Y-80010000D03*
D15*
X120650000Y-80010000D03*
D14*
X146920000Y-123190000D03*
X141920000Y-123190000D03*
X136920000Y-123190000D03*
X131920000Y-123190000D03*
X126920000Y-123190000D03*
D15*
X121920000Y-123190000D03*
D14*
X112790000Y-123190000D03*
X107790000Y-123190000D03*
X102790000Y-123190000D03*
D15*
X97790000Y-123190000D03*
D14*
X161210000Y-123190000D03*
D15*
X156210000Y-123190000D03*
D16*
X151130000Y-113030000D03*
D17*
X153670000Y-113030000D03*
D16*
X151130000Y-105410000D03*
D17*
X153670000Y-105410000D03*
D16*
X151130000Y-97790000D03*
D17*
X153670000Y-97790000D03*
D16*
X151130000Y-90170000D03*
D17*
X153670000Y-90170000D03*
D16*
X151130000Y-82550000D03*
D17*
X153670000Y-82550000D03*
D18*
X171140001Y-87939999D02*
X171140001Y-91850001D01*
X173990000Y-85090000D02*
X175260000Y-85090000D01*
X171140001Y-87939999D02*
X173990000Y-85090000D01*
X175260000Y-92710000D02*
X172000000Y-92710000D01*
X172000000Y-92710000D02*
X171140001Y-91850001D01*
D19*
G36*
X186030000Y-127610000D02*
G01*
X94640000Y-127610000D01*
X94640000Y-121790000D01*
X95751928Y-121790000D01*
X95751928Y-124590000D01*
X95764188Y-124714482D01*
X95800498Y-124834180D01*
X95859463Y-124944494D01*
X95938815Y-125041185D01*
X96035506Y-125120537D01*
X96145820Y-125179502D01*
X96265518Y-125215812D01*
X96390000Y-125228072D01*
X99190000Y-125228072D01*
X99314482Y-125215812D01*
X99434180Y-125179502D01*
X99544494Y-125120537D01*
X99641185Y-125041185D01*
X99720537Y-124944494D01*
X99779502Y-124834180D01*
X99815812Y-124714482D01*
X99828072Y-124590000D01*
X99828072Y-122989570D01*
X100755000Y-122989570D01*
X100755000Y-123390430D01*
X100833204Y-123783587D01*
X100986607Y-124153934D01*
X101209313Y-124487237D01*
X101492763Y-124770687D01*
X101826066Y-124993393D01*
X102196413Y-125146796D01*
X102589570Y-125225000D01*
X102990430Y-125225000D01*
X103383587Y-125146796D01*
X103753934Y-124993393D01*
X104087237Y-124770687D01*
X104370687Y-124487237D01*
X104593393Y-124153934D01*
X104746796Y-123783587D01*
X104825000Y-123390430D01*
X104825000Y-122989570D01*
X105755000Y-122989570D01*
X105755000Y-123390430D01*
X105833204Y-123783587D01*
X105986607Y-124153934D01*
X106209313Y-124487237D01*
X106492763Y-124770687D01*
X106826066Y-124993393D01*
X107196413Y-125146796D01*
X107589570Y-125225000D01*
X107990430Y-125225000D01*
X108383587Y-125146796D01*
X108753934Y-124993393D01*
X109087237Y-124770687D01*
X109370687Y-124487237D01*
X109593393Y-124153934D01*
X109746796Y-123783587D01*
X109825000Y-123390430D01*
X109825000Y-122989570D01*
X110755000Y-122989570D01*
X110755000Y-123390430D01*
X110833204Y-123783587D01*
X110986607Y-124153934D01*
X111209313Y-124487237D01*
X111492763Y-124770687D01*
X111826066Y-124993393D01*
X112196413Y-125146796D01*
X112589570Y-125225000D01*
X112990430Y-125225000D01*
X113383587Y-125146796D01*
X113753934Y-124993393D01*
X114087237Y-124770687D01*
X114370687Y-124487237D01*
X114593393Y-124153934D01*
X114746796Y-123783587D01*
X114825000Y-123390430D01*
X114825000Y-122989570D01*
X114746796Y-122596413D01*
X114593393Y-122226066D01*
X114370687Y-121892763D01*
X114267924Y-121790000D01*
X119881928Y-121790000D01*
X119881928Y-124590000D01*
X119894188Y-124714482D01*
X119930498Y-124834180D01*
X119989463Y-124944494D01*
X120068815Y-125041185D01*
X120165506Y-125120537D01*
X120275820Y-125179502D01*
X120395518Y-125215812D01*
X120520000Y-125228072D01*
X123320000Y-125228072D01*
X123444482Y-125215812D01*
X123564180Y-125179502D01*
X123674494Y-125120537D01*
X123771185Y-125041185D01*
X123850537Y-124944494D01*
X123909502Y-124834180D01*
X123945812Y-124714482D01*
X123958072Y-124590000D01*
X123958072Y-122989570D01*
X124885000Y-122989570D01*
X124885000Y-123390430D01*
X124963204Y-123783587D01*
X125116607Y-124153934D01*
X125339313Y-124487237D01*
X125622763Y-124770687D01*
X125956066Y-124993393D01*
X126326413Y-125146796D01*
X126719570Y-125225000D01*
X127120430Y-125225000D01*
X127513587Y-125146796D01*
X127883934Y-124993393D01*
X128217237Y-124770687D01*
X128500687Y-124487237D01*
X128723393Y-124153934D01*
X128876796Y-123783587D01*
X128955000Y-123390430D01*
X128955000Y-122989570D01*
X129885000Y-122989570D01*
X129885000Y-123390430D01*
X129963204Y-123783587D01*
X130116607Y-124153934D01*
X130339313Y-124487237D01*
X130622763Y-124770687D01*
X130956066Y-124993393D01*
X131326413Y-125146796D01*
X131719570Y-125225000D01*
X132120430Y-125225000D01*
X132513587Y-125146796D01*
X132883934Y-124993393D01*
X133217237Y-124770687D01*
X133500687Y-124487237D01*
X133723393Y-124153934D01*
X133876796Y-123783587D01*
X133955000Y-123390430D01*
X133955000Y-122989570D01*
X134885000Y-122989570D01*
X134885000Y-123390430D01*
X134963204Y-123783587D01*
X135116607Y-124153934D01*
X135339313Y-124487237D01*
X135622763Y-124770687D01*
X135956066Y-124993393D01*
X136326413Y-125146796D01*
X136719570Y-125225000D01*
X137120430Y-125225000D01*
X137513587Y-125146796D01*
X137883934Y-124993393D01*
X138217237Y-124770687D01*
X138500687Y-124487237D01*
X138723393Y-124153934D01*
X138876796Y-123783587D01*
X138955000Y-123390430D01*
X138955000Y-122989570D01*
X139885000Y-122989570D01*
X139885000Y-123390430D01*
X139963204Y-123783587D01*
X140116607Y-124153934D01*
X140339313Y-124487237D01*
X140622763Y-124770687D01*
X140956066Y-124993393D01*
X141326413Y-125146796D01*
X141719570Y-125225000D01*
X142120430Y-125225000D01*
X142513587Y-125146796D01*
X142883934Y-124993393D01*
X143217237Y-124770687D01*
X143500687Y-124487237D01*
X143723393Y-124153934D01*
X143876796Y-123783587D01*
X143955000Y-123390430D01*
X143955000Y-122989570D01*
X144885000Y-122989570D01*
X144885000Y-123390430D01*
X144963204Y-123783587D01*
X145116607Y-124153934D01*
X145339313Y-124487237D01*
X145622763Y-124770687D01*
X145956066Y-124993393D01*
X146326413Y-125146796D01*
X146719570Y-125225000D01*
X147120430Y-125225000D01*
X147513587Y-125146796D01*
X147883934Y-124993393D01*
X148217237Y-124770687D01*
X148500687Y-124487237D01*
X148723393Y-124153934D01*
X148876796Y-123783587D01*
X148955000Y-123390430D01*
X148955000Y-122989570D01*
X148876796Y-122596413D01*
X148723393Y-122226066D01*
X148500687Y-121892763D01*
X148397924Y-121790000D01*
X154171928Y-121790000D01*
X154171928Y-124590000D01*
X154184188Y-124714482D01*
X154220498Y-124834180D01*
X154279463Y-124944494D01*
X154358815Y-125041185D01*
X154455506Y-125120537D01*
X154565820Y-125179502D01*
X154685518Y-125215812D01*
X154810000Y-125228072D01*
X157610000Y-125228072D01*
X157734482Y-125215812D01*
X157854180Y-125179502D01*
X157964494Y-125120537D01*
X158061185Y-125041185D01*
X158140537Y-124944494D01*
X158199502Y-124834180D01*
X158235812Y-124714482D01*
X158246058Y-124610447D01*
X159969158Y-124610447D01*
X160113135Y-124915770D01*
X160470892Y-125096597D01*
X160857053Y-125204155D01*
X161256777Y-125234310D01*
X161654704Y-125185904D01*
X162035540Y-125060795D01*
X162306865Y-124915770D01*
X162450842Y-124610447D01*
X161210000Y-123369605D01*
X159969158Y-124610447D01*
X158246058Y-124610447D01*
X158248072Y-124590000D01*
X158248072Y-123236777D01*
X159165690Y-123236777D01*
X159214096Y-123634704D01*
X159339205Y-124015540D01*
X159484230Y-124286865D01*
X159789553Y-124430842D01*
X161030395Y-123190000D01*
X161389605Y-123190000D01*
X162630447Y-124430842D01*
X162935770Y-124286865D01*
X163116597Y-123929108D01*
X163224155Y-123542947D01*
X163254310Y-123143223D01*
X163233223Y-122969872D01*
X167945000Y-122969872D01*
X167945000Y-123410128D01*
X168030890Y-123841925D01*
X168199369Y-124248669D01*
X168443962Y-124614729D01*
X168755271Y-124926038D01*
X169121331Y-125170631D01*
X169528075Y-125339110D01*
X169959872Y-125425000D01*
X170400128Y-125425000D01*
X170831925Y-125339110D01*
X171238669Y-125170631D01*
X171604729Y-124926038D01*
X171916038Y-124614729D01*
X172160631Y-124248669D01*
X172329110Y-123841925D01*
X172415000Y-123410128D01*
X172415000Y-122969872D01*
X172329110Y-122538075D01*
X172160631Y-122131331D01*
X171916038Y-121765271D01*
X171604729Y-121453962D01*
X171238669Y-121209369D01*
X170831925Y-121040890D01*
X170400128Y-120955000D01*
X169959872Y-120955000D01*
X169528075Y-121040890D01*
X169121331Y-121209369D01*
X168755271Y-121453962D01*
X168443962Y-121765271D01*
X168199369Y-122131331D01*
X168030890Y-122538075D01*
X167945000Y-122969872D01*
X163233223Y-122969872D01*
X163205904Y-122745296D01*
X163080795Y-122364460D01*
X162935770Y-122093135D01*
X162630447Y-121949158D01*
X161389605Y-123190000D01*
X161030395Y-123190000D01*
X159789553Y-121949158D01*
X159484230Y-122093135D01*
X159303403Y-122450892D01*
X159195845Y-122837053D01*
X159165690Y-123236777D01*
X158248072Y-123236777D01*
X158248072Y-121790000D01*
X158246059Y-121769553D01*
X159969158Y-121769553D01*
X161210000Y-123010395D01*
X162450842Y-121769553D01*
X162306865Y-121464230D01*
X161949108Y-121283403D01*
X161562947Y-121175845D01*
X161163223Y-121145690D01*
X160765296Y-121194096D01*
X160384460Y-121319205D01*
X160113135Y-121464230D01*
X159969158Y-121769553D01*
X158246059Y-121769553D01*
X158235812Y-121665518D01*
X158199502Y-121545820D01*
X158140537Y-121435506D01*
X158061185Y-121338815D01*
X157964494Y-121259463D01*
X157854180Y-121200498D01*
X157734482Y-121164188D01*
X157610000Y-121151928D01*
X154810000Y-121151928D01*
X154685518Y-121164188D01*
X154565820Y-121200498D01*
X154455506Y-121259463D01*
X154358815Y-121338815D01*
X154279463Y-121435506D01*
X154220498Y-121545820D01*
X154184188Y-121665518D01*
X154171928Y-121790000D01*
X148397924Y-121790000D01*
X148217237Y-121609313D01*
X147883934Y-121386607D01*
X147513587Y-121233204D01*
X147120430Y-121155000D01*
X146719570Y-121155000D01*
X146326413Y-121233204D01*
X145956066Y-121386607D01*
X145622763Y-121609313D01*
X145339313Y-121892763D01*
X145116607Y-122226066D01*
X144963204Y-122596413D01*
X144885000Y-122989570D01*
X143955000Y-122989570D01*
X143876796Y-122596413D01*
X143723393Y-122226066D01*
X143500687Y-121892763D01*
X143217237Y-121609313D01*
X142883934Y-121386607D01*
X142513587Y-121233204D01*
X142120430Y-121155000D01*
X141719570Y-121155000D01*
X141326413Y-121233204D01*
X140956066Y-121386607D01*
X140622763Y-121609313D01*
X140339313Y-121892763D01*
X140116607Y-122226066D01*
X139963204Y-122596413D01*
X139885000Y-122989570D01*
X138955000Y-122989570D01*
X138876796Y-122596413D01*
X138723393Y-122226066D01*
X138500687Y-121892763D01*
X138217237Y-121609313D01*
X137883934Y-121386607D01*
X137513587Y-121233204D01*
X137120430Y-121155000D01*
X136719570Y-121155000D01*
X136326413Y-121233204D01*
X135956066Y-121386607D01*
X135622763Y-121609313D01*
X135339313Y-121892763D01*
X135116607Y-122226066D01*
X134963204Y-122596413D01*
X134885000Y-122989570D01*
X133955000Y-122989570D01*
X133876796Y-122596413D01*
X133723393Y-122226066D01*
X133500687Y-121892763D01*
X133217237Y-121609313D01*
X132883934Y-121386607D01*
X132513587Y-121233204D01*
X132120430Y-121155000D01*
X131719570Y-121155000D01*
X131326413Y-121233204D01*
X130956066Y-121386607D01*
X130622763Y-121609313D01*
X130339313Y-121892763D01*
X130116607Y-122226066D01*
X129963204Y-122596413D01*
X129885000Y-122989570D01*
X128955000Y-122989570D01*
X128876796Y-122596413D01*
X128723393Y-122226066D01*
X128500687Y-121892763D01*
X128217237Y-121609313D01*
X127883934Y-121386607D01*
X127513587Y-121233204D01*
X127120430Y-121155000D01*
X126719570Y-121155000D01*
X126326413Y-121233204D01*
X125956066Y-121386607D01*
X125622763Y-121609313D01*
X125339313Y-121892763D01*
X125116607Y-122226066D01*
X124963204Y-122596413D01*
X124885000Y-122989570D01*
X123958072Y-122989570D01*
X123958072Y-121790000D01*
X123945812Y-121665518D01*
X123909502Y-121545820D01*
X123850537Y-121435506D01*
X123771185Y-121338815D01*
X123674494Y-121259463D01*
X123564180Y-121200498D01*
X123444482Y-121164188D01*
X123320000Y-121151928D01*
X120520000Y-121151928D01*
X120395518Y-121164188D01*
X120275820Y-121200498D01*
X120165506Y-121259463D01*
X120068815Y-121338815D01*
X119989463Y-121435506D01*
X119930498Y-121545820D01*
X119894188Y-121665518D01*
X119881928Y-121790000D01*
X114267924Y-121790000D01*
X114087237Y-121609313D01*
X113753934Y-121386607D01*
X113383587Y-121233204D01*
X112990430Y-121155000D01*
X112589570Y-121155000D01*
X112196413Y-121233204D01*
X111826066Y-121386607D01*
X111492763Y-121609313D01*
X111209313Y-121892763D01*
X110986607Y-122226066D01*
X110833204Y-122596413D01*
X110755000Y-122989570D01*
X109825000Y-122989570D01*
X109746796Y-122596413D01*
X109593393Y-122226066D01*
X109370687Y-121892763D01*
X109087237Y-121609313D01*
X108753934Y-121386607D01*
X108383587Y-121233204D01*
X107990430Y-121155000D01*
X107589570Y-121155000D01*
X107196413Y-121233204D01*
X106826066Y-121386607D01*
X106492763Y-121609313D01*
X106209313Y-121892763D01*
X105986607Y-122226066D01*
X105833204Y-122596413D01*
X105755000Y-122989570D01*
X104825000Y-122989570D01*
X104746796Y-122596413D01*
X104593393Y-122226066D01*
X104370687Y-121892763D01*
X104087237Y-121609313D01*
X103753934Y-121386607D01*
X103383587Y-121233204D01*
X102990430Y-121155000D01*
X102589570Y-121155000D01*
X102196413Y-121233204D01*
X101826066Y-121386607D01*
X101492763Y-121609313D01*
X101209313Y-121892763D01*
X100986607Y-122226066D01*
X100833204Y-122596413D01*
X100755000Y-122989570D01*
X99828072Y-122989570D01*
X99828072Y-121790000D01*
X99815812Y-121665518D01*
X99779502Y-121545820D01*
X99720537Y-121435506D01*
X99641185Y-121338815D01*
X99544494Y-121259463D01*
X99434180Y-121200498D01*
X99314482Y-121164188D01*
X99190000Y-121151928D01*
X96390000Y-121151928D01*
X96265518Y-121164188D01*
X96145820Y-121200498D01*
X96035506Y-121259463D01*
X95938815Y-121338815D01*
X95859463Y-121435506D01*
X95800498Y-121545820D01*
X95764188Y-121665518D01*
X95751928Y-121790000D01*
X94640000Y-121790000D01*
X94640000Y-118110000D01*
X173767815Y-118110000D01*
X173796487Y-118401111D01*
X173881401Y-118681034D01*
X174019294Y-118939014D01*
X174204866Y-119165134D01*
X174430986Y-119350706D01*
X174688966Y-119488599D01*
X174968889Y-119573513D01*
X175187050Y-119595000D01*
X175332950Y-119595000D01*
X175551111Y-119573513D01*
X175831034Y-119488599D01*
X176089014Y-119350706D01*
X176315134Y-119165134D01*
X176500706Y-118939014D01*
X176638599Y-118681034D01*
X176723513Y-118401111D01*
X176752185Y-118110000D01*
X176723513Y-117818889D01*
X176638599Y-117538966D01*
X176500706Y-117280986D01*
X176315134Y-117054866D01*
X176089014Y-116869294D01*
X176024477Y-116834799D01*
X176141355Y-116765178D01*
X176357588Y-116570269D01*
X176531641Y-116336920D01*
X176656825Y-116074099D01*
X176701476Y-115926890D01*
X176580155Y-115697000D01*
X175387000Y-115697000D01*
X175387000Y-115717000D01*
X175133000Y-115717000D01*
X175133000Y-115697000D01*
X173939845Y-115697000D01*
X173818524Y-115926890D01*
X173863175Y-116074099D01*
X173988359Y-116336920D01*
X174162412Y-116570269D01*
X174378645Y-116765178D01*
X174495523Y-116834799D01*
X174430986Y-116869294D01*
X174204866Y-117054866D01*
X174019294Y-117280986D01*
X173881401Y-117538966D01*
X173796487Y-117818889D01*
X173767815Y-118110000D01*
X94640000Y-118110000D01*
X94640000Y-112878816D01*
X149595000Y-112878816D01*
X149595000Y-113181184D01*
X149653989Y-113477743D01*
X149769701Y-113757095D01*
X149937688Y-114008505D01*
X150151495Y-114222312D01*
X150402905Y-114390299D01*
X150682257Y-114506011D01*
X150978816Y-114565000D01*
X151281184Y-114565000D01*
X151577743Y-114506011D01*
X151857095Y-114390299D01*
X152108505Y-114222312D01*
X152174944Y-114155873D01*
X152180498Y-114174180D01*
X152239463Y-114284494D01*
X152318815Y-114381185D01*
X152415506Y-114460537D01*
X152525820Y-114519502D01*
X152645518Y-114555812D01*
X152770000Y-114568072D01*
X154570000Y-114568072D01*
X154694482Y-114555812D01*
X154814180Y-114519502D01*
X154924494Y-114460537D01*
X155021185Y-114381185D01*
X155100537Y-114284494D01*
X155159502Y-114174180D01*
X155195812Y-114054482D01*
X155208072Y-113930000D01*
X155208072Y-112888665D01*
X156045000Y-112888665D01*
X156045000Y-113171335D01*
X156100147Y-113448574D01*
X156208320Y-113709727D01*
X156365363Y-113944759D01*
X156565241Y-114144637D01*
X156800273Y-114301680D01*
X157061426Y-114409853D01*
X157338665Y-114465000D01*
X157621335Y-114465000D01*
X157898574Y-114409853D01*
X158159727Y-114301680D01*
X158394759Y-114144637D01*
X158594637Y-113944759D01*
X158751680Y-113709727D01*
X158859853Y-113448574D01*
X158915000Y-113171335D01*
X158915000Y-113030000D01*
X166198057Y-113030000D01*
X166225764Y-113311309D01*
X166307818Y-113581808D01*
X166441068Y-113831101D01*
X166620392Y-114049608D01*
X166838899Y-114228932D01*
X167088192Y-114362182D01*
X167358691Y-114444236D01*
X167569508Y-114465000D01*
X167710492Y-114465000D01*
X167921309Y-114444236D01*
X168191808Y-114362182D01*
X168441101Y-114228932D01*
X168659608Y-114049608D01*
X168838932Y-113831101D01*
X168972182Y-113581808D01*
X169054236Y-113311309D01*
X169081943Y-113030000D01*
X169054236Y-112748691D01*
X168972182Y-112478192D01*
X168838932Y-112228899D01*
X168659608Y-112010392D01*
X168441101Y-111831068D01*
X168191808Y-111697818D01*
X167921309Y-111615764D01*
X167710492Y-111595000D01*
X167569508Y-111595000D01*
X167358691Y-111615764D01*
X167088192Y-111697818D01*
X166838899Y-111831068D01*
X166620392Y-112010392D01*
X166441068Y-112228899D01*
X166307818Y-112478192D01*
X166225764Y-112748691D01*
X166198057Y-113030000D01*
X158915000Y-113030000D01*
X158915000Y-112888665D01*
X158859853Y-112611426D01*
X158751680Y-112350273D01*
X158594637Y-112115241D01*
X158394759Y-111915363D01*
X158159727Y-111758320D01*
X157898574Y-111650147D01*
X157621335Y-111595000D01*
X157338665Y-111595000D01*
X157061426Y-111650147D01*
X156800273Y-111758320D01*
X156565241Y-111915363D01*
X156365363Y-112115241D01*
X156208320Y-112350273D01*
X156100147Y-112611426D01*
X156045000Y-112888665D01*
X155208072Y-112888665D01*
X155208072Y-112130000D01*
X155195812Y-112005518D01*
X155159502Y-111885820D01*
X155100537Y-111775506D01*
X155021185Y-111678815D01*
X154924494Y-111599463D01*
X154814180Y-111540498D01*
X154694482Y-111504188D01*
X154570000Y-111491928D01*
X152770000Y-111491928D01*
X152645518Y-111504188D01*
X152525820Y-111540498D01*
X152415506Y-111599463D01*
X152318815Y-111678815D01*
X152239463Y-111775506D01*
X152180498Y-111885820D01*
X152174944Y-111904127D01*
X152108505Y-111837688D01*
X151857095Y-111669701D01*
X151577743Y-111553989D01*
X151281184Y-111495000D01*
X150978816Y-111495000D01*
X150682257Y-111553989D01*
X150402905Y-111669701D01*
X150151495Y-111837688D01*
X149937688Y-112051495D01*
X149769701Y-112302905D01*
X149653989Y-112582257D01*
X149595000Y-112878816D01*
X94640000Y-112878816D01*
X94640000Y-110490000D01*
X173767815Y-110490000D01*
X173796487Y-110781111D01*
X173881401Y-111061034D01*
X174019294Y-111319014D01*
X174204866Y-111545134D01*
X174430986Y-111730706D01*
X174485791Y-111760000D01*
X174430986Y-111789294D01*
X174204866Y-111974866D01*
X174019294Y-112200986D01*
X173881401Y-112458966D01*
X173796487Y-112738889D01*
X173767815Y-113030000D01*
X173796487Y-113321111D01*
X173881401Y-113601034D01*
X174019294Y-113859014D01*
X174204866Y-114085134D01*
X174430986Y-114270706D01*
X174495523Y-114305201D01*
X174378645Y-114374822D01*
X174162412Y-114569731D01*
X173988359Y-114803080D01*
X173863175Y-115065901D01*
X173818524Y-115213110D01*
X173939845Y-115443000D01*
X175133000Y-115443000D01*
X175133000Y-115423000D01*
X175387000Y-115423000D01*
X175387000Y-115443000D01*
X176580155Y-115443000D01*
X176701476Y-115213110D01*
X176656825Y-115065901D01*
X176531641Y-114803080D01*
X176357588Y-114569731D01*
X176141355Y-114374822D01*
X176024477Y-114305201D01*
X176089014Y-114270706D01*
X176315134Y-114085134D01*
X176500706Y-113859014D01*
X176638599Y-113601034D01*
X176723513Y-113321111D01*
X176752185Y-113030000D01*
X176723513Y-112738889D01*
X176638599Y-112458966D01*
X176500706Y-112200986D01*
X176315134Y-111974866D01*
X176089014Y-111789294D01*
X176034209Y-111760000D01*
X176089014Y-111730706D01*
X176315134Y-111545134D01*
X176500706Y-111319014D01*
X176638599Y-111061034D01*
X176723513Y-110781111D01*
X176752185Y-110490000D01*
X176723513Y-110198889D01*
X176638599Y-109918966D01*
X176500706Y-109660986D01*
X176315134Y-109434866D01*
X176089014Y-109249294D01*
X176024477Y-109214799D01*
X176141355Y-109145178D01*
X176357588Y-108950269D01*
X176531641Y-108716920D01*
X176656825Y-108454099D01*
X176701476Y-108306890D01*
X176580155Y-108077000D01*
X175387000Y-108077000D01*
X175387000Y-108097000D01*
X175133000Y-108097000D01*
X175133000Y-108077000D01*
X173939845Y-108077000D01*
X173818524Y-108306890D01*
X173863175Y-108454099D01*
X173988359Y-108716920D01*
X174162412Y-108950269D01*
X174378645Y-109145178D01*
X174495523Y-109214799D01*
X174430986Y-109249294D01*
X174204866Y-109434866D01*
X174019294Y-109660986D01*
X173881401Y-109918966D01*
X173796487Y-110198889D01*
X173767815Y-110490000D01*
X94640000Y-110490000D01*
X94640000Y-107729872D01*
X122225000Y-107729872D01*
X122225000Y-108170128D01*
X122310890Y-108601925D01*
X122479369Y-109008669D01*
X122723962Y-109374729D01*
X123035271Y-109686038D01*
X123401331Y-109930631D01*
X123808075Y-110099110D01*
X124239872Y-110185000D01*
X124680128Y-110185000D01*
X125111925Y-110099110D01*
X125518669Y-109930631D01*
X125884729Y-109686038D01*
X126196038Y-109374729D01*
X126440631Y-109008669D01*
X126609110Y-108601925D01*
X126695000Y-108170128D01*
X126695000Y-107729872D01*
X126609110Y-107298075D01*
X126440631Y-106891331D01*
X126196038Y-106525271D01*
X125884729Y-106213962D01*
X125518669Y-105969369D01*
X125111925Y-105800890D01*
X124680128Y-105715000D01*
X124239872Y-105715000D01*
X123808075Y-105800890D01*
X123401331Y-105969369D01*
X123035271Y-106213962D01*
X122723962Y-106525271D01*
X122479369Y-106891331D01*
X122310890Y-107298075D01*
X122225000Y-107729872D01*
X94640000Y-107729872D01*
X94640000Y-105258816D01*
X149595000Y-105258816D01*
X149595000Y-105561184D01*
X149653989Y-105857743D01*
X149769701Y-106137095D01*
X149937688Y-106388505D01*
X150151495Y-106602312D01*
X150402905Y-106770299D01*
X150682257Y-106886011D01*
X150978816Y-106945000D01*
X151281184Y-106945000D01*
X151577743Y-106886011D01*
X151857095Y-106770299D01*
X152108505Y-106602312D01*
X152174944Y-106535873D01*
X152180498Y-106554180D01*
X152239463Y-106664494D01*
X152318815Y-106761185D01*
X152415506Y-106840537D01*
X152525820Y-106899502D01*
X152645518Y-106935812D01*
X152770000Y-106948072D01*
X154570000Y-106948072D01*
X154694482Y-106935812D01*
X154814180Y-106899502D01*
X154924494Y-106840537D01*
X155021185Y-106761185D01*
X155100537Y-106664494D01*
X155159502Y-106554180D01*
X155195812Y-106434482D01*
X155208072Y-106310000D01*
X155208072Y-105268665D01*
X156045000Y-105268665D01*
X156045000Y-105551335D01*
X156100147Y-105828574D01*
X156208320Y-106089727D01*
X156365363Y-106324759D01*
X156565241Y-106524637D01*
X156800273Y-106681680D01*
X157061426Y-106789853D01*
X157338665Y-106845000D01*
X157621335Y-106845000D01*
X157898574Y-106789853D01*
X158159727Y-106681680D01*
X158394759Y-106524637D01*
X158594637Y-106324759D01*
X158751680Y-106089727D01*
X158859853Y-105828574D01*
X158915000Y-105551335D01*
X158915000Y-105410000D01*
X166198057Y-105410000D01*
X166225764Y-105691309D01*
X166307818Y-105961808D01*
X166441068Y-106211101D01*
X166620392Y-106429608D01*
X166838899Y-106608932D01*
X167088192Y-106742182D01*
X167358691Y-106824236D01*
X167569508Y-106845000D01*
X167710492Y-106845000D01*
X167921309Y-106824236D01*
X168191808Y-106742182D01*
X168441101Y-106608932D01*
X168659608Y-106429608D01*
X168838932Y-106211101D01*
X168972182Y-105961808D01*
X169054236Y-105691309D01*
X169081943Y-105410000D01*
X169054236Y-105128691D01*
X168972182Y-104858192D01*
X168838932Y-104608899D01*
X168659608Y-104390392D01*
X168441101Y-104211068D01*
X168191808Y-104077818D01*
X167921309Y-103995764D01*
X167710492Y-103975000D01*
X167569508Y-103975000D01*
X167358691Y-103995764D01*
X167088192Y-104077818D01*
X166838899Y-104211068D01*
X166620392Y-104390392D01*
X166441068Y-104608899D01*
X166307818Y-104858192D01*
X166225764Y-105128691D01*
X166198057Y-105410000D01*
X158915000Y-105410000D01*
X158915000Y-105268665D01*
X158859853Y-104991426D01*
X158751680Y-104730273D01*
X158594637Y-104495241D01*
X158394759Y-104295363D01*
X158159727Y-104138320D01*
X157898574Y-104030147D01*
X157621335Y-103975000D01*
X157338665Y-103975000D01*
X157061426Y-104030147D01*
X156800273Y-104138320D01*
X156565241Y-104295363D01*
X156365363Y-104495241D01*
X156208320Y-104730273D01*
X156100147Y-104991426D01*
X156045000Y-105268665D01*
X155208072Y-105268665D01*
X155208072Y-104510000D01*
X155195812Y-104385518D01*
X155159502Y-104265820D01*
X155100537Y-104155506D01*
X155021185Y-104058815D01*
X154924494Y-103979463D01*
X154814180Y-103920498D01*
X154694482Y-103884188D01*
X154570000Y-103871928D01*
X152770000Y-103871928D01*
X152645518Y-103884188D01*
X152525820Y-103920498D01*
X152415506Y-103979463D01*
X152318815Y-104058815D01*
X152239463Y-104155506D01*
X152180498Y-104265820D01*
X152174944Y-104284127D01*
X152108505Y-104217688D01*
X151857095Y-104049701D01*
X151577743Y-103933989D01*
X151281184Y-103875000D01*
X150978816Y-103875000D01*
X150682257Y-103933989D01*
X150402905Y-104049701D01*
X150151495Y-104217688D01*
X149937688Y-104431495D01*
X149769701Y-104682905D01*
X149653989Y-104962257D01*
X149595000Y-105258816D01*
X94640000Y-105258816D01*
X94640000Y-102870000D01*
X173767815Y-102870000D01*
X173796487Y-103161111D01*
X173881401Y-103441034D01*
X174019294Y-103699014D01*
X174204866Y-103925134D01*
X174430986Y-104110706D01*
X174485791Y-104140000D01*
X174430986Y-104169294D01*
X174204866Y-104354866D01*
X174019294Y-104580986D01*
X173881401Y-104838966D01*
X173796487Y-105118889D01*
X173767815Y-105410000D01*
X173796487Y-105701111D01*
X173881401Y-105981034D01*
X174019294Y-106239014D01*
X174204866Y-106465134D01*
X174430986Y-106650706D01*
X174495523Y-106685201D01*
X174378645Y-106754822D01*
X174162412Y-106949731D01*
X173988359Y-107183080D01*
X173863175Y-107445901D01*
X173818524Y-107593110D01*
X173939845Y-107823000D01*
X175133000Y-107823000D01*
X175133000Y-107803000D01*
X175387000Y-107803000D01*
X175387000Y-107823000D01*
X176580155Y-107823000D01*
X176701476Y-107593110D01*
X176656825Y-107445901D01*
X176531641Y-107183080D01*
X176357588Y-106949731D01*
X176141355Y-106754822D01*
X176024477Y-106685201D01*
X176089014Y-106650706D01*
X176315134Y-106465134D01*
X176500706Y-106239014D01*
X176638599Y-105981034D01*
X176723513Y-105701111D01*
X176752185Y-105410000D01*
X176723513Y-105118889D01*
X176638599Y-104838966D01*
X176500706Y-104580986D01*
X176315134Y-104354866D01*
X176089014Y-104169294D01*
X176034209Y-104140000D01*
X176089014Y-104110706D01*
X176315134Y-103925134D01*
X176500706Y-103699014D01*
X176638599Y-103441034D01*
X176723513Y-103161111D01*
X176752185Y-102870000D01*
X176723513Y-102578889D01*
X176638599Y-102298966D01*
X176500706Y-102040986D01*
X176315134Y-101814866D01*
X176089014Y-101629294D01*
X176024477Y-101594799D01*
X176141355Y-101525178D01*
X176357588Y-101330269D01*
X176531641Y-101096920D01*
X176656825Y-100834099D01*
X176701476Y-100686890D01*
X176580155Y-100457000D01*
X175387000Y-100457000D01*
X175387000Y-100477000D01*
X175133000Y-100477000D01*
X175133000Y-100457000D01*
X173939845Y-100457000D01*
X173818524Y-100686890D01*
X173863175Y-100834099D01*
X173988359Y-101096920D01*
X174162412Y-101330269D01*
X174378645Y-101525178D01*
X174495523Y-101594799D01*
X174430986Y-101629294D01*
X174204866Y-101814866D01*
X174019294Y-102040986D01*
X173881401Y-102298966D01*
X173796487Y-102578889D01*
X173767815Y-102870000D01*
X94640000Y-102870000D01*
X94640000Y-97638816D01*
X149595000Y-97638816D01*
X149595000Y-97941184D01*
X149653989Y-98237743D01*
X149769701Y-98517095D01*
X149937688Y-98768505D01*
X150151495Y-98982312D01*
X150402905Y-99150299D01*
X150682257Y-99266011D01*
X150978816Y-99325000D01*
X151281184Y-99325000D01*
X151577743Y-99266011D01*
X151857095Y-99150299D01*
X152108505Y-98982312D01*
X152174944Y-98915873D01*
X152180498Y-98934180D01*
X152239463Y-99044494D01*
X152318815Y-99141185D01*
X152415506Y-99220537D01*
X152525820Y-99279502D01*
X152645518Y-99315812D01*
X152770000Y-99328072D01*
X154570000Y-99328072D01*
X154694482Y-99315812D01*
X154814180Y-99279502D01*
X154924494Y-99220537D01*
X155021185Y-99141185D01*
X155100537Y-99044494D01*
X155159502Y-98934180D01*
X155195812Y-98814482D01*
X155208072Y-98690000D01*
X155208072Y-97648665D01*
X156045000Y-97648665D01*
X156045000Y-97931335D01*
X156100147Y-98208574D01*
X156208320Y-98469727D01*
X156365363Y-98704759D01*
X156565241Y-98904637D01*
X156800273Y-99061680D01*
X157061426Y-99169853D01*
X157338665Y-99225000D01*
X157621335Y-99225000D01*
X157898574Y-99169853D01*
X158159727Y-99061680D01*
X158394759Y-98904637D01*
X158594637Y-98704759D01*
X158751680Y-98469727D01*
X158859853Y-98208574D01*
X158915000Y-97931335D01*
X158915000Y-97790000D01*
X166198057Y-97790000D01*
X166225764Y-98071309D01*
X166307818Y-98341808D01*
X166441068Y-98591101D01*
X166620392Y-98809608D01*
X166838899Y-98988932D01*
X167088192Y-99122182D01*
X167358691Y-99204236D01*
X167569508Y-99225000D01*
X167710492Y-99225000D01*
X167921309Y-99204236D01*
X168191808Y-99122182D01*
X168441101Y-98988932D01*
X168659608Y-98809608D01*
X168838932Y-98591101D01*
X168972182Y-98341808D01*
X169054236Y-98071309D01*
X169081943Y-97790000D01*
X169054236Y-97508691D01*
X168972182Y-97238192D01*
X168838932Y-96988899D01*
X168659608Y-96770392D01*
X168441101Y-96591068D01*
X168191808Y-96457818D01*
X167921309Y-96375764D01*
X167710492Y-96355000D01*
X167569508Y-96355000D01*
X167358691Y-96375764D01*
X167088192Y-96457818D01*
X166838899Y-96591068D01*
X166620392Y-96770392D01*
X166441068Y-96988899D01*
X166307818Y-97238192D01*
X166225764Y-97508691D01*
X166198057Y-97790000D01*
X158915000Y-97790000D01*
X158915000Y-97648665D01*
X158859853Y-97371426D01*
X158751680Y-97110273D01*
X158594637Y-96875241D01*
X158394759Y-96675363D01*
X158159727Y-96518320D01*
X157898574Y-96410147D01*
X157621335Y-96355000D01*
X157338665Y-96355000D01*
X157061426Y-96410147D01*
X156800273Y-96518320D01*
X156565241Y-96675363D01*
X156365363Y-96875241D01*
X156208320Y-97110273D01*
X156100147Y-97371426D01*
X156045000Y-97648665D01*
X155208072Y-97648665D01*
X155208072Y-96890000D01*
X155195812Y-96765518D01*
X155159502Y-96645820D01*
X155100537Y-96535506D01*
X155021185Y-96438815D01*
X154924494Y-96359463D01*
X154814180Y-96300498D01*
X154694482Y-96264188D01*
X154570000Y-96251928D01*
X152770000Y-96251928D01*
X152645518Y-96264188D01*
X152525820Y-96300498D01*
X152415506Y-96359463D01*
X152318815Y-96438815D01*
X152239463Y-96535506D01*
X152180498Y-96645820D01*
X152174944Y-96664127D01*
X152108505Y-96597688D01*
X151857095Y-96429701D01*
X151577743Y-96313989D01*
X151281184Y-96255000D01*
X150978816Y-96255000D01*
X150682257Y-96313989D01*
X150402905Y-96429701D01*
X150151495Y-96597688D01*
X149937688Y-96811495D01*
X149769701Y-97062905D01*
X149653989Y-97342257D01*
X149595000Y-97638816D01*
X94640000Y-97638816D01*
X94640000Y-95250000D01*
X173767815Y-95250000D01*
X173796487Y-95541111D01*
X173881401Y-95821034D01*
X174019294Y-96079014D01*
X174204866Y-96305134D01*
X174430986Y-96490706D01*
X174485791Y-96520000D01*
X174430986Y-96549294D01*
X174204866Y-96734866D01*
X174019294Y-96960986D01*
X173881401Y-97218966D01*
X173796487Y-97498889D01*
X173767815Y-97790000D01*
X173796487Y-98081111D01*
X173881401Y-98361034D01*
X174019294Y-98619014D01*
X174204866Y-98845134D01*
X174430986Y-99030706D01*
X174495523Y-99065201D01*
X174378645Y-99134822D01*
X174162412Y-99329731D01*
X173988359Y-99563080D01*
X173863175Y-99825901D01*
X173818524Y-99973110D01*
X173939845Y-100203000D01*
X175133000Y-100203000D01*
X175133000Y-100183000D01*
X175387000Y-100183000D01*
X175387000Y-100203000D01*
X176580155Y-100203000D01*
X176701476Y-99973110D01*
X176656825Y-99825901D01*
X176531641Y-99563080D01*
X176357588Y-99329731D01*
X176141355Y-99134822D01*
X176024477Y-99065201D01*
X176089014Y-99030706D01*
X176315134Y-98845134D01*
X176500706Y-98619014D01*
X176638599Y-98361034D01*
X176723513Y-98081111D01*
X176752185Y-97790000D01*
X176723513Y-97498889D01*
X176638599Y-97218966D01*
X176500706Y-96960986D01*
X176315134Y-96734866D01*
X176089014Y-96549294D01*
X176034209Y-96520000D01*
X176089014Y-96490706D01*
X176315134Y-96305134D01*
X176500706Y-96079014D01*
X176638599Y-95821034D01*
X176723513Y-95541111D01*
X176752185Y-95250000D01*
X176723513Y-94958889D01*
X176638599Y-94678966D01*
X176500706Y-94420986D01*
X176315134Y-94194866D01*
X176089014Y-94009294D01*
X176024477Y-93974799D01*
X176141355Y-93905178D01*
X176357588Y-93710269D01*
X176531641Y-93476920D01*
X176656825Y-93214099D01*
X176701476Y-93066890D01*
X176580155Y-92837000D01*
X175387000Y-92837000D01*
X175387000Y-92857000D01*
X175133000Y-92857000D01*
X175133000Y-92837000D01*
X173939845Y-92837000D01*
X173818524Y-93066890D01*
X173863175Y-93214099D01*
X173988359Y-93476920D01*
X174162412Y-93710269D01*
X174378645Y-93905178D01*
X174495523Y-93974799D01*
X174430986Y-94009294D01*
X174204866Y-94194866D01*
X174019294Y-94420986D01*
X173881401Y-94678966D01*
X173796487Y-94958889D01*
X173767815Y-95250000D01*
X94640000Y-95250000D01*
X94640000Y-89949872D01*
X122225000Y-89949872D01*
X122225000Y-90390128D01*
X122310890Y-90821925D01*
X122479369Y-91228669D01*
X122723962Y-91594729D01*
X123035271Y-91906038D01*
X123401331Y-92150631D01*
X123808075Y-92319110D01*
X124239872Y-92405000D01*
X124680128Y-92405000D01*
X125111925Y-92319110D01*
X125518669Y-92150631D01*
X125884729Y-91906038D01*
X126196038Y-91594729D01*
X126440631Y-91228669D01*
X126609110Y-90821925D01*
X126695000Y-90390128D01*
X126695000Y-90018816D01*
X149595000Y-90018816D01*
X149595000Y-90321184D01*
X149653989Y-90617743D01*
X149769701Y-90897095D01*
X149937688Y-91148505D01*
X150151495Y-91362312D01*
X150402905Y-91530299D01*
X150682257Y-91646011D01*
X150978816Y-91705000D01*
X151281184Y-91705000D01*
X151577743Y-91646011D01*
X151857095Y-91530299D01*
X152108505Y-91362312D01*
X152174944Y-91295873D01*
X152180498Y-91314180D01*
X152239463Y-91424494D01*
X152318815Y-91521185D01*
X152415506Y-91600537D01*
X152525820Y-91659502D01*
X152645518Y-91695812D01*
X152770000Y-91708072D01*
X154570000Y-91708072D01*
X154694482Y-91695812D01*
X154814180Y-91659502D01*
X154924494Y-91600537D01*
X155021185Y-91521185D01*
X155100537Y-91424494D01*
X155159502Y-91314180D01*
X155195812Y-91194482D01*
X155208072Y-91070000D01*
X155208072Y-90028665D01*
X156045000Y-90028665D01*
X156045000Y-90311335D01*
X156100147Y-90588574D01*
X156208320Y-90849727D01*
X156365363Y-91084759D01*
X156565241Y-91284637D01*
X156800273Y-91441680D01*
X157061426Y-91549853D01*
X157338665Y-91605000D01*
X157621335Y-91605000D01*
X157898574Y-91549853D01*
X158159727Y-91441680D01*
X158394759Y-91284637D01*
X158594637Y-91084759D01*
X158751680Y-90849727D01*
X158859853Y-90588574D01*
X158915000Y-90311335D01*
X158915000Y-90170000D01*
X166198057Y-90170000D01*
X166225764Y-90451309D01*
X166307818Y-90721808D01*
X166441068Y-90971101D01*
X166620392Y-91189608D01*
X166838899Y-91368932D01*
X167088192Y-91502182D01*
X167358691Y-91584236D01*
X167569508Y-91605000D01*
X167710492Y-91605000D01*
X167921309Y-91584236D01*
X168191808Y-91502182D01*
X168441101Y-91368932D01*
X168659608Y-91189608D01*
X168838932Y-90971101D01*
X168972182Y-90721808D01*
X169054236Y-90451309D01*
X169081943Y-90170000D01*
X169054236Y-89888691D01*
X168972182Y-89618192D01*
X168838932Y-89368899D01*
X168659608Y-89150392D01*
X168441101Y-88971068D01*
X168191808Y-88837818D01*
X167921309Y-88755764D01*
X167710492Y-88735000D01*
X167569508Y-88735000D01*
X167358691Y-88755764D01*
X167088192Y-88837818D01*
X166838899Y-88971068D01*
X166620392Y-89150392D01*
X166441068Y-89368899D01*
X166307818Y-89618192D01*
X166225764Y-89888691D01*
X166198057Y-90170000D01*
X158915000Y-90170000D01*
X158915000Y-90028665D01*
X158859853Y-89751426D01*
X158751680Y-89490273D01*
X158594637Y-89255241D01*
X158394759Y-89055363D01*
X158159727Y-88898320D01*
X157898574Y-88790147D01*
X157621335Y-88735000D01*
X157338665Y-88735000D01*
X157061426Y-88790147D01*
X156800273Y-88898320D01*
X156565241Y-89055363D01*
X156365363Y-89255241D01*
X156208320Y-89490273D01*
X156100147Y-89751426D01*
X156045000Y-90028665D01*
X155208072Y-90028665D01*
X155208072Y-89270000D01*
X155195812Y-89145518D01*
X155159502Y-89025820D01*
X155100537Y-88915506D01*
X155021185Y-88818815D01*
X154924494Y-88739463D01*
X154814180Y-88680498D01*
X154694482Y-88644188D01*
X154570000Y-88631928D01*
X152770000Y-88631928D01*
X152645518Y-88644188D01*
X152525820Y-88680498D01*
X152415506Y-88739463D01*
X152318815Y-88818815D01*
X152239463Y-88915506D01*
X152180498Y-89025820D01*
X152174944Y-89044127D01*
X152108505Y-88977688D01*
X151857095Y-88809701D01*
X151577743Y-88693989D01*
X151281184Y-88635000D01*
X150978816Y-88635000D01*
X150682257Y-88693989D01*
X150402905Y-88809701D01*
X150151495Y-88977688D01*
X149937688Y-89191495D01*
X149769701Y-89442905D01*
X149653989Y-89722257D01*
X149595000Y-90018816D01*
X126695000Y-90018816D01*
X126695000Y-89949872D01*
X126609110Y-89518075D01*
X126440631Y-89111331D01*
X126196038Y-88745271D01*
X125884729Y-88433962D01*
X125518669Y-88189369D01*
X125111925Y-88020890D01*
X124680128Y-87935000D01*
X124239872Y-87935000D01*
X123808075Y-88020890D01*
X123401331Y-88189369D01*
X123035271Y-88433962D01*
X122723962Y-88745271D01*
X122479369Y-89111331D01*
X122310890Y-89518075D01*
X122225000Y-89949872D01*
X94640000Y-89949872D01*
X94640000Y-87630000D01*
X173767815Y-87630000D01*
X173796487Y-87921111D01*
X173881401Y-88201034D01*
X174019294Y-88459014D01*
X174204866Y-88685134D01*
X174430986Y-88870706D01*
X174485791Y-88900000D01*
X174430986Y-88929294D01*
X174204866Y-89114866D01*
X174019294Y-89340986D01*
X173881401Y-89598966D01*
X173796487Y-89878889D01*
X173767815Y-90170000D01*
X173796487Y-90461111D01*
X173881401Y-90741034D01*
X174019294Y-90999014D01*
X174204866Y-91225134D01*
X174430986Y-91410706D01*
X174495523Y-91445201D01*
X174378645Y-91514822D01*
X174162412Y-91709731D01*
X173988359Y-91943080D01*
X173863175Y-92205901D01*
X173818524Y-92353110D01*
X173939845Y-92583000D01*
X175133000Y-92583000D01*
X175133000Y-92563000D01*
X175387000Y-92563000D01*
X175387000Y-92583000D01*
X176580155Y-92583000D01*
X176701476Y-92353110D01*
X176656825Y-92205901D01*
X176531641Y-91943080D01*
X176357588Y-91709731D01*
X176141355Y-91514822D01*
X176024477Y-91445201D01*
X176089014Y-91410706D01*
X176315134Y-91225134D01*
X176500706Y-90999014D01*
X176638599Y-90741034D01*
X176723513Y-90461111D01*
X176752185Y-90170000D01*
X176723513Y-89878889D01*
X176638599Y-89598966D01*
X176500706Y-89340986D01*
X176315134Y-89114866D01*
X176089014Y-88929294D01*
X176034209Y-88900000D01*
X176089014Y-88870706D01*
X176315134Y-88685134D01*
X176500706Y-88459014D01*
X176638599Y-88201034D01*
X176723513Y-87921111D01*
X176752185Y-87630000D01*
X176723513Y-87338889D01*
X176638599Y-87058966D01*
X176500706Y-86800986D01*
X176315134Y-86574866D01*
X176089014Y-86389294D01*
X176024477Y-86354799D01*
X176141355Y-86285178D01*
X176357588Y-86090269D01*
X176531641Y-85856920D01*
X176656825Y-85594099D01*
X176701476Y-85446890D01*
X176580155Y-85217000D01*
X175387000Y-85217000D01*
X175387000Y-85237000D01*
X175133000Y-85237000D01*
X175133000Y-85217000D01*
X173939845Y-85217000D01*
X173818524Y-85446890D01*
X173863175Y-85594099D01*
X173988359Y-85856920D01*
X174162412Y-86090269D01*
X174378645Y-86285178D01*
X174495523Y-86354799D01*
X174430986Y-86389294D01*
X174204866Y-86574866D01*
X174019294Y-86800986D01*
X173881401Y-87058966D01*
X173796487Y-87338889D01*
X173767815Y-87630000D01*
X94640000Y-87630000D01*
X94640000Y-82398816D01*
X149595000Y-82398816D01*
X149595000Y-82701184D01*
X149653989Y-82997743D01*
X149769701Y-83277095D01*
X149937688Y-83528505D01*
X150151495Y-83742312D01*
X150402905Y-83910299D01*
X150682257Y-84026011D01*
X150978816Y-84085000D01*
X151281184Y-84085000D01*
X151577743Y-84026011D01*
X151857095Y-83910299D01*
X152108505Y-83742312D01*
X152174944Y-83675873D01*
X152180498Y-83694180D01*
X152239463Y-83804494D01*
X152318815Y-83901185D01*
X152415506Y-83980537D01*
X152525820Y-84039502D01*
X152645518Y-84075812D01*
X152770000Y-84088072D01*
X154570000Y-84088072D01*
X154694482Y-84075812D01*
X154814180Y-84039502D01*
X154924494Y-83980537D01*
X155021185Y-83901185D01*
X155100537Y-83804494D01*
X155159502Y-83694180D01*
X155195812Y-83574482D01*
X155208072Y-83450000D01*
X155208072Y-82408665D01*
X156045000Y-82408665D01*
X156045000Y-82691335D01*
X156100147Y-82968574D01*
X156208320Y-83229727D01*
X156365363Y-83464759D01*
X156565241Y-83664637D01*
X156800273Y-83821680D01*
X157061426Y-83929853D01*
X157338665Y-83985000D01*
X157621335Y-83985000D01*
X157898574Y-83929853D01*
X158159727Y-83821680D01*
X158394759Y-83664637D01*
X158594637Y-83464759D01*
X158751680Y-83229727D01*
X158859853Y-82968574D01*
X158915000Y-82691335D01*
X158915000Y-82550000D01*
X166198057Y-82550000D01*
X166225764Y-82831309D01*
X166307818Y-83101808D01*
X166441068Y-83351101D01*
X166620392Y-83569608D01*
X166838899Y-83748932D01*
X167088192Y-83882182D01*
X167358691Y-83964236D01*
X167569508Y-83985000D01*
X167710492Y-83985000D01*
X167921309Y-83964236D01*
X168191808Y-83882182D01*
X168441101Y-83748932D01*
X168659608Y-83569608D01*
X168838932Y-83351101D01*
X168972182Y-83101808D01*
X169054236Y-82831309D01*
X169081943Y-82550000D01*
X169054236Y-82268691D01*
X168972182Y-81998192D01*
X168838932Y-81748899D01*
X168798802Y-81700000D01*
X173771928Y-81700000D01*
X173771928Y-83400000D01*
X173784188Y-83524482D01*
X173820498Y-83644180D01*
X173879463Y-83754494D01*
X173958815Y-83851185D01*
X174055506Y-83930537D01*
X174165820Y-83989502D01*
X174246466Y-84013966D01*
X174162412Y-84089731D01*
X173988359Y-84323080D01*
X173863175Y-84585901D01*
X173818524Y-84733110D01*
X173939845Y-84963000D01*
X175133000Y-84963000D01*
X175133000Y-84943000D01*
X175387000Y-84943000D01*
X175387000Y-84963000D01*
X176580155Y-84963000D01*
X176701476Y-84733110D01*
X176656825Y-84585901D01*
X176531641Y-84323080D01*
X176357588Y-84089731D01*
X176273534Y-84013966D01*
X176354180Y-83989502D01*
X176464494Y-83930537D01*
X176561185Y-83851185D01*
X176640537Y-83754494D01*
X176699502Y-83644180D01*
X176735812Y-83524482D01*
X176748072Y-83400000D01*
X176748072Y-81700000D01*
X176735812Y-81575518D01*
X176699502Y-81455820D01*
X176640537Y-81345506D01*
X176561185Y-81248815D01*
X176464494Y-81169463D01*
X176354180Y-81110498D01*
X176234482Y-81074188D01*
X176110000Y-81061928D01*
X174410000Y-81061928D01*
X174285518Y-81074188D01*
X174165820Y-81110498D01*
X174055506Y-81169463D01*
X173958815Y-81248815D01*
X173879463Y-81345506D01*
X173820498Y-81455820D01*
X173784188Y-81575518D01*
X173771928Y-81700000D01*
X168798802Y-81700000D01*
X168659608Y-81530392D01*
X168441101Y-81351068D01*
X168191808Y-81217818D01*
X167921309Y-81135764D01*
X167710492Y-81115000D01*
X167569508Y-81115000D01*
X167358691Y-81135764D01*
X167088192Y-81217818D01*
X166838899Y-81351068D01*
X166620392Y-81530392D01*
X166441068Y-81748899D01*
X166307818Y-81998192D01*
X166225764Y-82268691D01*
X166198057Y-82550000D01*
X158915000Y-82550000D01*
X158915000Y-82408665D01*
X158859853Y-82131426D01*
X158751680Y-81870273D01*
X158594637Y-81635241D01*
X158394759Y-81435363D01*
X158159727Y-81278320D01*
X157898574Y-81170147D01*
X157621335Y-81115000D01*
X157338665Y-81115000D01*
X157061426Y-81170147D01*
X156800273Y-81278320D01*
X156565241Y-81435363D01*
X156365363Y-81635241D01*
X156208320Y-81870273D01*
X156100147Y-82131426D01*
X156045000Y-82408665D01*
X155208072Y-82408665D01*
X155208072Y-81650000D01*
X155195812Y-81525518D01*
X155159502Y-81405820D01*
X155100537Y-81295506D01*
X155021185Y-81198815D01*
X154924494Y-81119463D01*
X154814180Y-81060498D01*
X154694482Y-81024188D01*
X154570000Y-81011928D01*
X152770000Y-81011928D01*
X152645518Y-81024188D01*
X152525820Y-81060498D01*
X152415506Y-81119463D01*
X152318815Y-81198815D01*
X152239463Y-81295506D01*
X152180498Y-81405820D01*
X152174944Y-81424127D01*
X152108505Y-81357688D01*
X151857095Y-81189701D01*
X151577743Y-81073989D01*
X151281184Y-81015000D01*
X150978816Y-81015000D01*
X150682257Y-81073989D01*
X150402905Y-81189701D01*
X150151495Y-81357688D01*
X149937688Y-81571495D01*
X149769701Y-81822905D01*
X149653989Y-82102257D01*
X149595000Y-82398816D01*
X94640000Y-82398816D01*
X94640000Y-78610000D01*
X95751928Y-78610000D01*
X95751928Y-81410000D01*
X95764188Y-81534482D01*
X95800498Y-81654180D01*
X95859463Y-81764494D01*
X95938815Y-81861185D01*
X96035506Y-81940537D01*
X96145820Y-81999502D01*
X96265518Y-82035812D01*
X96390000Y-82048072D01*
X99190000Y-82048072D01*
X99314482Y-82035812D01*
X99434180Y-81999502D01*
X99544494Y-81940537D01*
X99641185Y-81861185D01*
X99720537Y-81764494D01*
X99779502Y-81654180D01*
X99815812Y-81534482D01*
X99828072Y-81410000D01*
X99828072Y-79809570D01*
X100755000Y-79809570D01*
X100755000Y-80210430D01*
X100833204Y-80603587D01*
X100986607Y-80973934D01*
X101209313Y-81307237D01*
X101492763Y-81590687D01*
X101826066Y-81813393D01*
X102196413Y-81966796D01*
X102589570Y-82045000D01*
X102990430Y-82045000D01*
X103383587Y-81966796D01*
X103753934Y-81813393D01*
X104087237Y-81590687D01*
X104370687Y-81307237D01*
X104593393Y-80973934D01*
X104746796Y-80603587D01*
X104825000Y-80210430D01*
X104825000Y-79809570D01*
X105755000Y-79809570D01*
X105755000Y-80210430D01*
X105833204Y-80603587D01*
X105986607Y-80973934D01*
X106209313Y-81307237D01*
X106492763Y-81590687D01*
X106826066Y-81813393D01*
X107196413Y-81966796D01*
X107589570Y-82045000D01*
X107990430Y-82045000D01*
X108383587Y-81966796D01*
X108753934Y-81813393D01*
X109087237Y-81590687D01*
X109370687Y-81307237D01*
X109593393Y-80973934D01*
X109746796Y-80603587D01*
X109825000Y-80210430D01*
X109825000Y-79809570D01*
X110755000Y-79809570D01*
X110755000Y-80210430D01*
X110833204Y-80603587D01*
X110986607Y-80973934D01*
X111209313Y-81307237D01*
X111492763Y-81590687D01*
X111826066Y-81813393D01*
X112196413Y-81966796D01*
X112589570Y-82045000D01*
X112990430Y-82045000D01*
X113383587Y-81966796D01*
X113753934Y-81813393D01*
X114087237Y-81590687D01*
X114370687Y-81307237D01*
X114593393Y-80973934D01*
X114746796Y-80603587D01*
X114825000Y-80210430D01*
X114825000Y-79809570D01*
X114746796Y-79416413D01*
X114593393Y-79046066D01*
X114370687Y-78712763D01*
X114267924Y-78610000D01*
X118611928Y-78610000D01*
X118611928Y-81410000D01*
X118624188Y-81534482D01*
X118660498Y-81654180D01*
X118719463Y-81764494D01*
X118798815Y-81861185D01*
X118895506Y-81940537D01*
X119005820Y-81999502D01*
X119125518Y-82035812D01*
X119250000Y-82048072D01*
X122050000Y-82048072D01*
X122174482Y-82035812D01*
X122294180Y-81999502D01*
X122404494Y-81940537D01*
X122501185Y-81861185D01*
X122580537Y-81764494D01*
X122639502Y-81654180D01*
X122675812Y-81534482D01*
X122688072Y-81410000D01*
X122688072Y-79809570D01*
X123615000Y-79809570D01*
X123615000Y-80210430D01*
X123693204Y-80603587D01*
X123846607Y-80973934D01*
X124069313Y-81307237D01*
X124352763Y-81590687D01*
X124686066Y-81813393D01*
X125056413Y-81966796D01*
X125449570Y-82045000D01*
X125850430Y-82045000D01*
X126243587Y-81966796D01*
X126613934Y-81813393D01*
X126947237Y-81590687D01*
X127230687Y-81307237D01*
X127453393Y-80973934D01*
X127606796Y-80603587D01*
X127685000Y-80210430D01*
X127685000Y-79809570D01*
X127606796Y-79416413D01*
X127453393Y-79046066D01*
X127230687Y-78712763D01*
X126947237Y-78429313D01*
X126613934Y-78206607D01*
X126243587Y-78053204D01*
X125850430Y-77975000D01*
X125449570Y-77975000D01*
X125056413Y-78053204D01*
X124686066Y-78206607D01*
X124352763Y-78429313D01*
X124069313Y-78712763D01*
X123846607Y-79046066D01*
X123693204Y-79416413D01*
X123615000Y-79809570D01*
X122688072Y-79809570D01*
X122688072Y-78610000D01*
X122675812Y-78485518D01*
X122639502Y-78365820D01*
X122580537Y-78255506D01*
X122501185Y-78158815D01*
X122404494Y-78079463D01*
X122294180Y-78020498D01*
X122174482Y-77984188D01*
X122050000Y-77971928D01*
X119250000Y-77971928D01*
X119125518Y-77984188D01*
X119005820Y-78020498D01*
X118895506Y-78079463D01*
X118798815Y-78158815D01*
X118719463Y-78255506D01*
X118660498Y-78365820D01*
X118624188Y-78485518D01*
X118611928Y-78610000D01*
X114267924Y-78610000D01*
X114087237Y-78429313D01*
X113753934Y-78206607D01*
X113383587Y-78053204D01*
X112990430Y-77975000D01*
X112589570Y-77975000D01*
X112196413Y-78053204D01*
X111826066Y-78206607D01*
X111492763Y-78429313D01*
X111209313Y-78712763D01*
X110986607Y-79046066D01*
X110833204Y-79416413D01*
X110755000Y-79809570D01*
X109825000Y-79809570D01*
X109746796Y-79416413D01*
X109593393Y-79046066D01*
X109370687Y-78712763D01*
X109087237Y-78429313D01*
X108753934Y-78206607D01*
X108383587Y-78053204D01*
X107990430Y-77975000D01*
X107589570Y-77975000D01*
X107196413Y-78053204D01*
X106826066Y-78206607D01*
X106492763Y-78429313D01*
X106209313Y-78712763D01*
X105986607Y-79046066D01*
X105833204Y-79416413D01*
X105755000Y-79809570D01*
X104825000Y-79809570D01*
X104746796Y-79416413D01*
X104593393Y-79046066D01*
X104370687Y-78712763D01*
X104087237Y-78429313D01*
X103753934Y-78206607D01*
X103383587Y-78053204D01*
X102990430Y-77975000D01*
X102589570Y-77975000D01*
X102196413Y-78053204D01*
X101826066Y-78206607D01*
X101492763Y-78429313D01*
X101209313Y-78712763D01*
X100986607Y-79046066D01*
X100833204Y-79416413D01*
X100755000Y-79809570D01*
X99828072Y-79809570D01*
X99828072Y-78610000D01*
X99815812Y-78485518D01*
X99779502Y-78365820D01*
X99720537Y-78255506D01*
X99641185Y-78158815D01*
X99544494Y-78079463D01*
X99434180Y-78020498D01*
X99314482Y-77984188D01*
X99190000Y-77971928D01*
X96390000Y-77971928D01*
X96265518Y-77984188D01*
X96145820Y-78020498D01*
X96035506Y-78079463D01*
X95938815Y-78158815D01*
X95859463Y-78255506D01*
X95800498Y-78365820D01*
X95764188Y-78485518D01*
X95751928Y-78610000D01*
X94640000Y-78610000D01*
X94640000Y-77249872D01*
X167945000Y-77249872D01*
X167945000Y-77690128D01*
X168030890Y-78121925D01*
X168199369Y-78528669D01*
X168443962Y-78894729D01*
X168755271Y-79206038D01*
X169121331Y-79450631D01*
X169528075Y-79619110D01*
X169959872Y-79705000D01*
X170400128Y-79705000D01*
X170831925Y-79619110D01*
X171238669Y-79450631D01*
X171604729Y-79206038D01*
X171916038Y-78894729D01*
X172160631Y-78528669D01*
X172329110Y-78121925D01*
X172415000Y-77690128D01*
X172415000Y-77249872D01*
X172329110Y-76818075D01*
X172160631Y-76411331D01*
X171916038Y-76045271D01*
X171604729Y-75733962D01*
X171238669Y-75489369D01*
X170831925Y-75320890D01*
X170400128Y-75235000D01*
X169959872Y-75235000D01*
X169528075Y-75320890D01*
X169121331Y-75489369D01*
X168755271Y-75733962D01*
X168443962Y-76045271D01*
X168199369Y-76411331D01*
X168030890Y-76818075D01*
X167945000Y-77249872D01*
X94640000Y-77249872D01*
X94640000Y-73050000D01*
X186030001Y-73050000D01*
X186030000Y-127610000D01*
X186030000Y-127610000D01*
G37*
X186030000Y-127610000D02*
X94640000Y-127610000D01*
X94640000Y-121790000D01*
X95751928Y-121790000D01*
X95751928Y-124590000D01*
X95764188Y-124714482D01*
X95800498Y-124834180D01*
X95859463Y-124944494D01*
X95938815Y-125041185D01*
X96035506Y-125120537D01*
X96145820Y-125179502D01*
X96265518Y-125215812D01*
X96390000Y-125228072D01*
X99190000Y-125228072D01*
X99314482Y-125215812D01*
X99434180Y-125179502D01*
X99544494Y-125120537D01*
X99641185Y-125041185D01*
X99720537Y-124944494D01*
X99779502Y-124834180D01*
X99815812Y-124714482D01*
X99828072Y-124590000D01*
X99828072Y-122989570D01*
X100755000Y-122989570D01*
X100755000Y-123390430D01*
X100833204Y-123783587D01*
X100986607Y-124153934D01*
X101209313Y-124487237D01*
X101492763Y-124770687D01*
X101826066Y-124993393D01*
X102196413Y-125146796D01*
X102589570Y-125225000D01*
X102990430Y-125225000D01*
X103383587Y-125146796D01*
X103753934Y-124993393D01*
X104087237Y-124770687D01*
X104370687Y-124487237D01*
X104593393Y-124153934D01*
X104746796Y-123783587D01*
X104825000Y-123390430D01*
X104825000Y-122989570D01*
X105755000Y-122989570D01*
X105755000Y-123390430D01*
X105833204Y-123783587D01*
X105986607Y-124153934D01*
X106209313Y-124487237D01*
X106492763Y-124770687D01*
X106826066Y-124993393D01*
X107196413Y-125146796D01*
X107589570Y-125225000D01*
X107990430Y-125225000D01*
X108383587Y-125146796D01*
X108753934Y-124993393D01*
X109087237Y-124770687D01*
X109370687Y-124487237D01*
X109593393Y-124153934D01*
X109746796Y-123783587D01*
X109825000Y-123390430D01*
X109825000Y-122989570D01*
X110755000Y-122989570D01*
X110755000Y-123390430D01*
X110833204Y-123783587D01*
X110986607Y-124153934D01*
X111209313Y-124487237D01*
X111492763Y-124770687D01*
X111826066Y-124993393D01*
X112196413Y-125146796D01*
X112589570Y-125225000D01*
X112990430Y-125225000D01*
X113383587Y-125146796D01*
X113753934Y-124993393D01*
X114087237Y-124770687D01*
X114370687Y-124487237D01*
X114593393Y-124153934D01*
X114746796Y-123783587D01*
X114825000Y-123390430D01*
X114825000Y-122989570D01*
X114746796Y-122596413D01*
X114593393Y-122226066D01*
X114370687Y-121892763D01*
X114267924Y-121790000D01*
X119881928Y-121790000D01*
X119881928Y-124590000D01*
X119894188Y-124714482D01*
X119930498Y-124834180D01*
X119989463Y-124944494D01*
X120068815Y-125041185D01*
X120165506Y-125120537D01*
X120275820Y-125179502D01*
X120395518Y-125215812D01*
X120520000Y-125228072D01*
X123320000Y-125228072D01*
X123444482Y-125215812D01*
X123564180Y-125179502D01*
X123674494Y-125120537D01*
X123771185Y-125041185D01*
X123850537Y-124944494D01*
X123909502Y-124834180D01*
X123945812Y-124714482D01*
X123958072Y-124590000D01*
X123958072Y-122989570D01*
X124885000Y-122989570D01*
X124885000Y-123390430D01*
X124963204Y-123783587D01*
X125116607Y-124153934D01*
X125339313Y-124487237D01*
X125622763Y-124770687D01*
X125956066Y-124993393D01*
X126326413Y-125146796D01*
X126719570Y-125225000D01*
X127120430Y-125225000D01*
X127513587Y-125146796D01*
X127883934Y-124993393D01*
X128217237Y-124770687D01*
X128500687Y-124487237D01*
X128723393Y-124153934D01*
X128876796Y-123783587D01*
X128955000Y-123390430D01*
X128955000Y-122989570D01*
X129885000Y-122989570D01*
X129885000Y-123390430D01*
X129963204Y-123783587D01*
X130116607Y-124153934D01*
X130339313Y-124487237D01*
X130622763Y-124770687D01*
X130956066Y-124993393D01*
X131326413Y-125146796D01*
X131719570Y-125225000D01*
X132120430Y-125225000D01*
X132513587Y-125146796D01*
X132883934Y-124993393D01*
X133217237Y-124770687D01*
X133500687Y-124487237D01*
X133723393Y-124153934D01*
X133876796Y-123783587D01*
X133955000Y-123390430D01*
X133955000Y-122989570D01*
X134885000Y-122989570D01*
X134885000Y-123390430D01*
X134963204Y-123783587D01*
X135116607Y-124153934D01*
X135339313Y-124487237D01*
X135622763Y-124770687D01*
X135956066Y-124993393D01*
X136326413Y-125146796D01*
X136719570Y-125225000D01*
X137120430Y-125225000D01*
X137513587Y-125146796D01*
X137883934Y-124993393D01*
X138217237Y-124770687D01*
X138500687Y-124487237D01*
X138723393Y-124153934D01*
X138876796Y-123783587D01*
X138955000Y-123390430D01*
X138955000Y-122989570D01*
X139885000Y-122989570D01*
X139885000Y-123390430D01*
X139963204Y-123783587D01*
X140116607Y-124153934D01*
X140339313Y-124487237D01*
X140622763Y-124770687D01*
X140956066Y-124993393D01*
X141326413Y-125146796D01*
X141719570Y-125225000D01*
X142120430Y-125225000D01*
X142513587Y-125146796D01*
X142883934Y-124993393D01*
X143217237Y-124770687D01*
X143500687Y-124487237D01*
X143723393Y-124153934D01*
X143876796Y-123783587D01*
X143955000Y-123390430D01*
X143955000Y-122989570D01*
X144885000Y-122989570D01*
X144885000Y-123390430D01*
X144963204Y-123783587D01*
X145116607Y-124153934D01*
X145339313Y-124487237D01*
X145622763Y-124770687D01*
X145956066Y-124993393D01*
X146326413Y-125146796D01*
X146719570Y-125225000D01*
X147120430Y-125225000D01*
X147513587Y-125146796D01*
X147883934Y-124993393D01*
X148217237Y-124770687D01*
X148500687Y-124487237D01*
X148723393Y-124153934D01*
X148876796Y-123783587D01*
X148955000Y-123390430D01*
X148955000Y-122989570D01*
X148876796Y-122596413D01*
X148723393Y-122226066D01*
X148500687Y-121892763D01*
X148397924Y-121790000D01*
X154171928Y-121790000D01*
X154171928Y-124590000D01*
X154184188Y-124714482D01*
X154220498Y-124834180D01*
X154279463Y-124944494D01*
X154358815Y-125041185D01*
X154455506Y-125120537D01*
X154565820Y-125179502D01*
X154685518Y-125215812D01*
X154810000Y-125228072D01*
X157610000Y-125228072D01*
X157734482Y-125215812D01*
X157854180Y-125179502D01*
X157964494Y-125120537D01*
X158061185Y-125041185D01*
X158140537Y-124944494D01*
X158199502Y-124834180D01*
X158235812Y-124714482D01*
X158246058Y-124610447D01*
X159969158Y-124610447D01*
X160113135Y-124915770D01*
X160470892Y-125096597D01*
X160857053Y-125204155D01*
X161256777Y-125234310D01*
X161654704Y-125185904D01*
X162035540Y-125060795D01*
X162306865Y-124915770D01*
X162450842Y-124610447D01*
X161210000Y-123369605D01*
X159969158Y-124610447D01*
X158246058Y-124610447D01*
X158248072Y-124590000D01*
X158248072Y-123236777D01*
X159165690Y-123236777D01*
X159214096Y-123634704D01*
X159339205Y-124015540D01*
X159484230Y-124286865D01*
X159789553Y-124430842D01*
X161030395Y-123190000D01*
X161389605Y-123190000D01*
X162630447Y-124430842D01*
X162935770Y-124286865D01*
X163116597Y-123929108D01*
X163224155Y-123542947D01*
X163254310Y-123143223D01*
X163233223Y-122969872D01*
X167945000Y-122969872D01*
X167945000Y-123410128D01*
X168030890Y-123841925D01*
X168199369Y-124248669D01*
X168443962Y-124614729D01*
X168755271Y-124926038D01*
X169121331Y-125170631D01*
X169528075Y-125339110D01*
X169959872Y-125425000D01*
X170400128Y-125425000D01*
X170831925Y-125339110D01*
X171238669Y-125170631D01*
X171604729Y-124926038D01*
X171916038Y-124614729D01*
X172160631Y-124248669D01*
X172329110Y-123841925D01*
X172415000Y-123410128D01*
X172415000Y-122969872D01*
X172329110Y-122538075D01*
X172160631Y-122131331D01*
X171916038Y-121765271D01*
X171604729Y-121453962D01*
X171238669Y-121209369D01*
X170831925Y-121040890D01*
X170400128Y-120955000D01*
X169959872Y-120955000D01*
X169528075Y-121040890D01*
X169121331Y-121209369D01*
X168755271Y-121453962D01*
X168443962Y-121765271D01*
X168199369Y-122131331D01*
X168030890Y-122538075D01*
X167945000Y-122969872D01*
X163233223Y-122969872D01*
X163205904Y-122745296D01*
X163080795Y-122364460D01*
X162935770Y-122093135D01*
X162630447Y-121949158D01*
X161389605Y-123190000D01*
X161030395Y-123190000D01*
X159789553Y-121949158D01*
X159484230Y-122093135D01*
X159303403Y-122450892D01*
X159195845Y-122837053D01*
X159165690Y-123236777D01*
X158248072Y-123236777D01*
X158248072Y-121790000D01*
X158246059Y-121769553D01*
X159969158Y-121769553D01*
X161210000Y-123010395D01*
X162450842Y-121769553D01*
X162306865Y-121464230D01*
X161949108Y-121283403D01*
X161562947Y-121175845D01*
X161163223Y-121145690D01*
X160765296Y-121194096D01*
X160384460Y-121319205D01*
X160113135Y-121464230D01*
X159969158Y-121769553D01*
X158246059Y-121769553D01*
X158235812Y-121665518D01*
X158199502Y-121545820D01*
X158140537Y-121435506D01*
X158061185Y-121338815D01*
X157964494Y-121259463D01*
X157854180Y-121200498D01*
X157734482Y-121164188D01*
X157610000Y-121151928D01*
X154810000Y-121151928D01*
X154685518Y-121164188D01*
X154565820Y-121200498D01*
X154455506Y-121259463D01*
X154358815Y-121338815D01*
X154279463Y-121435506D01*
X154220498Y-121545820D01*
X154184188Y-121665518D01*
X154171928Y-121790000D01*
X148397924Y-121790000D01*
X148217237Y-121609313D01*
X147883934Y-121386607D01*
X147513587Y-121233204D01*
X147120430Y-121155000D01*
X146719570Y-121155000D01*
X146326413Y-121233204D01*
X145956066Y-121386607D01*
X145622763Y-121609313D01*
X145339313Y-121892763D01*
X145116607Y-122226066D01*
X144963204Y-122596413D01*
X144885000Y-122989570D01*
X143955000Y-122989570D01*
X143876796Y-122596413D01*
X143723393Y-122226066D01*
X143500687Y-121892763D01*
X143217237Y-121609313D01*
X142883934Y-121386607D01*
X142513587Y-121233204D01*
X142120430Y-121155000D01*
X141719570Y-121155000D01*
X141326413Y-121233204D01*
X140956066Y-121386607D01*
X140622763Y-121609313D01*
X140339313Y-121892763D01*
X140116607Y-122226066D01*
X139963204Y-122596413D01*
X139885000Y-122989570D01*
X138955000Y-122989570D01*
X138876796Y-122596413D01*
X138723393Y-122226066D01*
X138500687Y-121892763D01*
X138217237Y-121609313D01*
X137883934Y-121386607D01*
X137513587Y-121233204D01*
X137120430Y-121155000D01*
X136719570Y-121155000D01*
X136326413Y-121233204D01*
X135956066Y-121386607D01*
X135622763Y-121609313D01*
X135339313Y-121892763D01*
X135116607Y-122226066D01*
X134963204Y-122596413D01*
X134885000Y-122989570D01*
X133955000Y-122989570D01*
X133876796Y-122596413D01*
X133723393Y-122226066D01*
X133500687Y-121892763D01*
X133217237Y-121609313D01*
X132883934Y-121386607D01*
X132513587Y-121233204D01*
X132120430Y-121155000D01*
X131719570Y-121155000D01*
X131326413Y-121233204D01*
X130956066Y-121386607D01*
X130622763Y-121609313D01*
X130339313Y-121892763D01*
X130116607Y-122226066D01*
X129963204Y-122596413D01*
X129885000Y-122989570D01*
X128955000Y-122989570D01*
X128876796Y-122596413D01*
X128723393Y-122226066D01*
X128500687Y-121892763D01*
X128217237Y-121609313D01*
X127883934Y-121386607D01*
X127513587Y-121233204D01*
X127120430Y-121155000D01*
X126719570Y-121155000D01*
X126326413Y-121233204D01*
X125956066Y-121386607D01*
X125622763Y-121609313D01*
X125339313Y-121892763D01*
X125116607Y-122226066D01*
X124963204Y-122596413D01*
X124885000Y-122989570D01*
X123958072Y-122989570D01*
X123958072Y-121790000D01*
X123945812Y-121665518D01*
X123909502Y-121545820D01*
X123850537Y-121435506D01*
X123771185Y-121338815D01*
X123674494Y-121259463D01*
X123564180Y-121200498D01*
X123444482Y-121164188D01*
X123320000Y-121151928D01*
X120520000Y-121151928D01*
X120395518Y-121164188D01*
X120275820Y-121200498D01*
X120165506Y-121259463D01*
X120068815Y-121338815D01*
X119989463Y-121435506D01*
X119930498Y-121545820D01*
X119894188Y-121665518D01*
X119881928Y-121790000D01*
X114267924Y-121790000D01*
X114087237Y-121609313D01*
X113753934Y-121386607D01*
X113383587Y-121233204D01*
X112990430Y-121155000D01*
X112589570Y-121155000D01*
X112196413Y-121233204D01*
X111826066Y-121386607D01*
X111492763Y-121609313D01*
X111209313Y-121892763D01*
X110986607Y-122226066D01*
X110833204Y-122596413D01*
X110755000Y-122989570D01*
X109825000Y-122989570D01*
X109746796Y-122596413D01*
X109593393Y-122226066D01*
X109370687Y-121892763D01*
X109087237Y-121609313D01*
X108753934Y-121386607D01*
X108383587Y-121233204D01*
X107990430Y-121155000D01*
X107589570Y-121155000D01*
X107196413Y-121233204D01*
X106826066Y-121386607D01*
X106492763Y-121609313D01*
X106209313Y-121892763D01*
X105986607Y-122226066D01*
X105833204Y-122596413D01*
X105755000Y-122989570D01*
X104825000Y-122989570D01*
X104746796Y-122596413D01*
X104593393Y-122226066D01*
X104370687Y-121892763D01*
X104087237Y-121609313D01*
X103753934Y-121386607D01*
X103383587Y-121233204D01*
X102990430Y-121155000D01*
X102589570Y-121155000D01*
X102196413Y-121233204D01*
X101826066Y-121386607D01*
X101492763Y-121609313D01*
X101209313Y-121892763D01*
X100986607Y-122226066D01*
X100833204Y-122596413D01*
X100755000Y-122989570D01*
X99828072Y-122989570D01*
X99828072Y-121790000D01*
X99815812Y-121665518D01*
X99779502Y-121545820D01*
X99720537Y-121435506D01*
X99641185Y-121338815D01*
X99544494Y-121259463D01*
X99434180Y-121200498D01*
X99314482Y-121164188D01*
X99190000Y-121151928D01*
X96390000Y-121151928D01*
X96265518Y-121164188D01*
X96145820Y-121200498D01*
X96035506Y-121259463D01*
X95938815Y-121338815D01*
X95859463Y-121435506D01*
X95800498Y-121545820D01*
X95764188Y-121665518D01*
X95751928Y-121790000D01*
X94640000Y-121790000D01*
X94640000Y-118110000D01*
X173767815Y-118110000D01*
X173796487Y-118401111D01*
X173881401Y-118681034D01*
X174019294Y-118939014D01*
X174204866Y-119165134D01*
X174430986Y-119350706D01*
X174688966Y-119488599D01*
X174968889Y-119573513D01*
X175187050Y-119595000D01*
X175332950Y-119595000D01*
X175551111Y-119573513D01*
X175831034Y-119488599D01*
X176089014Y-119350706D01*
X176315134Y-119165134D01*
X176500706Y-118939014D01*
X176638599Y-118681034D01*
X176723513Y-118401111D01*
X176752185Y-118110000D01*
X176723513Y-117818889D01*
X176638599Y-117538966D01*
X176500706Y-117280986D01*
X176315134Y-117054866D01*
X176089014Y-116869294D01*
X176024477Y-116834799D01*
X176141355Y-116765178D01*
X176357588Y-116570269D01*
X176531641Y-116336920D01*
X176656825Y-116074099D01*
X176701476Y-115926890D01*
X176580155Y-115697000D01*
X175387000Y-115697000D01*
X175387000Y-115717000D01*
X175133000Y-115717000D01*
X175133000Y-115697000D01*
X173939845Y-115697000D01*
X173818524Y-115926890D01*
X173863175Y-116074099D01*
X173988359Y-116336920D01*
X174162412Y-116570269D01*
X174378645Y-116765178D01*
X174495523Y-116834799D01*
X174430986Y-116869294D01*
X174204866Y-117054866D01*
X174019294Y-117280986D01*
X173881401Y-117538966D01*
X173796487Y-117818889D01*
X173767815Y-118110000D01*
X94640000Y-118110000D01*
X94640000Y-112878816D01*
X149595000Y-112878816D01*
X149595000Y-113181184D01*
X149653989Y-113477743D01*
X149769701Y-113757095D01*
X149937688Y-114008505D01*
X150151495Y-114222312D01*
X150402905Y-114390299D01*
X150682257Y-114506011D01*
X150978816Y-114565000D01*
X151281184Y-114565000D01*
X151577743Y-114506011D01*
X151857095Y-114390299D01*
X152108505Y-114222312D01*
X152174944Y-114155873D01*
X152180498Y-114174180D01*
X152239463Y-114284494D01*
X152318815Y-114381185D01*
X152415506Y-114460537D01*
X152525820Y-114519502D01*
X152645518Y-114555812D01*
X152770000Y-114568072D01*
X154570000Y-114568072D01*
X154694482Y-114555812D01*
X154814180Y-114519502D01*
X154924494Y-114460537D01*
X155021185Y-114381185D01*
X155100537Y-114284494D01*
X155159502Y-114174180D01*
X155195812Y-114054482D01*
X155208072Y-113930000D01*
X155208072Y-112888665D01*
X156045000Y-112888665D01*
X156045000Y-113171335D01*
X156100147Y-113448574D01*
X156208320Y-113709727D01*
X156365363Y-113944759D01*
X156565241Y-114144637D01*
X156800273Y-114301680D01*
X157061426Y-114409853D01*
X157338665Y-114465000D01*
X157621335Y-114465000D01*
X157898574Y-114409853D01*
X158159727Y-114301680D01*
X158394759Y-114144637D01*
X158594637Y-113944759D01*
X158751680Y-113709727D01*
X158859853Y-113448574D01*
X158915000Y-113171335D01*
X158915000Y-113030000D01*
X166198057Y-113030000D01*
X166225764Y-113311309D01*
X166307818Y-113581808D01*
X166441068Y-113831101D01*
X166620392Y-114049608D01*
X166838899Y-114228932D01*
X167088192Y-114362182D01*
X167358691Y-114444236D01*
X167569508Y-114465000D01*
X167710492Y-114465000D01*
X167921309Y-114444236D01*
X168191808Y-114362182D01*
X168441101Y-114228932D01*
X168659608Y-114049608D01*
X168838932Y-113831101D01*
X168972182Y-113581808D01*
X169054236Y-113311309D01*
X169081943Y-113030000D01*
X169054236Y-112748691D01*
X168972182Y-112478192D01*
X168838932Y-112228899D01*
X168659608Y-112010392D01*
X168441101Y-111831068D01*
X168191808Y-111697818D01*
X167921309Y-111615764D01*
X167710492Y-111595000D01*
X167569508Y-111595000D01*
X167358691Y-111615764D01*
X167088192Y-111697818D01*
X166838899Y-111831068D01*
X166620392Y-112010392D01*
X166441068Y-112228899D01*
X166307818Y-112478192D01*
X166225764Y-112748691D01*
X166198057Y-113030000D01*
X158915000Y-113030000D01*
X158915000Y-112888665D01*
X158859853Y-112611426D01*
X158751680Y-112350273D01*
X158594637Y-112115241D01*
X158394759Y-111915363D01*
X158159727Y-111758320D01*
X157898574Y-111650147D01*
X157621335Y-111595000D01*
X157338665Y-111595000D01*
X157061426Y-111650147D01*
X156800273Y-111758320D01*
X156565241Y-111915363D01*
X156365363Y-112115241D01*
X156208320Y-112350273D01*
X156100147Y-112611426D01*
X156045000Y-112888665D01*
X155208072Y-112888665D01*
X155208072Y-112130000D01*
X155195812Y-112005518D01*
X155159502Y-111885820D01*
X155100537Y-111775506D01*
X155021185Y-111678815D01*
X154924494Y-111599463D01*
X154814180Y-111540498D01*
X154694482Y-111504188D01*
X154570000Y-111491928D01*
X152770000Y-111491928D01*
X152645518Y-111504188D01*
X152525820Y-111540498D01*
X152415506Y-111599463D01*
X152318815Y-111678815D01*
X152239463Y-111775506D01*
X152180498Y-111885820D01*
X152174944Y-111904127D01*
X152108505Y-111837688D01*
X151857095Y-111669701D01*
X151577743Y-111553989D01*
X151281184Y-111495000D01*
X150978816Y-111495000D01*
X150682257Y-111553989D01*
X150402905Y-111669701D01*
X150151495Y-111837688D01*
X149937688Y-112051495D01*
X149769701Y-112302905D01*
X149653989Y-112582257D01*
X149595000Y-112878816D01*
X94640000Y-112878816D01*
X94640000Y-110490000D01*
X173767815Y-110490000D01*
X173796487Y-110781111D01*
X173881401Y-111061034D01*
X174019294Y-111319014D01*
X174204866Y-111545134D01*
X174430986Y-111730706D01*
X174485791Y-111760000D01*
X174430986Y-111789294D01*
X174204866Y-111974866D01*
X174019294Y-112200986D01*
X173881401Y-112458966D01*
X173796487Y-112738889D01*
X173767815Y-113030000D01*
X173796487Y-113321111D01*
X173881401Y-113601034D01*
X174019294Y-113859014D01*
X174204866Y-114085134D01*
X174430986Y-114270706D01*
X174495523Y-114305201D01*
X174378645Y-114374822D01*
X174162412Y-114569731D01*
X173988359Y-114803080D01*
X173863175Y-115065901D01*
X173818524Y-115213110D01*
X173939845Y-115443000D01*
X175133000Y-115443000D01*
X175133000Y-115423000D01*
X175387000Y-115423000D01*
X175387000Y-115443000D01*
X176580155Y-115443000D01*
X176701476Y-115213110D01*
X176656825Y-115065901D01*
X176531641Y-114803080D01*
X176357588Y-114569731D01*
X176141355Y-114374822D01*
X176024477Y-114305201D01*
X176089014Y-114270706D01*
X176315134Y-114085134D01*
X176500706Y-113859014D01*
X176638599Y-113601034D01*
X176723513Y-113321111D01*
X176752185Y-113030000D01*
X176723513Y-112738889D01*
X176638599Y-112458966D01*
X176500706Y-112200986D01*
X176315134Y-111974866D01*
X176089014Y-111789294D01*
X176034209Y-111760000D01*
X176089014Y-111730706D01*
X176315134Y-111545134D01*
X176500706Y-111319014D01*
X176638599Y-111061034D01*
X176723513Y-110781111D01*
X176752185Y-110490000D01*
X176723513Y-110198889D01*
X176638599Y-109918966D01*
X176500706Y-109660986D01*
X176315134Y-109434866D01*
X176089014Y-109249294D01*
X176024477Y-109214799D01*
X176141355Y-109145178D01*
X176357588Y-108950269D01*
X176531641Y-108716920D01*
X176656825Y-108454099D01*
X176701476Y-108306890D01*
X176580155Y-108077000D01*
X175387000Y-108077000D01*
X175387000Y-108097000D01*
X175133000Y-108097000D01*
X175133000Y-108077000D01*
X173939845Y-108077000D01*
X173818524Y-108306890D01*
X173863175Y-108454099D01*
X173988359Y-108716920D01*
X174162412Y-108950269D01*
X174378645Y-109145178D01*
X174495523Y-109214799D01*
X174430986Y-109249294D01*
X174204866Y-109434866D01*
X174019294Y-109660986D01*
X173881401Y-109918966D01*
X173796487Y-110198889D01*
X173767815Y-110490000D01*
X94640000Y-110490000D01*
X94640000Y-107729872D01*
X122225000Y-107729872D01*
X122225000Y-108170128D01*
X122310890Y-108601925D01*
X122479369Y-109008669D01*
X122723962Y-109374729D01*
X123035271Y-109686038D01*
X123401331Y-109930631D01*
X123808075Y-110099110D01*
X124239872Y-110185000D01*
X124680128Y-110185000D01*
X125111925Y-110099110D01*
X125518669Y-109930631D01*
X125884729Y-109686038D01*
X126196038Y-109374729D01*
X126440631Y-109008669D01*
X126609110Y-108601925D01*
X126695000Y-108170128D01*
X126695000Y-107729872D01*
X126609110Y-107298075D01*
X126440631Y-106891331D01*
X126196038Y-106525271D01*
X125884729Y-106213962D01*
X125518669Y-105969369D01*
X125111925Y-105800890D01*
X124680128Y-105715000D01*
X124239872Y-105715000D01*
X123808075Y-105800890D01*
X123401331Y-105969369D01*
X123035271Y-106213962D01*
X122723962Y-106525271D01*
X122479369Y-106891331D01*
X122310890Y-107298075D01*
X122225000Y-107729872D01*
X94640000Y-107729872D01*
X94640000Y-105258816D01*
X149595000Y-105258816D01*
X149595000Y-105561184D01*
X149653989Y-105857743D01*
X149769701Y-106137095D01*
X149937688Y-106388505D01*
X150151495Y-106602312D01*
X150402905Y-106770299D01*
X150682257Y-106886011D01*
X150978816Y-106945000D01*
X151281184Y-106945000D01*
X151577743Y-106886011D01*
X151857095Y-106770299D01*
X152108505Y-106602312D01*
X152174944Y-106535873D01*
X152180498Y-106554180D01*
X152239463Y-106664494D01*
X152318815Y-106761185D01*
X152415506Y-106840537D01*
X152525820Y-106899502D01*
X152645518Y-106935812D01*
X152770000Y-106948072D01*
X154570000Y-106948072D01*
X154694482Y-106935812D01*
X154814180Y-106899502D01*
X154924494Y-106840537D01*
X155021185Y-106761185D01*
X155100537Y-106664494D01*
X155159502Y-106554180D01*
X155195812Y-106434482D01*
X155208072Y-106310000D01*
X155208072Y-105268665D01*
X156045000Y-105268665D01*
X156045000Y-105551335D01*
X156100147Y-105828574D01*
X156208320Y-106089727D01*
X156365363Y-106324759D01*
X156565241Y-106524637D01*
X156800273Y-106681680D01*
X157061426Y-106789853D01*
X157338665Y-106845000D01*
X157621335Y-106845000D01*
X157898574Y-106789853D01*
X158159727Y-106681680D01*
X158394759Y-106524637D01*
X158594637Y-106324759D01*
X158751680Y-106089727D01*
X158859853Y-105828574D01*
X158915000Y-105551335D01*
X158915000Y-105410000D01*
X166198057Y-105410000D01*
X166225764Y-105691309D01*
X166307818Y-105961808D01*
X166441068Y-106211101D01*
X166620392Y-106429608D01*
X166838899Y-106608932D01*
X167088192Y-106742182D01*
X167358691Y-106824236D01*
X167569508Y-106845000D01*
X167710492Y-106845000D01*
X167921309Y-106824236D01*
X168191808Y-106742182D01*
X168441101Y-106608932D01*
X168659608Y-106429608D01*
X168838932Y-106211101D01*
X168972182Y-105961808D01*
X169054236Y-105691309D01*
X169081943Y-105410000D01*
X169054236Y-105128691D01*
X168972182Y-104858192D01*
X168838932Y-104608899D01*
X168659608Y-104390392D01*
X168441101Y-104211068D01*
X168191808Y-104077818D01*
X167921309Y-103995764D01*
X167710492Y-103975000D01*
X167569508Y-103975000D01*
X167358691Y-103995764D01*
X167088192Y-104077818D01*
X166838899Y-104211068D01*
X166620392Y-104390392D01*
X166441068Y-104608899D01*
X166307818Y-104858192D01*
X166225764Y-105128691D01*
X166198057Y-105410000D01*
X158915000Y-105410000D01*
X158915000Y-105268665D01*
X158859853Y-104991426D01*
X158751680Y-104730273D01*
X158594637Y-104495241D01*
X158394759Y-104295363D01*
X158159727Y-104138320D01*
X157898574Y-104030147D01*
X157621335Y-103975000D01*
X157338665Y-103975000D01*
X157061426Y-104030147D01*
X156800273Y-104138320D01*
X156565241Y-104295363D01*
X156365363Y-104495241D01*
X156208320Y-104730273D01*
X156100147Y-104991426D01*
X156045000Y-105268665D01*
X155208072Y-105268665D01*
X155208072Y-104510000D01*
X155195812Y-104385518D01*
X155159502Y-104265820D01*
X155100537Y-104155506D01*
X155021185Y-104058815D01*
X154924494Y-103979463D01*
X154814180Y-103920498D01*
X154694482Y-103884188D01*
X154570000Y-103871928D01*
X152770000Y-103871928D01*
X152645518Y-103884188D01*
X152525820Y-103920498D01*
X152415506Y-103979463D01*
X152318815Y-104058815D01*
X152239463Y-104155506D01*
X152180498Y-104265820D01*
X152174944Y-104284127D01*
X152108505Y-104217688D01*
X151857095Y-104049701D01*
X151577743Y-103933989D01*
X151281184Y-103875000D01*
X150978816Y-103875000D01*
X150682257Y-103933989D01*
X150402905Y-104049701D01*
X150151495Y-104217688D01*
X149937688Y-104431495D01*
X149769701Y-104682905D01*
X149653989Y-104962257D01*
X149595000Y-105258816D01*
X94640000Y-105258816D01*
X94640000Y-102870000D01*
X173767815Y-102870000D01*
X173796487Y-103161111D01*
X173881401Y-103441034D01*
X174019294Y-103699014D01*
X174204866Y-103925134D01*
X174430986Y-104110706D01*
X174485791Y-104140000D01*
X174430986Y-104169294D01*
X174204866Y-104354866D01*
X174019294Y-104580986D01*
X173881401Y-104838966D01*
X173796487Y-105118889D01*
X173767815Y-105410000D01*
X173796487Y-105701111D01*
X173881401Y-105981034D01*
X174019294Y-106239014D01*
X174204866Y-106465134D01*
X174430986Y-106650706D01*
X174495523Y-106685201D01*
X174378645Y-106754822D01*
X174162412Y-106949731D01*
X173988359Y-107183080D01*
X173863175Y-107445901D01*
X173818524Y-107593110D01*
X173939845Y-107823000D01*
X175133000Y-107823000D01*
X175133000Y-107803000D01*
X175387000Y-107803000D01*
X175387000Y-107823000D01*
X176580155Y-107823000D01*
X176701476Y-107593110D01*
X176656825Y-107445901D01*
X176531641Y-107183080D01*
X176357588Y-106949731D01*
X176141355Y-106754822D01*
X176024477Y-106685201D01*
X176089014Y-106650706D01*
X176315134Y-106465134D01*
X176500706Y-106239014D01*
X176638599Y-105981034D01*
X176723513Y-105701111D01*
X176752185Y-105410000D01*
X176723513Y-105118889D01*
X176638599Y-104838966D01*
X176500706Y-104580986D01*
X176315134Y-104354866D01*
X176089014Y-104169294D01*
X176034209Y-104140000D01*
X176089014Y-104110706D01*
X176315134Y-103925134D01*
X176500706Y-103699014D01*
X176638599Y-103441034D01*
X176723513Y-103161111D01*
X176752185Y-102870000D01*
X176723513Y-102578889D01*
X176638599Y-102298966D01*
X176500706Y-102040986D01*
X176315134Y-101814866D01*
X176089014Y-101629294D01*
X176024477Y-101594799D01*
X176141355Y-101525178D01*
X176357588Y-101330269D01*
X176531641Y-101096920D01*
X176656825Y-100834099D01*
X176701476Y-100686890D01*
X176580155Y-100457000D01*
X175387000Y-100457000D01*
X175387000Y-100477000D01*
X175133000Y-100477000D01*
X175133000Y-100457000D01*
X173939845Y-100457000D01*
X173818524Y-100686890D01*
X173863175Y-100834099D01*
X173988359Y-101096920D01*
X174162412Y-101330269D01*
X174378645Y-101525178D01*
X174495523Y-101594799D01*
X174430986Y-101629294D01*
X174204866Y-101814866D01*
X174019294Y-102040986D01*
X173881401Y-102298966D01*
X173796487Y-102578889D01*
X173767815Y-102870000D01*
X94640000Y-102870000D01*
X94640000Y-97638816D01*
X149595000Y-97638816D01*
X149595000Y-97941184D01*
X149653989Y-98237743D01*
X149769701Y-98517095D01*
X149937688Y-98768505D01*
X150151495Y-98982312D01*
X150402905Y-99150299D01*
X150682257Y-99266011D01*
X150978816Y-99325000D01*
X151281184Y-99325000D01*
X151577743Y-99266011D01*
X151857095Y-99150299D01*
X152108505Y-98982312D01*
X152174944Y-98915873D01*
X152180498Y-98934180D01*
X152239463Y-99044494D01*
X152318815Y-99141185D01*
X152415506Y-99220537D01*
X152525820Y-99279502D01*
X152645518Y-99315812D01*
X152770000Y-99328072D01*
X154570000Y-99328072D01*
X154694482Y-99315812D01*
X154814180Y-99279502D01*
X154924494Y-99220537D01*
X155021185Y-99141185D01*
X155100537Y-99044494D01*
X155159502Y-98934180D01*
X155195812Y-98814482D01*
X155208072Y-98690000D01*
X155208072Y-97648665D01*
X156045000Y-97648665D01*
X156045000Y-97931335D01*
X156100147Y-98208574D01*
X156208320Y-98469727D01*
X156365363Y-98704759D01*
X156565241Y-98904637D01*
X156800273Y-99061680D01*
X157061426Y-99169853D01*
X157338665Y-99225000D01*
X157621335Y-99225000D01*
X157898574Y-99169853D01*
X158159727Y-99061680D01*
X158394759Y-98904637D01*
X158594637Y-98704759D01*
X158751680Y-98469727D01*
X158859853Y-98208574D01*
X158915000Y-97931335D01*
X158915000Y-97790000D01*
X166198057Y-97790000D01*
X166225764Y-98071309D01*
X166307818Y-98341808D01*
X166441068Y-98591101D01*
X166620392Y-98809608D01*
X166838899Y-98988932D01*
X167088192Y-99122182D01*
X167358691Y-99204236D01*
X167569508Y-99225000D01*
X167710492Y-99225000D01*
X167921309Y-99204236D01*
X168191808Y-99122182D01*
X168441101Y-98988932D01*
X168659608Y-98809608D01*
X168838932Y-98591101D01*
X168972182Y-98341808D01*
X169054236Y-98071309D01*
X169081943Y-97790000D01*
X169054236Y-97508691D01*
X168972182Y-97238192D01*
X168838932Y-96988899D01*
X168659608Y-96770392D01*
X168441101Y-96591068D01*
X168191808Y-96457818D01*
X167921309Y-96375764D01*
X167710492Y-96355000D01*
X167569508Y-96355000D01*
X167358691Y-96375764D01*
X167088192Y-96457818D01*
X166838899Y-96591068D01*
X166620392Y-96770392D01*
X166441068Y-96988899D01*
X166307818Y-97238192D01*
X166225764Y-97508691D01*
X166198057Y-97790000D01*
X158915000Y-97790000D01*
X158915000Y-97648665D01*
X158859853Y-97371426D01*
X158751680Y-97110273D01*
X158594637Y-96875241D01*
X158394759Y-96675363D01*
X158159727Y-96518320D01*
X157898574Y-96410147D01*
X157621335Y-96355000D01*
X157338665Y-96355000D01*
X157061426Y-96410147D01*
X156800273Y-96518320D01*
X156565241Y-96675363D01*
X156365363Y-96875241D01*
X156208320Y-97110273D01*
X156100147Y-97371426D01*
X156045000Y-97648665D01*
X155208072Y-97648665D01*
X155208072Y-96890000D01*
X155195812Y-96765518D01*
X155159502Y-96645820D01*
X155100537Y-96535506D01*
X155021185Y-96438815D01*
X154924494Y-96359463D01*
X154814180Y-96300498D01*
X154694482Y-96264188D01*
X154570000Y-96251928D01*
X152770000Y-96251928D01*
X152645518Y-96264188D01*
X152525820Y-96300498D01*
X152415506Y-96359463D01*
X152318815Y-96438815D01*
X152239463Y-96535506D01*
X152180498Y-96645820D01*
X152174944Y-96664127D01*
X152108505Y-96597688D01*
X151857095Y-96429701D01*
X151577743Y-96313989D01*
X151281184Y-96255000D01*
X150978816Y-96255000D01*
X150682257Y-96313989D01*
X150402905Y-96429701D01*
X150151495Y-96597688D01*
X149937688Y-96811495D01*
X149769701Y-97062905D01*
X149653989Y-97342257D01*
X149595000Y-97638816D01*
X94640000Y-97638816D01*
X94640000Y-95250000D01*
X173767815Y-95250000D01*
X173796487Y-95541111D01*
X173881401Y-95821034D01*
X174019294Y-96079014D01*
X174204866Y-96305134D01*
X174430986Y-96490706D01*
X174485791Y-96520000D01*
X174430986Y-96549294D01*
X174204866Y-96734866D01*
X174019294Y-96960986D01*
X173881401Y-97218966D01*
X173796487Y-97498889D01*
X173767815Y-97790000D01*
X173796487Y-98081111D01*
X173881401Y-98361034D01*
X174019294Y-98619014D01*
X174204866Y-98845134D01*
X174430986Y-99030706D01*
X174495523Y-99065201D01*
X174378645Y-99134822D01*
X174162412Y-99329731D01*
X173988359Y-99563080D01*
X173863175Y-99825901D01*
X173818524Y-99973110D01*
X173939845Y-100203000D01*
X175133000Y-100203000D01*
X175133000Y-100183000D01*
X175387000Y-100183000D01*
X175387000Y-100203000D01*
X176580155Y-100203000D01*
X176701476Y-99973110D01*
X176656825Y-99825901D01*
X176531641Y-99563080D01*
X176357588Y-99329731D01*
X176141355Y-99134822D01*
X176024477Y-99065201D01*
X176089014Y-99030706D01*
X176315134Y-98845134D01*
X176500706Y-98619014D01*
X176638599Y-98361034D01*
X176723513Y-98081111D01*
X176752185Y-97790000D01*
X176723513Y-97498889D01*
X176638599Y-97218966D01*
X176500706Y-96960986D01*
X176315134Y-96734866D01*
X176089014Y-96549294D01*
X176034209Y-96520000D01*
X176089014Y-96490706D01*
X176315134Y-96305134D01*
X176500706Y-96079014D01*
X176638599Y-95821034D01*
X176723513Y-95541111D01*
X176752185Y-95250000D01*
X176723513Y-94958889D01*
X176638599Y-94678966D01*
X176500706Y-94420986D01*
X176315134Y-94194866D01*
X176089014Y-94009294D01*
X176024477Y-93974799D01*
X176141355Y-93905178D01*
X176357588Y-93710269D01*
X176531641Y-93476920D01*
X176656825Y-93214099D01*
X176701476Y-93066890D01*
X176580155Y-92837000D01*
X175387000Y-92837000D01*
X175387000Y-92857000D01*
X175133000Y-92857000D01*
X175133000Y-92837000D01*
X173939845Y-92837000D01*
X173818524Y-93066890D01*
X173863175Y-93214099D01*
X173988359Y-93476920D01*
X174162412Y-93710269D01*
X174378645Y-93905178D01*
X174495523Y-93974799D01*
X174430986Y-94009294D01*
X174204866Y-94194866D01*
X174019294Y-94420986D01*
X173881401Y-94678966D01*
X173796487Y-94958889D01*
X173767815Y-95250000D01*
X94640000Y-95250000D01*
X94640000Y-89949872D01*
X122225000Y-89949872D01*
X122225000Y-90390128D01*
X122310890Y-90821925D01*
X122479369Y-91228669D01*
X122723962Y-91594729D01*
X123035271Y-91906038D01*
X123401331Y-92150631D01*
X123808075Y-92319110D01*
X124239872Y-92405000D01*
X124680128Y-92405000D01*
X125111925Y-92319110D01*
X125518669Y-92150631D01*
X125884729Y-91906038D01*
X126196038Y-91594729D01*
X126440631Y-91228669D01*
X126609110Y-90821925D01*
X126695000Y-90390128D01*
X126695000Y-90018816D01*
X149595000Y-90018816D01*
X149595000Y-90321184D01*
X149653989Y-90617743D01*
X149769701Y-90897095D01*
X149937688Y-91148505D01*
X150151495Y-91362312D01*
X150402905Y-91530299D01*
X150682257Y-91646011D01*
X150978816Y-91705000D01*
X151281184Y-91705000D01*
X151577743Y-91646011D01*
X151857095Y-91530299D01*
X152108505Y-91362312D01*
X152174944Y-91295873D01*
X152180498Y-91314180D01*
X152239463Y-91424494D01*
X152318815Y-91521185D01*
X152415506Y-91600537D01*
X152525820Y-91659502D01*
X152645518Y-91695812D01*
X152770000Y-91708072D01*
X154570000Y-91708072D01*
X154694482Y-91695812D01*
X154814180Y-91659502D01*
X154924494Y-91600537D01*
X155021185Y-91521185D01*
X155100537Y-91424494D01*
X155159502Y-91314180D01*
X155195812Y-91194482D01*
X155208072Y-91070000D01*
X155208072Y-90028665D01*
X156045000Y-90028665D01*
X156045000Y-90311335D01*
X156100147Y-90588574D01*
X156208320Y-90849727D01*
X156365363Y-91084759D01*
X156565241Y-91284637D01*
X156800273Y-91441680D01*
X157061426Y-91549853D01*
X157338665Y-91605000D01*
X157621335Y-91605000D01*
X157898574Y-91549853D01*
X158159727Y-91441680D01*
X158394759Y-91284637D01*
X158594637Y-91084759D01*
X158751680Y-90849727D01*
X158859853Y-90588574D01*
X158915000Y-90311335D01*
X158915000Y-90170000D01*
X166198057Y-90170000D01*
X166225764Y-90451309D01*
X166307818Y-90721808D01*
X166441068Y-90971101D01*
X166620392Y-91189608D01*
X166838899Y-91368932D01*
X167088192Y-91502182D01*
X167358691Y-91584236D01*
X167569508Y-91605000D01*
X167710492Y-91605000D01*
X167921309Y-91584236D01*
X168191808Y-91502182D01*
X168441101Y-91368932D01*
X168659608Y-91189608D01*
X168838932Y-90971101D01*
X168972182Y-90721808D01*
X169054236Y-90451309D01*
X169081943Y-90170000D01*
X169054236Y-89888691D01*
X168972182Y-89618192D01*
X168838932Y-89368899D01*
X168659608Y-89150392D01*
X168441101Y-88971068D01*
X168191808Y-88837818D01*
X167921309Y-88755764D01*
X167710492Y-88735000D01*
X167569508Y-88735000D01*
X167358691Y-88755764D01*
X167088192Y-88837818D01*
X166838899Y-88971068D01*
X166620392Y-89150392D01*
X166441068Y-89368899D01*
X166307818Y-89618192D01*
X166225764Y-89888691D01*
X166198057Y-90170000D01*
X158915000Y-90170000D01*
X158915000Y-90028665D01*
X158859853Y-89751426D01*
X158751680Y-89490273D01*
X158594637Y-89255241D01*
X158394759Y-89055363D01*
X158159727Y-88898320D01*
X157898574Y-88790147D01*
X157621335Y-88735000D01*
X157338665Y-88735000D01*
X157061426Y-88790147D01*
X156800273Y-88898320D01*
X156565241Y-89055363D01*
X156365363Y-89255241D01*
X156208320Y-89490273D01*
X156100147Y-89751426D01*
X156045000Y-90028665D01*
X155208072Y-90028665D01*
X155208072Y-89270000D01*
X155195812Y-89145518D01*
X155159502Y-89025820D01*
X155100537Y-88915506D01*
X155021185Y-88818815D01*
X154924494Y-88739463D01*
X154814180Y-88680498D01*
X154694482Y-88644188D01*
X154570000Y-88631928D01*
X152770000Y-88631928D01*
X152645518Y-88644188D01*
X152525820Y-88680498D01*
X152415506Y-88739463D01*
X152318815Y-88818815D01*
X152239463Y-88915506D01*
X152180498Y-89025820D01*
X152174944Y-89044127D01*
X152108505Y-88977688D01*
X151857095Y-88809701D01*
X151577743Y-88693989D01*
X151281184Y-88635000D01*
X150978816Y-88635000D01*
X150682257Y-88693989D01*
X150402905Y-88809701D01*
X150151495Y-88977688D01*
X149937688Y-89191495D01*
X149769701Y-89442905D01*
X149653989Y-89722257D01*
X149595000Y-90018816D01*
X126695000Y-90018816D01*
X126695000Y-89949872D01*
X126609110Y-89518075D01*
X126440631Y-89111331D01*
X126196038Y-88745271D01*
X125884729Y-88433962D01*
X125518669Y-88189369D01*
X125111925Y-88020890D01*
X124680128Y-87935000D01*
X124239872Y-87935000D01*
X123808075Y-88020890D01*
X123401331Y-88189369D01*
X123035271Y-88433962D01*
X122723962Y-88745271D01*
X122479369Y-89111331D01*
X122310890Y-89518075D01*
X122225000Y-89949872D01*
X94640000Y-89949872D01*
X94640000Y-87630000D01*
X173767815Y-87630000D01*
X173796487Y-87921111D01*
X173881401Y-88201034D01*
X174019294Y-88459014D01*
X174204866Y-88685134D01*
X174430986Y-88870706D01*
X174485791Y-88900000D01*
X174430986Y-88929294D01*
X174204866Y-89114866D01*
X174019294Y-89340986D01*
X173881401Y-89598966D01*
X173796487Y-89878889D01*
X173767815Y-90170000D01*
X173796487Y-90461111D01*
X173881401Y-90741034D01*
X174019294Y-90999014D01*
X174204866Y-91225134D01*
X174430986Y-91410706D01*
X174495523Y-91445201D01*
X174378645Y-91514822D01*
X174162412Y-91709731D01*
X173988359Y-91943080D01*
X173863175Y-92205901D01*
X173818524Y-92353110D01*
X173939845Y-92583000D01*
X175133000Y-92583000D01*
X175133000Y-92563000D01*
X175387000Y-92563000D01*
X175387000Y-92583000D01*
X176580155Y-92583000D01*
X176701476Y-92353110D01*
X176656825Y-92205901D01*
X176531641Y-91943080D01*
X176357588Y-91709731D01*
X176141355Y-91514822D01*
X176024477Y-91445201D01*
X176089014Y-91410706D01*
X176315134Y-91225134D01*
X176500706Y-90999014D01*
X176638599Y-90741034D01*
X176723513Y-90461111D01*
X176752185Y-90170000D01*
X176723513Y-89878889D01*
X176638599Y-89598966D01*
X176500706Y-89340986D01*
X176315134Y-89114866D01*
X176089014Y-88929294D01*
X176034209Y-88900000D01*
X176089014Y-88870706D01*
X176315134Y-88685134D01*
X176500706Y-88459014D01*
X176638599Y-88201034D01*
X176723513Y-87921111D01*
X176752185Y-87630000D01*
X176723513Y-87338889D01*
X176638599Y-87058966D01*
X176500706Y-86800986D01*
X176315134Y-86574866D01*
X176089014Y-86389294D01*
X176024477Y-86354799D01*
X176141355Y-86285178D01*
X176357588Y-86090269D01*
X176531641Y-85856920D01*
X176656825Y-85594099D01*
X176701476Y-85446890D01*
X176580155Y-85217000D01*
X175387000Y-85217000D01*
X175387000Y-85237000D01*
X175133000Y-85237000D01*
X175133000Y-85217000D01*
X173939845Y-85217000D01*
X173818524Y-85446890D01*
X173863175Y-85594099D01*
X173988359Y-85856920D01*
X174162412Y-86090269D01*
X174378645Y-86285178D01*
X174495523Y-86354799D01*
X174430986Y-86389294D01*
X174204866Y-86574866D01*
X174019294Y-86800986D01*
X173881401Y-87058966D01*
X173796487Y-87338889D01*
X173767815Y-87630000D01*
X94640000Y-87630000D01*
X94640000Y-82398816D01*
X149595000Y-82398816D01*
X149595000Y-82701184D01*
X149653989Y-82997743D01*
X149769701Y-83277095D01*
X149937688Y-83528505D01*
X150151495Y-83742312D01*
X150402905Y-83910299D01*
X150682257Y-84026011D01*
X150978816Y-84085000D01*
X151281184Y-84085000D01*
X151577743Y-84026011D01*
X151857095Y-83910299D01*
X152108505Y-83742312D01*
X152174944Y-83675873D01*
X152180498Y-83694180D01*
X152239463Y-83804494D01*
X152318815Y-83901185D01*
X152415506Y-83980537D01*
X152525820Y-84039502D01*
X152645518Y-84075812D01*
X152770000Y-84088072D01*
X154570000Y-84088072D01*
X154694482Y-84075812D01*
X154814180Y-84039502D01*
X154924494Y-83980537D01*
X155021185Y-83901185D01*
X155100537Y-83804494D01*
X155159502Y-83694180D01*
X155195812Y-83574482D01*
X155208072Y-83450000D01*
X155208072Y-82408665D01*
X156045000Y-82408665D01*
X156045000Y-82691335D01*
X156100147Y-82968574D01*
X156208320Y-83229727D01*
X156365363Y-83464759D01*
X156565241Y-83664637D01*
X156800273Y-83821680D01*
X157061426Y-83929853D01*
X157338665Y-83985000D01*
X157621335Y-83985000D01*
X157898574Y-83929853D01*
X158159727Y-83821680D01*
X158394759Y-83664637D01*
X158594637Y-83464759D01*
X158751680Y-83229727D01*
X158859853Y-82968574D01*
X158915000Y-82691335D01*
X158915000Y-82550000D01*
X166198057Y-82550000D01*
X166225764Y-82831309D01*
X166307818Y-83101808D01*
X166441068Y-83351101D01*
X166620392Y-83569608D01*
X166838899Y-83748932D01*
X167088192Y-83882182D01*
X167358691Y-83964236D01*
X167569508Y-83985000D01*
X167710492Y-83985000D01*
X167921309Y-83964236D01*
X168191808Y-83882182D01*
X168441101Y-83748932D01*
X168659608Y-83569608D01*
X168838932Y-83351101D01*
X168972182Y-83101808D01*
X169054236Y-82831309D01*
X169081943Y-82550000D01*
X169054236Y-82268691D01*
X168972182Y-81998192D01*
X168838932Y-81748899D01*
X168798802Y-81700000D01*
X173771928Y-81700000D01*
X173771928Y-83400000D01*
X173784188Y-83524482D01*
X173820498Y-83644180D01*
X173879463Y-83754494D01*
X173958815Y-83851185D01*
X174055506Y-83930537D01*
X174165820Y-83989502D01*
X174246466Y-84013966D01*
X174162412Y-84089731D01*
X173988359Y-84323080D01*
X173863175Y-84585901D01*
X173818524Y-84733110D01*
X173939845Y-84963000D01*
X175133000Y-84963000D01*
X175133000Y-84943000D01*
X175387000Y-84943000D01*
X175387000Y-84963000D01*
X176580155Y-84963000D01*
X176701476Y-84733110D01*
X176656825Y-84585901D01*
X176531641Y-84323080D01*
X176357588Y-84089731D01*
X176273534Y-84013966D01*
X176354180Y-83989502D01*
X176464494Y-83930537D01*
X176561185Y-83851185D01*
X176640537Y-83754494D01*
X176699502Y-83644180D01*
X176735812Y-83524482D01*
X176748072Y-83400000D01*
X176748072Y-81700000D01*
X176735812Y-81575518D01*
X176699502Y-81455820D01*
X176640537Y-81345506D01*
X176561185Y-81248815D01*
X176464494Y-81169463D01*
X176354180Y-81110498D01*
X176234482Y-81074188D01*
X176110000Y-81061928D01*
X174410000Y-81061928D01*
X174285518Y-81074188D01*
X174165820Y-81110498D01*
X174055506Y-81169463D01*
X173958815Y-81248815D01*
X173879463Y-81345506D01*
X173820498Y-81455820D01*
X173784188Y-81575518D01*
X173771928Y-81700000D01*
X168798802Y-81700000D01*
X168659608Y-81530392D01*
X168441101Y-81351068D01*
X168191808Y-81217818D01*
X167921309Y-81135764D01*
X167710492Y-81115000D01*
X167569508Y-81115000D01*
X167358691Y-81135764D01*
X167088192Y-81217818D01*
X166838899Y-81351068D01*
X166620392Y-81530392D01*
X166441068Y-81748899D01*
X166307818Y-81998192D01*
X166225764Y-82268691D01*
X166198057Y-82550000D01*
X158915000Y-82550000D01*
X158915000Y-82408665D01*
X158859853Y-82131426D01*
X158751680Y-81870273D01*
X158594637Y-81635241D01*
X158394759Y-81435363D01*
X158159727Y-81278320D01*
X157898574Y-81170147D01*
X157621335Y-81115000D01*
X157338665Y-81115000D01*
X157061426Y-81170147D01*
X156800273Y-81278320D01*
X156565241Y-81435363D01*
X156365363Y-81635241D01*
X156208320Y-81870273D01*
X156100147Y-82131426D01*
X156045000Y-82408665D01*
X155208072Y-82408665D01*
X155208072Y-81650000D01*
X155195812Y-81525518D01*
X155159502Y-81405820D01*
X155100537Y-81295506D01*
X155021185Y-81198815D01*
X154924494Y-81119463D01*
X154814180Y-81060498D01*
X154694482Y-81024188D01*
X154570000Y-81011928D01*
X152770000Y-81011928D01*
X152645518Y-81024188D01*
X152525820Y-81060498D01*
X152415506Y-81119463D01*
X152318815Y-81198815D01*
X152239463Y-81295506D01*
X152180498Y-81405820D01*
X152174944Y-81424127D01*
X152108505Y-81357688D01*
X151857095Y-81189701D01*
X151577743Y-81073989D01*
X151281184Y-81015000D01*
X150978816Y-81015000D01*
X150682257Y-81073989D01*
X150402905Y-81189701D01*
X150151495Y-81357688D01*
X149937688Y-81571495D01*
X149769701Y-81822905D01*
X149653989Y-82102257D01*
X149595000Y-82398816D01*
X94640000Y-82398816D01*
X94640000Y-78610000D01*
X95751928Y-78610000D01*
X95751928Y-81410000D01*
X95764188Y-81534482D01*
X95800498Y-81654180D01*
X95859463Y-81764494D01*
X95938815Y-81861185D01*
X96035506Y-81940537D01*
X96145820Y-81999502D01*
X96265518Y-82035812D01*
X96390000Y-82048072D01*
X99190000Y-82048072D01*
X99314482Y-82035812D01*
X99434180Y-81999502D01*
X99544494Y-81940537D01*
X99641185Y-81861185D01*
X99720537Y-81764494D01*
X99779502Y-81654180D01*
X99815812Y-81534482D01*
X99828072Y-81410000D01*
X99828072Y-79809570D01*
X100755000Y-79809570D01*
X100755000Y-80210430D01*
X100833204Y-80603587D01*
X100986607Y-80973934D01*
X101209313Y-81307237D01*
X101492763Y-81590687D01*
X101826066Y-81813393D01*
X102196413Y-81966796D01*
X102589570Y-82045000D01*
X102990430Y-82045000D01*
X103383587Y-81966796D01*
X103753934Y-81813393D01*
X104087237Y-81590687D01*
X104370687Y-81307237D01*
X104593393Y-80973934D01*
X104746796Y-80603587D01*
X104825000Y-80210430D01*
X104825000Y-79809570D01*
X105755000Y-79809570D01*
X105755000Y-80210430D01*
X105833204Y-80603587D01*
X105986607Y-80973934D01*
X106209313Y-81307237D01*
X106492763Y-81590687D01*
X106826066Y-81813393D01*
X107196413Y-81966796D01*
X107589570Y-82045000D01*
X107990430Y-82045000D01*
X108383587Y-81966796D01*
X108753934Y-81813393D01*
X109087237Y-81590687D01*
X109370687Y-81307237D01*
X109593393Y-80973934D01*
X109746796Y-80603587D01*
X109825000Y-80210430D01*
X109825000Y-79809570D01*
X110755000Y-79809570D01*
X110755000Y-80210430D01*
X110833204Y-80603587D01*
X110986607Y-80973934D01*
X111209313Y-81307237D01*
X111492763Y-81590687D01*
X111826066Y-81813393D01*
X112196413Y-81966796D01*
X112589570Y-82045000D01*
X112990430Y-82045000D01*
X113383587Y-81966796D01*
X113753934Y-81813393D01*
X114087237Y-81590687D01*
X114370687Y-81307237D01*
X114593393Y-80973934D01*
X114746796Y-80603587D01*
X114825000Y-80210430D01*
X114825000Y-79809570D01*
X114746796Y-79416413D01*
X114593393Y-79046066D01*
X114370687Y-78712763D01*
X114267924Y-78610000D01*
X118611928Y-78610000D01*
X118611928Y-81410000D01*
X118624188Y-81534482D01*
X118660498Y-81654180D01*
X118719463Y-81764494D01*
X118798815Y-81861185D01*
X118895506Y-81940537D01*
X119005820Y-81999502D01*
X119125518Y-82035812D01*
X119250000Y-82048072D01*
X122050000Y-82048072D01*
X122174482Y-82035812D01*
X122294180Y-81999502D01*
X122404494Y-81940537D01*
X122501185Y-81861185D01*
X122580537Y-81764494D01*
X122639502Y-81654180D01*
X122675812Y-81534482D01*
X122688072Y-81410000D01*
X122688072Y-79809570D01*
X123615000Y-79809570D01*
X123615000Y-80210430D01*
X123693204Y-80603587D01*
X123846607Y-80973934D01*
X124069313Y-81307237D01*
X124352763Y-81590687D01*
X124686066Y-81813393D01*
X125056413Y-81966796D01*
X125449570Y-82045000D01*
X125850430Y-82045000D01*
X126243587Y-81966796D01*
X126613934Y-81813393D01*
X126947237Y-81590687D01*
X127230687Y-81307237D01*
X127453393Y-80973934D01*
X127606796Y-80603587D01*
X127685000Y-80210430D01*
X127685000Y-79809570D01*
X127606796Y-79416413D01*
X127453393Y-79046066D01*
X127230687Y-78712763D01*
X126947237Y-78429313D01*
X126613934Y-78206607D01*
X126243587Y-78053204D01*
X125850430Y-77975000D01*
X125449570Y-77975000D01*
X125056413Y-78053204D01*
X124686066Y-78206607D01*
X124352763Y-78429313D01*
X124069313Y-78712763D01*
X123846607Y-79046066D01*
X123693204Y-79416413D01*
X123615000Y-79809570D01*
X122688072Y-79809570D01*
X122688072Y-78610000D01*
X122675812Y-78485518D01*
X122639502Y-78365820D01*
X122580537Y-78255506D01*
X122501185Y-78158815D01*
X122404494Y-78079463D01*
X122294180Y-78020498D01*
X122174482Y-77984188D01*
X122050000Y-77971928D01*
X119250000Y-77971928D01*
X119125518Y-77984188D01*
X119005820Y-78020498D01*
X118895506Y-78079463D01*
X118798815Y-78158815D01*
X118719463Y-78255506D01*
X118660498Y-78365820D01*
X118624188Y-78485518D01*
X118611928Y-78610000D01*
X114267924Y-78610000D01*
X114087237Y-78429313D01*
X113753934Y-78206607D01*
X113383587Y-78053204D01*
X112990430Y-77975000D01*
X112589570Y-77975000D01*
X112196413Y-78053204D01*
X111826066Y-78206607D01*
X111492763Y-78429313D01*
X111209313Y-78712763D01*
X110986607Y-79046066D01*
X110833204Y-79416413D01*
X110755000Y-79809570D01*
X109825000Y-79809570D01*
X109746796Y-79416413D01*
X109593393Y-79046066D01*
X109370687Y-78712763D01*
X109087237Y-78429313D01*
X108753934Y-78206607D01*
X108383587Y-78053204D01*
X107990430Y-77975000D01*
X107589570Y-77975000D01*
X107196413Y-78053204D01*
X106826066Y-78206607D01*
X106492763Y-78429313D01*
X106209313Y-78712763D01*
X105986607Y-79046066D01*
X105833204Y-79416413D01*
X105755000Y-79809570D01*
X104825000Y-79809570D01*
X104746796Y-79416413D01*
X104593393Y-79046066D01*
X104370687Y-78712763D01*
X104087237Y-78429313D01*
X103753934Y-78206607D01*
X103383587Y-78053204D01*
X102990430Y-77975000D01*
X102589570Y-77975000D01*
X102196413Y-78053204D01*
X101826066Y-78206607D01*
X101492763Y-78429313D01*
X101209313Y-78712763D01*
X100986607Y-79046066D01*
X100833204Y-79416413D01*
X100755000Y-79809570D01*
X99828072Y-79809570D01*
X99828072Y-78610000D01*
X99815812Y-78485518D01*
X99779502Y-78365820D01*
X99720537Y-78255506D01*
X99641185Y-78158815D01*
X99544494Y-78079463D01*
X99434180Y-78020498D01*
X99314482Y-77984188D01*
X99190000Y-77971928D01*
X96390000Y-77971928D01*
X96265518Y-77984188D01*
X96145820Y-78020498D01*
X96035506Y-78079463D01*
X95938815Y-78158815D01*
X95859463Y-78255506D01*
X95800498Y-78365820D01*
X95764188Y-78485518D01*
X95751928Y-78610000D01*
X94640000Y-78610000D01*
X94640000Y-77249872D01*
X167945000Y-77249872D01*
X167945000Y-77690128D01*
X168030890Y-78121925D01*
X168199369Y-78528669D01*
X168443962Y-78894729D01*
X168755271Y-79206038D01*
X169121331Y-79450631D01*
X169528075Y-79619110D01*
X169959872Y-79705000D01*
X170400128Y-79705000D01*
X170831925Y-79619110D01*
X171238669Y-79450631D01*
X171604729Y-79206038D01*
X171916038Y-78894729D01*
X172160631Y-78528669D01*
X172329110Y-78121925D01*
X172415000Y-77690128D01*
X172415000Y-77249872D01*
X172329110Y-76818075D01*
X172160631Y-76411331D01*
X171916038Y-76045271D01*
X171604729Y-75733962D01*
X171238669Y-75489369D01*
X170831925Y-75320890D01*
X170400128Y-75235000D01*
X169959872Y-75235000D01*
X169528075Y-75320890D01*
X169121331Y-75489369D01*
X168755271Y-75733962D01*
X168443962Y-76045271D01*
X168199369Y-76411331D01*
X168030890Y-76818075D01*
X167945000Y-77249872D01*
X94640000Y-77249872D01*
X94640000Y-73050000D01*
X186030001Y-73050000D01*
X186030000Y-127610000D01*
M02*
