G04 #@! TF.GenerationSoftware,KiCad,Pcbnew,(5.1.2)-2*
G04 #@! TF.CreationDate,2019-06-27T20:53:15-04:00*
G04 #@! TF.ProjectId,connection-portal,636f6e6e-6563-4746-996f-6e2d706f7274,rev?*
G04 #@! TF.SameCoordinates,Original*
G04 #@! TF.FileFunction,Legend,Top*
G04 #@! TF.FilePolarity,Positive*
%FSLAX46Y46*%
G04 Gerber Fmt 4.6, Leading zero omitted, Abs format (unit mm)*
G04 Created by KiCad (PCBNEW (5.1.2)-2) date 2019-06-27 20:53:15*
%MOMM*%
%LPD*%
G04 APERTURE LIST*
%ADD10C,0.400000*%
%ADD11C,0.120000*%
%ADD12C,0.150000*%
%ADD13C,0.300000*%
G04 APERTURE END LIST*
D10*
X107572857Y-109635714D02*
X107691904Y-109754761D01*
X107810952Y-110111904D01*
X107810952Y-110350000D01*
X107691904Y-110707142D01*
X107453809Y-110945238D01*
X107215714Y-111064285D01*
X106739523Y-111183333D01*
X106382380Y-111183333D01*
X105906190Y-111064285D01*
X105668095Y-110945238D01*
X105430000Y-110707142D01*
X105310952Y-110350000D01*
X105310952Y-110111904D01*
X105430000Y-109754761D01*
X105549047Y-109635714D01*
X107810952Y-108207142D02*
X107691904Y-108445238D01*
X107572857Y-108564285D01*
X107334761Y-108683333D01*
X106620476Y-108683333D01*
X106382380Y-108564285D01*
X106263333Y-108445238D01*
X106144285Y-108207142D01*
X106144285Y-107850000D01*
X106263333Y-107611904D01*
X106382380Y-107492857D01*
X106620476Y-107373809D01*
X107334761Y-107373809D01*
X107572857Y-107492857D01*
X107691904Y-107611904D01*
X107810952Y-107850000D01*
X107810952Y-108207142D01*
X107810952Y-105945238D02*
X107691904Y-106183333D01*
X107453809Y-106302380D01*
X105310952Y-106302380D01*
X107810952Y-104635714D02*
X107691904Y-104873809D01*
X107453809Y-104992857D01*
X105310952Y-104992857D01*
X107810952Y-102611904D02*
X106501428Y-102611904D01*
X106263333Y-102730952D01*
X106144285Y-102969047D01*
X106144285Y-103445238D01*
X106263333Y-103683333D01*
X107691904Y-102611904D02*
X107810952Y-102850000D01*
X107810952Y-103445238D01*
X107691904Y-103683333D01*
X107453809Y-103802380D01*
X107215714Y-103802380D01*
X106977619Y-103683333D01*
X106858571Y-103445238D01*
X106858571Y-102850000D01*
X106739523Y-102611904D01*
X107810952Y-101421428D02*
X105310952Y-101421428D01*
X106263333Y-101421428D02*
X106144285Y-101183333D01*
X106144285Y-100707142D01*
X106263333Y-100469047D01*
X106382380Y-100350000D01*
X106620476Y-100230952D01*
X107334761Y-100230952D01*
X107572857Y-100350000D01*
X107691904Y-100469047D01*
X107810952Y-100707142D01*
X107810952Y-101183333D01*
X107691904Y-101421428D01*
X106501428Y-98326190D02*
X106620476Y-97969047D01*
X106739523Y-97850000D01*
X106977619Y-97730952D01*
X107334761Y-97730952D01*
X107572857Y-97850000D01*
X107691904Y-97969047D01*
X107810952Y-98207142D01*
X107810952Y-99159523D01*
X105310952Y-99159523D01*
X105310952Y-98326190D01*
X105430000Y-98088095D01*
X105549047Y-97969047D01*
X105787142Y-97850000D01*
X106025238Y-97850000D01*
X106263333Y-97969047D01*
X106382380Y-98088095D01*
X106501428Y-98326190D01*
X106501428Y-99159523D01*
X107810952Y-96302380D02*
X107691904Y-96540476D01*
X107572857Y-96659523D01*
X107334761Y-96778571D01*
X106620476Y-96778571D01*
X106382380Y-96659523D01*
X106263333Y-96540476D01*
X106144285Y-96302380D01*
X106144285Y-95945238D01*
X106263333Y-95707142D01*
X106382380Y-95588095D01*
X106620476Y-95469047D01*
X107334761Y-95469047D01*
X107572857Y-95588095D01*
X107691904Y-95707142D01*
X107810952Y-95945238D01*
X107810952Y-96302380D01*
X106144285Y-94754761D02*
X106144285Y-93802380D01*
X105310952Y-94397619D02*
X107453809Y-94397619D01*
X107691904Y-94278571D01*
X107810952Y-94040476D01*
X107810952Y-93802380D01*
X107691904Y-93088095D02*
X107810952Y-92850000D01*
X107810952Y-92373809D01*
X107691904Y-92135714D01*
X107453809Y-92016666D01*
X107334761Y-92016666D01*
X107096666Y-92135714D01*
X106977619Y-92373809D01*
X106977619Y-92730952D01*
X106858571Y-92969047D01*
X106620476Y-93088095D01*
X106501428Y-93088095D01*
X106263333Y-92969047D01*
X106144285Y-92730952D01*
X106144285Y-92373809D01*
X106263333Y-92135714D01*
D11*
X144780000Y-116840000D02*
X144780000Y-114300000D01*
X149860000Y-116840000D02*
X144780000Y-116840000D01*
X149860000Y-114300000D02*
X149860000Y-116840000D01*
X144780000Y-114300000D02*
X149860000Y-114300000D01*
X119360000Y-116630000D02*
X119380000Y-114300000D01*
X143510000Y-116840000D02*
X119360000Y-116630000D01*
X143510000Y-114300000D02*
X143510000Y-116840000D01*
X119380000Y-114300000D02*
X143510000Y-114300000D01*
D12*
X139987976Y-115974761D02*
X140130833Y-116022380D01*
X140368928Y-116022380D01*
X140464166Y-115974761D01*
X140511785Y-115927142D01*
X140559404Y-115831904D01*
X140559404Y-115736666D01*
X140511785Y-115641428D01*
X140464166Y-115593809D01*
X140368928Y-115546190D01*
X140178452Y-115498571D01*
X140083214Y-115450952D01*
X140035595Y-115403333D01*
X139987976Y-115308095D01*
X139987976Y-115212857D01*
X140035595Y-115117619D01*
X140083214Y-115070000D01*
X140178452Y-115022380D01*
X140416547Y-115022380D01*
X140559404Y-115070000D01*
X140987976Y-116022380D02*
X140987976Y-115022380D01*
X141987976Y-115070000D02*
X141892738Y-115022380D01*
X141749880Y-115022380D01*
X141607023Y-115070000D01*
X141511785Y-115165238D01*
X141464166Y-115260476D01*
X141416547Y-115450952D01*
X141416547Y-115593809D01*
X141464166Y-115784285D01*
X141511785Y-115879523D01*
X141607023Y-115974761D01*
X141749880Y-116022380D01*
X141845119Y-116022380D01*
X141987976Y-115974761D01*
X142035595Y-115927142D01*
X142035595Y-115593809D01*
X141845119Y-115593809D01*
X142940357Y-115022380D02*
X142464166Y-115022380D01*
X142416547Y-115498571D01*
X142464166Y-115450952D01*
X142559404Y-115403333D01*
X142797500Y-115403333D01*
X142892738Y-115450952D01*
X142940357Y-115498571D01*
X142987976Y-115593809D01*
X142987976Y-115831904D01*
X142940357Y-115927142D01*
X142892738Y-115974761D01*
X142797500Y-116022380D01*
X142559404Y-116022380D01*
X142464166Y-115974761D01*
X142416547Y-115927142D01*
X181802738Y-115022380D02*
X182136071Y-116022380D01*
X182469404Y-115022380D01*
X182802738Y-115641428D02*
X183564642Y-115641428D01*
X183183690Y-116022380D02*
X183183690Y-115260476D01*
X181802738Y-107402380D02*
X182136071Y-108402380D01*
X182469404Y-107402380D01*
X182802738Y-108021428D02*
X183564642Y-108021428D01*
X183183690Y-108402380D02*
X183183690Y-107640476D01*
X181802738Y-99782380D02*
X182136071Y-100782380D01*
X182469404Y-99782380D01*
X182802738Y-100401428D02*
X183564642Y-100401428D01*
X183183690Y-100782380D02*
X183183690Y-100020476D01*
X181802738Y-92162380D02*
X182136071Y-93162380D01*
X182469404Y-92162380D01*
X182802738Y-92781428D02*
X183564642Y-92781428D01*
X183183690Y-93162380D02*
X183183690Y-92400476D01*
X181897976Y-118514761D02*
X182040833Y-118562380D01*
X182278928Y-118562380D01*
X182374166Y-118514761D01*
X182421785Y-118467142D01*
X182469404Y-118371904D01*
X182469404Y-118276666D01*
X182421785Y-118181428D01*
X182374166Y-118133809D01*
X182278928Y-118086190D01*
X182088452Y-118038571D01*
X181993214Y-117990952D01*
X181945595Y-117943333D01*
X181897976Y-117848095D01*
X181897976Y-117752857D01*
X181945595Y-117657619D01*
X181993214Y-117610000D01*
X182088452Y-117562380D01*
X182326547Y-117562380D01*
X182469404Y-117610000D01*
X182897976Y-118562380D02*
X182897976Y-117562380D01*
X183897976Y-117610000D02*
X183802738Y-117562380D01*
X183659880Y-117562380D01*
X183517023Y-117610000D01*
X183421785Y-117705238D01*
X183374166Y-117800476D01*
X183326547Y-117990952D01*
X183326547Y-118133809D01*
X183374166Y-118324285D01*
X183421785Y-118419523D01*
X183517023Y-118514761D01*
X183659880Y-118562380D01*
X183755119Y-118562380D01*
X183897976Y-118514761D01*
X183945595Y-118467142D01*
X183945595Y-118133809D01*
X183755119Y-118133809D01*
X184850357Y-117562380D02*
X184374166Y-117562380D01*
X184326547Y-118038571D01*
X184374166Y-117990952D01*
X184469404Y-117943333D01*
X184707500Y-117943333D01*
X184802738Y-117990952D01*
X184850357Y-118038571D01*
X184897976Y-118133809D01*
X184897976Y-118371904D01*
X184850357Y-118467142D01*
X184802738Y-118514761D01*
X184707500Y-118562380D01*
X184469404Y-118562380D01*
X184374166Y-118514761D01*
X184326547Y-118467142D01*
X181927619Y-84542380D02*
X182260952Y-85542380D01*
X182594285Y-84542380D01*
X182927619Y-85161428D02*
X183689523Y-85161428D01*
X183308571Y-85542380D02*
X183308571Y-84780476D01*
X164147619Y-122642380D02*
X164480952Y-123642380D01*
X164814285Y-122642380D01*
X165147619Y-123261428D02*
X165909523Y-123261428D01*
X165528571Y-123642380D02*
X165528571Y-122880476D01*
X130048095Y-79510000D02*
X129952857Y-79462380D01*
X129810000Y-79462380D01*
X129667142Y-79510000D01*
X129571904Y-79605238D01*
X129524285Y-79700476D01*
X129476666Y-79890952D01*
X129476666Y-80033809D01*
X129524285Y-80224285D01*
X129571904Y-80319523D01*
X129667142Y-80414761D01*
X129810000Y-80462380D01*
X129905238Y-80462380D01*
X130048095Y-80414761D01*
X130095714Y-80367142D01*
X130095714Y-80033809D01*
X129905238Y-80033809D01*
X130524285Y-80462380D02*
X130524285Y-79462380D01*
X131095714Y-80462380D01*
X131095714Y-79462380D01*
X131571904Y-80462380D02*
X131571904Y-79462380D01*
X131810000Y-79462380D01*
X131952857Y-79510000D01*
X132048095Y-79605238D01*
X132095714Y-79700476D01*
X132143333Y-79890952D01*
X132143333Y-80033809D01*
X132095714Y-80224285D01*
X132048095Y-80319523D01*
X131952857Y-80414761D01*
X131810000Y-80462380D01*
X131571904Y-80462380D01*
X145034285Y-116022380D02*
X145034285Y-115022380D01*
X145510476Y-115641428D02*
X146272380Y-115641428D01*
X146748571Y-116022380D02*
X146748571Y-115022380D01*
X146748571Y-115498571D02*
X147320000Y-115498571D01*
X147320000Y-116022380D02*
X147320000Y-115022380D01*
X147796190Y-116022380D02*
X147796190Y-115355714D01*
X147796190Y-115022380D02*
X147748571Y-115070000D01*
X147796190Y-115117619D01*
X147843809Y-115070000D01*
X147796190Y-115022380D01*
X147796190Y-115117619D01*
X148700952Y-115355714D02*
X148700952Y-116165238D01*
X148653333Y-116260476D01*
X148605714Y-116308095D01*
X148510476Y-116355714D01*
X148367619Y-116355714D01*
X148272380Y-116308095D01*
X148700952Y-115974761D02*
X148605714Y-116022380D01*
X148415238Y-116022380D01*
X148320000Y-115974761D01*
X148272380Y-115927142D01*
X148224761Y-115831904D01*
X148224761Y-115546190D01*
X148272380Y-115450952D01*
X148320000Y-115403333D01*
X148415238Y-115355714D01*
X148605714Y-115355714D01*
X148700952Y-115403333D01*
X149177142Y-116022380D02*
X149177142Y-115022380D01*
X149605714Y-116022380D02*
X149605714Y-115498571D01*
X149558095Y-115403333D01*
X149462857Y-115355714D01*
X149320000Y-115355714D01*
X149224761Y-115403333D01*
X149177142Y-115450952D01*
X96855595Y-85542380D02*
X96855595Y-84542380D01*
X97855595Y-85542380D02*
X97284166Y-85542380D01*
X97569880Y-85542380D02*
X97569880Y-84542380D01*
X97474642Y-84685238D01*
X97379404Y-84780476D01*
X97284166Y-84828095D01*
X96855595Y-116022380D02*
X96855595Y-115022380D01*
X97855595Y-116022380D02*
X97284166Y-116022380D01*
X97569880Y-116022380D02*
X97569880Y-115022380D01*
X97474642Y-115165238D01*
X97379404Y-115260476D01*
X97284166Y-115308095D01*
X181897976Y-88034761D02*
X182040833Y-88082380D01*
X182278928Y-88082380D01*
X182374166Y-88034761D01*
X182421785Y-87987142D01*
X182469404Y-87891904D01*
X182469404Y-87796666D01*
X182421785Y-87701428D01*
X182374166Y-87653809D01*
X182278928Y-87606190D01*
X182088452Y-87558571D01*
X181993214Y-87510952D01*
X181945595Y-87463333D01*
X181897976Y-87368095D01*
X181897976Y-87272857D01*
X181945595Y-87177619D01*
X181993214Y-87130000D01*
X182088452Y-87082380D01*
X182326547Y-87082380D01*
X182469404Y-87130000D01*
X182897976Y-88082380D02*
X182897976Y-87082380D01*
X183897976Y-87130000D02*
X183802738Y-87082380D01*
X183659880Y-87082380D01*
X183517023Y-87130000D01*
X183421785Y-87225238D01*
X183374166Y-87320476D01*
X183326547Y-87510952D01*
X183326547Y-87653809D01*
X183374166Y-87844285D01*
X183421785Y-87939523D01*
X183517023Y-88034761D01*
X183659880Y-88082380D01*
X183755119Y-88082380D01*
X183897976Y-88034761D01*
X183945595Y-87987142D01*
X183945595Y-87653809D01*
X183755119Y-87653809D01*
X184897976Y-88082380D02*
X184326547Y-88082380D01*
X184612261Y-88082380D02*
X184612261Y-87082380D01*
X184517023Y-87225238D01*
X184421785Y-87320476D01*
X184326547Y-87368095D01*
X120420000Y-115974761D02*
X120562857Y-116022380D01*
X120800952Y-116022380D01*
X120896190Y-115974761D01*
X120943809Y-115927142D01*
X120991428Y-115831904D01*
X120991428Y-115736666D01*
X120943809Y-115641428D01*
X120896190Y-115593809D01*
X120800952Y-115546190D01*
X120610476Y-115498571D01*
X120515238Y-115450952D01*
X120467619Y-115403333D01*
X120420000Y-115308095D01*
X120420000Y-115212857D01*
X120467619Y-115117619D01*
X120515238Y-115070000D01*
X120610476Y-115022380D01*
X120848571Y-115022380D01*
X120991428Y-115070000D01*
X121420000Y-116022380D02*
X121420000Y-115022380D01*
X122420000Y-115070000D02*
X122324761Y-115022380D01*
X122181904Y-115022380D01*
X122039047Y-115070000D01*
X121943809Y-115165238D01*
X121896190Y-115260476D01*
X121848571Y-115450952D01*
X121848571Y-115593809D01*
X121896190Y-115784285D01*
X121943809Y-115879523D01*
X122039047Y-115974761D01*
X122181904Y-116022380D01*
X122277142Y-116022380D01*
X122420000Y-115974761D01*
X122467619Y-115927142D01*
X122467619Y-115593809D01*
X122277142Y-115593809D01*
X123420000Y-116022380D02*
X122848571Y-116022380D01*
X123134285Y-116022380D02*
X123134285Y-115022380D01*
X123039047Y-115165238D01*
X122943809Y-115260476D01*
X122848571Y-115308095D01*
X182469404Y-82050000D02*
X182374166Y-82002380D01*
X182231309Y-82002380D01*
X182088452Y-82050000D01*
X181993214Y-82145238D01*
X181945595Y-82240476D01*
X181897976Y-82430952D01*
X181897976Y-82573809D01*
X181945595Y-82764285D01*
X181993214Y-82859523D01*
X182088452Y-82954761D01*
X182231309Y-83002380D01*
X182326547Y-83002380D01*
X182469404Y-82954761D01*
X182517023Y-82907142D01*
X182517023Y-82573809D01*
X182326547Y-82573809D01*
X182945595Y-83002380D02*
X182945595Y-82002380D01*
X183517023Y-83002380D01*
X183517023Y-82002380D01*
X183993214Y-83002380D02*
X183993214Y-82002380D01*
X184231309Y-82002380D01*
X184374166Y-82050000D01*
X184469404Y-82145238D01*
X184517023Y-82240476D01*
X184564642Y-82430952D01*
X184564642Y-82573809D01*
X184517023Y-82764285D01*
X184469404Y-82859523D01*
X184374166Y-82954761D01*
X184231309Y-83002380D01*
X183993214Y-83002380D01*
X182469404Y-89670000D02*
X182374166Y-89622380D01*
X182231309Y-89622380D01*
X182088452Y-89670000D01*
X181993214Y-89765238D01*
X181945595Y-89860476D01*
X181897976Y-90050952D01*
X181897976Y-90193809D01*
X181945595Y-90384285D01*
X181993214Y-90479523D01*
X182088452Y-90574761D01*
X182231309Y-90622380D01*
X182326547Y-90622380D01*
X182469404Y-90574761D01*
X182517023Y-90527142D01*
X182517023Y-90193809D01*
X182326547Y-90193809D01*
X182945595Y-90622380D02*
X182945595Y-89622380D01*
X183517023Y-90622380D01*
X183517023Y-89622380D01*
X183993214Y-90622380D02*
X183993214Y-89622380D01*
X184231309Y-89622380D01*
X184374166Y-89670000D01*
X184469404Y-89765238D01*
X184517023Y-89860476D01*
X184564642Y-90050952D01*
X184564642Y-90193809D01*
X184517023Y-90384285D01*
X184469404Y-90479523D01*
X184374166Y-90574761D01*
X184231309Y-90622380D01*
X183993214Y-90622380D01*
X182469404Y-97290000D02*
X182374166Y-97242380D01*
X182231309Y-97242380D01*
X182088452Y-97290000D01*
X181993214Y-97385238D01*
X181945595Y-97480476D01*
X181897976Y-97670952D01*
X181897976Y-97813809D01*
X181945595Y-98004285D01*
X181993214Y-98099523D01*
X182088452Y-98194761D01*
X182231309Y-98242380D01*
X182326547Y-98242380D01*
X182469404Y-98194761D01*
X182517023Y-98147142D01*
X182517023Y-97813809D01*
X182326547Y-97813809D01*
X182945595Y-98242380D02*
X182945595Y-97242380D01*
X183517023Y-98242380D01*
X183517023Y-97242380D01*
X183993214Y-98242380D02*
X183993214Y-97242380D01*
X184231309Y-97242380D01*
X184374166Y-97290000D01*
X184469404Y-97385238D01*
X184517023Y-97480476D01*
X184564642Y-97670952D01*
X184564642Y-97813809D01*
X184517023Y-98004285D01*
X184469404Y-98099523D01*
X184374166Y-98194761D01*
X184231309Y-98242380D01*
X183993214Y-98242380D01*
X182469404Y-104910000D02*
X182374166Y-104862380D01*
X182231309Y-104862380D01*
X182088452Y-104910000D01*
X181993214Y-105005238D01*
X181945595Y-105100476D01*
X181897976Y-105290952D01*
X181897976Y-105433809D01*
X181945595Y-105624285D01*
X181993214Y-105719523D01*
X182088452Y-105814761D01*
X182231309Y-105862380D01*
X182326547Y-105862380D01*
X182469404Y-105814761D01*
X182517023Y-105767142D01*
X182517023Y-105433809D01*
X182326547Y-105433809D01*
X182945595Y-105862380D02*
X182945595Y-104862380D01*
X183517023Y-105862380D01*
X183517023Y-104862380D01*
X183993214Y-105862380D02*
X183993214Y-104862380D01*
X184231309Y-104862380D01*
X184374166Y-104910000D01*
X184469404Y-105005238D01*
X184517023Y-105100476D01*
X184564642Y-105290952D01*
X184564642Y-105433809D01*
X184517023Y-105624285D01*
X184469404Y-105719523D01*
X184374166Y-105814761D01*
X184231309Y-105862380D01*
X183993214Y-105862380D01*
X182469404Y-112530000D02*
X182374166Y-112482380D01*
X182231309Y-112482380D01*
X182088452Y-112530000D01*
X181993214Y-112625238D01*
X181945595Y-112720476D01*
X181897976Y-112910952D01*
X181897976Y-113053809D01*
X181945595Y-113244285D01*
X181993214Y-113339523D01*
X182088452Y-113434761D01*
X182231309Y-113482380D01*
X182326547Y-113482380D01*
X182469404Y-113434761D01*
X182517023Y-113387142D01*
X182517023Y-113053809D01*
X182326547Y-113053809D01*
X182945595Y-113482380D02*
X182945595Y-112482380D01*
X183517023Y-113482380D01*
X183517023Y-112482380D01*
X183993214Y-113482380D02*
X183993214Y-112482380D01*
X184231309Y-112482380D01*
X184374166Y-112530000D01*
X184469404Y-112625238D01*
X184517023Y-112720476D01*
X184564642Y-112910952D01*
X184564642Y-113053809D01*
X184517023Y-113244285D01*
X184469404Y-113339523D01*
X184374166Y-113434761D01*
X184231309Y-113482380D01*
X183993214Y-113482380D01*
D13*
X119519285Y-95780714D02*
X119447857Y-95852142D01*
X119233571Y-95923571D01*
X119090714Y-95923571D01*
X118876428Y-95852142D01*
X118733571Y-95709285D01*
X118662142Y-95566428D01*
X118590714Y-95280714D01*
X118590714Y-95066428D01*
X118662142Y-94780714D01*
X118733571Y-94637857D01*
X118876428Y-94495000D01*
X119090714Y-94423571D01*
X119233571Y-94423571D01*
X119447857Y-94495000D01*
X119519285Y-94566428D01*
X120376428Y-95923571D02*
X120233571Y-95852142D01*
X120162142Y-95780714D01*
X120090714Y-95637857D01*
X120090714Y-95209285D01*
X120162142Y-95066428D01*
X120233571Y-94995000D01*
X120376428Y-94923571D01*
X120590714Y-94923571D01*
X120733571Y-94995000D01*
X120805000Y-95066428D01*
X120876428Y-95209285D01*
X120876428Y-95637857D01*
X120805000Y-95780714D01*
X120733571Y-95852142D01*
X120590714Y-95923571D01*
X120376428Y-95923571D01*
X121519285Y-94923571D02*
X121519285Y-95923571D01*
X121519285Y-95066428D02*
X121590714Y-94995000D01*
X121733571Y-94923571D01*
X121947857Y-94923571D01*
X122090714Y-94995000D01*
X122162142Y-95137857D01*
X122162142Y-95923571D01*
X122876428Y-94923571D02*
X122876428Y-95923571D01*
X122876428Y-95066428D02*
X122947857Y-94995000D01*
X123090714Y-94923571D01*
X123305000Y-94923571D01*
X123447857Y-94995000D01*
X123519285Y-95137857D01*
X123519285Y-95923571D01*
X124805000Y-95852142D02*
X124662142Y-95923571D01*
X124376428Y-95923571D01*
X124233571Y-95852142D01*
X124162142Y-95709285D01*
X124162142Y-95137857D01*
X124233571Y-94995000D01*
X124376428Y-94923571D01*
X124662142Y-94923571D01*
X124805000Y-94995000D01*
X124876428Y-95137857D01*
X124876428Y-95280714D01*
X124162142Y-95423571D01*
X126162142Y-95852142D02*
X126019285Y-95923571D01*
X125733571Y-95923571D01*
X125590714Y-95852142D01*
X125519285Y-95780714D01*
X125447857Y-95637857D01*
X125447857Y-95209285D01*
X125519285Y-95066428D01*
X125590714Y-94995000D01*
X125733571Y-94923571D01*
X126019285Y-94923571D01*
X126162142Y-94995000D01*
X126590714Y-94923571D02*
X127162142Y-94923571D01*
X126805000Y-94423571D02*
X126805000Y-95709285D01*
X126876428Y-95852142D01*
X127019285Y-95923571D01*
X127162142Y-95923571D01*
X127662142Y-95923571D02*
X127662142Y-94923571D01*
X127662142Y-94423571D02*
X127590714Y-94495000D01*
X127662142Y-94566428D01*
X127733571Y-94495000D01*
X127662142Y-94423571D01*
X127662142Y-94566428D01*
X128590714Y-95923571D02*
X128447857Y-95852142D01*
X128376428Y-95780714D01*
X128305000Y-95637857D01*
X128305000Y-95209285D01*
X128376428Y-95066428D01*
X128447857Y-94995000D01*
X128590714Y-94923571D01*
X128805000Y-94923571D01*
X128947857Y-94995000D01*
X129019285Y-95066428D01*
X129090714Y-95209285D01*
X129090714Y-95637857D01*
X129019285Y-95780714D01*
X128947857Y-95852142D01*
X128805000Y-95923571D01*
X128590714Y-95923571D01*
X129733571Y-94923571D02*
X129733571Y-95923571D01*
X129733571Y-95066428D02*
X129805000Y-94995000D01*
X129947857Y-94923571D01*
X130162142Y-94923571D01*
X130305000Y-94995000D01*
X130376428Y-95137857D01*
X130376428Y-95923571D01*
X132233571Y-95923571D02*
X132233571Y-94423571D01*
X132805000Y-94423571D01*
X132947857Y-94495000D01*
X133019285Y-94566428D01*
X133090714Y-94709285D01*
X133090714Y-94923571D01*
X133019285Y-95066428D01*
X132947857Y-95137857D01*
X132805000Y-95209285D01*
X132233571Y-95209285D01*
X133947857Y-95923571D02*
X133805000Y-95852142D01*
X133733571Y-95780714D01*
X133662142Y-95637857D01*
X133662142Y-95209285D01*
X133733571Y-95066428D01*
X133805000Y-94995000D01*
X133947857Y-94923571D01*
X134162142Y-94923571D01*
X134305000Y-94995000D01*
X134376428Y-95066428D01*
X134447857Y-95209285D01*
X134447857Y-95637857D01*
X134376428Y-95780714D01*
X134305000Y-95852142D01*
X134162142Y-95923571D01*
X133947857Y-95923571D01*
X135090714Y-95923571D02*
X135090714Y-94923571D01*
X135090714Y-95209285D02*
X135162142Y-95066428D01*
X135233571Y-94995000D01*
X135376428Y-94923571D01*
X135519285Y-94923571D01*
X135805000Y-94923571D02*
X136376428Y-94923571D01*
X136019285Y-94423571D02*
X136019285Y-95709285D01*
X136090714Y-95852142D01*
X136233571Y-95923571D01*
X136376428Y-95923571D01*
X137519285Y-95923571D02*
X137519285Y-95137857D01*
X137447857Y-94995000D01*
X137305000Y-94923571D01*
X137019285Y-94923571D01*
X136876428Y-94995000D01*
X137519285Y-95852142D02*
X137376428Y-95923571D01*
X137019285Y-95923571D01*
X136876428Y-95852142D01*
X136805000Y-95709285D01*
X136805000Y-95566428D01*
X136876428Y-95423571D01*
X137019285Y-95352142D01*
X137376428Y-95352142D01*
X137519285Y-95280714D01*
X138447857Y-95923571D02*
X138305000Y-95852142D01*
X138233571Y-95709285D01*
X138233571Y-94423571D01*
X140019285Y-94923571D02*
X140376428Y-95923571D01*
X140733571Y-94923571D01*
X142090714Y-95923571D02*
X141233571Y-95923571D01*
X141662142Y-95923571D02*
X141662142Y-94423571D01*
X141519285Y-94637857D01*
X141376428Y-94780714D01*
X141233571Y-94852142D01*
X142733571Y-95780714D02*
X142805000Y-95852142D01*
X142733571Y-95923571D01*
X142662142Y-95852142D01*
X142733571Y-95780714D01*
X142733571Y-95923571D01*
X143733571Y-94423571D02*
X143876428Y-94423571D01*
X144019285Y-94495000D01*
X144090714Y-94566428D01*
X144162142Y-94709285D01*
X144233571Y-94995000D01*
X144233571Y-95352142D01*
X144162142Y-95637857D01*
X144090714Y-95780714D01*
X144019285Y-95852142D01*
X143876428Y-95923571D01*
X143733571Y-95923571D01*
X143590714Y-95852142D01*
X143519285Y-95780714D01*
X143447857Y-95637857D01*
X143376428Y-95352142D01*
X143376428Y-94995000D01*
X143447857Y-94709285D01*
X143519285Y-94566428D01*
X143590714Y-94495000D01*
X143733571Y-94423571D01*
X118662142Y-98473571D02*
X118662142Y-96973571D01*
X119019285Y-96973571D01*
X119233571Y-97045000D01*
X119376428Y-97187857D01*
X119447857Y-97330714D01*
X119519285Y-97616428D01*
X119519285Y-97830714D01*
X119447857Y-98116428D01*
X119376428Y-98259285D01*
X119233571Y-98402142D01*
X119019285Y-98473571D01*
X118662142Y-98473571D01*
X120733571Y-98402142D02*
X120590714Y-98473571D01*
X120305000Y-98473571D01*
X120162142Y-98402142D01*
X120090714Y-98259285D01*
X120090714Y-97687857D01*
X120162142Y-97545000D01*
X120305000Y-97473571D01*
X120590714Y-97473571D01*
X120733571Y-97545000D01*
X120805000Y-97687857D01*
X120805000Y-97830714D01*
X120090714Y-97973571D01*
X121376428Y-98402142D02*
X121519285Y-98473571D01*
X121805000Y-98473571D01*
X121947857Y-98402142D01*
X122019285Y-98259285D01*
X122019285Y-98187857D01*
X121947857Y-98045000D01*
X121805000Y-97973571D01*
X121590714Y-97973571D01*
X121447857Y-97902142D01*
X121376428Y-97759285D01*
X121376428Y-97687857D01*
X121447857Y-97545000D01*
X121590714Y-97473571D01*
X121805000Y-97473571D01*
X121947857Y-97545000D01*
X122662142Y-98473571D02*
X122662142Y-97473571D01*
X122662142Y-96973571D02*
X122590714Y-97045000D01*
X122662142Y-97116428D01*
X122733571Y-97045000D01*
X122662142Y-96973571D01*
X122662142Y-97116428D01*
X124019285Y-97473571D02*
X124019285Y-98687857D01*
X123947857Y-98830714D01*
X123876428Y-98902142D01*
X123733571Y-98973571D01*
X123519285Y-98973571D01*
X123376428Y-98902142D01*
X124019285Y-98402142D02*
X123876428Y-98473571D01*
X123590714Y-98473571D01*
X123447857Y-98402142D01*
X123376428Y-98330714D01*
X123305000Y-98187857D01*
X123305000Y-97759285D01*
X123376428Y-97616428D01*
X123447857Y-97545000D01*
X123590714Y-97473571D01*
X123876428Y-97473571D01*
X124019285Y-97545000D01*
X124733571Y-97473571D02*
X124733571Y-98473571D01*
X124733571Y-97616428D02*
X124805000Y-97545000D01*
X124947857Y-97473571D01*
X125162142Y-97473571D01*
X125305000Y-97545000D01*
X125376428Y-97687857D01*
X125376428Y-98473571D01*
X126662142Y-98402142D02*
X126519285Y-98473571D01*
X126233571Y-98473571D01*
X126090714Y-98402142D01*
X126019285Y-98259285D01*
X126019285Y-97687857D01*
X126090714Y-97545000D01*
X126233571Y-97473571D01*
X126519285Y-97473571D01*
X126662142Y-97545000D01*
X126733571Y-97687857D01*
X126733571Y-97830714D01*
X126019285Y-97973571D01*
X128019285Y-98473571D02*
X128019285Y-96973571D01*
X128019285Y-98402142D02*
X127876428Y-98473571D01*
X127590714Y-98473571D01*
X127447857Y-98402142D01*
X127376428Y-98330714D01*
X127305000Y-98187857D01*
X127305000Y-97759285D01*
X127376428Y-97616428D01*
X127447857Y-97545000D01*
X127590714Y-97473571D01*
X127876428Y-97473571D01*
X128019285Y-97545000D01*
X129876428Y-98473571D02*
X129876428Y-96973571D01*
X129876428Y-97545000D02*
X130019285Y-97473571D01*
X130305000Y-97473571D01*
X130447857Y-97545000D01*
X130519285Y-97616428D01*
X130590714Y-97759285D01*
X130590714Y-98187857D01*
X130519285Y-98330714D01*
X130447857Y-98402142D01*
X130305000Y-98473571D01*
X130019285Y-98473571D01*
X129876428Y-98402142D01*
X131090714Y-97473571D02*
X131447857Y-98473571D01*
X131805000Y-97473571D02*
X131447857Y-98473571D01*
X131305000Y-98830714D01*
X131233571Y-98902142D01*
X131090714Y-98973571D01*
X132376428Y-98330714D02*
X132447857Y-98402142D01*
X132376428Y-98473571D01*
X132305000Y-98402142D01*
X132376428Y-98330714D01*
X132376428Y-98473571D01*
X132376428Y-97545000D02*
X132447857Y-97616428D01*
X132376428Y-97687857D01*
X132305000Y-97616428D01*
X132376428Y-97545000D01*
X132376428Y-97687857D01*
X133902142Y-98453571D02*
X133902142Y-96953571D01*
X134473571Y-96953571D01*
X134616428Y-97025000D01*
X134687857Y-97096428D01*
X134759285Y-97239285D01*
X134759285Y-97453571D01*
X134687857Y-97596428D01*
X134616428Y-97667857D01*
X134473571Y-97739285D01*
X133902142Y-97739285D01*
X135402142Y-98310714D02*
X135473571Y-98382142D01*
X135402142Y-98453571D01*
X135330714Y-98382142D01*
X135402142Y-98310714D01*
X135402142Y-98453571D01*
X137259285Y-98453571D02*
X137259285Y-96953571D01*
X137759285Y-98025000D01*
X138259285Y-96953571D01*
X138259285Y-98453571D01*
X139616428Y-98453571D02*
X139616428Y-97667857D01*
X139545000Y-97525000D01*
X139402142Y-97453571D01*
X139116428Y-97453571D01*
X138973571Y-97525000D01*
X139616428Y-98382142D02*
X139473571Y-98453571D01*
X139116428Y-98453571D01*
X138973571Y-98382142D01*
X138902142Y-98239285D01*
X138902142Y-98096428D01*
X138973571Y-97953571D01*
X139116428Y-97882142D01*
X139473571Y-97882142D01*
X139616428Y-97810714D01*
X140545000Y-98453571D02*
X140402142Y-98382142D01*
X140330714Y-98239285D01*
X140330714Y-96953571D01*
X141116428Y-98453571D02*
X141116428Y-97453571D01*
X141116428Y-96953571D02*
X141045000Y-97025000D01*
X141116428Y-97096428D01*
X141187857Y-97025000D01*
X141116428Y-96953571D01*
X141116428Y-97096428D01*
X141830714Y-98453571D02*
X141830714Y-96953571D01*
X141973571Y-97882142D02*
X142402142Y-98453571D01*
X142402142Y-97453571D02*
X141830714Y-98025000D01*
X133902142Y-101003571D02*
X133902142Y-99503571D01*
X134759285Y-101003571D02*
X134116428Y-100146428D01*
X134759285Y-99503571D02*
X133902142Y-100360714D01*
X135402142Y-100860714D02*
X135473571Y-100932142D01*
X135402142Y-101003571D01*
X135330714Y-100932142D01*
X135402142Y-100860714D01*
X135402142Y-101003571D01*
X137187857Y-100575000D02*
X137902142Y-100575000D01*
X137045000Y-101003571D02*
X137545000Y-99503571D01*
X138045000Y-101003571D01*
X138545000Y-101003571D02*
X138545000Y-99503571D01*
X138687857Y-100432142D02*
X139116428Y-101003571D01*
X139116428Y-100003571D02*
X138545000Y-100575000D01*
X139759285Y-101003571D02*
X139759285Y-99503571D01*
X140402142Y-101003571D02*
X140402142Y-100217857D01*
X140330714Y-100075000D01*
X140187857Y-100003571D01*
X139973571Y-100003571D01*
X139830714Y-100075000D01*
X139759285Y-100146428D01*
X141116428Y-101003571D02*
X141116428Y-99503571D01*
X141116428Y-100075000D02*
X141259285Y-100003571D01*
X141545000Y-100003571D01*
X141687857Y-100075000D01*
X141759285Y-100146428D01*
X141830714Y-100289285D01*
X141830714Y-100717857D01*
X141759285Y-100860714D01*
X141687857Y-100932142D01*
X141545000Y-101003571D01*
X141259285Y-101003571D01*
X141116428Y-100932142D01*
X143116428Y-101003571D02*
X143116428Y-100217857D01*
X143045000Y-100075000D01*
X142902142Y-100003571D01*
X142616428Y-100003571D01*
X142473571Y-100075000D01*
X143116428Y-100932142D02*
X142973571Y-101003571D01*
X142616428Y-101003571D01*
X142473571Y-100932142D01*
X142402142Y-100789285D01*
X142402142Y-100646428D01*
X142473571Y-100503571D01*
X142616428Y-100432142D01*
X142973571Y-100432142D01*
X143116428Y-100360714D01*
X143830714Y-101003571D02*
X143830714Y-100003571D01*
X143830714Y-100289285D02*
X143902142Y-100146428D01*
X143973571Y-100075000D01*
X144116428Y-100003571D01*
X144259285Y-100003571D01*
X144759285Y-101003571D02*
X144759285Y-100003571D01*
X144759285Y-99503571D02*
X144687857Y-99575000D01*
X144759285Y-99646428D01*
X144830714Y-99575000D01*
X144759285Y-99503571D01*
X144759285Y-99646428D01*
X133902142Y-103553571D02*
X133902142Y-102053571D01*
X134259285Y-102053571D01*
X134473571Y-102125000D01*
X134616428Y-102267857D01*
X134687857Y-102410714D01*
X134759285Y-102696428D01*
X134759285Y-102910714D01*
X134687857Y-103196428D01*
X134616428Y-103339285D01*
X134473571Y-103482142D01*
X134259285Y-103553571D01*
X133902142Y-103553571D01*
X135402142Y-103410714D02*
X135473571Y-103482142D01*
X135402142Y-103553571D01*
X135330714Y-103482142D01*
X135402142Y-103410714D01*
X135402142Y-103553571D01*
X137973571Y-103553571D02*
X137259285Y-103553571D01*
X137259285Y-102053571D01*
X139116428Y-102553571D02*
X139116428Y-103553571D01*
X138473571Y-102553571D02*
X138473571Y-103339285D01*
X138545000Y-103482142D01*
X138687857Y-103553571D01*
X138902142Y-103553571D01*
X139045000Y-103482142D01*
X139116428Y-103410714D01*
X133830714Y-105675000D02*
X134545000Y-105675000D01*
X133687857Y-106103571D02*
X134187857Y-104603571D01*
X134687857Y-106103571D01*
X135187857Y-105960714D02*
X135259285Y-106032142D01*
X135187857Y-106103571D01*
X135116428Y-106032142D01*
X135187857Y-105960714D01*
X135187857Y-106103571D01*
X137545000Y-105317857D02*
X137759285Y-105389285D01*
X137830714Y-105460714D01*
X137902142Y-105603571D01*
X137902142Y-105817857D01*
X137830714Y-105960714D01*
X137759285Y-106032142D01*
X137616428Y-106103571D01*
X137045000Y-106103571D01*
X137045000Y-104603571D01*
X137545000Y-104603571D01*
X137687857Y-104675000D01*
X137759285Y-104746428D01*
X137830714Y-104889285D01*
X137830714Y-105032142D01*
X137759285Y-105175000D01*
X137687857Y-105246428D01*
X137545000Y-105317857D01*
X137045000Y-105317857D01*
X138759285Y-106103571D02*
X138616428Y-106032142D01*
X138545000Y-105960714D01*
X138473571Y-105817857D01*
X138473571Y-105389285D01*
X138545000Y-105246428D01*
X138616428Y-105175000D01*
X138759285Y-105103571D01*
X138973571Y-105103571D01*
X139116428Y-105175000D01*
X139187857Y-105246428D01*
X139259285Y-105389285D01*
X139259285Y-105817857D01*
X139187857Y-105960714D01*
X139116428Y-106032142D01*
X138973571Y-106103571D01*
X138759285Y-106103571D01*
X140545000Y-105103571D02*
X140545000Y-106317857D01*
X140473571Y-106460714D01*
X140402142Y-106532142D01*
X140259285Y-106603571D01*
X140045000Y-106603571D01*
X139902142Y-106532142D01*
X140545000Y-106032142D02*
X140402142Y-106103571D01*
X140116428Y-106103571D01*
X139973571Y-106032142D01*
X139902142Y-105960714D01*
X139830714Y-105817857D01*
X139830714Y-105389285D01*
X139902142Y-105246428D01*
X139973571Y-105175000D01*
X140116428Y-105103571D01*
X140402142Y-105103571D01*
X140545000Y-105175000D01*
X141902142Y-106103571D02*
X141902142Y-104603571D01*
X141902142Y-106032142D02*
X141759285Y-106103571D01*
X141473571Y-106103571D01*
X141330714Y-106032142D01*
X141259285Y-105960714D01*
X141187857Y-105817857D01*
X141187857Y-105389285D01*
X141259285Y-105246428D01*
X141330714Y-105175000D01*
X141473571Y-105103571D01*
X141759285Y-105103571D01*
X141902142Y-105175000D01*
X143259285Y-106103571D02*
X143259285Y-105317857D01*
X143187857Y-105175000D01*
X143045000Y-105103571D01*
X142759285Y-105103571D01*
X142616428Y-105175000D01*
X143259285Y-106032142D02*
X143116428Y-106103571D01*
X142759285Y-106103571D01*
X142616428Y-106032142D01*
X142545000Y-105889285D01*
X142545000Y-105746428D01*
X142616428Y-105603571D01*
X142759285Y-105532142D01*
X143116428Y-105532142D01*
X143259285Y-105460714D01*
X143973571Y-105103571D02*
X143973571Y-106103571D01*
X143973571Y-105246428D02*
X144045000Y-105175000D01*
X144187857Y-105103571D01*
X144402142Y-105103571D01*
X144545000Y-105175000D01*
X144616428Y-105317857D01*
X144616428Y-106103571D01*
D11*
X166600000Y-113030000D02*
X165830000Y-113030000D01*
X158520000Y-113030000D02*
X159290000Y-113030000D01*
X165830000Y-111660000D02*
X159290000Y-111660000D01*
X165830000Y-114400000D02*
X165830000Y-111660000D01*
X159290000Y-114400000D02*
X165830000Y-114400000D01*
X159290000Y-111660000D02*
X159290000Y-114400000D01*
X166600000Y-105410000D02*
X165830000Y-105410000D01*
X158520000Y-105410000D02*
X159290000Y-105410000D01*
X165830000Y-104040000D02*
X159290000Y-104040000D01*
X165830000Y-106780000D02*
X165830000Y-104040000D01*
X159290000Y-106780000D02*
X165830000Y-106780000D01*
X159290000Y-104040000D02*
X159290000Y-106780000D01*
X166600000Y-97790000D02*
X165830000Y-97790000D01*
X158520000Y-97790000D02*
X159290000Y-97790000D01*
X165830000Y-96420000D02*
X159290000Y-96420000D01*
X165830000Y-99160000D02*
X165830000Y-96420000D01*
X159290000Y-99160000D02*
X165830000Y-99160000D01*
X159290000Y-96420000D02*
X159290000Y-99160000D01*
X166600000Y-90170000D02*
X165830000Y-90170000D01*
X158520000Y-90170000D02*
X159290000Y-90170000D01*
X165830000Y-88800000D02*
X159290000Y-88800000D01*
X165830000Y-91540000D02*
X165830000Y-88800000D01*
X159290000Y-91540000D02*
X165830000Y-91540000D01*
X159290000Y-88800000D02*
X159290000Y-91540000D01*
X166600000Y-82550000D02*
X165830000Y-82550000D01*
X158520000Y-82550000D02*
X159290000Y-82550000D01*
X165830000Y-81180000D02*
X159290000Y-81180000D01*
X165830000Y-83920000D02*
X165830000Y-81180000D01*
X159290000Y-83920000D02*
X165830000Y-83920000D01*
X159290000Y-81180000D02*
X159290000Y-83920000D01*
X173990000Y-81280000D02*
X175260000Y-81280000D01*
X173990000Y-82550000D02*
X173990000Y-81280000D01*
X176302929Y-118490000D02*
X176700000Y-118490000D01*
X176302929Y-117730000D02*
X176700000Y-117730000D01*
X185360000Y-118490000D02*
X179360000Y-118490000D01*
X185360000Y-117730000D02*
X185360000Y-118490000D01*
X179360000Y-117730000D02*
X185360000Y-117730000D01*
X176700000Y-116840000D02*
X179360000Y-116840000D01*
X176302929Y-115950000D02*
X176700000Y-115950000D01*
X176302929Y-115190000D02*
X176700000Y-115190000D01*
X185360000Y-115950000D02*
X179360000Y-115950000D01*
X185360000Y-115190000D02*
X185360000Y-115950000D01*
X179360000Y-115190000D02*
X185360000Y-115190000D01*
X176700000Y-114300000D02*
X179360000Y-114300000D01*
X176302929Y-113410000D02*
X176700000Y-113410000D01*
X176302929Y-112650000D02*
X176700000Y-112650000D01*
X185360000Y-113410000D02*
X179360000Y-113410000D01*
X185360000Y-112650000D02*
X185360000Y-113410000D01*
X179360000Y-112650000D02*
X185360000Y-112650000D01*
X176700000Y-111760000D02*
X179360000Y-111760000D01*
X176302929Y-110870000D02*
X176700000Y-110870000D01*
X176302929Y-110110000D02*
X176700000Y-110110000D01*
X185360000Y-110870000D02*
X179360000Y-110870000D01*
X185360000Y-110110000D02*
X185360000Y-110870000D01*
X179360000Y-110110000D02*
X185360000Y-110110000D01*
X176700000Y-109220000D02*
X179360000Y-109220000D01*
X176302929Y-108330000D02*
X176700000Y-108330000D01*
X176302929Y-107570000D02*
X176700000Y-107570000D01*
X185360000Y-108330000D02*
X179360000Y-108330000D01*
X185360000Y-107570000D02*
X185360000Y-108330000D01*
X179360000Y-107570000D02*
X185360000Y-107570000D01*
X176700000Y-106680000D02*
X179360000Y-106680000D01*
X176302929Y-105790000D02*
X176700000Y-105790000D01*
X176302929Y-105030000D02*
X176700000Y-105030000D01*
X185360000Y-105790000D02*
X179360000Y-105790000D01*
X185360000Y-105030000D02*
X185360000Y-105790000D01*
X179360000Y-105030000D02*
X185360000Y-105030000D01*
X176700000Y-104140000D02*
X179360000Y-104140000D01*
X176302929Y-103250000D02*
X176700000Y-103250000D01*
X176302929Y-102490000D02*
X176700000Y-102490000D01*
X185360000Y-103250000D02*
X179360000Y-103250000D01*
X185360000Y-102490000D02*
X185360000Y-103250000D01*
X179360000Y-102490000D02*
X185360000Y-102490000D01*
X176700000Y-101600000D02*
X179360000Y-101600000D01*
X176302929Y-100710000D02*
X176700000Y-100710000D01*
X176302929Y-99950000D02*
X176700000Y-99950000D01*
X185360000Y-100710000D02*
X179360000Y-100710000D01*
X185360000Y-99950000D02*
X185360000Y-100710000D01*
X179360000Y-99950000D02*
X185360000Y-99950000D01*
X176700000Y-99060000D02*
X179360000Y-99060000D01*
X176302929Y-98170000D02*
X176700000Y-98170000D01*
X176302929Y-97410000D02*
X176700000Y-97410000D01*
X185360000Y-98170000D02*
X179360000Y-98170000D01*
X185360000Y-97410000D02*
X185360000Y-98170000D01*
X179360000Y-97410000D02*
X185360000Y-97410000D01*
X176700000Y-96520000D02*
X179360000Y-96520000D01*
X176302929Y-95630000D02*
X176700000Y-95630000D01*
X176302929Y-94870000D02*
X176700000Y-94870000D01*
X185360000Y-95630000D02*
X179360000Y-95630000D01*
X185360000Y-94870000D02*
X185360000Y-95630000D01*
X179360000Y-94870000D02*
X185360000Y-94870000D01*
X176700000Y-93980000D02*
X179360000Y-93980000D01*
X176302929Y-93090000D02*
X176700000Y-93090000D01*
X176302929Y-92330000D02*
X176700000Y-92330000D01*
X185360000Y-93090000D02*
X179360000Y-93090000D01*
X185360000Y-92330000D02*
X185360000Y-93090000D01*
X179360000Y-92330000D02*
X185360000Y-92330000D01*
X176700000Y-91440000D02*
X179360000Y-91440000D01*
X176302929Y-90550000D02*
X176700000Y-90550000D01*
X176302929Y-89790000D02*
X176700000Y-89790000D01*
X185360000Y-90550000D02*
X179360000Y-90550000D01*
X185360000Y-89790000D02*
X185360000Y-90550000D01*
X179360000Y-89790000D02*
X185360000Y-89790000D01*
X176700000Y-88900000D02*
X179360000Y-88900000D01*
X176302929Y-88010000D02*
X176700000Y-88010000D01*
X176302929Y-87250000D02*
X176700000Y-87250000D01*
X185360000Y-88010000D02*
X179360000Y-88010000D01*
X185360000Y-87250000D02*
X185360000Y-88010000D01*
X179360000Y-87250000D02*
X185360000Y-87250000D01*
X176700000Y-86360000D02*
X179360000Y-86360000D01*
X176302929Y-85470000D02*
X176700000Y-85470000D01*
X176302929Y-84710000D02*
X176700000Y-84710000D01*
X185360000Y-85470000D02*
X179360000Y-85470000D01*
X185360000Y-84710000D02*
X185360000Y-85470000D01*
X179360000Y-84710000D02*
X185360000Y-84710000D01*
X176700000Y-83820000D02*
X179360000Y-83820000D01*
X176370000Y-82930000D02*
X176700000Y-82930000D01*
X176370000Y-82170000D02*
X176700000Y-82170000D01*
X179360000Y-82830000D02*
X185360000Y-82830000D01*
X179360000Y-82710000D02*
X185360000Y-82710000D01*
X179360000Y-82590000D02*
X185360000Y-82590000D01*
X179360000Y-82470000D02*
X185360000Y-82470000D01*
X179360000Y-82350000D02*
X185360000Y-82350000D01*
X179360000Y-82230000D02*
X185360000Y-82230000D01*
X185360000Y-82930000D02*
X179360000Y-82930000D01*
X185360000Y-82170000D02*
X185360000Y-82930000D01*
X179360000Y-82170000D02*
X185360000Y-82170000D01*
X179360000Y-81220000D02*
X176700000Y-81220000D01*
X179360000Y-119440000D02*
X179360000Y-81220000D01*
X176700000Y-119440000D02*
X179360000Y-119440000D01*
X176700000Y-81220000D02*
X176700000Y-119440000D01*
X94990000Y-84310000D02*
X96990000Y-84310000D01*
X94990000Y-82070000D02*
X94990000Y-84310000D01*
X111490000Y-81093000D02*
X111440000Y-81143000D01*
X113923000Y-78660000D02*
X113898000Y-78684000D01*
X111682000Y-81335000D02*
X111658000Y-81360000D01*
X114140000Y-78877000D02*
X114091000Y-78927000D01*
X106490000Y-81093000D02*
X106440000Y-81143000D01*
X108923000Y-78660000D02*
X108898000Y-78684000D01*
X106682000Y-81335000D02*
X106658000Y-81360000D01*
X109140000Y-78877000D02*
X109091000Y-78927000D01*
X101490000Y-81093000D02*
X101440000Y-81143000D01*
X103923000Y-78660000D02*
X103898000Y-78684000D01*
X101682000Y-81335000D02*
X101658000Y-81360000D01*
X104140000Y-78877000D02*
X104091000Y-78927000D01*
X115351000Y-73450000D02*
X115351000Y-84070000D01*
X95230000Y-73450000D02*
X95230000Y-84070000D01*
X95230000Y-84070000D02*
X115351000Y-84070000D01*
X95230000Y-73450000D02*
X115351000Y-73450000D01*
X95230000Y-77010000D02*
X115351000Y-77010000D01*
X95230000Y-78010000D02*
X115351000Y-78010000D01*
X95230000Y-82010000D02*
X115351000Y-82010000D01*
X114570000Y-80010000D02*
G75*
G03X114570000Y-80010000I-1780000J0D01*
G01*
X109570000Y-80010000D02*
G75*
G03X109570000Y-80010000I-1780000J0D01*
G01*
X104570000Y-80010000D02*
G75*
G03X104570000Y-80010000I-1780000J0D01*
G01*
X97820814Y-81790389D02*
G75*
G02X97094000Y-81649000I-30814J1780389D01*
G01*
X96150795Y-80705516D02*
G75*
G02X96151000Y-79314000I1639205J695516D01*
G01*
X97094484Y-78370795D02*
G75*
G02X98486000Y-78371000I695516J-1639205D01*
G01*
X99429205Y-79314484D02*
G75*
G02X99429000Y-80706000I-1639205J-695516D01*
G01*
X98485501Y-81648499D02*
G75*
G02X97790000Y-81790000I-695501J1638499D01*
G01*
X117850000Y-84310000D02*
X119850000Y-84310000D01*
X117850000Y-82070000D02*
X117850000Y-84310000D01*
X124350000Y-81093000D02*
X124300000Y-81143000D01*
X126783000Y-78660000D02*
X126758000Y-78684000D01*
X124542000Y-81335000D02*
X124518000Y-81360000D01*
X127000000Y-78877000D02*
X126951000Y-78927000D01*
X128210000Y-73450000D02*
X128210000Y-84070000D01*
X118090000Y-73450000D02*
X118090000Y-84070000D01*
X118090000Y-84070000D02*
X128210000Y-84070000D01*
X118090000Y-73450000D02*
X128210000Y-73450000D01*
X118090000Y-77010000D02*
X128210000Y-77010000D01*
X118090000Y-78010000D02*
X128210000Y-78010000D01*
X118090000Y-82010000D02*
X128210000Y-82010000D01*
X127430000Y-80010000D02*
G75*
G03X127430000Y-80010000I-1780000J0D01*
G01*
X120680814Y-81790389D02*
G75*
G02X119954000Y-81649000I-30814J1780389D01*
G01*
X119010795Y-80705516D02*
G75*
G02X119011000Y-79314000I1639205J695516D01*
G01*
X119954484Y-78370795D02*
G75*
G02X121346000Y-78371000I695516J-1639205D01*
G01*
X122289205Y-79314484D02*
G75*
G02X122289000Y-80706000I-1639205J-695516D01*
G01*
X121345501Y-81648499D02*
G75*
G02X120650000Y-81790000I-695501J1638499D01*
G01*
X119120000Y-127490000D02*
X121120000Y-127490000D01*
X119120000Y-125250000D02*
X119120000Y-127490000D01*
X145620000Y-124273000D02*
X145570000Y-124323000D01*
X148053000Y-121840000D02*
X148028000Y-121864000D01*
X145812000Y-124515000D02*
X145788000Y-124540000D01*
X148270000Y-122057000D02*
X148221000Y-122107000D01*
X140620000Y-124273000D02*
X140570000Y-124323000D01*
X143053000Y-121840000D02*
X143028000Y-121864000D01*
X140812000Y-124515000D02*
X140788000Y-124540000D01*
X143270000Y-122057000D02*
X143221000Y-122107000D01*
X135620000Y-124273000D02*
X135570000Y-124323000D01*
X138053000Y-121840000D02*
X138028000Y-121864000D01*
X135812000Y-124515000D02*
X135788000Y-124540000D01*
X138270000Y-122057000D02*
X138221000Y-122107000D01*
X130620000Y-124273000D02*
X130570000Y-124323000D01*
X133053000Y-121840000D02*
X133028000Y-121864000D01*
X130812000Y-124515000D02*
X130788000Y-124540000D01*
X133270000Y-122057000D02*
X133221000Y-122107000D01*
X125620000Y-124273000D02*
X125570000Y-124323000D01*
X128053000Y-121840000D02*
X128028000Y-121864000D01*
X125812000Y-124515000D02*
X125788000Y-124540000D01*
X128270000Y-122057000D02*
X128221000Y-122107000D01*
X149480000Y-116630000D02*
X149480000Y-127250000D01*
X119360000Y-116630000D02*
X119360000Y-127250000D01*
X119360000Y-127250000D02*
X149480000Y-127250000D01*
X119360000Y-116630000D02*
X149480000Y-116630000D01*
X119360000Y-120190000D02*
X149480000Y-120190000D01*
X119360000Y-121190000D02*
X149480000Y-121190000D01*
X119360000Y-125190000D02*
X149480000Y-125190000D01*
X148700000Y-123190000D02*
G75*
G03X148700000Y-123190000I-1780000J0D01*
G01*
X143700000Y-123190000D02*
G75*
G03X143700000Y-123190000I-1780000J0D01*
G01*
X138700000Y-123190000D02*
G75*
G03X138700000Y-123190000I-1780000J0D01*
G01*
X133700000Y-123190000D02*
G75*
G03X133700000Y-123190000I-1780000J0D01*
G01*
X128700000Y-123190000D02*
G75*
G03X128700000Y-123190000I-1780000J0D01*
G01*
X121950814Y-124970389D02*
G75*
G02X121224000Y-124829000I-30814J1780389D01*
G01*
X120280795Y-123885516D02*
G75*
G02X120281000Y-122494000I1639205J695516D01*
G01*
X121224484Y-121550795D02*
G75*
G02X122616000Y-121551000I695516J-1639205D01*
G01*
X123559205Y-122494484D02*
G75*
G02X123559000Y-123886000I-1639205J-695516D01*
G01*
X122615501Y-124828499D02*
G75*
G02X121920000Y-124970000I-695501J1638499D01*
G01*
X94990000Y-127490000D02*
X96990000Y-127490000D01*
X94990000Y-125250000D02*
X94990000Y-127490000D01*
X111490000Y-124273000D02*
X111440000Y-124323000D01*
X113923000Y-121840000D02*
X113898000Y-121864000D01*
X111682000Y-124515000D02*
X111658000Y-124540000D01*
X114140000Y-122057000D02*
X114091000Y-122107000D01*
X106490000Y-124273000D02*
X106440000Y-124323000D01*
X108923000Y-121840000D02*
X108898000Y-121864000D01*
X106682000Y-124515000D02*
X106658000Y-124540000D01*
X109140000Y-122057000D02*
X109091000Y-122107000D01*
X101490000Y-124273000D02*
X101440000Y-124323000D01*
X103923000Y-121840000D02*
X103898000Y-121864000D01*
X101682000Y-124515000D02*
X101658000Y-124540000D01*
X104140000Y-122057000D02*
X104091000Y-122107000D01*
X115351000Y-116630000D02*
X115351000Y-127250000D01*
X95230000Y-116630000D02*
X95230000Y-127250000D01*
X95230000Y-127250000D02*
X115351000Y-127250000D01*
X95230000Y-116630000D02*
X115351000Y-116630000D01*
X95230000Y-120190000D02*
X115351000Y-120190000D01*
X95230000Y-121190000D02*
X115351000Y-121190000D01*
X95230000Y-125190000D02*
X115351000Y-125190000D01*
X114570000Y-123190000D02*
G75*
G03X114570000Y-123190000I-1780000J0D01*
G01*
X109570000Y-123190000D02*
G75*
G03X109570000Y-123190000I-1780000J0D01*
G01*
X104570000Y-123190000D02*
G75*
G03X104570000Y-123190000I-1780000J0D01*
G01*
X97820814Y-124970389D02*
G75*
G02X97094000Y-124829000I-30814J1780389D01*
G01*
X96150795Y-123885516D02*
G75*
G02X96151000Y-122494000I1639205J695516D01*
G01*
X97094484Y-121550795D02*
G75*
G02X98486000Y-121551000I695516J-1639205D01*
G01*
X99429205Y-122494484D02*
G75*
G02X99429000Y-123886000I-1639205J-695516D01*
G01*
X98485501Y-124828499D02*
G75*
G02X97790000Y-124970000I-695501J1638499D01*
G01*
X153410000Y-127490000D02*
X155410000Y-127490000D01*
X153410000Y-125250000D02*
X153410000Y-127490000D01*
X159910000Y-124273000D02*
X159860000Y-124323000D01*
X162343000Y-121840000D02*
X162318000Y-121864000D01*
X160102000Y-124515000D02*
X160078000Y-124540000D01*
X162560000Y-122057000D02*
X162511000Y-122107000D01*
X163770000Y-116630000D02*
X163770000Y-127250000D01*
X153650000Y-116630000D02*
X153650000Y-127250000D01*
X153650000Y-127250000D02*
X163770000Y-127250000D01*
X153650000Y-116630000D02*
X163770000Y-116630000D01*
X153650000Y-120190000D02*
X163770000Y-120190000D01*
X153650000Y-121190000D02*
X163770000Y-121190000D01*
X153650000Y-125190000D02*
X163770000Y-125190000D01*
X162990000Y-123190000D02*
G75*
G03X162990000Y-123190000I-1780000J0D01*
G01*
X156240814Y-124970389D02*
G75*
G02X155514000Y-124829000I-30814J1780389D01*
G01*
X154570795Y-123885516D02*
G75*
G02X154571000Y-122494000I1639205J695516D01*
G01*
X155514484Y-121550795D02*
G75*
G02X156906000Y-121551000I695516J-1639205D01*
G01*
X157849205Y-122494484D02*
G75*
G02X157849000Y-123886000I-1639205J-695516D01*
G01*
X156905501Y-124828499D02*
G75*
G02X156210000Y-124970000I-695501J1638499D01*
G01*
X150390000Y-112205000D02*
X150390000Y-112095000D01*
X150390000Y-113965000D02*
X150390000Y-113855000D01*
X150400000Y-112095000D02*
X150390000Y-112095000D01*
X152590000Y-112095000D02*
X151859000Y-112095000D01*
X150400000Y-113965000D02*
X150390000Y-113965000D01*
X152590000Y-113965000D02*
X151859000Y-113965000D01*
X150390000Y-104585000D02*
X150390000Y-104475000D01*
X150390000Y-106345000D02*
X150390000Y-106235000D01*
X150400000Y-104475000D02*
X150390000Y-104475000D01*
X152590000Y-104475000D02*
X151859000Y-104475000D01*
X150400000Y-106345000D02*
X150390000Y-106345000D01*
X152590000Y-106345000D02*
X151859000Y-106345000D01*
X150390000Y-96965000D02*
X150390000Y-96855000D01*
X150390000Y-98725000D02*
X150390000Y-98615000D01*
X150400000Y-96855000D02*
X150390000Y-96855000D01*
X152590000Y-96855000D02*
X151859000Y-96855000D01*
X150400000Y-98725000D02*
X150390000Y-98725000D01*
X152590000Y-98725000D02*
X151859000Y-98725000D01*
X150390000Y-89345000D02*
X150390000Y-89235000D01*
X150390000Y-91105000D02*
X150390000Y-90995000D01*
X150400000Y-89235000D02*
X150390000Y-89235000D01*
X152590000Y-89235000D02*
X151859000Y-89235000D01*
X150400000Y-91105000D02*
X150390000Y-91105000D01*
X152590000Y-91105000D02*
X151859000Y-91105000D01*
X150390000Y-81725000D02*
X150390000Y-81615000D01*
X150390000Y-83485000D02*
X150390000Y-83375000D01*
X150400000Y-81615000D02*
X150390000Y-81615000D01*
X152590000Y-81615000D02*
X151859000Y-81615000D01*
X150400000Y-83485000D02*
X150390000Y-83485000D01*
X152590000Y-83485000D02*
X151859000Y-83485000D01*
D12*
X171910476Y-74382380D02*
X171910476Y-75096666D01*
X171862857Y-75239523D01*
X171767619Y-75334761D01*
X171624761Y-75382380D01*
X171529523Y-75382380D01*
X172910476Y-75382380D02*
X172339047Y-75382380D01*
X172624761Y-75382380D02*
X172624761Y-74382380D01*
X172529523Y-74525238D01*
X172434285Y-74620476D01*
X172339047Y-74668095D01*
X173529523Y-74382380D02*
X173624761Y-74382380D01*
X173720000Y-74430000D01*
X173767619Y-74477619D01*
X173815238Y-74572857D01*
X173862857Y-74763333D01*
X173862857Y-75001428D01*
X173815238Y-75191904D01*
X173767619Y-75287142D01*
X173720000Y-75334761D01*
X173624761Y-75382380D01*
X173529523Y-75382380D01*
X173434285Y-75334761D01*
X173386666Y-75287142D01*
X173339047Y-75191904D01*
X173291428Y-75001428D01*
X173291428Y-74763333D01*
X173339047Y-74572857D01*
X173386666Y-74477619D01*
X173434285Y-74430000D01*
X173529523Y-74382380D01*
X126666666Y-104862380D02*
X126666666Y-105576666D01*
X126619047Y-105719523D01*
X126523809Y-105814761D01*
X126380952Y-105862380D01*
X126285714Y-105862380D01*
X127190476Y-105862380D02*
X127380952Y-105862380D01*
X127476190Y-105814761D01*
X127523809Y-105767142D01*
X127619047Y-105624285D01*
X127666666Y-105433809D01*
X127666666Y-105052857D01*
X127619047Y-104957619D01*
X127571428Y-104910000D01*
X127476190Y-104862380D01*
X127285714Y-104862380D01*
X127190476Y-104910000D01*
X127142857Y-104957619D01*
X127095238Y-105052857D01*
X127095238Y-105290952D01*
X127142857Y-105386190D01*
X127190476Y-105433809D01*
X127285714Y-105481428D01*
X127476190Y-105481428D01*
X127571428Y-105433809D01*
X127619047Y-105386190D01*
X127666666Y-105290952D01*
X126666666Y-87082380D02*
X126666666Y-87796666D01*
X126619047Y-87939523D01*
X126523809Y-88034761D01*
X126380952Y-88082380D01*
X126285714Y-88082380D01*
X127285714Y-87510952D02*
X127190476Y-87463333D01*
X127142857Y-87415714D01*
X127095238Y-87320476D01*
X127095238Y-87272857D01*
X127142857Y-87177619D01*
X127190476Y-87130000D01*
X127285714Y-87082380D01*
X127476190Y-87082380D01*
X127571428Y-87130000D01*
X127619047Y-87177619D01*
X127666666Y-87272857D01*
X127666666Y-87320476D01*
X127619047Y-87415714D01*
X127571428Y-87463333D01*
X127476190Y-87510952D01*
X127285714Y-87510952D01*
X127190476Y-87558571D01*
X127142857Y-87606190D01*
X127095238Y-87701428D01*
X127095238Y-87891904D01*
X127142857Y-87987142D01*
X127190476Y-88034761D01*
X127285714Y-88082380D01*
X127476190Y-88082380D01*
X127571428Y-88034761D01*
X127619047Y-87987142D01*
X127666666Y-87891904D01*
X127666666Y-87701428D01*
X127619047Y-87606190D01*
X127571428Y-87558571D01*
X127476190Y-87510952D01*
X168576666Y-120102380D02*
X168576666Y-120816666D01*
X168529047Y-120959523D01*
X168433809Y-121054761D01*
X168290952Y-121102380D01*
X168195714Y-121102380D01*
X168957619Y-120102380D02*
X169624285Y-120102380D01*
X169195714Y-121102380D01*
X162393333Y-111112380D02*
X162060000Y-110636190D01*
X161821904Y-111112380D02*
X161821904Y-110112380D01*
X162202857Y-110112380D01*
X162298095Y-110160000D01*
X162345714Y-110207619D01*
X162393333Y-110302857D01*
X162393333Y-110445714D01*
X162345714Y-110540952D01*
X162298095Y-110588571D01*
X162202857Y-110636190D01*
X161821904Y-110636190D01*
X163298095Y-110112380D02*
X162821904Y-110112380D01*
X162774285Y-110588571D01*
X162821904Y-110540952D01*
X162917142Y-110493333D01*
X163155238Y-110493333D01*
X163250476Y-110540952D01*
X163298095Y-110588571D01*
X163345714Y-110683809D01*
X163345714Y-110921904D01*
X163298095Y-111017142D01*
X163250476Y-111064761D01*
X163155238Y-111112380D01*
X162917142Y-111112380D01*
X162821904Y-111064761D01*
X162774285Y-111017142D01*
X161274285Y-114852380D02*
X160798095Y-114852380D01*
X160750476Y-115328571D01*
X160798095Y-115280952D01*
X160893333Y-115233333D01*
X161131428Y-115233333D01*
X161226666Y-115280952D01*
X161274285Y-115328571D01*
X161321904Y-115423809D01*
X161321904Y-115661904D01*
X161274285Y-115757142D01*
X161226666Y-115804761D01*
X161131428Y-115852380D01*
X160893333Y-115852380D01*
X160798095Y-115804761D01*
X160750476Y-115757142D01*
X161940952Y-114852380D02*
X162036190Y-114852380D01*
X162131428Y-114900000D01*
X162179047Y-114947619D01*
X162226666Y-115042857D01*
X162274285Y-115233333D01*
X162274285Y-115471428D01*
X162226666Y-115661904D01*
X162179047Y-115757142D01*
X162131428Y-115804761D01*
X162036190Y-115852380D01*
X161940952Y-115852380D01*
X161845714Y-115804761D01*
X161798095Y-115757142D01*
X161750476Y-115661904D01*
X161702857Y-115471428D01*
X161702857Y-115233333D01*
X161750476Y-115042857D01*
X161798095Y-114947619D01*
X161845714Y-114900000D01*
X161940952Y-114852380D01*
X162893333Y-114852380D02*
X162988571Y-114852380D01*
X163083809Y-114900000D01*
X163131428Y-114947619D01*
X163179047Y-115042857D01*
X163226666Y-115233333D01*
X163226666Y-115471428D01*
X163179047Y-115661904D01*
X163131428Y-115757142D01*
X163083809Y-115804761D01*
X162988571Y-115852380D01*
X162893333Y-115852380D01*
X162798095Y-115804761D01*
X162750476Y-115757142D01*
X162702857Y-115661904D01*
X162655238Y-115471428D01*
X162655238Y-115233333D01*
X162702857Y-115042857D01*
X162750476Y-114947619D01*
X162798095Y-114900000D01*
X162893333Y-114852380D01*
X163607619Y-115852380D02*
X163845714Y-115852380D01*
X163845714Y-115661904D01*
X163750476Y-115614285D01*
X163655238Y-115519047D01*
X163607619Y-115376190D01*
X163607619Y-115138095D01*
X163655238Y-114995238D01*
X163750476Y-114900000D01*
X163893333Y-114852380D01*
X164083809Y-114852380D01*
X164226666Y-114900000D01*
X164321904Y-114995238D01*
X164369523Y-115138095D01*
X164369523Y-115376190D01*
X164321904Y-115519047D01*
X164226666Y-115614285D01*
X164131428Y-115661904D01*
X164131428Y-115852380D01*
X164369523Y-115852380D01*
X162393333Y-103492380D02*
X162060000Y-103016190D01*
X161821904Y-103492380D02*
X161821904Y-102492380D01*
X162202857Y-102492380D01*
X162298095Y-102540000D01*
X162345714Y-102587619D01*
X162393333Y-102682857D01*
X162393333Y-102825714D01*
X162345714Y-102920952D01*
X162298095Y-102968571D01*
X162202857Y-103016190D01*
X161821904Y-103016190D01*
X163250476Y-102825714D02*
X163250476Y-103492380D01*
X163012380Y-102444761D02*
X162774285Y-103159047D01*
X163393333Y-103159047D01*
X161274285Y-107232380D02*
X160798095Y-107232380D01*
X160750476Y-107708571D01*
X160798095Y-107660952D01*
X160893333Y-107613333D01*
X161131428Y-107613333D01*
X161226666Y-107660952D01*
X161274285Y-107708571D01*
X161321904Y-107803809D01*
X161321904Y-108041904D01*
X161274285Y-108137142D01*
X161226666Y-108184761D01*
X161131428Y-108232380D01*
X160893333Y-108232380D01*
X160798095Y-108184761D01*
X160750476Y-108137142D01*
X161940952Y-107232380D02*
X162036190Y-107232380D01*
X162131428Y-107280000D01*
X162179047Y-107327619D01*
X162226666Y-107422857D01*
X162274285Y-107613333D01*
X162274285Y-107851428D01*
X162226666Y-108041904D01*
X162179047Y-108137142D01*
X162131428Y-108184761D01*
X162036190Y-108232380D01*
X161940952Y-108232380D01*
X161845714Y-108184761D01*
X161798095Y-108137142D01*
X161750476Y-108041904D01*
X161702857Y-107851428D01*
X161702857Y-107613333D01*
X161750476Y-107422857D01*
X161798095Y-107327619D01*
X161845714Y-107280000D01*
X161940952Y-107232380D01*
X162893333Y-107232380D02*
X162988571Y-107232380D01*
X163083809Y-107280000D01*
X163131428Y-107327619D01*
X163179047Y-107422857D01*
X163226666Y-107613333D01*
X163226666Y-107851428D01*
X163179047Y-108041904D01*
X163131428Y-108137142D01*
X163083809Y-108184761D01*
X162988571Y-108232380D01*
X162893333Y-108232380D01*
X162798095Y-108184761D01*
X162750476Y-108137142D01*
X162702857Y-108041904D01*
X162655238Y-107851428D01*
X162655238Y-107613333D01*
X162702857Y-107422857D01*
X162750476Y-107327619D01*
X162798095Y-107280000D01*
X162893333Y-107232380D01*
X163607619Y-108232380D02*
X163845714Y-108232380D01*
X163845714Y-108041904D01*
X163750476Y-107994285D01*
X163655238Y-107899047D01*
X163607619Y-107756190D01*
X163607619Y-107518095D01*
X163655238Y-107375238D01*
X163750476Y-107280000D01*
X163893333Y-107232380D01*
X164083809Y-107232380D01*
X164226666Y-107280000D01*
X164321904Y-107375238D01*
X164369523Y-107518095D01*
X164369523Y-107756190D01*
X164321904Y-107899047D01*
X164226666Y-107994285D01*
X164131428Y-108041904D01*
X164131428Y-108232380D01*
X164369523Y-108232380D01*
X162393333Y-95872380D02*
X162060000Y-95396190D01*
X161821904Y-95872380D02*
X161821904Y-94872380D01*
X162202857Y-94872380D01*
X162298095Y-94920000D01*
X162345714Y-94967619D01*
X162393333Y-95062857D01*
X162393333Y-95205714D01*
X162345714Y-95300952D01*
X162298095Y-95348571D01*
X162202857Y-95396190D01*
X161821904Y-95396190D01*
X162726666Y-94872380D02*
X163345714Y-94872380D01*
X163012380Y-95253333D01*
X163155238Y-95253333D01*
X163250476Y-95300952D01*
X163298095Y-95348571D01*
X163345714Y-95443809D01*
X163345714Y-95681904D01*
X163298095Y-95777142D01*
X163250476Y-95824761D01*
X163155238Y-95872380D01*
X162869523Y-95872380D01*
X162774285Y-95824761D01*
X162726666Y-95777142D01*
X161274285Y-99612380D02*
X160798095Y-99612380D01*
X160750476Y-100088571D01*
X160798095Y-100040952D01*
X160893333Y-99993333D01*
X161131428Y-99993333D01*
X161226666Y-100040952D01*
X161274285Y-100088571D01*
X161321904Y-100183809D01*
X161321904Y-100421904D01*
X161274285Y-100517142D01*
X161226666Y-100564761D01*
X161131428Y-100612380D01*
X160893333Y-100612380D01*
X160798095Y-100564761D01*
X160750476Y-100517142D01*
X161940952Y-99612380D02*
X162036190Y-99612380D01*
X162131428Y-99660000D01*
X162179047Y-99707619D01*
X162226666Y-99802857D01*
X162274285Y-99993333D01*
X162274285Y-100231428D01*
X162226666Y-100421904D01*
X162179047Y-100517142D01*
X162131428Y-100564761D01*
X162036190Y-100612380D01*
X161940952Y-100612380D01*
X161845714Y-100564761D01*
X161798095Y-100517142D01*
X161750476Y-100421904D01*
X161702857Y-100231428D01*
X161702857Y-99993333D01*
X161750476Y-99802857D01*
X161798095Y-99707619D01*
X161845714Y-99660000D01*
X161940952Y-99612380D01*
X162893333Y-99612380D02*
X162988571Y-99612380D01*
X163083809Y-99660000D01*
X163131428Y-99707619D01*
X163179047Y-99802857D01*
X163226666Y-99993333D01*
X163226666Y-100231428D01*
X163179047Y-100421904D01*
X163131428Y-100517142D01*
X163083809Y-100564761D01*
X162988571Y-100612380D01*
X162893333Y-100612380D01*
X162798095Y-100564761D01*
X162750476Y-100517142D01*
X162702857Y-100421904D01*
X162655238Y-100231428D01*
X162655238Y-99993333D01*
X162702857Y-99802857D01*
X162750476Y-99707619D01*
X162798095Y-99660000D01*
X162893333Y-99612380D01*
X163607619Y-100612380D02*
X163845714Y-100612380D01*
X163845714Y-100421904D01*
X163750476Y-100374285D01*
X163655238Y-100279047D01*
X163607619Y-100136190D01*
X163607619Y-99898095D01*
X163655238Y-99755238D01*
X163750476Y-99660000D01*
X163893333Y-99612380D01*
X164083809Y-99612380D01*
X164226666Y-99660000D01*
X164321904Y-99755238D01*
X164369523Y-99898095D01*
X164369523Y-100136190D01*
X164321904Y-100279047D01*
X164226666Y-100374285D01*
X164131428Y-100421904D01*
X164131428Y-100612380D01*
X164369523Y-100612380D01*
X162393333Y-88252380D02*
X162060000Y-87776190D01*
X161821904Y-88252380D02*
X161821904Y-87252380D01*
X162202857Y-87252380D01*
X162298095Y-87300000D01*
X162345714Y-87347619D01*
X162393333Y-87442857D01*
X162393333Y-87585714D01*
X162345714Y-87680952D01*
X162298095Y-87728571D01*
X162202857Y-87776190D01*
X161821904Y-87776190D01*
X162774285Y-87347619D02*
X162821904Y-87300000D01*
X162917142Y-87252380D01*
X163155238Y-87252380D01*
X163250476Y-87300000D01*
X163298095Y-87347619D01*
X163345714Y-87442857D01*
X163345714Y-87538095D01*
X163298095Y-87680952D01*
X162726666Y-88252380D01*
X163345714Y-88252380D01*
X161274285Y-91992380D02*
X160798095Y-91992380D01*
X160750476Y-92468571D01*
X160798095Y-92420952D01*
X160893333Y-92373333D01*
X161131428Y-92373333D01*
X161226666Y-92420952D01*
X161274285Y-92468571D01*
X161321904Y-92563809D01*
X161321904Y-92801904D01*
X161274285Y-92897142D01*
X161226666Y-92944761D01*
X161131428Y-92992380D01*
X160893333Y-92992380D01*
X160798095Y-92944761D01*
X160750476Y-92897142D01*
X161940952Y-91992380D02*
X162036190Y-91992380D01*
X162131428Y-92040000D01*
X162179047Y-92087619D01*
X162226666Y-92182857D01*
X162274285Y-92373333D01*
X162274285Y-92611428D01*
X162226666Y-92801904D01*
X162179047Y-92897142D01*
X162131428Y-92944761D01*
X162036190Y-92992380D01*
X161940952Y-92992380D01*
X161845714Y-92944761D01*
X161798095Y-92897142D01*
X161750476Y-92801904D01*
X161702857Y-92611428D01*
X161702857Y-92373333D01*
X161750476Y-92182857D01*
X161798095Y-92087619D01*
X161845714Y-92040000D01*
X161940952Y-91992380D01*
X162893333Y-91992380D02*
X162988571Y-91992380D01*
X163083809Y-92040000D01*
X163131428Y-92087619D01*
X163179047Y-92182857D01*
X163226666Y-92373333D01*
X163226666Y-92611428D01*
X163179047Y-92801904D01*
X163131428Y-92897142D01*
X163083809Y-92944761D01*
X162988571Y-92992380D01*
X162893333Y-92992380D01*
X162798095Y-92944761D01*
X162750476Y-92897142D01*
X162702857Y-92801904D01*
X162655238Y-92611428D01*
X162655238Y-92373333D01*
X162702857Y-92182857D01*
X162750476Y-92087619D01*
X162798095Y-92040000D01*
X162893333Y-91992380D01*
X163607619Y-92992380D02*
X163845714Y-92992380D01*
X163845714Y-92801904D01*
X163750476Y-92754285D01*
X163655238Y-92659047D01*
X163607619Y-92516190D01*
X163607619Y-92278095D01*
X163655238Y-92135238D01*
X163750476Y-92040000D01*
X163893333Y-91992380D01*
X164083809Y-91992380D01*
X164226666Y-92040000D01*
X164321904Y-92135238D01*
X164369523Y-92278095D01*
X164369523Y-92516190D01*
X164321904Y-92659047D01*
X164226666Y-92754285D01*
X164131428Y-92801904D01*
X164131428Y-92992380D01*
X164369523Y-92992380D01*
X162393333Y-80632380D02*
X162060000Y-80156190D01*
X161821904Y-80632380D02*
X161821904Y-79632380D01*
X162202857Y-79632380D01*
X162298095Y-79680000D01*
X162345714Y-79727619D01*
X162393333Y-79822857D01*
X162393333Y-79965714D01*
X162345714Y-80060952D01*
X162298095Y-80108571D01*
X162202857Y-80156190D01*
X161821904Y-80156190D01*
X163345714Y-80632380D02*
X162774285Y-80632380D01*
X163060000Y-80632380D02*
X163060000Y-79632380D01*
X162964761Y-79775238D01*
X162869523Y-79870476D01*
X162774285Y-79918095D01*
X161274285Y-84372380D02*
X160798095Y-84372380D01*
X160750476Y-84848571D01*
X160798095Y-84800952D01*
X160893333Y-84753333D01*
X161131428Y-84753333D01*
X161226666Y-84800952D01*
X161274285Y-84848571D01*
X161321904Y-84943809D01*
X161321904Y-85181904D01*
X161274285Y-85277142D01*
X161226666Y-85324761D01*
X161131428Y-85372380D01*
X160893333Y-85372380D01*
X160798095Y-85324761D01*
X160750476Y-85277142D01*
X161940952Y-84372380D02*
X162036190Y-84372380D01*
X162131428Y-84420000D01*
X162179047Y-84467619D01*
X162226666Y-84562857D01*
X162274285Y-84753333D01*
X162274285Y-84991428D01*
X162226666Y-85181904D01*
X162179047Y-85277142D01*
X162131428Y-85324761D01*
X162036190Y-85372380D01*
X161940952Y-85372380D01*
X161845714Y-85324761D01*
X161798095Y-85277142D01*
X161750476Y-85181904D01*
X161702857Y-84991428D01*
X161702857Y-84753333D01*
X161750476Y-84562857D01*
X161798095Y-84467619D01*
X161845714Y-84420000D01*
X161940952Y-84372380D01*
X162893333Y-84372380D02*
X162988571Y-84372380D01*
X163083809Y-84420000D01*
X163131428Y-84467619D01*
X163179047Y-84562857D01*
X163226666Y-84753333D01*
X163226666Y-84991428D01*
X163179047Y-85181904D01*
X163131428Y-85277142D01*
X163083809Y-85324761D01*
X162988571Y-85372380D01*
X162893333Y-85372380D01*
X162798095Y-85324761D01*
X162750476Y-85277142D01*
X162702857Y-85181904D01*
X162655238Y-84991428D01*
X162655238Y-84753333D01*
X162702857Y-84562857D01*
X162750476Y-84467619D01*
X162798095Y-84420000D01*
X162893333Y-84372380D01*
X163607619Y-85372380D02*
X163845714Y-85372380D01*
X163845714Y-85181904D01*
X163750476Y-85134285D01*
X163655238Y-85039047D01*
X163607619Y-84896190D01*
X163607619Y-84658095D01*
X163655238Y-84515238D01*
X163750476Y-84420000D01*
X163893333Y-84372380D01*
X164083809Y-84372380D01*
X164226666Y-84420000D01*
X164321904Y-84515238D01*
X164369523Y-84658095D01*
X164369523Y-84896190D01*
X164321904Y-85039047D01*
X164226666Y-85134285D01*
X164131428Y-85181904D01*
X164131428Y-85372380D01*
X164369523Y-85372380D01*
X179311666Y-79732380D02*
X179311666Y-80446666D01*
X179264047Y-80589523D01*
X179168809Y-80684761D01*
X179025952Y-80732380D01*
X178930714Y-80732380D01*
X180216428Y-79732380D02*
X180025952Y-79732380D01*
X179930714Y-79780000D01*
X179883095Y-79827619D01*
X179787857Y-79970476D01*
X179740238Y-80160952D01*
X179740238Y-80541904D01*
X179787857Y-80637142D01*
X179835476Y-80684761D01*
X179930714Y-80732380D01*
X180121190Y-80732380D01*
X180216428Y-80684761D01*
X180264047Y-80637142D01*
X180311666Y-80541904D01*
X180311666Y-80303809D01*
X180264047Y-80208571D01*
X180216428Y-80160952D01*
X180121190Y-80113333D01*
X179930714Y-80113333D01*
X179835476Y-80160952D01*
X179787857Y-80208571D01*
X179740238Y-80303809D01*
X173406904Y-120784761D02*
X173549761Y-120832380D01*
X173787857Y-120832380D01*
X173883095Y-120784761D01*
X173930714Y-120737142D01*
X173978333Y-120641904D01*
X173978333Y-120546666D01*
X173930714Y-120451428D01*
X173883095Y-120403809D01*
X173787857Y-120356190D01*
X173597380Y-120308571D01*
X173502142Y-120260952D01*
X173454523Y-120213333D01*
X173406904Y-120118095D01*
X173406904Y-120022857D01*
X173454523Y-119927619D01*
X173502142Y-119880000D01*
X173597380Y-119832380D01*
X173835476Y-119832380D01*
X173978333Y-119880000D01*
X174787857Y-120784761D02*
X174692619Y-120832380D01*
X174502142Y-120832380D01*
X174406904Y-120784761D01*
X174359285Y-120689523D01*
X174359285Y-120308571D01*
X174406904Y-120213333D01*
X174502142Y-120165714D01*
X174692619Y-120165714D01*
X174787857Y-120213333D01*
X174835476Y-120308571D01*
X174835476Y-120403809D01*
X174359285Y-120499047D01*
X175264047Y-120832380D02*
X175264047Y-120165714D01*
X175264047Y-120356190D02*
X175311666Y-120260952D01*
X175359285Y-120213333D01*
X175454523Y-120165714D01*
X175549761Y-120165714D01*
X175787857Y-120165714D02*
X176025952Y-120832380D01*
X176264047Y-120165714D01*
X176787857Y-120832380D02*
X176692619Y-120784761D01*
X176645000Y-120737142D01*
X176597380Y-120641904D01*
X176597380Y-120356190D01*
X176645000Y-120260952D01*
X176692619Y-120213333D01*
X176787857Y-120165714D01*
X176930714Y-120165714D01*
X177025952Y-120213333D01*
X177073571Y-120260952D01*
X177121190Y-120356190D01*
X177121190Y-120641904D01*
X177073571Y-120737142D01*
X177025952Y-120784761D01*
X176930714Y-120832380D01*
X176787857Y-120832380D01*
X177549761Y-120451428D02*
X178311666Y-120451428D01*
X179359285Y-120737142D02*
X179311666Y-120784761D01*
X179168809Y-120832380D01*
X179073571Y-120832380D01*
X178930714Y-120784761D01*
X178835476Y-120689523D01*
X178787857Y-120594285D01*
X178740238Y-120403809D01*
X178740238Y-120260952D01*
X178787857Y-120070476D01*
X178835476Y-119975238D01*
X178930714Y-119880000D01*
X179073571Y-119832380D01*
X179168809Y-119832380D01*
X179311666Y-119880000D01*
X179359285Y-119927619D01*
X179930714Y-120832380D02*
X179835476Y-120784761D01*
X179787857Y-120737142D01*
X179740238Y-120641904D01*
X179740238Y-120356190D01*
X179787857Y-120260952D01*
X179835476Y-120213333D01*
X179930714Y-120165714D01*
X180073571Y-120165714D01*
X180168809Y-120213333D01*
X180216428Y-120260952D01*
X180264047Y-120356190D01*
X180264047Y-120641904D01*
X180216428Y-120737142D01*
X180168809Y-120784761D01*
X180073571Y-120832380D01*
X179930714Y-120832380D01*
X180692619Y-120165714D02*
X180692619Y-120832380D01*
X180692619Y-120260952D02*
X180740238Y-120213333D01*
X180835476Y-120165714D01*
X180978333Y-120165714D01*
X181073571Y-120213333D01*
X181121190Y-120308571D01*
X181121190Y-120832380D01*
X181597380Y-120165714D02*
X181597380Y-120832380D01*
X181597380Y-120260952D02*
X181645000Y-120213333D01*
X181740238Y-120165714D01*
X181883095Y-120165714D01*
X181978333Y-120213333D01*
X182025952Y-120308571D01*
X182025952Y-120832380D01*
X182883095Y-120784761D02*
X182787857Y-120832380D01*
X182597380Y-120832380D01*
X182502142Y-120784761D01*
X182454523Y-120689523D01*
X182454523Y-120308571D01*
X182502142Y-120213333D01*
X182597380Y-120165714D01*
X182787857Y-120165714D01*
X182883095Y-120213333D01*
X182930714Y-120308571D01*
X182930714Y-120403809D01*
X182454523Y-120499047D01*
X183787857Y-120784761D02*
X183692619Y-120832380D01*
X183502142Y-120832380D01*
X183406904Y-120784761D01*
X183359285Y-120737142D01*
X183311666Y-120641904D01*
X183311666Y-120356190D01*
X183359285Y-120260952D01*
X183406904Y-120213333D01*
X183502142Y-120165714D01*
X183692619Y-120165714D01*
X183787857Y-120213333D01*
X184073571Y-120165714D02*
X184454523Y-120165714D01*
X184216428Y-119832380D02*
X184216428Y-120689523D01*
X184264047Y-120784761D01*
X184359285Y-120832380D01*
X184454523Y-120832380D01*
X184930714Y-120832380D02*
X184835476Y-120784761D01*
X184787857Y-120737142D01*
X184740238Y-120641904D01*
X184740238Y-120356190D01*
X184787857Y-120260952D01*
X184835476Y-120213333D01*
X184930714Y-120165714D01*
X185073571Y-120165714D01*
X185168809Y-120213333D01*
X185216428Y-120260952D01*
X185264047Y-120356190D01*
X185264047Y-120641904D01*
X185216428Y-120737142D01*
X185168809Y-120784761D01*
X185073571Y-120832380D01*
X184930714Y-120832380D01*
X185692619Y-120832380D02*
X185692619Y-120165714D01*
X185692619Y-120356190D02*
X185740238Y-120260952D01*
X185787857Y-120213333D01*
X185883095Y-120165714D01*
X185978333Y-120165714D01*
X104956666Y-73112380D02*
X104956666Y-73826666D01*
X104909047Y-73969523D01*
X104813809Y-74064761D01*
X104670952Y-74112380D01*
X104575714Y-74112380D01*
X105909047Y-73112380D02*
X105432857Y-73112380D01*
X105385238Y-73588571D01*
X105432857Y-73540952D01*
X105528095Y-73493333D01*
X105766190Y-73493333D01*
X105861428Y-73540952D01*
X105909047Y-73588571D01*
X105956666Y-73683809D01*
X105956666Y-73921904D01*
X105909047Y-74017142D01*
X105861428Y-74064761D01*
X105766190Y-74112380D01*
X105528095Y-74112380D01*
X105432857Y-74064761D01*
X105385238Y-74017142D01*
X100432857Y-85522380D02*
X100432857Y-84522380D01*
X100909047Y-84855714D02*
X100909047Y-85522380D01*
X100909047Y-84950952D02*
X100956666Y-84903333D01*
X101051904Y-84855714D01*
X101194761Y-84855714D01*
X101290000Y-84903333D01*
X101337619Y-84998571D01*
X101337619Y-85522380D01*
X101670952Y-84855714D02*
X102051904Y-84855714D01*
X101813809Y-84522380D02*
X101813809Y-85379523D01*
X101861428Y-85474761D01*
X101956666Y-85522380D01*
X102051904Y-85522380D01*
X102766190Y-85474761D02*
X102670952Y-85522380D01*
X102480476Y-85522380D01*
X102385238Y-85474761D01*
X102337619Y-85379523D01*
X102337619Y-84998571D01*
X102385238Y-84903333D01*
X102480476Y-84855714D01*
X102670952Y-84855714D01*
X102766190Y-84903333D01*
X102813809Y-84998571D01*
X102813809Y-85093809D01*
X102337619Y-85189047D01*
X103242380Y-85522380D02*
X103242380Y-84855714D01*
X103242380Y-85046190D02*
X103290000Y-84950952D01*
X103337619Y-84903333D01*
X103432857Y-84855714D01*
X103528095Y-84855714D01*
X103861428Y-85522380D02*
X103861428Y-84855714D01*
X103861428Y-85046190D02*
X103909047Y-84950952D01*
X103956666Y-84903333D01*
X104051904Y-84855714D01*
X104147142Y-84855714D01*
X104909047Y-84855714D02*
X104909047Y-85522380D01*
X104480476Y-84855714D02*
X104480476Y-85379523D01*
X104528095Y-85474761D01*
X104623333Y-85522380D01*
X104766190Y-85522380D01*
X104861428Y-85474761D01*
X104909047Y-85427142D01*
X105385238Y-84855714D02*
X105385238Y-85855714D01*
X105385238Y-84903333D02*
X105480476Y-84855714D01*
X105670952Y-84855714D01*
X105766190Y-84903333D01*
X105813809Y-84950952D01*
X105861428Y-85046190D01*
X105861428Y-85331904D01*
X105813809Y-85427142D01*
X105766190Y-85474761D01*
X105670952Y-85522380D01*
X105480476Y-85522380D01*
X105385238Y-85474761D01*
X106147142Y-84855714D02*
X106528095Y-84855714D01*
X106290000Y-84522380D02*
X106290000Y-85379523D01*
X106337619Y-85474761D01*
X106432857Y-85522380D01*
X106528095Y-85522380D01*
X106861428Y-85141428D02*
X107623333Y-85141428D01*
X108290000Y-84522380D02*
X108480476Y-84522380D01*
X108575714Y-84570000D01*
X108670952Y-84665238D01*
X108718571Y-84855714D01*
X108718571Y-85189047D01*
X108670952Y-85379523D01*
X108575714Y-85474761D01*
X108480476Y-85522380D01*
X108290000Y-85522380D01*
X108194761Y-85474761D01*
X108099523Y-85379523D01*
X108051904Y-85189047D01*
X108051904Y-84855714D01*
X108099523Y-84665238D01*
X108194761Y-84570000D01*
X108290000Y-84522380D01*
X109575714Y-84855714D02*
X109575714Y-85522380D01*
X109147142Y-84855714D02*
X109147142Y-85379523D01*
X109194761Y-85474761D01*
X109290000Y-85522380D01*
X109432857Y-85522380D01*
X109528095Y-85474761D01*
X109575714Y-85427142D01*
X109909047Y-84855714D02*
X110290000Y-84855714D01*
X110051904Y-84522380D02*
X110051904Y-85379523D01*
X110099523Y-85474761D01*
X110194761Y-85522380D01*
X110290000Y-85522380D01*
X122856666Y-73112380D02*
X122856666Y-73826666D01*
X122809047Y-73969523D01*
X122713809Y-74064761D01*
X122570952Y-74112380D01*
X122475714Y-74112380D01*
X123761428Y-73445714D02*
X123761428Y-74112380D01*
X123523333Y-73064761D02*
X123285238Y-73779047D01*
X123904285Y-73779047D01*
X117340476Y-85522380D02*
X117340476Y-84522380D01*
X117721428Y-84522380D01*
X117816666Y-84570000D01*
X117864285Y-84617619D01*
X117911904Y-84712857D01*
X117911904Y-84855714D01*
X117864285Y-84950952D01*
X117816666Y-84998571D01*
X117721428Y-85046190D01*
X117340476Y-85046190D01*
X118483333Y-85522380D02*
X118388095Y-85474761D01*
X118340476Y-85427142D01*
X118292857Y-85331904D01*
X118292857Y-85046190D01*
X118340476Y-84950952D01*
X118388095Y-84903333D01*
X118483333Y-84855714D01*
X118626190Y-84855714D01*
X118721428Y-84903333D01*
X118769047Y-84950952D01*
X118816666Y-85046190D01*
X118816666Y-85331904D01*
X118769047Y-85427142D01*
X118721428Y-85474761D01*
X118626190Y-85522380D01*
X118483333Y-85522380D01*
X119150000Y-84855714D02*
X119340476Y-85522380D01*
X119530952Y-85046190D01*
X119721428Y-85522380D01*
X119911904Y-84855714D01*
X120673809Y-85474761D02*
X120578571Y-85522380D01*
X120388095Y-85522380D01*
X120292857Y-85474761D01*
X120245238Y-85379523D01*
X120245238Y-84998571D01*
X120292857Y-84903333D01*
X120388095Y-84855714D01*
X120578571Y-84855714D01*
X120673809Y-84903333D01*
X120721428Y-84998571D01*
X120721428Y-85093809D01*
X120245238Y-85189047D01*
X121150000Y-85522380D02*
X121150000Y-84855714D01*
X121150000Y-85046190D02*
X121197619Y-84950952D01*
X121245238Y-84903333D01*
X121340476Y-84855714D01*
X121435714Y-84855714D01*
X121769047Y-85141428D02*
X122530952Y-85141428D01*
X123007142Y-85522380D02*
X123007142Y-84522380D01*
X123483333Y-84855714D02*
X123483333Y-85522380D01*
X123483333Y-84950952D02*
X123530952Y-84903333D01*
X123626190Y-84855714D01*
X123769047Y-84855714D01*
X123864285Y-84903333D01*
X123911904Y-84998571D01*
X123911904Y-85522380D01*
X124245238Y-84855714D02*
X124626190Y-84855714D01*
X124388095Y-84522380D02*
X124388095Y-85379523D01*
X124435714Y-85474761D01*
X124530952Y-85522380D01*
X124626190Y-85522380D01*
X125340476Y-85474761D02*
X125245238Y-85522380D01*
X125054761Y-85522380D01*
X124959523Y-85474761D01*
X124911904Y-85379523D01*
X124911904Y-84998571D01*
X124959523Y-84903333D01*
X125054761Y-84855714D01*
X125245238Y-84855714D01*
X125340476Y-84903333D01*
X125388095Y-84998571D01*
X125388095Y-85093809D01*
X124911904Y-85189047D01*
X125816666Y-85522380D02*
X125816666Y-84855714D01*
X125816666Y-85046190D02*
X125864285Y-84950952D01*
X125911904Y-84903333D01*
X126007142Y-84855714D01*
X126102380Y-84855714D01*
X126435714Y-85522380D02*
X126435714Y-84855714D01*
X126435714Y-85046190D02*
X126483333Y-84950952D01*
X126530952Y-84903333D01*
X126626190Y-84855714D01*
X126721428Y-84855714D01*
X127483333Y-84855714D02*
X127483333Y-85522380D01*
X127054761Y-84855714D02*
X127054761Y-85379523D01*
X127102380Y-85474761D01*
X127197619Y-85522380D01*
X127340476Y-85522380D01*
X127435714Y-85474761D01*
X127483333Y-85427142D01*
X127959523Y-84855714D02*
X127959523Y-85855714D01*
X127959523Y-84903333D02*
X128054761Y-84855714D01*
X128245238Y-84855714D01*
X128340476Y-84903333D01*
X128388095Y-84950952D01*
X128435714Y-85046190D01*
X128435714Y-85331904D01*
X128388095Y-85427142D01*
X128340476Y-85474761D01*
X128245238Y-85522380D01*
X128054761Y-85522380D01*
X127959523Y-85474761D01*
X128721428Y-84855714D02*
X129102380Y-84855714D01*
X128864285Y-84522380D02*
X128864285Y-85379523D01*
X128911904Y-85474761D01*
X129007142Y-85522380D01*
X129102380Y-85522380D01*
X134086666Y-117562380D02*
X134086666Y-118276666D01*
X134039047Y-118419523D01*
X133943809Y-118514761D01*
X133800952Y-118562380D01*
X133705714Y-118562380D01*
X134467619Y-117562380D02*
X135086666Y-117562380D01*
X134753333Y-117943333D01*
X134896190Y-117943333D01*
X134991428Y-117990952D01*
X135039047Y-118038571D01*
X135086666Y-118133809D01*
X135086666Y-118371904D01*
X135039047Y-118467142D01*
X134991428Y-118514761D01*
X134896190Y-118562380D01*
X134610476Y-118562380D01*
X134515238Y-118514761D01*
X134467619Y-118467142D01*
X128199047Y-115974761D02*
X128341904Y-116022380D01*
X128580000Y-116022380D01*
X128675238Y-115974761D01*
X128722857Y-115927142D01*
X128770476Y-115831904D01*
X128770476Y-115736666D01*
X128722857Y-115641428D01*
X128675238Y-115593809D01*
X128580000Y-115546190D01*
X128389523Y-115498571D01*
X128294285Y-115450952D01*
X128246666Y-115403333D01*
X128199047Y-115308095D01*
X128199047Y-115212857D01*
X128246666Y-115117619D01*
X128294285Y-115070000D01*
X128389523Y-115022380D01*
X128627619Y-115022380D01*
X128770476Y-115070000D01*
X129580000Y-115974761D02*
X129484761Y-116022380D01*
X129294285Y-116022380D01*
X129199047Y-115974761D01*
X129151428Y-115879523D01*
X129151428Y-115498571D01*
X129199047Y-115403333D01*
X129294285Y-115355714D01*
X129484761Y-115355714D01*
X129580000Y-115403333D01*
X129627619Y-115498571D01*
X129627619Y-115593809D01*
X129151428Y-115689047D01*
X130056190Y-116022380D02*
X130056190Y-115355714D01*
X130056190Y-115546190D02*
X130103809Y-115450952D01*
X130151428Y-115403333D01*
X130246666Y-115355714D01*
X130341904Y-115355714D01*
X130580000Y-115355714D02*
X130818095Y-116022380D01*
X131056190Y-115355714D01*
X131580000Y-116022380D02*
X131484761Y-115974761D01*
X131437142Y-115927142D01*
X131389523Y-115831904D01*
X131389523Y-115546190D01*
X131437142Y-115450952D01*
X131484761Y-115403333D01*
X131580000Y-115355714D01*
X131722857Y-115355714D01*
X131818095Y-115403333D01*
X131865714Y-115450952D01*
X131913333Y-115546190D01*
X131913333Y-115831904D01*
X131865714Y-115927142D01*
X131818095Y-115974761D01*
X131722857Y-116022380D01*
X131580000Y-116022380D01*
X133103809Y-116022380D02*
X133103809Y-115022380D01*
X133484761Y-115022380D01*
X133580000Y-115070000D01*
X133627619Y-115117619D01*
X133675238Y-115212857D01*
X133675238Y-115355714D01*
X133627619Y-115450952D01*
X133580000Y-115498571D01*
X133484761Y-115546190D01*
X133103809Y-115546190D01*
X134008571Y-115022380D02*
X134246666Y-116022380D01*
X134437142Y-115308095D01*
X134627619Y-116022380D01*
X134865714Y-115022380D01*
X135246666Y-116022380D02*
X135246666Y-115022380D01*
X135580000Y-115736666D01*
X135913333Y-115022380D01*
X135913333Y-116022380D01*
X105076666Y-117562380D02*
X105076666Y-118276666D01*
X105029047Y-118419523D01*
X104933809Y-118514761D01*
X104790952Y-118562380D01*
X104695714Y-118562380D01*
X105505238Y-117657619D02*
X105552857Y-117610000D01*
X105648095Y-117562380D01*
X105886190Y-117562380D01*
X105981428Y-117610000D01*
X106029047Y-117657619D01*
X106076666Y-117752857D01*
X106076666Y-117848095D01*
X106029047Y-117990952D01*
X105457619Y-118562380D01*
X106076666Y-118562380D01*
X101124285Y-116022380D02*
X101124285Y-115022380D01*
X101600476Y-115355714D02*
X101600476Y-116022380D01*
X101600476Y-115450952D02*
X101648095Y-115403333D01*
X101743333Y-115355714D01*
X101886190Y-115355714D01*
X101981428Y-115403333D01*
X102029047Y-115498571D01*
X102029047Y-116022380D01*
X102362380Y-115355714D02*
X102743333Y-115355714D01*
X102505238Y-115022380D02*
X102505238Y-115879523D01*
X102552857Y-115974761D01*
X102648095Y-116022380D01*
X102743333Y-116022380D01*
X103457619Y-115974761D02*
X103362380Y-116022380D01*
X103171904Y-116022380D01*
X103076666Y-115974761D01*
X103029047Y-115879523D01*
X103029047Y-115498571D01*
X103076666Y-115403333D01*
X103171904Y-115355714D01*
X103362380Y-115355714D01*
X103457619Y-115403333D01*
X103505238Y-115498571D01*
X103505238Y-115593809D01*
X103029047Y-115689047D01*
X103933809Y-116022380D02*
X103933809Y-115355714D01*
X103933809Y-115546190D02*
X103981428Y-115450952D01*
X104029047Y-115403333D01*
X104124285Y-115355714D01*
X104219523Y-115355714D01*
X104552857Y-116022380D02*
X104552857Y-115355714D01*
X104552857Y-115546190D02*
X104600476Y-115450952D01*
X104648095Y-115403333D01*
X104743333Y-115355714D01*
X104838571Y-115355714D01*
X105600476Y-115355714D02*
X105600476Y-116022380D01*
X105171904Y-115355714D02*
X105171904Y-115879523D01*
X105219523Y-115974761D01*
X105314761Y-116022380D01*
X105457619Y-116022380D01*
X105552857Y-115974761D01*
X105600476Y-115927142D01*
X106076666Y-115355714D02*
X106076666Y-116355714D01*
X106076666Y-115403333D02*
X106171904Y-115355714D01*
X106362380Y-115355714D01*
X106457619Y-115403333D01*
X106505238Y-115450952D01*
X106552857Y-115546190D01*
X106552857Y-115831904D01*
X106505238Y-115927142D01*
X106457619Y-115974761D01*
X106362380Y-116022380D01*
X106171904Y-116022380D01*
X106076666Y-115974761D01*
X106838571Y-115355714D02*
X107219523Y-115355714D01*
X106981428Y-115022380D02*
X106981428Y-115879523D01*
X107029047Y-115974761D01*
X107124285Y-116022380D01*
X107219523Y-116022380D01*
X107552857Y-115641428D02*
X108314761Y-115641428D01*
X108790952Y-116022380D02*
X108790952Y-115022380D01*
X109267142Y-115355714D02*
X109267142Y-116022380D01*
X109267142Y-115450952D02*
X109314761Y-115403333D01*
X109410000Y-115355714D01*
X109552857Y-115355714D01*
X109648095Y-115403333D01*
X109695714Y-115498571D01*
X109695714Y-116022380D01*
X158416666Y-117562380D02*
X158416666Y-118276666D01*
X158369047Y-118419523D01*
X158273809Y-118514761D01*
X158130952Y-118562380D01*
X158035714Y-118562380D01*
X159416666Y-118562380D02*
X158845238Y-118562380D01*
X159130952Y-118562380D02*
X159130952Y-117562380D01*
X159035714Y-117705238D01*
X158940476Y-117800476D01*
X158845238Y-117848095D01*
X154233809Y-116022380D02*
X154233809Y-115022380D01*
X154614761Y-115022380D01*
X154710000Y-115070000D01*
X154757619Y-115117619D01*
X154805238Y-115212857D01*
X154805238Y-115355714D01*
X154757619Y-115450952D01*
X154710000Y-115498571D01*
X154614761Y-115546190D01*
X154233809Y-115546190D01*
X155376666Y-116022380D02*
X155281428Y-115974761D01*
X155233809Y-115927142D01*
X155186190Y-115831904D01*
X155186190Y-115546190D01*
X155233809Y-115450952D01*
X155281428Y-115403333D01*
X155376666Y-115355714D01*
X155519523Y-115355714D01*
X155614761Y-115403333D01*
X155662380Y-115450952D01*
X155710000Y-115546190D01*
X155710000Y-115831904D01*
X155662380Y-115927142D01*
X155614761Y-115974761D01*
X155519523Y-116022380D01*
X155376666Y-116022380D01*
X156043333Y-115355714D02*
X156233809Y-116022380D01*
X156424285Y-115546190D01*
X156614761Y-116022380D01*
X156805238Y-115355714D01*
X157567142Y-115974761D02*
X157471904Y-116022380D01*
X157281428Y-116022380D01*
X157186190Y-115974761D01*
X157138571Y-115879523D01*
X157138571Y-115498571D01*
X157186190Y-115403333D01*
X157281428Y-115355714D01*
X157471904Y-115355714D01*
X157567142Y-115403333D01*
X157614761Y-115498571D01*
X157614761Y-115593809D01*
X157138571Y-115689047D01*
X158043333Y-116022380D02*
X158043333Y-115355714D01*
X158043333Y-115546190D02*
X158090952Y-115450952D01*
X158138571Y-115403333D01*
X158233809Y-115355714D01*
X158329047Y-115355714D01*
X151661904Y-115417380D02*
X151661904Y-114417380D01*
X151900000Y-114417380D01*
X152042857Y-114465000D01*
X152138095Y-114560238D01*
X152185714Y-114655476D01*
X152233333Y-114845952D01*
X152233333Y-114988809D01*
X152185714Y-115179285D01*
X152138095Y-115274523D01*
X152042857Y-115369761D01*
X151900000Y-115417380D01*
X151661904Y-115417380D01*
X153138095Y-114417380D02*
X152661904Y-114417380D01*
X152614285Y-114893571D01*
X152661904Y-114845952D01*
X152757142Y-114798333D01*
X152995238Y-114798333D01*
X153090476Y-114845952D01*
X153138095Y-114893571D01*
X153185714Y-114988809D01*
X153185714Y-115226904D01*
X153138095Y-115322142D01*
X153090476Y-115369761D01*
X152995238Y-115417380D01*
X152757142Y-115417380D01*
X152661904Y-115369761D01*
X152614285Y-115322142D01*
X151661904Y-107797380D02*
X151661904Y-106797380D01*
X151900000Y-106797380D01*
X152042857Y-106845000D01*
X152138095Y-106940238D01*
X152185714Y-107035476D01*
X152233333Y-107225952D01*
X152233333Y-107368809D01*
X152185714Y-107559285D01*
X152138095Y-107654523D01*
X152042857Y-107749761D01*
X151900000Y-107797380D01*
X151661904Y-107797380D01*
X153090476Y-107130714D02*
X153090476Y-107797380D01*
X152852380Y-106749761D02*
X152614285Y-107464047D01*
X153233333Y-107464047D01*
X151661904Y-100177380D02*
X151661904Y-99177380D01*
X151900000Y-99177380D01*
X152042857Y-99225000D01*
X152138095Y-99320238D01*
X152185714Y-99415476D01*
X152233333Y-99605952D01*
X152233333Y-99748809D01*
X152185714Y-99939285D01*
X152138095Y-100034523D01*
X152042857Y-100129761D01*
X151900000Y-100177380D01*
X151661904Y-100177380D01*
X152566666Y-99177380D02*
X153185714Y-99177380D01*
X152852380Y-99558333D01*
X152995238Y-99558333D01*
X153090476Y-99605952D01*
X153138095Y-99653571D01*
X153185714Y-99748809D01*
X153185714Y-99986904D01*
X153138095Y-100082142D01*
X153090476Y-100129761D01*
X152995238Y-100177380D01*
X152709523Y-100177380D01*
X152614285Y-100129761D01*
X152566666Y-100082142D01*
X151661904Y-92557380D02*
X151661904Y-91557380D01*
X151900000Y-91557380D01*
X152042857Y-91605000D01*
X152138095Y-91700238D01*
X152185714Y-91795476D01*
X152233333Y-91985952D01*
X152233333Y-92128809D01*
X152185714Y-92319285D01*
X152138095Y-92414523D01*
X152042857Y-92509761D01*
X151900000Y-92557380D01*
X151661904Y-92557380D01*
X152614285Y-91652619D02*
X152661904Y-91605000D01*
X152757142Y-91557380D01*
X152995238Y-91557380D01*
X153090476Y-91605000D01*
X153138095Y-91652619D01*
X153185714Y-91747857D01*
X153185714Y-91843095D01*
X153138095Y-91985952D01*
X152566666Y-92557380D01*
X153185714Y-92557380D01*
X151661904Y-84937380D02*
X151661904Y-83937380D01*
X151900000Y-83937380D01*
X152042857Y-83985000D01*
X152138095Y-84080238D01*
X152185714Y-84175476D01*
X152233333Y-84365952D01*
X152233333Y-84508809D01*
X152185714Y-84699285D01*
X152138095Y-84794523D01*
X152042857Y-84889761D01*
X151900000Y-84937380D01*
X151661904Y-84937380D01*
X153185714Y-84937380D02*
X152614285Y-84937380D01*
X152900000Y-84937380D02*
X152900000Y-83937380D01*
X152804761Y-84080238D01*
X152709523Y-84175476D01*
X152614285Y-84223095D01*
M02*
